<?xml version="1.0" encoding="utf-8" standalone="no"?>
<!DOCTYPE svg PUBLIC "-//W3C//DTD SVG 1.1//EN"
  "http://www.w3.org/Graphics/SVG/1.1/DTD/svg11.dtd">
<svg xmlns:xlink="http://www.w3.org/1999/xlink" width="640.46125pt" height="351.034375pt" viewBox="0 0 640.46125 351.034375" xmlns="http://www.w3.org/2000/svg" version="1.1">
 <metadata>
  <rdf:RDF xmlns:dc="http://purl.org/dc/elements/1.1/" xmlns:cc="http://creativecommons.org/ns#" xmlns:rdf="http://www.w3.org/1999/02/22-rdf-syntax-ns#">
   <cc:Work>
    <dc:type rdf:resource="http://purl.org/dc/dcmitype/StillImage"/>
    <dc:date>2026-03-24T20:16:09.529194</dc:date>
    <dc:format>image/svg+xml</dc:format>
    <dc:creator>
     <cc:Agent>
      <dc:title>Matplotlib v3.10.8, https://matplotlib.org/</dc:title>
     </cc:Agent>
    </dc:creator>
   </cc:Work>
  </rdf:RDF>
 </metadata>
 <defs>
  <style type="text/css">*{stroke-linejoin: round; stroke-linecap: butt}</style>
 </defs>
 <g id="figure_1">
  <g id="patch_1">
   <path d="M 0 351.034375 
L 640.46125 351.034375 
L 640.46125 0 
L 0 0 
z
" style="fill: #ffffff"/>
  </g>
  <g id="axes_1">
   <g id="patch_2">
    <path d="M 43.78125 313.478125 
L 633.26125 313.478125 
L 633.26125 22.318125 
L 43.78125 22.318125 
z
" style="fill: #ffffff"/>
   </g>
   <g id="matplotlib.axis_1">
    <g id="xtick_1">
     <g id="line2d_1">
      <defs>
       <path id="m54650790ae" d="M 0 0 
L 0 3.5 
" style="stroke: #000000; stroke-width: 0.8"/>
      </defs>
      <g>
       <use xlink:href="#m54650790ae" x="70.575097" y="313.478125" style="stroke: #000000; stroke-width: 0.8"/>
      </g>
     </g>
     <g id="text_1">
      <!-- 0 -->
      <g transform="translate(67.393847 328.076563) scale(0.1 -0.1)">
       <defs>
        <path id="DejaVuSans-30" d="M 2034 4250 
Q 1547 4250 1301 3770 
Q 1056 3291 1056 2328 
Q 1056 1369 1301 889 
Q 1547 409 2034 409 
Q 2525 409 2770 889 
Q 3016 1369 3016 2328 
Q 3016 3291 2770 3770 
Q 2525 4250 2034 4250 
z
M 2034 4750 
Q 2819 4750 3233 4129 
Q 3647 3509 3647 2328 
Q 3647 1150 3233 529 
Q 2819 -91 2034 -91 
Q 1250 -91 836 529 
Q 422 1150 422 2328 
Q 422 3509 836 4129 
Q 1250 4750 2034 4750 
z
" transform="scale(0.015625)"/>
       </defs>
       <use xlink:href="#DejaVuSans-30"/>
      </g>
     </g>
    </g>
    <g id="xtick_2">
     <g id="line2d_2">
      <g>
       <use xlink:href="#m54650790ae" x="171.109754" y="313.478125" style="stroke: #000000; stroke-width: 0.8"/>
      </g>
     </g>
     <g id="text_2">
      <!-- 100 -->
      <g transform="translate(161.566004 328.076563) scale(0.1 -0.1)">
       <defs>
        <path id="DejaVuSans-31" d="M 794 531 
L 1825 531 
L 1825 4091 
L 703 3866 
L 703 4441 
L 1819 4666 
L 2450 4666 
L 2450 531 
L 3481 531 
L 3481 0 
L 794 0 
L 794 531 
z
" transform="scale(0.015625)"/>
       </defs>
       <use xlink:href="#DejaVuSans-31"/>
       <use xlink:href="#DejaVuSans-30" transform="translate(63.623047 0)"/>
       <use xlink:href="#DejaVuSans-30" transform="translate(127.246094 0)"/>
      </g>
     </g>
    </g>
    <g id="xtick_3">
     <g id="line2d_3">
      <g>
       <use xlink:href="#m54650790ae" x="271.64441" y="313.478125" style="stroke: #000000; stroke-width: 0.8"/>
      </g>
     </g>
     <g id="text_3">
      <!-- 200 -->
      <g transform="translate(262.10066 328.076563) scale(0.1 -0.1)">
       <defs>
        <path id="DejaVuSans-32" d="M 1228 531 
L 3431 531 
L 3431 0 
L 469 0 
L 469 531 
Q 828 903 1448 1529 
Q 2069 2156 2228 2338 
Q 2531 2678 2651 2914 
Q 2772 3150 2772 3378 
Q 2772 3750 2511 3984 
Q 2250 4219 1831 4219 
Q 1534 4219 1204 4116 
Q 875 4013 500 3803 
L 500 4441 
Q 881 4594 1212 4672 
Q 1544 4750 1819 4750 
Q 2544 4750 2975 4387 
Q 3406 4025 3406 3419 
Q 3406 3131 3298 2873 
Q 3191 2616 2906 2266 
Q 2828 2175 2409 1742 
Q 1991 1309 1228 531 
z
" transform="scale(0.015625)"/>
       </defs>
       <use xlink:href="#DejaVuSans-32"/>
       <use xlink:href="#DejaVuSans-30" transform="translate(63.623047 0)"/>
       <use xlink:href="#DejaVuSans-30" transform="translate(127.246094 0)"/>
      </g>
     </g>
    </g>
    <g id="xtick_4">
     <g id="line2d_4">
      <g>
       <use xlink:href="#m54650790ae" x="372.179066" y="313.478125" style="stroke: #000000; stroke-width: 0.8"/>
      </g>
     </g>
     <g id="text_4">
      <!-- 300 -->
      <g transform="translate(362.635316 328.076563) scale(0.1 -0.1)">
       <defs>
        <path id="DejaVuSans-33" d="M 2597 2516 
Q 3050 2419 3304 2112 
Q 3559 1806 3559 1356 
Q 3559 666 3084 287 
Q 2609 -91 1734 -91 
Q 1441 -91 1130 -33 
Q 819 25 488 141 
L 488 750 
Q 750 597 1062 519 
Q 1375 441 1716 441 
Q 2309 441 2620 675 
Q 2931 909 2931 1356 
Q 2931 1769 2642 2001 
Q 2353 2234 1838 2234 
L 1294 2234 
L 1294 2753 
L 1863 2753 
Q 2328 2753 2575 2939 
Q 2822 3125 2822 3475 
Q 2822 3834 2567 4026 
Q 2313 4219 1838 4219 
Q 1578 4219 1281 4162 
Q 984 4106 628 3988 
L 628 4550 
Q 988 4650 1302 4700 
Q 1616 4750 1894 4750 
Q 2613 4750 3031 4423 
Q 3450 4097 3450 3541 
Q 3450 3153 3228 2886 
Q 3006 2619 2597 2516 
z
" transform="scale(0.015625)"/>
       </defs>
       <use xlink:href="#DejaVuSans-33"/>
       <use xlink:href="#DejaVuSans-30" transform="translate(63.623047 0)"/>
       <use xlink:href="#DejaVuSans-30" transform="translate(127.246094 0)"/>
      </g>
     </g>
    </g>
    <g id="xtick_5">
     <g id="line2d_5">
      <g>
       <use xlink:href="#m54650790ae" x="472.713722" y="313.478125" style="stroke: #000000; stroke-width: 0.8"/>
      </g>
     </g>
     <g id="text_5">
      <!-- 400 -->
      <g transform="translate(463.169972 328.076563) scale(0.1 -0.1)">
       <defs>
        <path id="DejaVuSans-34" d="M 2419 4116 
L 825 1625 
L 2419 1625 
L 2419 4116 
z
M 2253 4666 
L 3047 4666 
L 3047 1625 
L 3713 1625 
L 3713 1100 
L 3047 1100 
L 3047 0 
L 2419 0 
L 2419 1100 
L 313 1100 
L 313 1709 
L 2253 4666 
z
" transform="scale(0.015625)"/>
       </defs>
       <use xlink:href="#DejaVuSans-34"/>
       <use xlink:href="#DejaVuSans-30" transform="translate(63.623047 0)"/>
       <use xlink:href="#DejaVuSans-30" transform="translate(127.246094 0)"/>
      </g>
     </g>
    </g>
    <g id="xtick_6">
     <g id="line2d_6">
      <g>
       <use xlink:href="#m54650790ae" x="573.248379" y="313.478125" style="stroke: #000000; stroke-width: 0.8"/>
      </g>
     </g>
     <g id="text_6">
      <!-- 500 -->
      <g transform="translate(563.704629 328.076563) scale(0.1 -0.1)">
       <defs>
        <path id="DejaVuSans-35" d="M 691 4666 
L 3169 4666 
L 3169 4134 
L 1269 4134 
L 1269 2991 
Q 1406 3038 1543 3061 
Q 1681 3084 1819 3084 
Q 2600 3084 3056 2656 
Q 3513 2228 3513 1497 
Q 3513 744 3044 326 
Q 2575 -91 1722 -91 
Q 1428 -91 1123 -41 
Q 819 9 494 109 
L 494 744 
Q 775 591 1075 516 
Q 1375 441 1709 441 
Q 2250 441 2565 725 
Q 2881 1009 2881 1497 
Q 2881 1984 2565 2268 
Q 2250 2553 1709 2553 
Q 1456 2553 1204 2497 
Q 953 2441 691 2322 
L 691 4666 
z
" transform="scale(0.015625)"/>
       </defs>
       <use xlink:href="#DejaVuSans-35"/>
       <use xlink:href="#DejaVuSans-30" transform="translate(63.623047 0)"/>
       <use xlink:href="#DejaVuSans-30" transform="translate(127.246094 0)"/>
      </g>
     </g>
    </g>
    <g id="text_7">
     <!-- Cycle Time (days) -->
     <g transform="translate(293.74 341.754687) scale(0.1 -0.1)">
      <defs>
       <path id="DejaVuSans-43" d="M 4122 4306 
L 4122 3641 
Q 3803 3938 3442 4084 
Q 3081 4231 2675 4231 
Q 1875 4231 1450 3742 
Q 1025 3253 1025 2328 
Q 1025 1406 1450 917 
Q 1875 428 2675 428 
Q 3081 428 3442 575 
Q 3803 722 4122 1019 
L 4122 359 
Q 3791 134 3420 21 
Q 3050 -91 2638 -91 
Q 1578 -91 968 557 
Q 359 1206 359 2328 
Q 359 3453 968 4101 
Q 1578 4750 2638 4750 
Q 3056 4750 3426 4639 
Q 3797 4528 4122 4306 
z
" transform="scale(0.015625)"/>
       <path id="DejaVuSans-79" d="M 2059 -325 
Q 1816 -950 1584 -1140 
Q 1353 -1331 966 -1331 
L 506 -1331 
L 506 -850 
L 844 -850 
Q 1081 -850 1212 -737 
Q 1344 -625 1503 -206 
L 1606 56 
L 191 3500 
L 800 3500 
L 1894 763 
L 2988 3500 
L 3597 3500 
L 2059 -325 
z
" transform="scale(0.015625)"/>
       <path id="DejaVuSans-63" d="M 3122 3366 
L 3122 2828 
Q 2878 2963 2633 3030 
Q 2388 3097 2138 3097 
Q 1578 3097 1268 2742 
Q 959 2388 959 1747 
Q 959 1106 1268 751 
Q 1578 397 2138 397 
Q 2388 397 2633 464 
Q 2878 531 3122 666 
L 3122 134 
Q 2881 22 2623 -34 
Q 2366 -91 2075 -91 
Q 1284 -91 818 406 
Q 353 903 353 1747 
Q 353 2603 823 3093 
Q 1294 3584 2113 3584 
Q 2378 3584 2631 3529 
Q 2884 3475 3122 3366 
z
" transform="scale(0.015625)"/>
       <path id="DejaVuSans-6c" d="M 603 4863 
L 1178 4863 
L 1178 0 
L 603 0 
L 603 4863 
z
" transform="scale(0.015625)"/>
       <path id="DejaVuSans-65" d="M 3597 1894 
L 3597 1613 
L 953 1613 
Q 991 1019 1311 708 
Q 1631 397 2203 397 
Q 2534 397 2845 478 
Q 3156 559 3463 722 
L 3463 178 
Q 3153 47 2828 -22 
Q 2503 -91 2169 -91 
Q 1331 -91 842 396 
Q 353 884 353 1716 
Q 353 2575 817 3079 
Q 1281 3584 2069 3584 
Q 2775 3584 3186 3129 
Q 3597 2675 3597 1894 
z
M 3022 2063 
Q 3016 2534 2758 2815 
Q 2500 3097 2075 3097 
Q 1594 3097 1305 2825 
Q 1016 2553 972 2059 
L 3022 2063 
z
" transform="scale(0.015625)"/>
       <path id="DejaVuSans-20" transform="scale(0.015625)"/>
       <path id="DejaVuSans-54" d="M -19 4666 
L 3928 4666 
L 3928 4134 
L 2272 4134 
L 2272 0 
L 1638 0 
L 1638 4134 
L -19 4134 
L -19 4666 
z
" transform="scale(0.015625)"/>
       <path id="DejaVuSans-69" d="M 603 3500 
L 1178 3500 
L 1178 0 
L 603 0 
L 603 3500 
z
M 603 4863 
L 1178 4863 
L 1178 4134 
L 603 4134 
L 603 4863 
z
" transform="scale(0.015625)"/>
       <path id="DejaVuSans-6d" d="M 3328 2828 
Q 3544 3216 3844 3400 
Q 4144 3584 4550 3584 
Q 5097 3584 5394 3201 
Q 5691 2819 5691 2113 
L 5691 0 
L 5113 0 
L 5113 2094 
Q 5113 2597 4934 2840 
Q 4756 3084 4391 3084 
Q 3944 3084 3684 2787 
Q 3425 2491 3425 1978 
L 3425 0 
L 2847 0 
L 2847 2094 
Q 2847 2600 2669 2842 
Q 2491 3084 2119 3084 
Q 1678 3084 1418 2786 
Q 1159 2488 1159 1978 
L 1159 0 
L 581 0 
L 581 3500 
L 1159 3500 
L 1159 2956 
Q 1356 3278 1631 3431 
Q 1906 3584 2284 3584 
Q 2666 3584 2933 3390 
Q 3200 3197 3328 2828 
z
" transform="scale(0.015625)"/>
       <path id="DejaVuSans-28" d="M 1984 4856 
Q 1566 4138 1362 3434 
Q 1159 2731 1159 2009 
Q 1159 1288 1364 580 
Q 1569 -128 1984 -844 
L 1484 -844 
Q 1016 -109 783 600 
Q 550 1309 550 2009 
Q 550 2706 781 3412 
Q 1013 4119 1484 4856 
L 1984 4856 
z
" transform="scale(0.015625)"/>
       <path id="DejaVuSans-64" d="M 2906 2969 
L 2906 4863 
L 3481 4863 
L 3481 0 
L 2906 0 
L 2906 525 
Q 2725 213 2448 61 
Q 2172 -91 1784 -91 
Q 1150 -91 751 415 
Q 353 922 353 1747 
Q 353 2572 751 3078 
Q 1150 3584 1784 3584 
Q 2172 3584 2448 3432 
Q 2725 3281 2906 2969 
z
M 947 1747 
Q 947 1113 1208 752 
Q 1469 391 1925 391 
Q 2381 391 2643 752 
Q 2906 1113 2906 1747 
Q 2906 2381 2643 2742 
Q 2381 3103 1925 3103 
Q 1469 3103 1208 2742 
Q 947 2381 947 1747 
z
" transform="scale(0.015625)"/>
       <path id="DejaVuSans-61" d="M 2194 1759 
Q 1497 1759 1228 1600 
Q 959 1441 959 1056 
Q 959 750 1161 570 
Q 1363 391 1709 391 
Q 2188 391 2477 730 
Q 2766 1069 2766 1631 
L 2766 1759 
L 2194 1759 
z
M 3341 1997 
L 3341 0 
L 2766 0 
L 2766 531 
Q 2569 213 2275 61 
Q 1981 -91 1556 -91 
Q 1019 -91 701 211 
Q 384 513 384 1019 
Q 384 1609 779 1909 
Q 1175 2209 1959 2209 
L 2766 2209 
L 2766 2266 
Q 2766 2663 2505 2880 
Q 2244 3097 1772 3097 
Q 1472 3097 1187 3025 
Q 903 2953 641 2809 
L 641 3341 
Q 956 3463 1253 3523 
Q 1550 3584 1831 3584 
Q 2591 3584 2966 3190 
Q 3341 2797 3341 1997 
z
" transform="scale(0.015625)"/>
       <path id="DejaVuSans-73" d="M 2834 3397 
L 2834 2853 
Q 2591 2978 2328 3040 
Q 2066 3103 1784 3103 
Q 1356 3103 1142 2972 
Q 928 2841 928 2578 
Q 928 2378 1081 2264 
Q 1234 2150 1697 2047 
L 1894 2003 
Q 2506 1872 2764 1633 
Q 3022 1394 3022 966 
Q 3022 478 2636 193 
Q 2250 -91 1575 -91 
Q 1294 -91 989 -36 
Q 684 19 347 128 
L 347 722 
Q 666 556 975 473 
Q 1284 391 1588 391 
Q 1994 391 2212 530 
Q 2431 669 2431 922 
Q 2431 1156 2273 1281 
Q 2116 1406 1581 1522 
L 1381 1569 
Q 847 1681 609 1914 
Q 372 2147 372 2553 
Q 372 3047 722 3315 
Q 1072 3584 1716 3584 
Q 2034 3584 2315 3537 
Q 2597 3491 2834 3397 
z
" transform="scale(0.015625)"/>
       <path id="DejaVuSans-29" d="M 513 4856 
L 1013 4856 
Q 1481 4119 1714 3412 
Q 1947 2706 1947 2009 
Q 1947 1309 1714 600 
Q 1481 -109 1013 -844 
L 513 -844 
Q 928 -128 1133 580 
Q 1338 1288 1338 2009 
Q 1338 2731 1133 3434 
Q 928 4138 513 4856 
z
" transform="scale(0.015625)"/>
      </defs>
      <use xlink:href="#DejaVuSans-43"/>
      <use xlink:href="#DejaVuSans-79" transform="translate(69.824219 0)"/>
      <use xlink:href="#DejaVuSans-63" transform="translate(129.003906 0)"/>
      <use xlink:href="#DejaVuSans-6c" transform="translate(183.984375 0)"/>
      <use xlink:href="#DejaVuSans-65" transform="translate(211.767578 0)"/>
      <use xlink:href="#DejaVuSans-20" transform="translate(273.291016 0)"/>
      <use xlink:href="#DejaVuSans-54" transform="translate(305.078125 0)"/>
      <use xlink:href="#DejaVuSans-69" transform="translate(363.037109 0)"/>
      <use xlink:href="#DejaVuSans-6d" transform="translate(390.820312 0)"/>
      <use xlink:href="#DejaVuSans-65" transform="translate(488.232422 0)"/>
      <use xlink:href="#DejaVuSans-20" transform="translate(549.755859 0)"/>
      <use xlink:href="#DejaVuSans-28" transform="translate(581.542969 0)"/>
      <use xlink:href="#DejaVuSans-64" transform="translate(620.556641 0)"/>
      <use xlink:href="#DejaVuSans-61" transform="translate(684.033203 0)"/>
      <use xlink:href="#DejaVuSans-79" transform="translate(745.3125 0)"/>
      <use xlink:href="#DejaVuSans-73" transform="translate(804.492188 0)"/>
      <use xlink:href="#DejaVuSans-29" transform="translate(856.591797 0)"/>
     </g>
    </g>
   </g>
   <g id="matplotlib.axis_2">
    <g id="ytick_1">
     <g id="line2d_7">
      <defs>
       <path id="m4938ba257f" d="M 0 0 
L -3.5 0 
" style="stroke: #000000; stroke-width: 0.8"/>
      </defs>
      <g>
       <use xlink:href="#m4938ba257f" x="43.78125" y="300.274047" style="stroke: #000000; stroke-width: 0.8"/>
      </g>
     </g>
     <g id="text_8">
      <!-- 0.0 -->
      <g transform="translate(20.878125 304.073266) scale(0.1 -0.1)">
       <defs>
        <path id="DejaVuSans-2e" d="M 684 794 
L 1344 794 
L 1344 0 
L 684 0 
L 684 794 
z
" transform="scale(0.015625)"/>
       </defs>
       <use xlink:href="#DejaVuSans-30"/>
       <use xlink:href="#DejaVuSans-2e" transform="translate(63.623047 0)"/>
       <use xlink:href="#DejaVuSans-30" transform="translate(95.410156 0)"/>
      </g>
     </g>
    </g>
    <g id="ytick_2">
     <g id="line2d_8">
      <g>
       <use xlink:href="#m4938ba257f" x="43.78125" y="244.543231" style="stroke: #000000; stroke-width: 0.8"/>
      </g>
     </g>
     <g id="text_9">
      <!-- 0.2 -->
      <g transform="translate(20.878125 248.34245) scale(0.1 -0.1)">
       <use xlink:href="#DejaVuSans-30"/>
       <use xlink:href="#DejaVuSans-2e" transform="translate(63.623047 0)"/>
       <use xlink:href="#DejaVuSans-32" transform="translate(95.410156 0)"/>
      </g>
     </g>
    </g>
    <g id="ytick_3">
     <g id="line2d_9">
      <g>
       <use xlink:href="#m4938ba257f" x="43.78125" y="188.812415" style="stroke: #000000; stroke-width: 0.8"/>
      </g>
     </g>
     <g id="text_10">
      <!-- 0.4 -->
      <g transform="translate(20.878125 192.611633) scale(0.1 -0.1)">
       <use xlink:href="#DejaVuSans-30"/>
       <use xlink:href="#DejaVuSans-2e" transform="translate(63.623047 0)"/>
       <use xlink:href="#DejaVuSans-34" transform="translate(95.410156 0)"/>
      </g>
     </g>
    </g>
    <g id="ytick_4">
     <g id="line2d_10">
      <g>
       <use xlink:href="#m4938ba257f" x="43.78125" y="133.081599" style="stroke: #000000; stroke-width: 0.8"/>
      </g>
     </g>
     <g id="text_11">
      <!-- 0.6 -->
      <g transform="translate(20.878125 136.880817) scale(0.1 -0.1)">
       <defs>
        <path id="DejaVuSans-36" d="M 2113 2584 
Q 1688 2584 1439 2293 
Q 1191 2003 1191 1497 
Q 1191 994 1439 701 
Q 1688 409 2113 409 
Q 2538 409 2786 701 
Q 3034 994 3034 1497 
Q 3034 2003 2786 2293 
Q 2538 2584 2113 2584 
z
M 3366 4563 
L 3366 3988 
Q 3128 4100 2886 4159 
Q 2644 4219 2406 4219 
Q 1781 4219 1451 3797 
Q 1122 3375 1075 2522 
Q 1259 2794 1537 2939 
Q 1816 3084 2150 3084 
Q 2853 3084 3261 2657 
Q 3669 2231 3669 1497 
Q 3669 778 3244 343 
Q 2819 -91 2113 -91 
Q 1303 -91 875 529 
Q 447 1150 447 2328 
Q 447 3434 972 4092 
Q 1497 4750 2381 4750 
Q 2619 4750 2861 4703 
Q 3103 4656 3366 4563 
z
" transform="scale(0.015625)"/>
       </defs>
       <use xlink:href="#DejaVuSans-30"/>
       <use xlink:href="#DejaVuSans-2e" transform="translate(63.623047 0)"/>
       <use xlink:href="#DejaVuSans-36" transform="translate(95.410156 0)"/>
      </g>
     </g>
    </g>
    <g id="ytick_5">
     <g id="line2d_11">
      <g>
       <use xlink:href="#m4938ba257f" x="43.78125" y="77.350783" style="stroke: #000000; stroke-width: 0.8"/>
      </g>
     </g>
     <g id="text_12">
      <!-- 0.8 -->
      <g transform="translate(20.878125 81.150001) scale(0.1 -0.1)">
       <defs>
        <path id="DejaVuSans-38" d="M 2034 2216 
Q 1584 2216 1326 1975 
Q 1069 1734 1069 1313 
Q 1069 891 1326 650 
Q 1584 409 2034 409 
Q 2484 409 2743 651 
Q 3003 894 3003 1313 
Q 3003 1734 2745 1975 
Q 2488 2216 2034 2216 
z
M 1403 2484 
Q 997 2584 770 2862 
Q 544 3141 544 3541 
Q 544 4100 942 4425 
Q 1341 4750 2034 4750 
Q 2731 4750 3128 4425 
Q 3525 4100 3525 3541 
Q 3525 3141 3298 2862 
Q 3072 2584 2669 2484 
Q 3125 2378 3379 2068 
Q 3634 1759 3634 1313 
Q 3634 634 3220 271 
Q 2806 -91 2034 -91 
Q 1263 -91 848 271 
Q 434 634 434 1313 
Q 434 1759 690 2068 
Q 947 2378 1403 2484 
z
M 1172 3481 
Q 1172 3119 1398 2916 
Q 1625 2713 2034 2713 
Q 2441 2713 2670 2916 
Q 2900 3119 2900 3481 
Q 2900 3844 2670 4047 
Q 2441 4250 2034 4250 
Q 1625 4250 1398 4047 
Q 1172 3844 1172 3481 
z
" transform="scale(0.015625)"/>
       </defs>
       <use xlink:href="#DejaVuSans-30"/>
       <use xlink:href="#DejaVuSans-2e" transform="translate(63.623047 0)"/>
       <use xlink:href="#DejaVuSans-38" transform="translate(95.410156 0)"/>
      </g>
     </g>
    </g>
    <g id="text_13">
     <!-- Cumulative proportion -->
     <g transform="translate(14.798438 224.067656) rotate(-90) scale(0.1 -0.1)">
      <defs>
       <path id="DejaVuSans-75" d="M 544 1381 
L 544 3500 
L 1119 3500 
L 1119 1403 
Q 1119 906 1312 657 
Q 1506 409 1894 409 
Q 2359 409 2629 706 
Q 2900 1003 2900 1516 
L 2900 3500 
L 3475 3500 
L 3475 0 
L 2900 0 
L 2900 538 
Q 2691 219 2414 64 
Q 2138 -91 1772 -91 
Q 1169 -91 856 284 
Q 544 659 544 1381 
z
M 1991 3584 
L 1991 3584 
z
" transform="scale(0.015625)"/>
       <path id="DejaVuSans-74" d="M 1172 4494 
L 1172 3500 
L 2356 3500 
L 2356 3053 
L 1172 3053 
L 1172 1153 
Q 1172 725 1289 603 
Q 1406 481 1766 481 
L 2356 481 
L 2356 0 
L 1766 0 
Q 1100 0 847 248 
Q 594 497 594 1153 
L 594 3053 
L 172 3053 
L 172 3500 
L 594 3500 
L 594 4494 
L 1172 4494 
z
" transform="scale(0.015625)"/>
       <path id="DejaVuSans-76" d="M 191 3500 
L 800 3500 
L 1894 563 
L 2988 3500 
L 3597 3500 
L 2284 0 
L 1503 0 
L 191 3500 
z
" transform="scale(0.015625)"/>
       <path id="DejaVuSans-70" d="M 1159 525 
L 1159 -1331 
L 581 -1331 
L 581 3500 
L 1159 3500 
L 1159 2969 
Q 1341 3281 1617 3432 
Q 1894 3584 2278 3584 
Q 2916 3584 3314 3078 
Q 3713 2572 3713 1747 
Q 3713 922 3314 415 
Q 2916 -91 2278 -91 
Q 1894 -91 1617 61 
Q 1341 213 1159 525 
z
M 3116 1747 
Q 3116 2381 2855 2742 
Q 2594 3103 2138 3103 
Q 1681 3103 1420 2742 
Q 1159 2381 1159 1747 
Q 1159 1113 1420 752 
Q 1681 391 2138 391 
Q 2594 391 2855 752 
Q 3116 1113 3116 1747 
z
" transform="scale(0.015625)"/>
       <path id="DejaVuSans-72" d="M 2631 2963 
Q 2534 3019 2420 3045 
Q 2306 3072 2169 3072 
Q 1681 3072 1420 2755 
Q 1159 2438 1159 1844 
L 1159 0 
L 581 0 
L 581 3500 
L 1159 3500 
L 1159 2956 
Q 1341 3275 1631 3429 
Q 1922 3584 2338 3584 
Q 2397 3584 2469 3576 
Q 2541 3569 2628 3553 
L 2631 2963 
z
" transform="scale(0.015625)"/>
       <path id="DejaVuSans-6f" d="M 1959 3097 
Q 1497 3097 1228 2736 
Q 959 2375 959 1747 
Q 959 1119 1226 758 
Q 1494 397 1959 397 
Q 2419 397 2687 759 
Q 2956 1122 2956 1747 
Q 2956 2369 2687 2733 
Q 2419 3097 1959 3097 
z
M 1959 3584 
Q 2709 3584 3137 3096 
Q 3566 2609 3566 1747 
Q 3566 888 3137 398 
Q 2709 -91 1959 -91 
Q 1206 -91 779 398 
Q 353 888 353 1747 
Q 353 2609 779 3096 
Q 1206 3584 1959 3584 
z
" transform="scale(0.015625)"/>
       <path id="DejaVuSans-6e" d="M 3513 2113 
L 3513 0 
L 2938 0 
L 2938 2094 
Q 2938 2591 2744 2837 
Q 2550 3084 2163 3084 
Q 1697 3084 1428 2787 
Q 1159 2491 1159 1978 
L 1159 0 
L 581 0 
L 581 3500 
L 1159 3500 
L 1159 2956 
Q 1366 3272 1645 3428 
Q 1925 3584 2291 3584 
Q 2894 3584 3203 3211 
Q 3513 2838 3513 2113 
z
" transform="scale(0.015625)"/>
      </defs>
      <use xlink:href="#DejaVuSans-43"/>
      <use xlink:href="#DejaVuSans-75" transform="translate(69.824219 0)"/>
      <use xlink:href="#DejaVuSans-6d" transform="translate(133.203125 0)"/>
      <use xlink:href="#DejaVuSans-75" transform="translate(230.615234 0)"/>
      <use xlink:href="#DejaVuSans-6c" transform="translate(293.994141 0)"/>
      <use xlink:href="#DejaVuSans-61" transform="translate(321.777344 0)"/>
      <use xlink:href="#DejaVuSans-74" transform="translate(383.056641 0)"/>
      <use xlink:href="#DejaVuSans-69" transform="translate(422.265625 0)"/>
      <use xlink:href="#DejaVuSans-76" transform="translate(450.048828 0)"/>
      <use xlink:href="#DejaVuSans-65" transform="translate(509.228516 0)"/>
      <use xlink:href="#DejaVuSans-20" transform="translate(570.751953 0)"/>
      <use xlink:href="#DejaVuSans-70" transform="translate(602.539062 0)"/>
      <use xlink:href="#DejaVuSans-72" transform="translate(666.015625 0)"/>
      <use xlink:href="#DejaVuSans-6f" transform="translate(704.878906 0)"/>
      <use xlink:href="#DejaVuSans-70" transform="translate(766.060547 0)"/>
      <use xlink:href="#DejaVuSans-6f" transform="translate(829.537109 0)"/>
      <use xlink:href="#DejaVuSans-72" transform="translate(890.71875 0)"/>
      <use xlink:href="#DejaVuSans-74" transform="translate(931.832031 0)"/>
      <use xlink:href="#DejaVuSans-69" transform="translate(971.041016 0)"/>
      <use xlink:href="#DejaVuSans-6f" transform="translate(998.824219 0)"/>
      <use xlink:href="#DejaVuSans-6e" transform="translate(1060.005859 0)"/>
     </g>
    </g>
   </g>
   <g id="line2d_12">
    <path d="M 70.575795 300.24358 
L 70.686802 286.076277 
L 70.761505 277.971971 
L 70.872512 270.629348 
L 71.224384 265.358502 
L 71.287218 263.835136 
L 71.387054 259.234571 
L 71.498061 252.044284 
L 71.62722 241.563527 
L 71.738227 234.677914 
L 71.801062 232.149126 
L 71.99096 228.645385 
L 72.251373 227.182954 
L 72.471293 222.277716 
L 72.501313 221.394163 
L 72.875526 209.603312 
L 72.920208 209.115835 
L 73.018648 208.415086 
L 73.104521 208.201815 
L 73.26021 207.409665 
L 73.545059 199.610032 
L 73.564607 198.970218 
L 73.885061 189.799556 
L 74.031674 189.129275 
L 74.257877 188.641798 
L 75.009095 174.504963 
L 75.374231 173.012064 
L 75.483842 171.458231 
L 75.687005 166.888133 
L 75.953701 163.384392 
L 76.333499 161.739157 
L 76.962539 150.313913 
L 77.391906 148.333537 
L 78.069118 135.781003 
L 78.171747 135.598199 
L 78.261111 135.35446 
L 78.323247 135.141189 
L 78.383987 134.623245 
L 78.492201 132.764739 
L 78.570395 131.119503 
L 78.935531 125.361181 
L 79.408882 124.020619 
L 79.551306 122.497253 
L 79.63718 121.430897 
L 79.901083 118.993511 
L 79.994636 118.749773 
L 80.059565 118.627903 
L 80.354885 118.475567 
L 80.480554 117.835753 
L 80.566427 116.769397 
L 80.72421 114.728087 
L 81.022324 112.900048 
L 81.356741 112.686777 
L 81.476126 112.07743 
L 81.624833 110.95014 
L 81.77773 109.122101 
L 81.920852 108.421352 
L 82.002537 108.208081 
L 82.117034 107.99481 
L 82.281799 107.812006 
L 82.379542 107.568267 
L 82.725129 104.978545 
L 82.861968 104.003591 
L 82.983448 103.45518 
L 83.203367 103.028637 
L 83.208254 102.99817 
L 83.372321 102.876301 
L 84.083744 97.605455 
L 84.094216 97.574987 
L 84.363007 97.422651 
L 84.7442 93.126759 
L 84.882436 91.847132 
L 84.950157 91.542459 
L 85.167982 90.933112 
L 85.410243 90.293299 
L 85.502399 89.744887 
L 85.711148 87.55124 
L 85.765605 87.307502 
L 85.908727 86.576286 
L 86.410004 86.027874 
L 86.595016 85.113855 
L 86.672511 84.748247 
L 87.044629 83.072545 
L 87.346931 82.706937 
L 87.471901 82.432731 
L 87.732314 80.909365 
L 87.863567 80.665627 
L 87.995519 80.360953 
L 88.244761 80.208617 
L 88.376015 80.05628 
L 88.469568 79.782074 
L 88.565914 79.26413 
L 88.688789 78.776653 
L 88.914992 77.801699 
L 89.459555 77.161885 
L 89.785595 75.790856 
L 90.151429 75.272912 
L 90.409049 75.090108 
L 90.660386 73.871415 
L 90.943139 72.22618 
L 91.303389 71.982441 
L 91.400432 71.76917 
L 92.05321 68.93571 
L 92.431611 68.631036 
L 92.531447 68.113092 
L 93.002704 65.828043 
L 93.478149 65.553837 
L 93.64431 65.18823 
L 93.776262 64.670285 
L 93.994087 64.335145 
L 94.440908 64.030472 
L 95.030152 62.354769 
L 95.581697 61.806357 
L 95.749953 61.410282 
L 95.957305 61.014207 
L 96.005478 60.922805 
L 96.432751 60.679067 
L 97.116945 59.27757 
L 97.529556 59.125234 
L 98.113215 57.388596 
L 98.402951 57.205793 
L 98.715725 56.261306 
L 98.911907 55.438688 
L 99.016631 55.286352 
L 99.338481 55.103548 
L 99.470433 54.951211 
L 99.575855 54.73794 
L 99.674295 54.402799 
L 99.73294 54.250463 
L 99.834173 54.067659 
L 100.093189 53.793453 
L 100.478572 53.641117 
L 101.254923 52.605228 
L 101.6047 52.452891 
L 101.754804 52.148218 
L 101.928645 51.78261 
L 102.862081 50.746721 
L 103.109229 50.320179 
L 103.519047 50.167842 
L 103.649603 50.045973 
L 103.809481 49.863169 
L 103.993096 49.528029 
L 104.030099 49.436627 
L 104.645873 49.162421 
L 104.964931 48.309336 
L 105.604443 48.065598 
L 105.730112 47.730457 
L 105.911633 47.212513 
L 106.718703 46.664101 
L 106.798991 46.359428 
L 106.962359 46.115689 
L 107.074763 46.024287 
L 107.18577 45.932885 
L 107.673782 45.811016 
L 107.864379 45.53681 
L 107.963517 45.445408 
L 108.609313 45.262604 
L 109.028207 44.592323 
L 109.619546 44.439987 
L 109.887639 44.226716 
L 109.994457 44.013444 
L 111.249744 43.312696 
L 111.651882 43.160359 
L 111.791514 42.977556 
L 112.114062 42.551013 
L 112.709591 42.398677 
L 113.263928 41.728396 
L 113.63814 41.45419 
L 113.913912 40.966713 
L 114.280445 40.875311 
L 114.667922 40.692507 
L 114.789401 40.601105 
L 115.028171 40.357366 
L 116.041896 39.808955 
L 116.13126 39.717553 
L 116.848267 39.565216 
L 116.919479 39.443347 
L 117.82848 39.199608 
L 118.248073 38.894935 
L 118.723518 38.742599 
L 119.863609 38.04185 
L 120.029072 37.919981 
L 123.8075 36.853625 
L 124.100028 36.579419 
L 124.109104 36.548952 
L 125.15634 36.396615 
L 125.907557 36.244279 
L 126.044396 36.122409 
L 126.759309 35.970073 
L 126.809576 35.909138 
L 127.826791 35.573998 
L 127.826791 35.573998 
" clip-path="url(#p4526b7315d)" style="fill: none; stroke: #1f77b4; stroke-width: 1.5; stroke-linecap: square"/>
   </g>
   <g id="line2d_13">
    <path d="M 70.575795 300.193581 
L 70.675632 295.848412 
L 70.804093 294.480488 
L 70.913005 293.675827 
L 70.975141 293.032098 
L 71.168531 291.422777 
L 71.292105 290.054853 
L 71.410792 289.169726 
L 72.534127 272.432779 
L 72.597659 272.110914 
L 72.731007 270.179728 
L 72.801521 269.214135 
L 73.168752 263.259644 
L 73.350971 260.443331 
L 74.019806 250.465535 
L 74.337467 244.18918 
L 74.400301 243.625917 
L 74.58252 241.533799 
L 74.720057 240.004943 
L 75.256242 232.682529 
L 75.29883 232.280198 
L 75.800805 228.73969 
L 75.916001 228.33736 
L 76.054236 227.130368 
L 76.192471 226.808504 
L 76.546437 224.716385 
L 76.676294 223.58986 
L 76.922744 220.371216 
L 76.986276 219.405623 
L 77.239707 216.508844 
L 77.347922 215.784649 
L 77.465212 214.979988 
L 77.595767 213.129268 
L 77.693509 210.715285 
L 77.77659 209.669226 
L 78.016058 206.450582 
L 78.096346 205.484989 
L 78.224109 203.553803 
L 78.411215 201.220286 
L 78.955778 194.943931 
L 79.143582 191.725287 
L 79.196642 190.84016 
L 79.346746 188.184779 
L 79.408882 187.701983 
L 79.602272 185.69033 
L 79.717468 184.322407 
L 79.945765 180.942831 
L 79.984164 180.379568 
L 80.192913 177.563255 
L 80.319977 176.034399 
L 80.370943 175.149272 
L 80.509876 174.022747 
L 80.951112 168.309654 
L 81.055137 167.022197 
L 81.19058 165.251943 
L 81.312059 163.884019 
L 81.519412 162.83796 
L 81.730255 160.584909 
L 81.845451 160.343511 
L 82.005329 159.13652 
L 82.179869 158.009994 
L 82.272723 157.768596 
L 82.6225 156.642071 
L 82.74398 156.400672 
L 82.879422 155.515545 
L 83.002298 154.549952 
L 83.367434 153.825757 
L 83.604808 153.503893 
L 83.67602 153.182029 
L 83.894543 152.699232 
L 84.341364 148.675927 
L 84.728841 147.308004 
L 85.330653 142.480038 
L 85.410243 142.23864 
L 85.476567 141.353513 
L 86.446308 133.467836 
L 86.538465 133.145971 
L 87.196129 128.961735 
L 87.514489 126.145421 
L 87.782581 124.616566 
L 87.893588 123.811905 
L 87.964102 123.570506 
L 88.280367 121.558854 
L 88.558932 120.834659 
L 88.679015 119.627668 
L 88.988299 118.098812 
L 89.107684 117.455083 
L 89.176801 117.213685 
L 89.236843 116.972287 
L 89.404401 116.811355 
L 89.535654 116.409024 
L 89.740912 116.167626 
L 89.829578 116.006694 
L 90.203791 115.202033 
L 90.455826 114.960634 
L 90.595457 114.477838 
L 90.690406 114.23644 
L 91.147699 112.224787 
L 91.260103 111.983389 
L 91.709018 110.454533 
L 91.924749 109.891271 
L 92.04553 109.408474 
L 92.131403 109.167076 
L 93.501188 104.33911 
L 93.609402 103.453983 
L 93.773469 102.89072 
L 93.921479 102.568856 
L 94.170721 101.281399 
L 94.609862 99.591611 
L 94.725058 99.108814 
L 94.827687 98.626018 
L 95.015491 97.499492 
L 95.20539 96.453433 
L 95.382722 96.212035 
L 95.454632 95.970636 
L 95.670363 95.809704 
L 96.225398 94.683179 
L 96.556324 94.361315 
L 97.413662 92.832459 
L 97.666395 92.671527 
L 97.791365 92.269196 
L 97.978471 91.7864 
L 98.167671 91.142671 
L 98.261225 90.74034 
L 98.375722 90.498942 
L 98.661967 89.774747 
L 98.79322 88.88962 
L 98.833714 88.648222 
L 98.930757 88.406824 
L 99.069691 88.084959 
L 99.228172 87.763095 
L 99.408297 87.0389 
L 99.557703 86.797502 
L 99.68756 86.153773 
L 99.785302 85.912375 
L 99.87327 85.751443 
L 100.146249 85.027248 
L 100.276107 84.303053 
L 100.348715 84.061655 
L 100.639847 83.33746 
L 100.736192 83.096062 
L 100.803215 82.774197 
L 101.010568 82.452333 
L 101.439237 80.843011 
L 101.677308 80.44068 
L 102.057106 79.153223 
L 102.232343 78.831359 
L 102.390825 78.429028 
L 102.517192 78.107164 
L 103.19231 76.819706 
L 103.210462 76.658774 
L 103.499499 76.417376 
L 103.58258 76.256444 
L 103.984718 75.934579 
L 104.136917 75.612715 
L 104.960044 75.210384 
L 105.261648 74.808054 
L 105.547195 73.842461 
L 106.120382 73.520596 
L 106.337509 73.279198 
L 106.507859 72.796402 
L 106.538578 72.715936 
L 106.838087 72.555003 
L 106.865316 72.394071 
L 106.99238 72.233139 
L 107.150862 71.830809 
L 107.610249 71.18708 
L 107.862284 70.784749 
L 108.399167 69.255894 
L 108.532515 69.014495 
L 108.648409 68.692631 
L 109.067304 67.88797 
L 109.491085 67.646572 
L 109.502954 67.48564 
L 110.354008 67.002843 
L 111.877387 66.841911 
L 112.140592 66.680979 
L 112.285809 66.278648 
L 112.435215 65.956784 
L 112.708194 65.634919 
L 112.829674 65.473987 
L 113.134768 64.991191 
L 113.540398 64.18653 
L 113.857361 64.025598 
L 114.155474 63.703733 
L 114.26718 63.542801 
L 114.720284 63.381869 
L 115.38493 62.657674 
L 115.784276 62.496742 
L 116.027234 62.255343 
L 116.471961 61.853013 
L 116.69188 61.531149 
L 117.067489 60.806954 
L 118.387006 60.163225 
L 118.449142 60.002293 
L 119.937614 59.117166 
L 119.951577 59.0367 
L 120.208499 58.795301 
L 120.320902 58.634369 
L 121.649495 56.944581 
L 121.667647 56.864115 
L 121.905021 56.703183 
L 122.120053 56.220386 
L 122.54174 55.978988 
L 122.827287 55.576658 
L 123.061169 55.415726 
L 123.940848 54.691531 
L 124.234772 54.450132 
L 124.236866 54.369666 
L 124.459579 54.2892 
L 125.971089 54.047802 
L 126.030433 53.88687 
L 126.579184 53.645471 
L 126.636433 53.484539 
L 127.224282 53.001743 
L 127.320627 52.840811 
L 127.611061 52.358014 
L 128.152133 51.875217 
L 128.284084 51.472887 
L 128.356693 51.311955 
L 128.550781 51.151023 
L 128.587085 51.070557 
L 128.868442 50.909624 
L 129.709722 50.024497 
L 130.313628 49.622167 
L 130.571946 49.461235 
L 131.071129 49.300302 
L 131.464889 49.058904 
L 132.850732 48.817506 
L 132.936605 48.73704 
L 133.957311 48.334709 
L 133.988728 48.254243 
L 134.608692 48.012845 
L 134.77625 47.932379 
L 135.479294 47.771447 
L 136.134166 47.208184 
L 136.395276 46.966786 
L 136.636839 46.805854 
L 136.719221 46.644921 
L 136.897251 46.403523 
L 137.006164 46.242591 
L 137.736437 46.001193 
L 137.982886 45.84026 
L 138.583301 45.679328 
L 138.949136 45.43793 
L 139.676616 45.276998 
L 140.075962 45.0356 
L 140.278427 44.794201 
L 140.897693 44.633269 
L 141.04291 44.391871 
L 141.526733 44.150473 
L 142.157867 43.909074 
L 142.216512 43.828608 
L 142.80087 43.58721 
L 142.990071 43.506744 
L 143.832048 43.345812 
L 144.000304 43.184879 
L 145.137603 42.621617 
L 146.270014 42.460685 
L 146.379624 42.380218 
L 147.218111 42.13882 
L 148.051711 41.816956 
L 148.296066 41.495091 
L 148.956523 41.253693 
L 150.392633 40.609964 
L 151.107546 40.449032 
L 151.173871 40.368566 
L 154.565519 39.563905 
L 154.612994 39.483439 
L 157.908995 38.517846 
L 159.140544 38.276448 
L 159.74445 38.115516 
L 161.170786 37.954583 
L 161.392102 37.793651 
L 163.845426 37.391321 
L 163.999021 37.230388 
L 164.006003 37.149922 
L 169.691796 36.425728 
L 169.811181 36.264795 
L 170.083462 36.103863 
L 172.222616 35.781999 
L 172.293828 35.701533 
L 172.656172 35.621067 
L 172.656172 35.621067 
" clip-path="url(#p4526b7315d)" style="fill: none; stroke: #ff7f0e; stroke-width: 1.5; stroke-linecap: square"/>
   </g>
   <g id="line2d_14">
    <path d="M 70.575795 299.2023 
L 70.670047 280.982611 
L 70.801998 277.767371 
L 70.873909 275.623878 
L 71.059618 274.552132 
L 71.063109 273.480385 
L 71.234158 272.408639 
L 71.256499 271.336892 
L 71.505043 269.193399 
L 71.653052 264.906414 
L 71.805251 259.547681 
L 71.864594 258.475935 
L 72.22973 257.404188 
L 72.400779 254.188949 
L 72.532032 250.97371 
L 72.768708 249.901963 
L 73.575079 248.830217 
L 73.693068 246.686724 
L 74.389829 245.614977 
L 74.73053 244.543231 
L 74.770325 242.399738 
L 75.055173 241.327991 
L 75.64372 240.256245 
L 75.763104 239.184498 
L 76.247626 238.112752 
L 76.457771 237.041006 
L 76.468942 235.969259 
L 76.600893 234.897513 
L 76.601591 233.825766 
L 76.745412 232.75402 
L 77.088905 231.682273 
L 77.090302 230.610527 
L 77.539217 229.53878 
L 77.672565 225.251794 
L 78.617172 224.180048 
L 79.313235 223.108302 
L 80.009996 218.821316 
L 80.605524 217.749569 
L 80.615996 216.677823 
L 82.552685 215.606076 
L 83.363943 214.53433 
L 83.469365 212.390837 
L 84.364403 211.31909 
L 84.85032 209.175597 
L 85.355786 208.103851 
L 85.572215 204.888612 
L 85.743264 203.816865 
L 86.26758 202.745119 
L 88.470964 201.673372 
L 88.683204 200.601626 
L 89.65853 199.529879 
L 91.604993 198.458133 
L 91.857725 197.386386 
L 92.280809 196.31464 
L 92.641756 194.171147 
L 94.676187 192.027654 
L 94.686659 190.955908 
L 98.625663 189.884161 
L 98.715027 188.812415 
L 103.780158 187.740668 
L 103.814368 186.668922 
L 104.056629 185.597175 
L 105.739886 184.525429 
L 107.868568 183.453682 
L 110.833642 182.381936 
L 110.84202 181.310189 
L 111.64141 180.238443 
L 111.897634 179.166697 
L 113.013987 178.09495 
L 114.602295 177.023204 
L 114.794987 175.951457 
L 117.882936 174.879711 
L 118.98044 173.807964 
L 120.756552 172.736218 
L 121.248055 171.664471 
L 124.877077 170.592725 
L 124.924551 169.520978 
L 126.84588 168.449232 
L 135.323605 167.377485 
L 136.798113 166.305739 
L 141.873019 164.162246 
L 150.003061 159.87526 
L 150.138504 158.803514 
L 150.947668 157.731767 
L 150.953951 155.588274 
L 151.206684 154.516528 
L 153.694219 153.444781 
L 153.820585 152.373035 
L 154.802195 151.301288 
L 159.955992 150.229542 
L 162.506361 149.157796 
L 162.506361 148.086049 
L 162.806568 147.014303 
L 164.161692 145.942556 
L 167.637817 144.87081 
L 169.14863 142.727317 
L 171.285689 141.65557 
L 176.147657 140.583824 
L 179.348708 139.512077 
L 181.767125 138.440331 
L 189.423119 137.368584 
L 190.256718 136.296838 
L 195.509654 135.225092 
L 197.252953 134.153345 
L 197.410737 132.009852 
L 198.424461 130.938106 
L 210.187714 129.866359 
L 211.56448 128.794613 
L 213.337102 127.722866 
L 213.811849 126.65112 
L 222.711958 125.579373 
L 225.164585 124.507627 
L 237.396302 122.364134 
L 239.617838 121.292388 
L 241.463766 120.220641 
L 242.490756 119.148895 
L 254.663827 118.077148 
L 256.548852 117.005402 
L 267.000965 115.933655 
L 270.434503 114.861909 
L 272.669305 113.790162 
L 273.395388 112.718416 
L 276.570608 111.646669 
L 276.909214 110.574923 
L 287.73554 109.503176 
L 288.904255 108.43143 
L 289.816747 107.359683 
L 289.830012 106.287937 
L 309.01747 105.216191 
L 310.151976 104.144444 
L 311.879217 103.072698 
L 312.89713 102.000951 
L 315.086552 100.929205 
L 318.716272 99.857458 
L 320.207536 98.785712 
L 320.208234 97.713965 
L 324.221242 96.642219 
L 325.038086 95.570472 
L 326.141175 94.498726 
L 326.269636 93.426979 
L 326.512595 92.355233 
L 330.018043 91.283487 
L 332.13695 90.21174 
L 332.778557 89.139994 
L 333.253304 88.068247 
L 337.243273 86.996501 
L 345.279762 85.924754 
L 346.215293 84.853008 
L 352.167782 83.781261 
L 353.162657 82.709515 
L 354.894785 81.637768 
L 354.993923 80.566022 
L 361.373685 79.494275 
L 366.148383 78.422529 
L 366.149779 77.350783 
L 375.152518 76.279036 
L 380.462703 75.20729 
L 395.572224 74.135543 
L 395.864054 73.063797 
L 396.009969 71.99205 
L 404.526092 70.920304 
L 417.428737 69.848557 
L 417.633298 68.776811 
L 432.686966 67.705064 
L 439.777452 66.633318 
L 451.534421 65.561571 
L 457.743135 64.489825 
L 457.743135 63.418078 
L 467.383291 61.274586 
L 479.927084 60.202839 
L 481.779993 59.131093 
L 494.757342 58.059346 
L 495.931643 56.9876 
L 499.066369 55.915853 
L 501.828279 54.844107 
L 505.816154 53.77236 
L 507.06795 52.700614 
L 507.976951 51.628867 
L 508.899217 49.485374 
L 512.76282 48.413628 
L 513.220113 47.341882 
L 535.225334 46.270135 
L 535.697288 45.198389 
L 541.297906 44.126642 
L 558.349701 43.054896 
L 579.411711 41.983149 
L 584.115896 40.911403 
L 584.262509 39.839656 
L 593.549398 38.76791 
L 605.61984 37.696163 
L 606.408757 36.624417 
L 606.466705 35.55267 
L 606.466705 35.55267 
" clip-path="url(#p4526b7315d)" style="fill: none; stroke: #2ca02c; stroke-width: 1.5; stroke-linecap: square"/>
   </g>
   <g id="patch_3">
    <path d="M 43.78125 313.478125 
L 43.78125 22.318125 
" style="fill: none; stroke: #000000; stroke-width: 0.8; stroke-linejoin: miter; stroke-linecap: square"/>
   </g>
   <g id="patch_4">
    <path d="M 633.26125 313.478125 
L 633.26125 22.318125 
" style="fill: none; stroke: #000000; stroke-width: 0.8; stroke-linejoin: miter; stroke-linecap: square"/>
   </g>
   <g id="patch_5">
    <path d="M 43.78125 313.478125 
L 633.26125 313.478125 
" style="fill: none; stroke: #000000; stroke-width: 0.8; stroke-linejoin: miter; stroke-linecap: square"/>
   </g>
   <g id="patch_6">
    <path d="M 43.78125 22.318125 
L 633.26125 22.318125 
" style="fill: none; stroke: #000000; stroke-width: 0.8; stroke-linejoin: miter; stroke-linecap: square"/>
   </g>
   <g id="text_14">
    <!-- ECDF of Cycle Time for CT5 (capped at project 95th percentile) -->
    <g transform="translate(149.195 16.318125) scale(0.12 -0.12)">
     <defs>
      <path id="DejaVuSans-45" d="M 628 4666 
L 3578 4666 
L 3578 4134 
L 1259 4134 
L 1259 2753 
L 3481 2753 
L 3481 2222 
L 1259 2222 
L 1259 531 
L 3634 531 
L 3634 0 
L 628 0 
L 628 4666 
z
" transform="scale(0.015625)"/>
      <path id="DejaVuSans-44" d="M 1259 4147 
L 1259 519 
L 2022 519 
Q 2988 519 3436 956 
Q 3884 1394 3884 2338 
Q 3884 3275 3436 3711 
Q 2988 4147 2022 4147 
L 1259 4147 
z
M 628 4666 
L 1925 4666 
Q 3281 4666 3915 4102 
Q 4550 3538 4550 2338 
Q 4550 1131 3912 565 
Q 3275 0 1925 0 
L 628 0 
L 628 4666 
z
" transform="scale(0.015625)"/>
      <path id="DejaVuSans-46" d="M 628 4666 
L 3309 4666 
L 3309 4134 
L 1259 4134 
L 1259 2759 
L 3109 2759 
L 3109 2228 
L 1259 2228 
L 1259 0 
L 628 0 
L 628 4666 
z
" transform="scale(0.015625)"/>
      <path id="DejaVuSans-66" d="M 2375 4863 
L 2375 4384 
L 1825 4384 
Q 1516 4384 1395 4259 
Q 1275 4134 1275 3809 
L 1275 3500 
L 2222 3500 
L 2222 3053 
L 1275 3053 
L 1275 0 
L 697 0 
L 697 3053 
L 147 3053 
L 147 3500 
L 697 3500 
L 697 3744 
Q 697 4328 969 4595 
Q 1241 4863 1831 4863 
L 2375 4863 
z
" transform="scale(0.015625)"/>
      <path id="DejaVuSans-6a" d="M 603 3500 
L 1178 3500 
L 1178 -63 
Q 1178 -731 923 -1031 
Q 669 -1331 103 -1331 
L -116 -1331 
L -116 -844 
L 38 -844 
Q 366 -844 484 -692 
Q 603 -541 603 -63 
L 603 3500 
z
M 603 4863 
L 1178 4863 
L 1178 4134 
L 603 4134 
L 603 4863 
z
" transform="scale(0.015625)"/>
      <path id="DejaVuSans-39" d="M 703 97 
L 703 672 
Q 941 559 1184 500 
Q 1428 441 1663 441 
Q 2288 441 2617 861 
Q 2947 1281 2994 2138 
Q 2813 1869 2534 1725 
Q 2256 1581 1919 1581 
Q 1219 1581 811 2004 
Q 403 2428 403 3163 
Q 403 3881 828 4315 
Q 1253 4750 1959 4750 
Q 2769 4750 3195 4129 
Q 3622 3509 3622 2328 
Q 3622 1225 3098 567 
Q 2575 -91 1691 -91 
Q 1453 -91 1209 -44 
Q 966 3 703 97 
z
M 1959 2075 
Q 2384 2075 2632 2365 
Q 2881 2656 2881 3163 
Q 2881 3666 2632 3958 
Q 2384 4250 1959 4250 
Q 1534 4250 1286 3958 
Q 1038 3666 1038 3163 
Q 1038 2656 1286 2365 
Q 1534 2075 1959 2075 
z
" transform="scale(0.015625)"/>
      <path id="DejaVuSans-68" d="M 3513 2113 
L 3513 0 
L 2938 0 
L 2938 2094 
Q 2938 2591 2744 2837 
Q 2550 3084 2163 3084 
Q 1697 3084 1428 2787 
Q 1159 2491 1159 1978 
L 1159 0 
L 581 0 
L 581 4863 
L 1159 4863 
L 1159 2956 
Q 1366 3272 1645 3428 
Q 1925 3584 2291 3584 
Q 2894 3584 3203 3211 
Q 3513 2838 3513 2113 
z
" transform="scale(0.015625)"/>
     </defs>
     <use xlink:href="#DejaVuSans-45"/>
     <use xlink:href="#DejaVuSans-43" transform="translate(63.183594 0)"/>
     <use xlink:href="#DejaVuSans-44" transform="translate(133.007812 0)"/>
     <use xlink:href="#DejaVuSans-46" transform="translate(210.009766 0)"/>
     <use xlink:href="#DejaVuSans-20" transform="translate(267.529297 0)"/>
     <use xlink:href="#DejaVuSans-6f" transform="translate(299.316406 0)"/>
     <use xlink:href="#DejaVuSans-66" transform="translate(360.498047 0)"/>
     <use xlink:href="#DejaVuSans-20" transform="translate(395.703125 0)"/>
     <use xlink:href="#DejaVuSans-43" transform="translate(427.490234 0)"/>
     <use xlink:href="#DejaVuSans-79" transform="translate(497.314453 0)"/>
     <use xlink:href="#DejaVuSans-63" transform="translate(556.494141 0)"/>
     <use xlink:href="#DejaVuSans-6c" transform="translate(611.474609 0)"/>
     <use xlink:href="#DejaVuSans-65" transform="translate(639.257812 0)"/>
     <use xlink:href="#DejaVuSans-20" transform="translate(700.78125 0)"/>
     <use xlink:href="#DejaVuSans-54" transform="translate(732.568359 0)"/>
     <use xlink:href="#DejaVuSans-69" transform="translate(790.527344 0)"/>
     <use xlink:href="#DejaVuSans-6d" transform="translate(818.310547 0)"/>
     <use xlink:href="#DejaVuSans-65" transform="translate(915.722656 0)"/>
     <use xlink:href="#DejaVuSans-20" transform="translate(977.246094 0)"/>
     <use xlink:href="#DejaVuSans-66" transform="translate(1009.033203 0)"/>
     <use xlink:href="#DejaVuSans-6f" transform="translate(1044.238281 0)"/>
     <use xlink:href="#DejaVuSans-72" transform="translate(1105.419922 0)"/>
     <use xlink:href="#DejaVuSans-20" transform="translate(1146.533203 0)"/>
     <use xlink:href="#DejaVuSans-43" transform="translate(1178.320312 0)"/>
     <use xlink:href="#DejaVuSans-54" transform="translate(1248.144531 0)"/>
     <use xlink:href="#DejaVuSans-35" transform="translate(1309.228516 0)"/>
     <use xlink:href="#DejaVuSans-20" transform="translate(1372.851562 0)"/>
     <use xlink:href="#DejaVuSans-28" transform="translate(1404.638672 0)"/>
     <use xlink:href="#DejaVuSans-63" transform="translate(1443.652344 0)"/>
     <use xlink:href="#DejaVuSans-61" transform="translate(1498.632812 0)"/>
     <use xlink:href="#DejaVuSans-70" transform="translate(1559.912109 0)"/>
     <use xlink:href="#DejaVuSans-70" transform="translate(1623.388672 0)"/>
     <use xlink:href="#DejaVuSans-65" transform="translate(1686.865234 0)"/>
     <use xlink:href="#DejaVuSans-64" transform="translate(1748.388672 0)"/>
     <use xlink:href="#DejaVuSans-20" transform="translate(1811.865234 0)"/>
     <use xlink:href="#DejaVuSans-61" transform="translate(1843.652344 0)"/>
     <use xlink:href="#DejaVuSans-74" transform="translate(1904.931641 0)"/>
     <use xlink:href="#DejaVuSans-20" transform="translate(1944.140625 0)"/>
     <use xlink:href="#DejaVuSans-70" transform="translate(1975.927734 0)"/>
     <use xlink:href="#DejaVuSans-72" transform="translate(2039.404297 0)"/>
     <use xlink:href="#DejaVuSans-6f" transform="translate(2078.267578 0)"/>
     <use xlink:href="#DejaVuSans-6a" transform="translate(2139.449219 0)"/>
     <use xlink:href="#DejaVuSans-65" transform="translate(2167.232422 0)"/>
     <use xlink:href="#DejaVuSans-63" transform="translate(2228.755859 0)"/>
     <use xlink:href="#DejaVuSans-74" transform="translate(2283.736328 0)"/>
     <use xlink:href="#DejaVuSans-20" transform="translate(2322.945312 0)"/>
     <use xlink:href="#DejaVuSans-39" transform="translate(2354.732422 0)"/>
     <use xlink:href="#DejaVuSans-35" transform="translate(2418.355469 0)"/>
     <use xlink:href="#DejaVuSans-74" transform="translate(2481.978516 0)"/>
     <use xlink:href="#DejaVuSans-68" transform="translate(2521.1875 0)"/>
     <use xlink:href="#DejaVuSans-20" transform="translate(2584.566406 0)"/>
     <use xlink:href="#DejaVuSans-70" transform="translate(2616.353516 0)"/>
     <use xlink:href="#DejaVuSans-65" transform="translate(2679.830078 0)"/>
     <use xlink:href="#DejaVuSans-72" transform="translate(2741.353516 0)"/>
     <use xlink:href="#DejaVuSans-63" transform="translate(2780.216797 0)"/>
     <use xlink:href="#DejaVuSans-65" transform="translate(2835.197266 0)"/>
     <use xlink:href="#DejaVuSans-6e" transform="translate(2896.720703 0)"/>
     <use xlink:href="#DejaVuSans-74" transform="translate(2960.099609 0)"/>
     <use xlink:href="#DejaVuSans-69" transform="translate(2999.308594 0)"/>
     <use xlink:href="#DejaVuSans-6c" transform="translate(3027.091797 0)"/>
     <use xlink:href="#DejaVuSans-65" transform="translate(3054.875 0)"/>
     <use xlink:href="#DejaVuSans-29" transform="translate(3116.398438 0)"/>
    </g>
   </g>
   <g id="legend_1">
    <g id="patch_7">
     <path d="M 543.014375 308.478125 
L 626.26125 308.478125 
Q 628.26125 308.478125 628.26125 306.478125 
L 628.26125 248.765625 
Q 628.26125 246.765625 626.26125 246.765625 
L 543.014375 246.765625 
Q 541.014375 246.765625 541.014375 248.765625 
L 541.014375 306.478125 
Q 541.014375 308.478125 543.014375 308.478125 
z
" style="fill: #ffffff; opacity: 0.8; stroke: #cccccc; stroke-linejoin: miter"/>
    </g>
    <g id="text_15">
     <!-- Project -->
     <g transform="translate(567.533125 258.364062) scale(0.1 -0.1)">
      <defs>
       <path id="DejaVuSans-50" d="M 1259 4147 
L 1259 2394 
L 2053 2394 
Q 2494 2394 2734 2622 
Q 2975 2850 2975 3272 
Q 2975 3691 2734 3919 
Q 2494 4147 2053 4147 
L 1259 4147 
z
M 628 4666 
L 2053 4666 
Q 2838 4666 3239 4311 
Q 3641 3956 3641 3272 
Q 3641 2581 3239 2228 
Q 2838 1875 2053 1875 
L 1259 1875 
L 1259 0 
L 628 0 
L 628 4666 
z
" transform="scale(0.015625)"/>
      </defs>
      <use xlink:href="#DejaVuSans-50"/>
      <use xlink:href="#DejaVuSans-72" transform="translate(58.552734 0)"/>
      <use xlink:href="#DejaVuSans-6f" transform="translate(97.416016 0)"/>
      <use xlink:href="#DejaVuSans-6a" transform="translate(158.597656 0)"/>
      <use xlink:href="#DejaVuSans-65" transform="translate(186.380859 0)"/>
      <use xlink:href="#DejaVuSans-63" transform="translate(247.904297 0)"/>
      <use xlink:href="#DejaVuSans-74" transform="translate(302.884766 0)"/>
     </g>
    </g>
    <g id="line2d_15">
     <path d="M 545.014375 269.542188 
L 555.014375 269.542188 
L 565.014375 269.542188 
" style="fill: none; stroke: #1f77b4; stroke-width: 1.5; stroke-linecap: square"/>
    </g>
    <g id="text_16">
     <!-- SERVER -->
     <g transform="translate(573.014375 273.042188) scale(0.1 -0.1)">
      <defs>
       <path id="DejaVuSans-53" d="M 3425 4513 
L 3425 3897 
Q 3066 4069 2747 4153 
Q 2428 4238 2131 4238 
Q 1616 4238 1336 4038 
Q 1056 3838 1056 3469 
Q 1056 3159 1242 3001 
Q 1428 2844 1947 2747 
L 2328 2669 
Q 3034 2534 3370 2195 
Q 3706 1856 3706 1288 
Q 3706 609 3251 259 
Q 2797 -91 1919 -91 
Q 1588 -91 1214 -16 
Q 841 59 441 206 
L 441 856 
Q 825 641 1194 531 
Q 1563 422 1919 422 
Q 2459 422 2753 634 
Q 3047 847 3047 1241 
Q 3047 1584 2836 1778 
Q 2625 1972 2144 2069 
L 1759 2144 
Q 1053 2284 737 2584 
Q 422 2884 422 3419 
Q 422 4038 858 4394 
Q 1294 4750 2059 4750 
Q 2388 4750 2728 4690 
Q 3069 4631 3425 4513 
z
" transform="scale(0.015625)"/>
       <path id="DejaVuSans-52" d="M 2841 2188 
Q 3044 2119 3236 1894 
Q 3428 1669 3622 1275 
L 4263 0 
L 3584 0 
L 2988 1197 
Q 2756 1666 2539 1819 
Q 2322 1972 1947 1972 
L 1259 1972 
L 1259 0 
L 628 0 
L 628 4666 
L 2053 4666 
Q 2853 4666 3247 4331 
Q 3641 3997 3641 3322 
Q 3641 2881 3436 2590 
Q 3231 2300 2841 2188 
z
M 1259 4147 
L 1259 2491 
L 2053 2491 
Q 2509 2491 2742 2702 
Q 2975 2913 2975 3322 
Q 2975 3731 2742 3939 
Q 2509 4147 2053 4147 
L 1259 4147 
z
" transform="scale(0.015625)"/>
       <path id="DejaVuSans-56" d="M 1831 0 
L 50 4666 
L 709 4666 
L 2188 738 
L 3669 4666 
L 4325 4666 
L 2547 0 
L 1831 0 
z
" transform="scale(0.015625)"/>
      </defs>
      <use xlink:href="#DejaVuSans-53"/>
      <use xlink:href="#DejaVuSans-45" transform="translate(63.476562 0)"/>
      <use xlink:href="#DejaVuSans-52" transform="translate(126.660156 0)"/>
      <use xlink:href="#DejaVuSans-56" transform="translate(190.642578 0)"/>
      <use xlink:href="#DejaVuSans-45" transform="translate(259.050781 0)"/>
      <use xlink:href="#DejaVuSans-52" transform="translate(322.234375 0)"/>
     </g>
    </g>
    <g id="line2d_16">
     <path d="M 545.014375 284.220313 
L 555.014375 284.220313 
L 565.014375 284.220313 
" style="fill: none; stroke: #ff7f0e; stroke-width: 1.5; stroke-linecap: square"/>
    </g>
    <g id="text_17">
     <!-- MDL -->
     <g transform="translate(573.014375 287.720313) scale(0.1 -0.1)">
      <defs>
       <path id="DejaVuSans-4d" d="M 628 4666 
L 1569 4666 
L 2759 1491 
L 3956 4666 
L 4897 4666 
L 4897 0 
L 4281 0 
L 4281 4097 
L 3078 897 
L 2444 897 
L 1241 4097 
L 1241 0 
L 628 0 
L 628 4666 
z
" transform="scale(0.015625)"/>
       <path id="DejaVuSans-4c" d="M 628 4666 
L 1259 4666 
L 1259 531 
L 3531 531 
L 3531 0 
L 628 0 
L 628 4666 
z
" transform="scale(0.015625)"/>
      </defs>
      <use xlink:href="#DejaVuSans-4d"/>
      <use xlink:href="#DejaVuSans-44" transform="translate(86.279297 0)"/>
      <use xlink:href="#DejaVuSans-4c" transform="translate(163.28125 0)"/>
     </g>
    </g>
    <g id="line2d_17">
     <path d="M 545.014375 298.898438 
L 555.014375 298.898438 
L 565.014375 298.898438 
" style="fill: none; stroke: #2ca02c; stroke-width: 1.5; stroke-linecap: square"/>
    </g>
    <g id="text_18">
     <!-- JRACLOUD -->
     <g transform="translate(573.014375 302.398438) scale(0.1 -0.1)">
      <defs>
       <path id="DejaVuSans-4a" d="M 628 4666 
L 1259 4666 
L 1259 325 
Q 1259 -519 939 -900 
Q 619 -1281 -91 -1281 
L -331 -1281 
L -331 -750 
L -134 -750 
Q 284 -750 456 -515 
Q 628 -281 628 325 
L 628 4666 
z
" transform="scale(0.015625)"/>
       <path id="DejaVuSans-41" d="M 2188 4044 
L 1331 1722 
L 3047 1722 
L 2188 4044 
z
M 1831 4666 
L 2547 4666 
L 4325 0 
L 3669 0 
L 3244 1197 
L 1141 1197 
L 716 0 
L 50 0 
L 1831 4666 
z
" transform="scale(0.015625)"/>
       <path id="DejaVuSans-4f" d="M 2522 4238 
Q 1834 4238 1429 3725 
Q 1025 3213 1025 2328 
Q 1025 1447 1429 934 
Q 1834 422 2522 422 
Q 3209 422 3611 934 
Q 4013 1447 4013 2328 
Q 4013 3213 3611 3725 
Q 3209 4238 2522 4238 
z
M 2522 4750 
Q 3503 4750 4090 4092 
Q 4678 3434 4678 2328 
Q 4678 1225 4090 567 
Q 3503 -91 2522 -91 
Q 1538 -91 948 565 
Q 359 1222 359 2328 
Q 359 3434 948 4092 
Q 1538 4750 2522 4750 
z
" transform="scale(0.015625)"/>
       <path id="DejaVuSans-55" d="M 556 4666 
L 1191 4666 
L 1191 1831 
Q 1191 1081 1462 751 
Q 1734 422 2344 422 
Q 2950 422 3222 751 
Q 3494 1081 3494 1831 
L 3494 4666 
L 4128 4666 
L 4128 1753 
Q 4128 841 3676 375 
Q 3225 -91 2344 -91 
Q 1459 -91 1007 375 
Q 556 841 556 1753 
L 556 4666 
z
" transform="scale(0.015625)"/>
      </defs>
      <use xlink:href="#DejaVuSans-4a"/>
      <use xlink:href="#DejaVuSans-52" transform="translate(29.492188 0)"/>
      <use xlink:href="#DejaVuSans-41" transform="translate(94.974609 0)"/>
      <use xlink:href="#DejaVuSans-43" transform="translate(161.632812 0)"/>
      <use xlink:href="#DejaVuSans-4c" transform="translate(231.457031 0)"/>
      <use xlink:href="#DejaVuSans-4f" transform="translate(283.544922 0)"/>
      <use xlink:href="#DejaVuSans-55" transform="translate(362.255859 0)"/>
      <use xlink:href="#DejaVuSans-44" transform="translate(435.449219 0)"/>
     </g>
    </g>
   </g>
  </g>
 </g>
 <defs>
  <clipPath id="p4526b7315d">
   <rect x="43.78125" y="22.318125" width="589.48" height="291.16"/>
  </clipPath>
 </defs>
</svg>
