<?xml version="1.0" encoding="utf-8" standalone="no"?>
<!DOCTYPE svg PUBLIC "-//W3C//DTD SVG 1.1//EN"
  "http://www.w3.org/Graphics/SVG/1.1/DTD/svg11.dtd">
<svg xmlns:xlink="http://www.w3.org/1999/xlink" width="640.46125pt" height="351.034375pt" viewBox="0 0 640.46125 351.034375" xmlns="http://www.w3.org/2000/svg" version="1.1">
 <metadata>
  <rdf:RDF xmlns:dc="http://purl.org/dc/elements/1.1/" xmlns:cc="http://creativecommons.org/ns#" xmlns:rdf="http://www.w3.org/1999/02/22-rdf-syntax-ns#">
   <cc:Work>
    <dc:type rdf:resource="http://purl.org/dc/dcmitype/StillImage"/>
    <dc:date>2026-03-24T15:10:07.950125</dc:date>
    <dc:format>image/svg+xml</dc:format>
    <dc:creator>
     <cc:Agent>
      <dc:title>Matplotlib v3.10.8, https://matplotlib.org/</dc:title>
     </cc:Agent>
    </dc:creator>
   </cc:Work>
  </rdf:RDF>
 </metadata>
 <defs>
  <style type="text/css">*{stroke-linejoin: round; stroke-linecap: butt}</style>
 </defs>
 <g id="figure_1">
  <g id="patch_1">
   <path d="M 0 351.034375 
L 640.46125 351.034375 
L 640.46125 0 
L 0 0 
z
" style="fill: #ffffff"/>
  </g>
  <g id="axes_1">
   <g id="patch_2">
    <path d="M 43.78125 313.478125 
L 633.26125 313.478125 
L 633.26125 22.318125 
L 43.78125 22.318125 
z
" style="fill: #ffffff"/>
   </g>
   <g id="matplotlib.axis_1">
    <g id="xtick_1">
     <g id="line2d_1">
      <defs>
       <path id="m0f7b83a4af" d="M 0 0 
L 0 3.5 
" style="stroke: #000000; stroke-width: 0.8"/>
      </defs>
      <g>
       <use xlink:href="#m0f7b83a4af" x="70.575097" y="313.478125" style="stroke: #000000; stroke-width: 0.8"/>
      </g>
     </g>
     <g id="text_1">
      <!-- 0 -->
      <g transform="translate(67.393847 328.076563) scale(0.1 -0.1)">
       <defs>
        <path id="DejaVuSans-30" d="M 2034 4250 
Q 1547 4250 1301 3770 
Q 1056 3291 1056 2328 
Q 1056 1369 1301 889 
Q 1547 409 2034 409 
Q 2525 409 2770 889 
Q 3016 1369 3016 2328 
Q 3016 3291 2770 3770 
Q 2525 4250 2034 4250 
z
M 2034 4750 
Q 2819 4750 3233 4129 
Q 3647 3509 3647 2328 
Q 3647 1150 3233 529 
Q 2819 -91 2034 -91 
Q 1250 -91 836 529 
Q 422 1150 422 2328 
Q 422 3509 836 4129 
Q 1250 4750 2034 4750 
z
" transform="scale(0.015625)"/>
       </defs>
       <use xlink:href="#DejaVuSans-30"/>
      </g>
     </g>
    </g>
    <g id="xtick_2">
     <g id="line2d_2">
      <g>
       <use xlink:href="#m0f7b83a4af" x="171.120626" y="313.478125" style="stroke: #000000; stroke-width: 0.8"/>
      </g>
     </g>
     <g id="text_2">
      <!-- 100 -->
      <g transform="translate(161.576876 328.076563) scale(0.1 -0.1)">
       <defs>
        <path id="DejaVuSans-31" d="M 794 531 
L 1825 531 
L 1825 4091 
L 703 3866 
L 703 4441 
L 1819 4666 
L 2450 4666 
L 2450 531 
L 3481 531 
L 3481 0 
L 794 0 
L 794 531 
z
" transform="scale(0.015625)"/>
       </defs>
       <use xlink:href="#DejaVuSans-31"/>
       <use xlink:href="#DejaVuSans-30" transform="translate(63.623047 0)"/>
       <use xlink:href="#DejaVuSans-30" transform="translate(127.246094 0)"/>
      </g>
     </g>
    </g>
    <g id="xtick_3">
     <g id="line2d_3">
      <g>
       <use xlink:href="#m0f7b83a4af" x="271.666154" y="313.478125" style="stroke: #000000; stroke-width: 0.8"/>
      </g>
     </g>
     <g id="text_3">
      <!-- 200 -->
      <g transform="translate(262.122404 328.076563) scale(0.1 -0.1)">
       <defs>
        <path id="DejaVuSans-32" d="M 1228 531 
L 3431 531 
L 3431 0 
L 469 0 
L 469 531 
Q 828 903 1448 1529 
Q 2069 2156 2228 2338 
Q 2531 2678 2651 2914 
Q 2772 3150 2772 3378 
Q 2772 3750 2511 3984 
Q 2250 4219 1831 4219 
Q 1534 4219 1204 4116 
Q 875 4013 500 3803 
L 500 4441 
Q 881 4594 1212 4672 
Q 1544 4750 1819 4750 
Q 2544 4750 2975 4387 
Q 3406 4025 3406 3419 
Q 3406 3131 3298 2873 
Q 3191 2616 2906 2266 
Q 2828 2175 2409 1742 
Q 1991 1309 1228 531 
z
" transform="scale(0.015625)"/>
       </defs>
       <use xlink:href="#DejaVuSans-32"/>
       <use xlink:href="#DejaVuSans-30" transform="translate(63.623047 0)"/>
       <use xlink:href="#DejaVuSans-30" transform="translate(127.246094 0)"/>
      </g>
     </g>
    </g>
    <g id="xtick_4">
     <g id="line2d_4">
      <g>
       <use xlink:href="#m0f7b83a4af" x="372.211683" y="313.478125" style="stroke: #000000; stroke-width: 0.8"/>
      </g>
     </g>
     <g id="text_4">
      <!-- 300 -->
      <g transform="translate(362.667933 328.076563) scale(0.1 -0.1)">
       <defs>
        <path id="DejaVuSans-33" d="M 2597 2516 
Q 3050 2419 3304 2112 
Q 3559 1806 3559 1356 
Q 3559 666 3084 287 
Q 2609 -91 1734 -91 
Q 1441 -91 1130 -33 
Q 819 25 488 141 
L 488 750 
Q 750 597 1062 519 
Q 1375 441 1716 441 
Q 2309 441 2620 675 
Q 2931 909 2931 1356 
Q 2931 1769 2642 2001 
Q 2353 2234 1838 2234 
L 1294 2234 
L 1294 2753 
L 1863 2753 
Q 2328 2753 2575 2939 
Q 2822 3125 2822 3475 
Q 2822 3834 2567 4026 
Q 2313 4219 1838 4219 
Q 1578 4219 1281 4162 
Q 984 4106 628 3988 
L 628 4550 
Q 988 4650 1302 4700 
Q 1616 4750 1894 4750 
Q 2613 4750 3031 4423 
Q 3450 4097 3450 3541 
Q 3450 3153 3228 2886 
Q 3006 2619 2597 2516 
z
" transform="scale(0.015625)"/>
       </defs>
       <use xlink:href="#DejaVuSans-33"/>
       <use xlink:href="#DejaVuSans-30" transform="translate(63.623047 0)"/>
       <use xlink:href="#DejaVuSans-30" transform="translate(127.246094 0)"/>
      </g>
     </g>
    </g>
    <g id="xtick_5">
     <g id="line2d_5">
      <g>
       <use xlink:href="#m0f7b83a4af" x="472.757211" y="313.478125" style="stroke: #000000; stroke-width: 0.8"/>
      </g>
     </g>
     <g id="text_5">
      <!-- 400 -->
      <g transform="translate(463.213461 328.076563) scale(0.1 -0.1)">
       <defs>
        <path id="DejaVuSans-34" d="M 2419 4116 
L 825 1625 
L 2419 1625 
L 2419 4116 
z
M 2253 4666 
L 3047 4666 
L 3047 1625 
L 3713 1625 
L 3713 1100 
L 3047 1100 
L 3047 0 
L 2419 0 
L 2419 1100 
L 313 1100 
L 313 1709 
L 2253 4666 
z
" transform="scale(0.015625)"/>
       </defs>
       <use xlink:href="#DejaVuSans-34"/>
       <use xlink:href="#DejaVuSans-30" transform="translate(63.623047 0)"/>
       <use xlink:href="#DejaVuSans-30" transform="translate(127.246094 0)"/>
      </g>
     </g>
    </g>
    <g id="xtick_6">
     <g id="line2d_6">
      <g>
       <use xlink:href="#m0f7b83a4af" x="573.30274" y="313.478125" style="stroke: #000000; stroke-width: 0.8"/>
      </g>
     </g>
     <g id="text_6">
      <!-- 500 -->
      <g transform="translate(563.75899 328.076563) scale(0.1 -0.1)">
       <defs>
        <path id="DejaVuSans-35" d="M 691 4666 
L 3169 4666 
L 3169 4134 
L 1269 4134 
L 1269 2991 
Q 1406 3038 1543 3061 
Q 1681 3084 1819 3084 
Q 2600 3084 3056 2656 
Q 3513 2228 3513 1497 
Q 3513 744 3044 326 
Q 2575 -91 1722 -91 
Q 1428 -91 1123 -41 
Q 819 9 494 109 
L 494 744 
Q 775 591 1075 516 
Q 1375 441 1709 441 
Q 2250 441 2565 725 
Q 2881 1009 2881 1497 
Q 2881 1984 2565 2268 
Q 2250 2553 1709 2553 
Q 1456 2553 1204 2497 
Q 953 2441 691 2322 
L 691 4666 
z
" transform="scale(0.015625)"/>
       </defs>
       <use xlink:href="#DejaVuSans-35"/>
       <use xlink:href="#DejaVuSans-30" transform="translate(63.623047 0)"/>
       <use xlink:href="#DejaVuSans-30" transform="translate(127.246094 0)"/>
      </g>
     </g>
    </g>
    <g id="text_7">
     <!-- Cycle Time (days) -->
     <g transform="translate(293.74 341.754687) scale(0.1 -0.1)">
      <defs>
       <path id="DejaVuSans-43" d="M 4122 4306 
L 4122 3641 
Q 3803 3938 3442 4084 
Q 3081 4231 2675 4231 
Q 1875 4231 1450 3742 
Q 1025 3253 1025 2328 
Q 1025 1406 1450 917 
Q 1875 428 2675 428 
Q 3081 428 3442 575 
Q 3803 722 4122 1019 
L 4122 359 
Q 3791 134 3420 21 
Q 3050 -91 2638 -91 
Q 1578 -91 968 557 
Q 359 1206 359 2328 
Q 359 3453 968 4101 
Q 1578 4750 2638 4750 
Q 3056 4750 3426 4639 
Q 3797 4528 4122 4306 
z
" transform="scale(0.015625)"/>
       <path id="DejaVuSans-79" d="M 2059 -325 
Q 1816 -950 1584 -1140 
Q 1353 -1331 966 -1331 
L 506 -1331 
L 506 -850 
L 844 -850 
Q 1081 -850 1212 -737 
Q 1344 -625 1503 -206 
L 1606 56 
L 191 3500 
L 800 3500 
L 1894 763 
L 2988 3500 
L 3597 3500 
L 2059 -325 
z
" transform="scale(0.015625)"/>
       <path id="DejaVuSans-63" d="M 3122 3366 
L 3122 2828 
Q 2878 2963 2633 3030 
Q 2388 3097 2138 3097 
Q 1578 3097 1268 2742 
Q 959 2388 959 1747 
Q 959 1106 1268 751 
Q 1578 397 2138 397 
Q 2388 397 2633 464 
Q 2878 531 3122 666 
L 3122 134 
Q 2881 22 2623 -34 
Q 2366 -91 2075 -91 
Q 1284 -91 818 406 
Q 353 903 353 1747 
Q 353 2603 823 3093 
Q 1294 3584 2113 3584 
Q 2378 3584 2631 3529 
Q 2884 3475 3122 3366 
z
" transform="scale(0.015625)"/>
       <path id="DejaVuSans-6c" d="M 603 4863 
L 1178 4863 
L 1178 0 
L 603 0 
L 603 4863 
z
" transform="scale(0.015625)"/>
       <path id="DejaVuSans-65" d="M 3597 1894 
L 3597 1613 
L 953 1613 
Q 991 1019 1311 708 
Q 1631 397 2203 397 
Q 2534 397 2845 478 
Q 3156 559 3463 722 
L 3463 178 
Q 3153 47 2828 -22 
Q 2503 -91 2169 -91 
Q 1331 -91 842 396 
Q 353 884 353 1716 
Q 353 2575 817 3079 
Q 1281 3584 2069 3584 
Q 2775 3584 3186 3129 
Q 3597 2675 3597 1894 
z
M 3022 2063 
Q 3016 2534 2758 2815 
Q 2500 3097 2075 3097 
Q 1594 3097 1305 2825 
Q 1016 2553 972 2059 
L 3022 2063 
z
" transform="scale(0.015625)"/>
       <path id="DejaVuSans-20" transform="scale(0.015625)"/>
       <path id="DejaVuSans-54" d="M -19 4666 
L 3928 4666 
L 3928 4134 
L 2272 4134 
L 2272 0 
L 1638 0 
L 1638 4134 
L -19 4134 
L -19 4666 
z
" transform="scale(0.015625)"/>
       <path id="DejaVuSans-69" d="M 603 3500 
L 1178 3500 
L 1178 0 
L 603 0 
L 603 3500 
z
M 603 4863 
L 1178 4863 
L 1178 4134 
L 603 4134 
L 603 4863 
z
" transform="scale(0.015625)"/>
       <path id="DejaVuSans-6d" d="M 3328 2828 
Q 3544 3216 3844 3400 
Q 4144 3584 4550 3584 
Q 5097 3584 5394 3201 
Q 5691 2819 5691 2113 
L 5691 0 
L 5113 0 
L 5113 2094 
Q 5113 2597 4934 2840 
Q 4756 3084 4391 3084 
Q 3944 3084 3684 2787 
Q 3425 2491 3425 1978 
L 3425 0 
L 2847 0 
L 2847 2094 
Q 2847 2600 2669 2842 
Q 2491 3084 2119 3084 
Q 1678 3084 1418 2786 
Q 1159 2488 1159 1978 
L 1159 0 
L 581 0 
L 581 3500 
L 1159 3500 
L 1159 2956 
Q 1356 3278 1631 3431 
Q 1906 3584 2284 3584 
Q 2666 3584 2933 3390 
Q 3200 3197 3328 2828 
z
" transform="scale(0.015625)"/>
       <path id="DejaVuSans-28" d="M 1984 4856 
Q 1566 4138 1362 3434 
Q 1159 2731 1159 2009 
Q 1159 1288 1364 580 
Q 1569 -128 1984 -844 
L 1484 -844 
Q 1016 -109 783 600 
Q 550 1309 550 2009 
Q 550 2706 781 3412 
Q 1013 4119 1484 4856 
L 1984 4856 
z
" transform="scale(0.015625)"/>
       <path id="DejaVuSans-64" d="M 2906 2969 
L 2906 4863 
L 3481 4863 
L 3481 0 
L 2906 0 
L 2906 525 
Q 2725 213 2448 61 
Q 2172 -91 1784 -91 
Q 1150 -91 751 415 
Q 353 922 353 1747 
Q 353 2572 751 3078 
Q 1150 3584 1784 3584 
Q 2172 3584 2448 3432 
Q 2725 3281 2906 2969 
z
M 947 1747 
Q 947 1113 1208 752 
Q 1469 391 1925 391 
Q 2381 391 2643 752 
Q 2906 1113 2906 1747 
Q 2906 2381 2643 2742 
Q 2381 3103 1925 3103 
Q 1469 3103 1208 2742 
Q 947 2381 947 1747 
z
" transform="scale(0.015625)"/>
       <path id="DejaVuSans-61" d="M 2194 1759 
Q 1497 1759 1228 1600 
Q 959 1441 959 1056 
Q 959 750 1161 570 
Q 1363 391 1709 391 
Q 2188 391 2477 730 
Q 2766 1069 2766 1631 
L 2766 1759 
L 2194 1759 
z
M 3341 1997 
L 3341 0 
L 2766 0 
L 2766 531 
Q 2569 213 2275 61 
Q 1981 -91 1556 -91 
Q 1019 -91 701 211 
Q 384 513 384 1019 
Q 384 1609 779 1909 
Q 1175 2209 1959 2209 
L 2766 2209 
L 2766 2266 
Q 2766 2663 2505 2880 
Q 2244 3097 1772 3097 
Q 1472 3097 1187 3025 
Q 903 2953 641 2809 
L 641 3341 
Q 956 3463 1253 3523 
Q 1550 3584 1831 3584 
Q 2591 3584 2966 3190 
Q 3341 2797 3341 1997 
z
" transform="scale(0.015625)"/>
       <path id="DejaVuSans-73" d="M 2834 3397 
L 2834 2853 
Q 2591 2978 2328 3040 
Q 2066 3103 1784 3103 
Q 1356 3103 1142 2972 
Q 928 2841 928 2578 
Q 928 2378 1081 2264 
Q 1234 2150 1697 2047 
L 1894 2003 
Q 2506 1872 2764 1633 
Q 3022 1394 3022 966 
Q 3022 478 2636 193 
Q 2250 -91 1575 -91 
Q 1294 -91 989 -36 
Q 684 19 347 128 
L 347 722 
Q 666 556 975 473 
Q 1284 391 1588 391 
Q 1994 391 2212 530 
Q 2431 669 2431 922 
Q 2431 1156 2273 1281 
Q 2116 1406 1581 1522 
L 1381 1569 
Q 847 1681 609 1914 
Q 372 2147 372 2553 
Q 372 3047 722 3315 
Q 1072 3584 1716 3584 
Q 2034 3584 2315 3537 
Q 2597 3491 2834 3397 
z
" transform="scale(0.015625)"/>
       <path id="DejaVuSans-29" d="M 513 4856 
L 1013 4856 
Q 1481 4119 1714 3412 
Q 1947 2706 1947 2009 
Q 1947 1309 1714 600 
Q 1481 -109 1013 -844 
L 513 -844 
Q 928 -128 1133 580 
Q 1338 1288 1338 2009 
Q 1338 2731 1133 3434 
Q 928 4138 513 4856 
z
" transform="scale(0.015625)"/>
      </defs>
      <use xlink:href="#DejaVuSans-43"/>
      <use xlink:href="#DejaVuSans-79" transform="translate(69.824219 0)"/>
      <use xlink:href="#DejaVuSans-63" transform="translate(129.003906 0)"/>
      <use xlink:href="#DejaVuSans-6c" transform="translate(183.984375 0)"/>
      <use xlink:href="#DejaVuSans-65" transform="translate(211.767578 0)"/>
      <use xlink:href="#DejaVuSans-20" transform="translate(273.291016 0)"/>
      <use xlink:href="#DejaVuSans-54" transform="translate(305.078125 0)"/>
      <use xlink:href="#DejaVuSans-69" transform="translate(363.037109 0)"/>
      <use xlink:href="#DejaVuSans-6d" transform="translate(390.820312 0)"/>
      <use xlink:href="#DejaVuSans-65" transform="translate(488.232422 0)"/>
      <use xlink:href="#DejaVuSans-20" transform="translate(549.755859 0)"/>
      <use xlink:href="#DejaVuSans-28" transform="translate(581.542969 0)"/>
      <use xlink:href="#DejaVuSans-64" transform="translate(620.556641 0)"/>
      <use xlink:href="#DejaVuSans-61" transform="translate(684.033203 0)"/>
      <use xlink:href="#DejaVuSans-79" transform="translate(745.3125 0)"/>
      <use xlink:href="#DejaVuSans-73" transform="translate(804.492188 0)"/>
      <use xlink:href="#DejaVuSans-29" transform="translate(856.591797 0)"/>
     </g>
    </g>
   </g>
   <g id="matplotlib.axis_2">
    <g id="ytick_1">
     <g id="line2d_7">
      <defs>
       <path id="m22804ba37d" d="M 0 0 
L -3.5 0 
" style="stroke: #000000; stroke-width: 0.8"/>
      </defs>
      <g>
       <use xlink:href="#m22804ba37d" x="43.78125" y="300.273972" style="stroke: #000000; stroke-width: 0.8"/>
      </g>
     </g>
     <g id="text_8">
      <!-- 0.0 -->
      <g transform="translate(20.878125 304.073191) scale(0.1 -0.1)">
       <defs>
        <path id="DejaVuSans-2e" d="M 684 794 
L 1344 794 
L 1344 0 
L 684 0 
L 684 794 
z
" transform="scale(0.015625)"/>
       </defs>
       <use xlink:href="#DejaVuSans-30"/>
       <use xlink:href="#DejaVuSans-2e" transform="translate(63.623047 0)"/>
       <use xlink:href="#DejaVuSans-30" transform="translate(95.410156 0)"/>
      </g>
     </g>
    </g>
    <g id="ytick_2">
     <g id="line2d_8">
      <g>
       <use xlink:href="#m22804ba37d" x="43.78125" y="244.539653" style="stroke: #000000; stroke-width: 0.8"/>
      </g>
     </g>
     <g id="text_9">
      <!-- 0.2 -->
      <g transform="translate(20.878125 248.338872) scale(0.1 -0.1)">
       <use xlink:href="#DejaVuSans-30"/>
       <use xlink:href="#DejaVuSans-2e" transform="translate(63.623047 0)"/>
       <use xlink:href="#DejaVuSans-32" transform="translate(95.410156 0)"/>
      </g>
     </g>
    </g>
    <g id="ytick_3">
     <g id="line2d_9">
      <g>
       <use xlink:href="#m22804ba37d" x="43.78125" y="188.805333" style="stroke: #000000; stroke-width: 0.8"/>
      </g>
     </g>
     <g id="text_10">
      <!-- 0.4 -->
      <g transform="translate(20.878125 192.604552) scale(0.1 -0.1)">
       <use xlink:href="#DejaVuSans-30"/>
       <use xlink:href="#DejaVuSans-2e" transform="translate(63.623047 0)"/>
       <use xlink:href="#DejaVuSans-34" transform="translate(95.410156 0)"/>
      </g>
     </g>
    </g>
    <g id="ytick_4">
     <g id="line2d_10">
      <g>
       <use xlink:href="#m22804ba37d" x="43.78125" y="133.071014" style="stroke: #000000; stroke-width: 0.8"/>
      </g>
     </g>
     <g id="text_11">
      <!-- 0.6 -->
      <g transform="translate(20.878125 136.870232) scale(0.1 -0.1)">
       <defs>
        <path id="DejaVuSans-36" d="M 2113 2584 
Q 1688 2584 1439 2293 
Q 1191 2003 1191 1497 
Q 1191 994 1439 701 
Q 1688 409 2113 409 
Q 2538 409 2786 701 
Q 3034 994 3034 1497 
Q 3034 2003 2786 2293 
Q 2538 2584 2113 2584 
z
M 3366 4563 
L 3366 3988 
Q 3128 4100 2886 4159 
Q 2644 4219 2406 4219 
Q 1781 4219 1451 3797 
Q 1122 3375 1075 2522 
Q 1259 2794 1537 2939 
Q 1816 3084 2150 3084 
Q 2853 3084 3261 2657 
Q 3669 2231 3669 1497 
Q 3669 778 3244 343 
Q 2819 -91 2113 -91 
Q 1303 -91 875 529 
Q 447 1150 447 2328 
Q 447 3434 972 4092 
Q 1497 4750 2381 4750 
Q 2619 4750 2861 4703 
Q 3103 4656 3366 4563 
z
" transform="scale(0.015625)"/>
       </defs>
       <use xlink:href="#DejaVuSans-30"/>
       <use xlink:href="#DejaVuSans-2e" transform="translate(63.623047 0)"/>
       <use xlink:href="#DejaVuSans-36" transform="translate(95.410156 0)"/>
      </g>
     </g>
    </g>
    <g id="ytick_5">
     <g id="line2d_11">
      <g>
       <use xlink:href="#m22804ba37d" x="43.78125" y="77.336694" style="stroke: #000000; stroke-width: 0.8"/>
      </g>
     </g>
     <g id="text_12">
      <!-- 0.8 -->
      <g transform="translate(20.878125 81.135913) scale(0.1 -0.1)">
       <defs>
        <path id="DejaVuSans-38" d="M 2034 2216 
Q 1584 2216 1326 1975 
Q 1069 1734 1069 1313 
Q 1069 891 1326 650 
Q 1584 409 2034 409 
Q 2484 409 2743 651 
Q 3003 894 3003 1313 
Q 3003 1734 2745 1975 
Q 2488 2216 2034 2216 
z
M 1403 2484 
Q 997 2584 770 2862 
Q 544 3141 544 3541 
Q 544 4100 942 4425 
Q 1341 4750 2034 4750 
Q 2731 4750 3128 4425 
Q 3525 4100 3525 3541 
Q 3525 3141 3298 2862 
Q 3072 2584 2669 2484 
Q 3125 2378 3379 2068 
Q 3634 1759 3634 1313 
Q 3634 634 3220 271 
Q 2806 -91 2034 -91 
Q 1263 -91 848 271 
Q 434 634 434 1313 
Q 434 1759 690 2068 
Q 947 2378 1403 2484 
z
M 1172 3481 
Q 1172 3119 1398 2916 
Q 1625 2713 2034 2713 
Q 2441 2713 2670 2916 
Q 2900 3119 2900 3481 
Q 2900 3844 2670 4047 
Q 2441 4250 2034 4250 
Q 1625 4250 1398 4047 
Q 1172 3844 1172 3481 
z
" transform="scale(0.015625)"/>
       </defs>
       <use xlink:href="#DejaVuSans-30"/>
       <use xlink:href="#DejaVuSans-2e" transform="translate(63.623047 0)"/>
       <use xlink:href="#DejaVuSans-38" transform="translate(95.410156 0)"/>
      </g>
     </g>
    </g>
    <g id="text_13">
     <!-- Cumulative proportion -->
     <g transform="translate(14.798438 224.067656) rotate(-90) scale(0.1 -0.1)">
      <defs>
       <path id="DejaVuSans-75" d="M 544 1381 
L 544 3500 
L 1119 3500 
L 1119 1403 
Q 1119 906 1312 657 
Q 1506 409 1894 409 
Q 2359 409 2629 706 
Q 2900 1003 2900 1516 
L 2900 3500 
L 3475 3500 
L 3475 0 
L 2900 0 
L 2900 538 
Q 2691 219 2414 64 
Q 2138 -91 1772 -91 
Q 1169 -91 856 284 
Q 544 659 544 1381 
z
M 1991 3584 
L 1991 3584 
z
" transform="scale(0.015625)"/>
       <path id="DejaVuSans-74" d="M 1172 4494 
L 1172 3500 
L 2356 3500 
L 2356 3053 
L 1172 3053 
L 1172 1153 
Q 1172 725 1289 603 
Q 1406 481 1766 481 
L 2356 481 
L 2356 0 
L 1766 0 
Q 1100 0 847 248 
Q 594 497 594 1153 
L 594 3053 
L 172 3053 
L 172 3500 
L 594 3500 
L 594 4494 
L 1172 4494 
z
" transform="scale(0.015625)"/>
       <path id="DejaVuSans-76" d="M 191 3500 
L 800 3500 
L 1894 563 
L 2988 3500 
L 3597 3500 
L 2284 0 
L 1503 0 
L 191 3500 
z
" transform="scale(0.015625)"/>
       <path id="DejaVuSans-70" d="M 1159 525 
L 1159 -1331 
L 581 -1331 
L 581 3500 
L 1159 3500 
L 1159 2969 
Q 1341 3281 1617 3432 
Q 1894 3584 2278 3584 
Q 2916 3584 3314 3078 
Q 3713 2572 3713 1747 
Q 3713 922 3314 415 
Q 2916 -91 2278 -91 
Q 1894 -91 1617 61 
Q 1341 213 1159 525 
z
M 3116 1747 
Q 3116 2381 2855 2742 
Q 2594 3103 2138 3103 
Q 1681 3103 1420 2742 
Q 1159 2381 1159 1747 
Q 1159 1113 1420 752 
Q 1681 391 2138 391 
Q 2594 391 2855 752 
Q 3116 1113 3116 1747 
z
" transform="scale(0.015625)"/>
       <path id="DejaVuSans-72" d="M 2631 2963 
Q 2534 3019 2420 3045 
Q 2306 3072 2169 3072 
Q 1681 3072 1420 2755 
Q 1159 2438 1159 1844 
L 1159 0 
L 581 0 
L 581 3500 
L 1159 3500 
L 1159 2956 
Q 1341 3275 1631 3429 
Q 1922 3584 2338 3584 
Q 2397 3584 2469 3576 
Q 2541 3569 2628 3553 
L 2631 2963 
z
" transform="scale(0.015625)"/>
       <path id="DejaVuSans-6f" d="M 1959 3097 
Q 1497 3097 1228 2736 
Q 959 2375 959 1747 
Q 959 1119 1226 758 
Q 1494 397 1959 397 
Q 2419 397 2687 759 
Q 2956 1122 2956 1747 
Q 2956 2369 2687 2733 
Q 2419 3097 1959 3097 
z
M 1959 3584 
Q 2709 3584 3137 3096 
Q 3566 2609 3566 1747 
Q 3566 888 3137 398 
Q 2709 -91 1959 -91 
Q 1206 -91 779 398 
Q 353 888 353 1747 
Q 353 2609 779 3096 
Q 1206 3584 1959 3584 
z
" transform="scale(0.015625)"/>
       <path id="DejaVuSans-6e" d="M 3513 2113 
L 3513 0 
L 2938 0 
L 2938 2094 
Q 2938 2591 2744 2837 
Q 2550 3084 2163 3084 
Q 1697 3084 1428 2787 
Q 1159 2491 1159 1978 
L 1159 0 
L 581 0 
L 581 3500 
L 1159 3500 
L 1159 2956 
Q 1366 3272 1645 3428 
Q 1925 3584 2291 3584 
Q 2894 3584 3203 3211 
Q 3513 2838 3513 2113 
z
" transform="scale(0.015625)"/>
      </defs>
      <use xlink:href="#DejaVuSans-43"/>
      <use xlink:href="#DejaVuSans-75" transform="translate(69.824219 0)"/>
      <use xlink:href="#DejaVuSans-6d" transform="translate(133.203125 0)"/>
      <use xlink:href="#DejaVuSans-75" transform="translate(230.615234 0)"/>
      <use xlink:href="#DejaVuSans-6c" transform="translate(293.994141 0)"/>
      <use xlink:href="#DejaVuSans-61" transform="translate(321.777344 0)"/>
      <use xlink:href="#DejaVuSans-74" transform="translate(383.056641 0)"/>
      <use xlink:href="#DejaVuSans-69" transform="translate(422.265625 0)"/>
      <use xlink:href="#DejaVuSans-76" transform="translate(450.048828 0)"/>
      <use xlink:href="#DejaVuSans-65" transform="translate(509.228516 0)"/>
      <use xlink:href="#DejaVuSans-20" transform="translate(570.751953 0)"/>
      <use xlink:href="#DejaVuSans-70" transform="translate(602.539062 0)"/>
      <use xlink:href="#DejaVuSans-72" transform="translate(666.015625 0)"/>
      <use xlink:href="#DejaVuSans-6f" transform="translate(704.878906 0)"/>
      <use xlink:href="#DejaVuSans-70" transform="translate(766.060547 0)"/>
      <use xlink:href="#DejaVuSans-6f" transform="translate(829.537109 0)"/>
      <use xlink:href="#DejaVuSans-72" transform="translate(890.71875 0)"/>
      <use xlink:href="#DejaVuSans-74" transform="translate(931.832031 0)"/>
      <use xlink:href="#DejaVuSans-69" transform="translate(971.041016 0)"/>
      <use xlink:href="#DejaVuSans-6f" transform="translate(998.824219 0)"/>
      <use xlink:href="#DejaVuSans-6e" transform="translate(1060.005859 0)"/>
     </g>
    </g>
   </g>
   <g id="line2d_12">
    <path d="M 70.575795 300.24358 
L 70.686814 286.080534 
L 70.761525 277.996049 
L 70.872544 270.671384 
L 71.224454 265.413429 
L 71.287295 263.893789 
L 71.387142 259.304476 
L 71.498161 252.131775 
L 71.627334 241.676651 
L 71.738353 234.807878 
L 71.801194 232.285275 
L 71.991113 228.790103 
L 72.251554 227.331249 
L 72.477083 222.316436 
L 72.548303 219.672263 
L 72.659322 214.535879 
L 72.875774 209.733816 
L 72.920461 209.247532 
L 73.021705 208.518104 
L 73.115268 208.274962 
L 73.275862 207.302392 
L 73.386881 205.144503 
L 73.465781 202.409151 
L 73.576102 198.640444 
L 73.60054 197.667874 
L 73.8931 189.765746 
L 74.07464 189.097104 
L 74.2485 188.823569 
L 74.559214 182.714616 
L 74.670233 179.06748 
L 74.866436 175.329165 
L 75.07451 174.478167 
L 75.316796 173.748739 
L 75.473899 171.682029 
L 75.53255 170.466317 
L 75.748304 165.755432 
L 75.811843 164.813256 
L 76.025503 163.202437 
L 76.288038 162.412224 
L 76.350181 161.71319 
L 76.422797 160.375907 
L 76.533816 158.157232 
L 76.780991 152.109065 
L 77.431045 147.367788 
L 77.728493 139.192124 
L 78.151622 135.727345 
L 78.317103 135.301845 
L 78.427424 134.238097 
L 78.936435 125.454578 
L 79.409837 124.117294 
L 79.552277 122.597654 
L 79.638159 121.533906 
L 79.902091 119.102482 
L 79.995655 118.85934 
L 80.06059 118.737768 
L 80.355943 118.585804 
L 80.481625 117.947556 
L 80.567507 116.883808 
L 80.725308 114.84749 
L 81.023453 113.023922 
L 81.357907 112.811172 
L 81.477305 112.203316 
L 81.626028 111.078782 
L 81.780338 109.194429 
L 81.922079 108.525787 
L 82.003772 108.313037 
L 82.118282 108.100288 
L 82.283065 107.917931 
L 82.380818 107.674789 
L 82.726443 105.091401 
L 82.863297 104.118831 
L 82.984789 103.57176 
L 83.204733 103.146261 
L 83.20962 103.115868 
L 83.373705 102.994297 
L 84.085204 97.736343 
L 84.095678 97.70595 
L 84.364498 97.553986 
L 84.745733 93.268601 
L 84.883983 91.992103 
L 84.951711 91.688175 
L 85.16956 91.080319 
L 85.411847 90.44207 
L 85.504013 89.895 
L 85.712785 87.706718 
L 85.767247 87.463576 
L 85.910385 86.734148 
L 86.411716 86.187078 
L 86.596748 85.275294 
L 86.674252 84.91058 
L 87.04641 83.238976 
L 87.348745 82.874263 
L 87.473728 82.600727 
L 87.734169 81.081087 
L 87.865437 80.837945 
L 87.997403 80.534017 
L 88.246672 80.382053 
L 88.37794 80.230089 
L 88.471503 79.956554 
L 88.567859 79.439876 
L 88.690748 78.953591 
L 88.916976 77.981021 
L 89.461597 77.342773 
L 89.787672 75.975097 
L 90.153546 75.458419 
L 90.411194 75.276062 
L 90.662558 74.06035 
L 90.945342 72.419139 
L 91.30563 72.175996 
L 91.402685 71.963247 
L 92.055532 69.136716 
L 92.433974 68.832788 
L 92.533822 68.316111 
L 93.005129 66.03665 
L 93.480625 65.763115 
L 93.646805 65.398402 
L 93.778771 64.881724 
L 93.996619 64.547403 
L 94.443489 64.243475 
L 95.032797 62.571871 
L 95.584401 62.024801 
L 95.752675 61.629694 
L 95.96005 61.234588 
L 96.008228 61.143409 
L 96.435547 60.900267 
L 97.119815 59.441413 
L 97.532471 59.289449 
L 98.116193 57.557059 
L 98.40596 57.374702 
L 98.718768 56.432525 
L 98.914972 55.61192 
L 99.019707 55.459955 
L 99.341592 55.277599 
L 99.473558 55.125635 
L 99.578991 54.912885 
L 99.677442 54.578564 
L 99.736093 54.4266 
L 99.837337 54.244243 
L 100.096382 53.970708 
L 100.481806 53.818744 
L 101.258241 52.785389 
L 101.608056 52.633425 
L 101.76446 52.299104 
L 101.96974 51.903998 
L 102.202252 51.721641 
L 102.212725 51.660855 
L 102.456409 51.508891 
L 102.728719 51.296142 
L 102.939586 50.718678 
L 103.963195 49.806894 
L 104.033717 49.624538 
L 104.649558 49.351002 
L 104.96865 48.500004 
L 105.608232 48.256862 
L 105.733913 47.922541 
L 105.915454 47.405863 
L 106.722611 46.858793 
L 106.802908 46.554865 
L 106.966294 46.311722 
L 107.07871 46.220544 
L 107.189729 46.129365 
L 107.677794 46.007794 
L 107.868411 45.734259 
L 107.96756 45.643081 
L 108.613426 45.460724 
L 109.032365 44.792082 
L 109.623769 44.640118 
L 109.89189 44.427369 
L 109.99872 44.214619 
L 111.960754 42.907728 
L 112.118555 42.725372 
L 112.714147 42.573408 
L 113.268544 41.904766 
L 113.642797 41.631231 
L 113.918599 41.144946 
L 114.285171 41.053768 
L 114.67269 40.871411 
L 114.794183 40.780232 
L 115.032978 40.53709 
L 115.852006 40.081198 
L 115.957439 39.990019 
L 117.970444 39.199807 
L 117.973237 39.169414 
L 118.787376 38.865486 
L 119.097392 38.622343 
L 119.648297 38.439987 
L 120.154516 38.04488 
L 120.689363 37.923309 
L 120.871601 37.771345 
L 121.988076 37.49781 
L 121.997851 37.467417 
L 122.864358 37.315453 
L 122.865754 37.28506 
L 123.865624 36.981132 
L 124.031105 36.768383 
L 124.114893 36.677204 
L 125.162242 36.52524 
L 125.913541 36.373276 
L 126.050394 36.251705 
L 126.765385 36.099741 
L 126.815658 36.038955 
L 127.939114 35.55267 
L 127.939114 35.55267 
" clip-path="url(#pf0a7c4bb1b)" style="fill: none; stroke: #1f77b4; stroke-width: 1.5; stroke-linecap: square"/>
   </g>
   <g id="line2d_13">
    <path d="M 70.575795 300.193501 
L 70.675643 295.848059 
L 70.804118 294.480049 
L 70.913042 293.675338 
L 70.975185 293.031569 
L 71.168595 291.422146 
L 71.292182 290.054136 
L 71.410882 289.168953 
L 72.534339 272.430954 
L 72.597878 272.109069 
L 72.73124 270.177762 
L 72.801762 269.212108 
L 73.169032 263.257243 
L 73.351271 260.440752 
L 74.020178 250.46233 
L 74.337874 244.18558 
L 74.400715 243.622282 
L 74.582954 241.530032 
L 74.720506 240.00108 
L 75.256748 232.678205 
L 75.299341 232.275849 
L 75.80137 228.735119 
L 75.916578 228.332763 
L 76.054829 227.125696 
L 76.193079 226.803811 
L 76.547083 224.711561 
L 76.676954 223.584965 
L 76.92343 220.366119 
L 76.986969 219.400465 
L 77.240428 216.503504 
L 77.348654 215.779263 
L 77.465957 214.974552 
L 77.596527 213.123715 
L 77.694279 210.709581 
L 77.777369 209.663456 
L 78.016863 206.44461 
L 78.09716 205.478956 
L 78.224936 203.547648 
L 78.412063 201.213985 
L 78.956684 194.937235 
L 79.144509 191.718389 
L 79.197575 190.833206 
L 79.347695 188.177658 
L 79.409837 187.694831 
L 79.603248 185.683053 
L 79.718456 184.315043 
L 79.946778 180.935255 
L 79.985181 180.371957 
L 80.193953 177.555466 
L 80.321031 176.026514 
L 80.372002 175.141332 
L 80.51095 174.014736 
L 80.952234 168.301284 
L 81.05627 167.013745 
L 81.191728 165.24338 
L 81.31322 163.87537 
L 81.520595 162.829245 
L 81.731461 160.576053 
L 81.84667 160.33464 
L 82.006565 159.127573 
L 82.181123 158.000976 
L 82.273988 157.759563 
L 82.623803 156.632967 
L 82.745296 156.391553 
L 82.880753 155.506371 
L 83.003642 154.540717 
L 83.368817 153.816477 
L 83.606217 153.494592 
L 83.677436 153.172707 
L 83.895983 152.68988 
L 84.342852 148.666323 
L 84.730372 147.298313 
L 85.332248 142.470044 
L 85.411847 142.228631 
L 85.478179 141.343448 
L 86.448024 133.457275 
L 86.540191 133.135391 
L 87.197926 128.950891 
L 87.516321 126.1344 
L 87.784442 124.605449 
L 87.895461 123.800737 
L 87.965982 123.559324 
L 88.282282 121.547545 
L 88.560877 120.823304 
L 88.680973 119.616237 
L 88.99029 118.087285 
L 89.109688 117.443516 
L 89.178813 117.202103 
L 89.238861 116.960689 
L 89.406437 116.799747 
L 89.537705 116.397391 
L 89.742985 116.155978 
L 89.831661 115.995035 
L 90.205913 115.190324 
L 90.457975 114.94891 
L 90.597622 114.466083 
L 90.692582 114.22467 
L 91.149924 112.212891 
L 91.26234 111.971478 
L 91.711303 110.442526 
L 91.927057 109.879228 
L 92.047852 109.396401 
L 92.133734 109.154987 
L 93.503667 104.326718 
L 93.611893 103.441536 
L 93.775978 102.878238 
L 93.924003 102.556353 
L 94.173272 101.268815 
L 94.612461 99.57892 
L 94.727669 99.096093 
L 94.830309 98.613267 
L 95.018134 97.48667 
L 95.208053 96.440545 
L 95.385405 96.199132 
L 95.457323 95.957719 
L 95.673077 95.796776 
L 96.228172 94.67018 
L 96.559134 94.348296 
L 97.416564 92.819344 
L 97.669324 92.658401 
L 97.794308 92.256046 
L 97.981434 91.773219 
L 98.170655 91.129449 
L 98.264219 90.727094 
L 98.378729 90.48568 
L 98.665004 89.76144 
L 98.796272 88.876257 
L 98.83677 88.634844 
L 98.933824 88.39343 
L 99.072772 88.071546 
L 99.231271 87.749661 
L 99.411415 87.025421 
L 99.560837 86.784007 
L 99.690708 86.140238 
L 99.788461 85.898825 
L 99.876438 85.737882 
L 100.149447 85.013642 
L 100.279319 84.289402 
L 100.351935 84.047988 
L 100.643098 83.323748 
L 100.739454 83.082334 
L 100.806484 82.76045 
L 101.013859 82.438565 
L 101.442574 80.829142 
L 101.680672 80.426786 
L 102.060511 79.139248 
L 102.235767 78.817363 
L 102.394266 78.415008 
L 102.520646 78.093123 
L 103.195837 76.805584 
L 103.213991 76.644642 
L 103.50306 76.403229 
L 103.586149 76.242286 
L 103.988331 75.920402 
L 104.140546 75.598517 
L 104.963763 75.196161 
L 105.265399 74.793806 
L 105.550976 73.828152 
L 106.124226 73.506267 
L 106.341376 73.264854 
L 106.511745 72.782027 
L 106.542467 72.701556 
L 106.842009 72.540613 
L 106.86924 72.379671 
L 106.996318 72.218729 
L 107.154817 71.816373 
L 107.614255 71.172604 
L 107.866317 70.770248 
L 108.403258 69.241296 
L 108.53662 68.999883 
L 108.652527 68.677998 
L 109.071466 67.873287 
L 109.495294 67.631873 
L 109.507164 67.470931 
L 110.35831 66.988104 
L 111.881854 66.827162 
L 112.145087 66.666219 
L 112.29032 66.263864 
L 112.439742 65.941979 
L 112.712751 65.620094 
L 112.834243 65.459152 
L 113.139371 64.976325 
L 113.545044 64.171614 
L 113.862042 64.010671 
L 114.160187 63.688787 
L 114.271905 63.527844 
L 114.725058 63.366902 
L 115.389775 62.642662 
L 115.789165 62.48172 
L 116.03215 62.240306 
L 116.476924 61.83795 
L 116.696867 61.516066 
L 117.072517 60.791825 
L 118.392177 60.148056 
L 118.454319 59.987114 
L 119.942952 59.101931 
L 119.956916 59.02146 
L 120.213866 58.780047 
L 120.326282 58.619104 
L 121.655019 56.92921 
L 121.673173 56.848739 
L 121.910572 56.687797 
L 122.125628 56.20497 
L 122.54736 55.963556 
L 122.832937 55.5612 
L 123.066845 55.400258 
L 123.946619 54.676018 
L 124.240575 54.434604 
L 124.24267 54.354133 
L 124.465406 54.273662 
L 125.97708 54.032249 
L 126.03643 53.871306 
L 126.585241 53.629893 
L 126.642496 53.468951 
L 127.230408 52.986124 
L 127.326764 52.825181 
L 127.617229 52.342354 
L 128.158359 51.859528 
L 128.290325 51.457172 
L 128.362941 51.296229 
L 128.55705 51.135287 
L 128.593358 51.054816 
L 128.874746 50.893874 
L 129.716117 50.008691 
L 130.320088 49.606335 
L 130.578434 49.445393 
L 131.077671 49.284451 
L 131.471474 49.043037 
L 132.857466 48.801624 
L 132.943349 48.721153 
L 133.964165 48.318797 
L 133.995586 48.238326 
L 134.615617 47.996912 
L 134.783192 47.916441 
L 135.486313 47.755499 
L 136.141255 47.192201 
L 136.402394 46.950787 
L 136.643983 46.789845 
L 136.726374 46.628903 
L 136.904424 46.387489 
L 137.013348 46.226547 
L 137.7437 45.985133 
L 137.990176 45.824191 
L 138.590656 45.663249 
L 138.95653 45.421835 
L 139.684089 45.260893 
L 140.083478 45.01948 
L 140.285965 44.778066 
L 140.905298 44.617124 
L 141.05053 44.37571 
L 141.534406 44.134297 
L 142.165608 43.892884 
L 142.22426 43.812412 
L 142.808681 43.570999 
L 142.997902 43.490528 
L 143.839971 43.329585 
L 144.008245 43.168643 
L 145.145666 42.605345 
L 146.2782 42.444403 
L 146.387822 42.363932 
L 147.2264 42.122518 
L 148.06009 41.800634 
L 148.304471 41.478749 
L 148.965 41.237336 
L 150.401264 40.593566 
L 151.116255 40.432624 
L 151.182587 40.352153 
L 154.574602 39.547441 
L 154.622082 39.46697 
L 157.918439 38.501316 
L 159.150122 38.259903 
L 159.754093 38.098961 
L 161.180583 37.938018 
L 161.401923 37.777076 
L 163.855513 37.37472 
L 164.009124 37.213778 
L 164.016107 37.133307 
L 169.702515 36.409066 
L 169.821913 36.248124 
L 170.094223 36.087182 
L 172.233609 35.765297 
L 172.304829 35.684826 
L 172.667211 35.604355 
L 172.667211 35.604355 
" clip-path="url(#pf0a7c4bb1b)" style="fill: none; stroke: #ff7f0e; stroke-width: 1.5; stroke-linecap: square"/>
   </g>
   <g id="line2d_14">
    <path d="M 70.575795 299.222381 
L 70.670057 281.345336 
L 70.802023 278.190563 
L 70.873941 276.087381 
L 71.059671 275.03579 
L 71.063162 273.984199 
L 71.234229 272.932608 
L 71.256572 271.881017 
L 71.505143 269.777835 
L 71.653169 265.571471 
L 71.805383 260.313517 
L 71.864733 259.261926 
L 72.229909 258.210335 
L 72.400976 255.055562 
L 72.532244 251.900789 
L 72.768945 250.849198 
L 73.575404 249.797607 
L 73.693405 247.694426 
L 74.390241 246.642835 
L 74.730979 245.591244 
L 74.770778 243.488062 
L 75.055657 242.436471 
L 75.644268 241.38488 
L 75.763665 240.333289 
L 76.248239 239.281698 
L 76.458407 238.230107 
L 76.469579 237.178516 
L 76.601545 236.126925 
L 76.602243 235.075334 
L 76.746079 234.023743 
L 77.08961 232.972152 
L 77.091006 231.920562 
L 77.53997 230.868971 
L 77.673332 226.662607 
L 78.618041 225.611016 
L 79.314179 224.559425 
L 80.011016 220.353061 
L 80.606608 219.30147 
L 80.617082 218.249879 
L 82.55398 216.146698 
L 83.365326 215.095107 
L 83.470759 212.991925 
L 84.365894 211.940334 
L 84.851864 208.785561 
L 85.357385 207.73397 
L 85.573837 204.579197 
L 85.744904 203.527606 
L 86.269277 202.476015 
L 88.4729 201.424424 
L 88.685162 200.372834 
L 89.660594 199.321243 
L 91.607267 198.269652 
L 91.860027 197.218061 
L 92.283156 196.16647 
L 92.644142 194.063288 
L 94.678793 191.960106 
L 94.689266 190.908515 
L 97.792213 189.856924 
L 98.628696 188.805333 
L 98.71807 187.753742 
L 103.783749 186.702151 
L 103.817963 185.65056 
L 104.060249 184.598969 
L 105.743689 183.547379 
L 107.872601 182.495788 
L 110.837996 181.444197 
L 110.86383 179.341015 
L 111.645851 178.289424 
L 111.902102 177.237833 
L 113.018577 176.186242 
L 114.607056 175.134651 
L 114.799769 174.08306 
L 117.888052 173.031469 
L 118.985674 171.979878 
L 120.761979 170.928287 
L 121.253535 169.876696 
L 124.882949 168.825105 
L 124.930429 167.773515 
L 126.851966 166.721924 
L 135.330607 165.670333 
L 136.805275 164.618742 
L 141.880729 162.51556 
L 150.011651 158.309196 
L 150.147108 157.257605 
L 150.95636 156.206014 
L 150.962644 154.102832 
L 151.215404 153.051241 
L 153.703208 151.99965 
L 153.829588 150.94806 
L 154.811303 149.896469 
L 159.965658 148.844878 
L 162.516302 147.793287 
L 162.516302 146.741696 
L 162.816543 145.690105 
L 164.171812 144.638514 
L 167.648314 143.586923 
L 169.15929 141.483741 
L 171.29658 140.43215 
L 176.159074 139.380559 
L 179.360471 138.328968 
L 181.77915 137.277377 
L 189.435971 136.225786 
L 190.269661 135.174196 
L 195.523165 134.122605 
L 197.266652 133.071014 
L 197.424453 130.967832 
L 198.438287 129.916241 
L 210.202812 128.86465 
L 211.579727 127.813059 
L 213.352541 126.761468 
L 213.827339 125.709877 
L 222.728411 124.658286 
L 225.181303 123.606695 
L 237.414342 121.503513 
L 239.636119 120.451922 
L 241.482247 119.400331 
L 241.550674 118.348741 
L 242.509347 117.29715 
L 254.683735 116.245559 
L 256.568964 115.193968 
L 267.022208 114.142377 
L 270.456117 113.090786 
L 272.69116 112.039195 
L 273.417322 110.987604 
L 276.592885 109.936013 
L 276.931528 108.884422 
L 287.759025 107.832831 
L 288.927866 106.78124 
L 289.840457 105.729649 
L 289.853723 104.678058 
L 309.043256 103.626467 
L 310.177884 102.574877 
L 311.905313 101.523286 
L 312.923336 100.471695 
L 315.112994 99.420104 
L 318.743107 98.368513 
L 320.234532 97.316922 
L 320.23523 96.265331 
L 324.248673 95.21374 
L 325.065605 94.162149 
L 326.168813 93.110558 
L 326.297288 92.058967 
L 326.540273 91.007376 
L 330.0461 89.955785 
L 332.165236 88.904194 
L 332.806912 87.852603 
L 333.281711 86.801013 
L 337.272111 85.749422 
L 345.30947 84.697831 
L 346.245102 83.64624 
L 352.198235 82.594649 
L 353.193217 81.543058 
L 354.925532 80.491467 
L 355.024681 79.439876 
L 361.405133 78.388285 
L 366.180347 77.336694 
L 366.181744 76.285103 
L 375.185456 75.233512 
L 380.496215 74.181921 
L 395.60737 73.13033 
L 395.899232 72.078739 
L 396.045162 71.027148 
L 404.562206 69.975558 
L 417.466247 68.923967 
L 417.67083 67.872376 
L 432.726126 66.820785 
L 439.817379 65.769194 
L 451.57562 64.717603 
L 457.785004 63.666012 
L 457.785004 62.614421 
L 467.426203 60.511239 
L 479.971353 59.459648 
L 481.824463 58.408057 
L 494.803215 57.356466 
L 495.977642 56.304875 
L 499.112708 55.253284 
L 501.874917 54.201694 
L 505.863223 53.150103 
L 507.115154 52.098512 
L 508.024253 51.046921 
L 508.946619 48.943739 
L 512.810639 47.892148 
L 513.267982 46.840557 
L 535.275583 45.788966 
L 535.747588 44.737375 
L 541.348812 43.685784 
L 558.402451 42.634193 
L 579.466739 41.582602 
L 584.171432 40.531011 
L 584.318061 39.47942 
L 593.605954 38.427829 
L 605.677701 37.376239 
L 606.466705 36.324648 
L 606.466705 36.324648 
" clip-path="url(#pf0a7c4bb1b)" style="fill: none; stroke: #2ca02c; stroke-width: 1.5; stroke-linecap: square"/>
   </g>
   <g id="patch_3">
    <path d="M 43.78125 313.478125 
L 43.78125 22.318125 
" style="fill: none; stroke: #000000; stroke-width: 0.8; stroke-linejoin: miter; stroke-linecap: square"/>
   </g>
   <g id="patch_4">
    <path d="M 633.26125 313.478125 
L 633.26125 22.318125 
" style="fill: none; stroke: #000000; stroke-width: 0.8; stroke-linejoin: miter; stroke-linecap: square"/>
   </g>
   <g id="patch_5">
    <path d="M 43.78125 313.478125 
L 633.26125 313.478125 
" style="fill: none; stroke: #000000; stroke-width: 0.8; stroke-linejoin: miter; stroke-linecap: square"/>
   </g>
   <g id="patch_6">
    <path d="M 43.78125 22.318125 
L 633.26125 22.318125 
" style="fill: none; stroke: #000000; stroke-width: 0.8; stroke-linejoin: miter; stroke-linecap: square"/>
   </g>
   <g id="text_14">
    <!-- ECDF of Cycle Time for CT5 (capped at project 95th percentile) -->
    <g transform="translate(149.195 16.318125) scale(0.12 -0.12)">
     <defs>
      <path id="DejaVuSans-45" d="M 628 4666 
L 3578 4666 
L 3578 4134 
L 1259 4134 
L 1259 2753 
L 3481 2753 
L 3481 2222 
L 1259 2222 
L 1259 531 
L 3634 531 
L 3634 0 
L 628 0 
L 628 4666 
z
" transform="scale(0.015625)"/>
      <path id="DejaVuSans-44" d="M 1259 4147 
L 1259 519 
L 2022 519 
Q 2988 519 3436 956 
Q 3884 1394 3884 2338 
Q 3884 3275 3436 3711 
Q 2988 4147 2022 4147 
L 1259 4147 
z
M 628 4666 
L 1925 4666 
Q 3281 4666 3915 4102 
Q 4550 3538 4550 2338 
Q 4550 1131 3912 565 
Q 3275 0 1925 0 
L 628 0 
L 628 4666 
z
" transform="scale(0.015625)"/>
      <path id="DejaVuSans-46" d="M 628 4666 
L 3309 4666 
L 3309 4134 
L 1259 4134 
L 1259 2759 
L 3109 2759 
L 3109 2228 
L 1259 2228 
L 1259 0 
L 628 0 
L 628 4666 
z
" transform="scale(0.015625)"/>
      <path id="DejaVuSans-66" d="M 2375 4863 
L 2375 4384 
L 1825 4384 
Q 1516 4384 1395 4259 
Q 1275 4134 1275 3809 
L 1275 3500 
L 2222 3500 
L 2222 3053 
L 1275 3053 
L 1275 0 
L 697 0 
L 697 3053 
L 147 3053 
L 147 3500 
L 697 3500 
L 697 3744 
Q 697 4328 969 4595 
Q 1241 4863 1831 4863 
L 2375 4863 
z
" transform="scale(0.015625)"/>
      <path id="DejaVuSans-6a" d="M 603 3500 
L 1178 3500 
L 1178 -63 
Q 1178 -731 923 -1031 
Q 669 -1331 103 -1331 
L -116 -1331 
L -116 -844 
L 38 -844 
Q 366 -844 484 -692 
Q 603 -541 603 -63 
L 603 3500 
z
M 603 4863 
L 1178 4863 
L 1178 4134 
L 603 4134 
L 603 4863 
z
" transform="scale(0.015625)"/>
      <path id="DejaVuSans-39" d="M 703 97 
L 703 672 
Q 941 559 1184 500 
Q 1428 441 1663 441 
Q 2288 441 2617 861 
Q 2947 1281 2994 2138 
Q 2813 1869 2534 1725 
Q 2256 1581 1919 1581 
Q 1219 1581 811 2004 
Q 403 2428 403 3163 
Q 403 3881 828 4315 
Q 1253 4750 1959 4750 
Q 2769 4750 3195 4129 
Q 3622 3509 3622 2328 
Q 3622 1225 3098 567 
Q 2575 -91 1691 -91 
Q 1453 -91 1209 -44 
Q 966 3 703 97 
z
M 1959 2075 
Q 2384 2075 2632 2365 
Q 2881 2656 2881 3163 
Q 2881 3666 2632 3958 
Q 2384 4250 1959 4250 
Q 1534 4250 1286 3958 
Q 1038 3666 1038 3163 
Q 1038 2656 1286 2365 
Q 1534 2075 1959 2075 
z
" transform="scale(0.015625)"/>
      <path id="DejaVuSans-68" d="M 3513 2113 
L 3513 0 
L 2938 0 
L 2938 2094 
Q 2938 2591 2744 2837 
Q 2550 3084 2163 3084 
Q 1697 3084 1428 2787 
Q 1159 2491 1159 1978 
L 1159 0 
L 581 0 
L 581 4863 
L 1159 4863 
L 1159 2956 
Q 1366 3272 1645 3428 
Q 1925 3584 2291 3584 
Q 2894 3584 3203 3211 
Q 3513 2838 3513 2113 
z
" transform="scale(0.015625)"/>
     </defs>
     <use xlink:href="#DejaVuSans-45"/>
     <use xlink:href="#DejaVuSans-43" transform="translate(63.183594 0)"/>
     <use xlink:href="#DejaVuSans-44" transform="translate(133.007812 0)"/>
     <use xlink:href="#DejaVuSans-46" transform="translate(210.009766 0)"/>
     <use xlink:href="#DejaVuSans-20" transform="translate(267.529297 0)"/>
     <use xlink:href="#DejaVuSans-6f" transform="translate(299.316406 0)"/>
     <use xlink:href="#DejaVuSans-66" transform="translate(360.498047 0)"/>
     <use xlink:href="#DejaVuSans-20" transform="translate(395.703125 0)"/>
     <use xlink:href="#DejaVuSans-43" transform="translate(427.490234 0)"/>
     <use xlink:href="#DejaVuSans-79" transform="translate(497.314453 0)"/>
     <use xlink:href="#DejaVuSans-63" transform="translate(556.494141 0)"/>
     <use xlink:href="#DejaVuSans-6c" transform="translate(611.474609 0)"/>
     <use xlink:href="#DejaVuSans-65" transform="translate(639.257812 0)"/>
     <use xlink:href="#DejaVuSans-20" transform="translate(700.78125 0)"/>
     <use xlink:href="#DejaVuSans-54" transform="translate(732.568359 0)"/>
     <use xlink:href="#DejaVuSans-69" transform="translate(790.527344 0)"/>
     <use xlink:href="#DejaVuSans-6d" transform="translate(818.310547 0)"/>
     <use xlink:href="#DejaVuSans-65" transform="translate(915.722656 0)"/>
     <use xlink:href="#DejaVuSans-20" transform="translate(977.246094 0)"/>
     <use xlink:href="#DejaVuSans-66" transform="translate(1009.033203 0)"/>
     <use xlink:href="#DejaVuSans-6f" transform="translate(1044.238281 0)"/>
     <use xlink:href="#DejaVuSans-72" transform="translate(1105.419922 0)"/>
     <use xlink:href="#DejaVuSans-20" transform="translate(1146.533203 0)"/>
     <use xlink:href="#DejaVuSans-43" transform="translate(1178.320312 0)"/>
     <use xlink:href="#DejaVuSans-54" transform="translate(1248.144531 0)"/>
     <use xlink:href="#DejaVuSans-35" transform="translate(1309.228516 0)"/>
     <use xlink:href="#DejaVuSans-20" transform="translate(1372.851562 0)"/>
     <use xlink:href="#DejaVuSans-28" transform="translate(1404.638672 0)"/>
     <use xlink:href="#DejaVuSans-63" transform="translate(1443.652344 0)"/>
     <use xlink:href="#DejaVuSans-61" transform="translate(1498.632812 0)"/>
     <use xlink:href="#DejaVuSans-70" transform="translate(1559.912109 0)"/>
     <use xlink:href="#DejaVuSans-70" transform="translate(1623.388672 0)"/>
     <use xlink:href="#DejaVuSans-65" transform="translate(1686.865234 0)"/>
     <use xlink:href="#DejaVuSans-64" transform="translate(1748.388672 0)"/>
     <use xlink:href="#DejaVuSans-20" transform="translate(1811.865234 0)"/>
     <use xlink:href="#DejaVuSans-61" transform="translate(1843.652344 0)"/>
     <use xlink:href="#DejaVuSans-74" transform="translate(1904.931641 0)"/>
     <use xlink:href="#DejaVuSans-20" transform="translate(1944.140625 0)"/>
     <use xlink:href="#DejaVuSans-70" transform="translate(1975.927734 0)"/>
     <use xlink:href="#DejaVuSans-72" transform="translate(2039.404297 0)"/>
     <use xlink:href="#DejaVuSans-6f" transform="translate(2078.267578 0)"/>
     <use xlink:href="#DejaVuSans-6a" transform="translate(2139.449219 0)"/>
     <use xlink:href="#DejaVuSans-65" transform="translate(2167.232422 0)"/>
     <use xlink:href="#DejaVuSans-63" transform="translate(2228.755859 0)"/>
     <use xlink:href="#DejaVuSans-74" transform="translate(2283.736328 0)"/>
     <use xlink:href="#DejaVuSans-20" transform="translate(2322.945312 0)"/>
     <use xlink:href="#DejaVuSans-39" transform="translate(2354.732422 0)"/>
     <use xlink:href="#DejaVuSans-35" transform="translate(2418.355469 0)"/>
     <use xlink:href="#DejaVuSans-74" transform="translate(2481.978516 0)"/>
     <use xlink:href="#DejaVuSans-68" transform="translate(2521.1875 0)"/>
     <use xlink:href="#DejaVuSans-20" transform="translate(2584.566406 0)"/>
     <use xlink:href="#DejaVuSans-70" transform="translate(2616.353516 0)"/>
     <use xlink:href="#DejaVuSans-65" transform="translate(2679.830078 0)"/>
     <use xlink:href="#DejaVuSans-72" transform="translate(2741.353516 0)"/>
     <use xlink:href="#DejaVuSans-63" transform="translate(2780.216797 0)"/>
     <use xlink:href="#DejaVuSans-65" transform="translate(2835.197266 0)"/>
     <use xlink:href="#DejaVuSans-6e" transform="translate(2896.720703 0)"/>
     <use xlink:href="#DejaVuSans-74" transform="translate(2960.099609 0)"/>
     <use xlink:href="#DejaVuSans-69" transform="translate(2999.308594 0)"/>
     <use xlink:href="#DejaVuSans-6c" transform="translate(3027.091797 0)"/>
     <use xlink:href="#DejaVuSans-65" transform="translate(3054.875 0)"/>
     <use xlink:href="#DejaVuSans-29" transform="translate(3116.398438 0)"/>
    </g>
   </g>
   <g id="legend_1">
    <g id="patch_7">
     <path d="M 543.014375 308.478125 
L 626.26125 308.478125 
Q 628.26125 308.478125 628.26125 306.478125 
L 628.26125 248.765625 
Q 628.26125 246.765625 626.26125 246.765625 
L 543.014375 246.765625 
Q 541.014375 246.765625 541.014375 248.765625 
L 541.014375 306.478125 
Q 541.014375 308.478125 543.014375 308.478125 
z
" style="fill: #ffffff; opacity: 0.8; stroke: #cccccc; stroke-linejoin: miter"/>
    </g>
    <g id="text_15">
     <!-- Project -->
     <g transform="translate(567.533125 258.364062) scale(0.1 -0.1)">
      <defs>
       <path id="DejaVuSans-50" d="M 1259 4147 
L 1259 2394 
L 2053 2394 
Q 2494 2394 2734 2622 
Q 2975 2850 2975 3272 
Q 2975 3691 2734 3919 
Q 2494 4147 2053 4147 
L 1259 4147 
z
M 628 4666 
L 2053 4666 
Q 2838 4666 3239 4311 
Q 3641 3956 3641 3272 
Q 3641 2581 3239 2228 
Q 2838 1875 2053 1875 
L 1259 1875 
L 1259 0 
L 628 0 
L 628 4666 
z
" transform="scale(0.015625)"/>
      </defs>
      <use xlink:href="#DejaVuSans-50"/>
      <use xlink:href="#DejaVuSans-72" transform="translate(58.552734 0)"/>
      <use xlink:href="#DejaVuSans-6f" transform="translate(97.416016 0)"/>
      <use xlink:href="#DejaVuSans-6a" transform="translate(158.597656 0)"/>
      <use xlink:href="#DejaVuSans-65" transform="translate(186.380859 0)"/>
      <use xlink:href="#DejaVuSans-63" transform="translate(247.904297 0)"/>
      <use xlink:href="#DejaVuSans-74" transform="translate(302.884766 0)"/>
     </g>
    </g>
    <g id="line2d_15">
     <path d="M 545.014375 269.542188 
L 555.014375 269.542188 
L 565.014375 269.542188 
" style="fill: none; stroke: #1f77b4; stroke-width: 1.5; stroke-linecap: square"/>
    </g>
    <g id="text_16">
     <!-- SERVER -->
     <g transform="translate(573.014375 273.042188) scale(0.1 -0.1)">
      <defs>
       <path id="DejaVuSans-53" d="M 3425 4513 
L 3425 3897 
Q 3066 4069 2747 4153 
Q 2428 4238 2131 4238 
Q 1616 4238 1336 4038 
Q 1056 3838 1056 3469 
Q 1056 3159 1242 3001 
Q 1428 2844 1947 2747 
L 2328 2669 
Q 3034 2534 3370 2195 
Q 3706 1856 3706 1288 
Q 3706 609 3251 259 
Q 2797 -91 1919 -91 
Q 1588 -91 1214 -16 
Q 841 59 441 206 
L 441 856 
Q 825 641 1194 531 
Q 1563 422 1919 422 
Q 2459 422 2753 634 
Q 3047 847 3047 1241 
Q 3047 1584 2836 1778 
Q 2625 1972 2144 2069 
L 1759 2144 
Q 1053 2284 737 2584 
Q 422 2884 422 3419 
Q 422 4038 858 4394 
Q 1294 4750 2059 4750 
Q 2388 4750 2728 4690 
Q 3069 4631 3425 4513 
z
" transform="scale(0.015625)"/>
       <path id="DejaVuSans-52" d="M 2841 2188 
Q 3044 2119 3236 1894 
Q 3428 1669 3622 1275 
L 4263 0 
L 3584 0 
L 2988 1197 
Q 2756 1666 2539 1819 
Q 2322 1972 1947 1972 
L 1259 1972 
L 1259 0 
L 628 0 
L 628 4666 
L 2053 4666 
Q 2853 4666 3247 4331 
Q 3641 3997 3641 3322 
Q 3641 2881 3436 2590 
Q 3231 2300 2841 2188 
z
M 1259 4147 
L 1259 2491 
L 2053 2491 
Q 2509 2491 2742 2702 
Q 2975 2913 2975 3322 
Q 2975 3731 2742 3939 
Q 2509 4147 2053 4147 
L 1259 4147 
z
" transform="scale(0.015625)"/>
       <path id="DejaVuSans-56" d="M 1831 0 
L 50 4666 
L 709 4666 
L 2188 738 
L 3669 4666 
L 4325 4666 
L 2547 0 
L 1831 0 
z
" transform="scale(0.015625)"/>
      </defs>
      <use xlink:href="#DejaVuSans-53"/>
      <use xlink:href="#DejaVuSans-45" transform="translate(63.476562 0)"/>
      <use xlink:href="#DejaVuSans-52" transform="translate(126.660156 0)"/>
      <use xlink:href="#DejaVuSans-56" transform="translate(190.642578 0)"/>
      <use xlink:href="#DejaVuSans-45" transform="translate(259.050781 0)"/>
      <use xlink:href="#DejaVuSans-52" transform="translate(322.234375 0)"/>
     </g>
    </g>
    <g id="line2d_16">
     <path d="M 545.014375 284.220313 
L 555.014375 284.220313 
L 565.014375 284.220313 
" style="fill: none; stroke: #ff7f0e; stroke-width: 1.5; stroke-linecap: square"/>
    </g>
    <g id="text_17">
     <!-- MDL -->
     <g transform="translate(573.014375 287.720313) scale(0.1 -0.1)">
      <defs>
       <path id="DejaVuSans-4d" d="M 628 4666 
L 1569 4666 
L 2759 1491 
L 3956 4666 
L 4897 4666 
L 4897 0 
L 4281 0 
L 4281 4097 
L 3078 897 
L 2444 897 
L 1241 4097 
L 1241 0 
L 628 0 
L 628 4666 
z
" transform="scale(0.015625)"/>
       <path id="DejaVuSans-4c" d="M 628 4666 
L 1259 4666 
L 1259 531 
L 3531 531 
L 3531 0 
L 628 0 
L 628 4666 
z
" transform="scale(0.015625)"/>
      </defs>
      <use xlink:href="#DejaVuSans-4d"/>
      <use xlink:href="#DejaVuSans-44" transform="translate(86.279297 0)"/>
      <use xlink:href="#DejaVuSans-4c" transform="translate(163.28125 0)"/>
     </g>
    </g>
    <g id="line2d_17">
     <path d="M 545.014375 298.898438 
L 555.014375 298.898438 
L 565.014375 298.898438 
" style="fill: none; stroke: #2ca02c; stroke-width: 1.5; stroke-linecap: square"/>
    </g>
    <g id="text_18">
     <!-- JRACLOUD -->
     <g transform="translate(573.014375 302.398438) scale(0.1 -0.1)">
      <defs>
       <path id="DejaVuSans-4a" d="M 628 4666 
L 1259 4666 
L 1259 325 
Q 1259 -519 939 -900 
Q 619 -1281 -91 -1281 
L -331 -1281 
L -331 -750 
L -134 -750 
Q 284 -750 456 -515 
Q 628 -281 628 325 
L 628 4666 
z
" transform="scale(0.015625)"/>
       <path id="DejaVuSans-41" d="M 2188 4044 
L 1331 1722 
L 3047 1722 
L 2188 4044 
z
M 1831 4666 
L 2547 4666 
L 4325 0 
L 3669 0 
L 3244 1197 
L 1141 1197 
L 716 0 
L 50 0 
L 1831 4666 
z
" transform="scale(0.015625)"/>
       <path id="DejaVuSans-4f" d="M 2522 4238 
Q 1834 4238 1429 3725 
Q 1025 3213 1025 2328 
Q 1025 1447 1429 934 
Q 1834 422 2522 422 
Q 3209 422 3611 934 
Q 4013 1447 4013 2328 
Q 4013 3213 3611 3725 
Q 3209 4238 2522 4238 
z
M 2522 4750 
Q 3503 4750 4090 4092 
Q 4678 3434 4678 2328 
Q 4678 1225 4090 567 
Q 3503 -91 2522 -91 
Q 1538 -91 948 565 
Q 359 1222 359 2328 
Q 359 3434 948 4092 
Q 1538 4750 2522 4750 
z
" transform="scale(0.015625)"/>
       <path id="DejaVuSans-55" d="M 556 4666 
L 1191 4666 
L 1191 1831 
Q 1191 1081 1462 751 
Q 1734 422 2344 422 
Q 2950 422 3222 751 
Q 3494 1081 3494 1831 
L 3494 4666 
L 4128 4666 
L 4128 1753 
Q 4128 841 3676 375 
Q 3225 -91 2344 -91 
Q 1459 -91 1007 375 
Q 556 841 556 1753 
L 556 4666 
z
" transform="scale(0.015625)"/>
      </defs>
      <use xlink:href="#DejaVuSans-4a"/>
      <use xlink:href="#DejaVuSans-52" transform="translate(29.492188 0)"/>
      <use xlink:href="#DejaVuSans-41" transform="translate(94.974609 0)"/>
      <use xlink:href="#DejaVuSans-43" transform="translate(161.632812 0)"/>
      <use xlink:href="#DejaVuSans-4c" transform="translate(231.457031 0)"/>
      <use xlink:href="#DejaVuSans-4f" transform="translate(283.544922 0)"/>
      <use xlink:href="#DejaVuSans-55" transform="translate(362.255859 0)"/>
      <use xlink:href="#DejaVuSans-44" transform="translate(435.449219 0)"/>
     </g>
    </g>
   </g>
  </g>
 </g>
 <defs>
  <clipPath id="pf0a7c4bb1b">
   <rect x="43.78125" y="22.318125" width="589.48" height="291.16"/>
  </clipPath>
 </defs>
</svg>
