<?xml version="1.0" encoding="utf-8" standalone="no"?>
<!DOCTYPE svg PUBLIC "-//W3C//DTD SVG 1.1//EN"
  "http://www.w3.org/Graphics/SVG/1.1/DTD/svg11.dtd">
<svg xmlns:xlink="http://www.w3.org/1999/xlink" width="640.46125pt" height="351.034375pt" viewBox="0 0 640.46125 351.034375" xmlns="http://www.w3.org/2000/svg" version="1.1">
 <metadata>
  <rdf:RDF xmlns:dc="http://purl.org/dc/elements/1.1/" xmlns:cc="http://creativecommons.org/ns#" xmlns:rdf="http://www.w3.org/1999/02/22-rdf-syntax-ns#">
   <cc:Work>
    <dc:type rdf:resource="http://purl.org/dc/dcmitype/StillImage"/>
    <dc:date>2026-03-24T20:16:09.411369</dc:date>
    <dc:format>image/svg+xml</dc:format>
    <dc:creator>
     <cc:Agent>
      <dc:title>Matplotlib v3.10.8, https://matplotlib.org/</dc:title>
     </cc:Agent>
    </dc:creator>
   </cc:Work>
  </rdf:RDF>
 </metadata>
 <defs>
  <style type="text/css">*{stroke-linejoin: round; stroke-linecap: butt}</style>
 </defs>
 <g id="figure_1">
  <g id="patch_1">
   <path d="M 0 351.034375 
L 640.46125 351.034375 
L 640.46125 0 
L 0 0 
z
" style="fill: #ffffff"/>
  </g>
  <g id="axes_1">
   <g id="patch_2">
    <path d="M 43.78125 313.478125 
L 633.26125 313.478125 
L 633.26125 22.318125 
L 43.78125 22.318125 
z
" style="fill: #ffffff"/>
   </g>
   <g id="matplotlib.axis_1">
    <g id="xtick_1">
     <g id="line2d_1">
      <defs>
       <path id="mec970518a2" d="M 0 0 
L 0 3.5 
" style="stroke: #000000; stroke-width: 0.8"/>
      </defs>
      <g>
       <use xlink:href="#mec970518a2" x="70.573891" y="313.478125" style="stroke: #000000; stroke-width: 0.8"/>
      </g>
     </g>
     <g id="text_1">
      <!-- 0 -->
      <g transform="translate(67.392641 328.076563) scale(0.1 -0.1)">
       <defs>
        <path id="DejaVuSans-30" d="M 2034 4250 
Q 1547 4250 1301 3770 
Q 1056 3291 1056 2328 
Q 1056 1369 1301 889 
Q 1547 409 2034 409 
Q 2525 409 2770 889 
Q 3016 1369 3016 2328 
Q 3016 3291 2770 3770 
Q 2525 4250 2034 4250 
z
M 2034 4750 
Q 2819 4750 3233 4129 
Q 3647 3509 3647 2328 
Q 3647 1150 3233 529 
Q 2819 -91 2034 -91 
Q 1250 -91 836 529 
Q 422 1150 422 2328 
Q 422 3509 836 4129 
Q 1250 4750 2034 4750 
z
" transform="scale(0.015625)"/>
       </defs>
       <use xlink:href="#DejaVuSans-30"/>
      </g>
     </g>
    </g>
    <g id="xtick_2">
     <g id="line2d_2">
      <g>
       <use xlink:href="#mec970518a2" x="139.144034" y="313.478125" style="stroke: #000000; stroke-width: 0.8"/>
      </g>
     </g>
     <g id="text_2">
      <!-- 25 -->
      <g transform="translate(132.781534 328.076563) scale(0.1 -0.1)">
       <defs>
        <path id="DejaVuSans-32" d="M 1228 531 
L 3431 531 
L 3431 0 
L 469 0 
L 469 531 
Q 828 903 1448 1529 
Q 2069 2156 2228 2338 
Q 2531 2678 2651 2914 
Q 2772 3150 2772 3378 
Q 2772 3750 2511 3984 
Q 2250 4219 1831 4219 
Q 1534 4219 1204 4116 
Q 875 4013 500 3803 
L 500 4441 
Q 881 4594 1212 4672 
Q 1544 4750 1819 4750 
Q 2544 4750 2975 4387 
Q 3406 4025 3406 3419 
Q 3406 3131 3298 2873 
Q 3191 2616 2906 2266 
Q 2828 2175 2409 1742 
Q 1991 1309 1228 531 
z
" transform="scale(0.015625)"/>
        <path id="DejaVuSans-35" d="M 691 4666 
L 3169 4666 
L 3169 4134 
L 1269 4134 
L 1269 2991 
Q 1406 3038 1543 3061 
Q 1681 3084 1819 3084 
Q 2600 3084 3056 2656 
Q 3513 2228 3513 1497 
Q 3513 744 3044 326 
Q 2575 -91 1722 -91 
Q 1428 -91 1123 -41 
Q 819 9 494 109 
L 494 744 
Q 775 591 1075 516 
Q 1375 441 1709 441 
Q 2250 441 2565 725 
Q 2881 1009 2881 1497 
Q 2881 1984 2565 2268 
Q 2250 2553 1709 2553 
Q 1456 2553 1204 2497 
Q 953 2441 691 2322 
L 691 4666 
z
" transform="scale(0.015625)"/>
       </defs>
       <use xlink:href="#DejaVuSans-32"/>
       <use xlink:href="#DejaVuSans-35" transform="translate(63.623047 0)"/>
      </g>
     </g>
    </g>
    <g id="xtick_3">
     <g id="line2d_3">
      <g>
       <use xlink:href="#mec970518a2" x="207.714178" y="313.478125" style="stroke: #000000; stroke-width: 0.8"/>
      </g>
     </g>
     <g id="text_3">
      <!-- 50 -->
      <g transform="translate(201.351678 328.076563) scale(0.1 -0.1)">
       <use xlink:href="#DejaVuSans-35"/>
       <use xlink:href="#DejaVuSans-30" transform="translate(63.623047 0)"/>
      </g>
     </g>
    </g>
    <g id="xtick_4">
     <g id="line2d_4">
      <g>
       <use xlink:href="#mec970518a2" x="276.284321" y="313.478125" style="stroke: #000000; stroke-width: 0.8"/>
      </g>
     </g>
     <g id="text_4">
      <!-- 75 -->
      <g transform="translate(269.921821 328.076563) scale(0.1 -0.1)">
       <defs>
        <path id="DejaVuSans-37" d="M 525 4666 
L 3525 4666 
L 3525 4397 
L 1831 0 
L 1172 0 
L 2766 4134 
L 525 4134 
L 525 4666 
z
" transform="scale(0.015625)"/>
       </defs>
       <use xlink:href="#DejaVuSans-37"/>
       <use xlink:href="#DejaVuSans-35" transform="translate(63.623047 0)"/>
      </g>
     </g>
    </g>
    <g id="xtick_5">
     <g id="line2d_5">
      <g>
       <use xlink:href="#mec970518a2" x="344.854465" y="313.478125" style="stroke: #000000; stroke-width: 0.8"/>
      </g>
     </g>
     <g id="text_5">
      <!-- 100 -->
      <g transform="translate(335.310715 328.076563) scale(0.1 -0.1)">
       <defs>
        <path id="DejaVuSans-31" d="M 794 531 
L 1825 531 
L 1825 4091 
L 703 3866 
L 703 4441 
L 1819 4666 
L 2450 4666 
L 2450 531 
L 3481 531 
L 3481 0 
L 794 0 
L 794 531 
z
" transform="scale(0.015625)"/>
       </defs>
       <use xlink:href="#DejaVuSans-31"/>
       <use xlink:href="#DejaVuSans-30" transform="translate(63.623047 0)"/>
       <use xlink:href="#DejaVuSans-30" transform="translate(127.246094 0)"/>
      </g>
     </g>
    </g>
    <g id="xtick_6">
     <g id="line2d_6">
      <g>
       <use xlink:href="#mec970518a2" x="413.424608" y="313.478125" style="stroke: #000000; stroke-width: 0.8"/>
      </g>
     </g>
     <g id="text_6">
      <!-- 125 -->
      <g transform="translate(403.880858 328.076563) scale(0.1 -0.1)">
       <use xlink:href="#DejaVuSans-31"/>
       <use xlink:href="#DejaVuSans-32" transform="translate(63.623047 0)"/>
       <use xlink:href="#DejaVuSans-35" transform="translate(127.246094 0)"/>
      </g>
     </g>
    </g>
    <g id="xtick_7">
     <g id="line2d_7">
      <g>
       <use xlink:href="#mec970518a2" x="481.994752" y="313.478125" style="stroke: #000000; stroke-width: 0.8"/>
      </g>
     </g>
     <g id="text_7">
      <!-- 150 -->
      <g transform="translate(472.451002 328.076563) scale(0.1 -0.1)">
       <use xlink:href="#DejaVuSans-31"/>
       <use xlink:href="#DejaVuSans-35" transform="translate(63.623047 0)"/>
       <use xlink:href="#DejaVuSans-30" transform="translate(127.246094 0)"/>
      </g>
     </g>
    </g>
    <g id="xtick_8">
     <g id="line2d_8">
      <g>
       <use xlink:href="#mec970518a2" x="550.564895" y="313.478125" style="stroke: #000000; stroke-width: 0.8"/>
      </g>
     </g>
     <g id="text_8">
      <!-- 175 -->
      <g transform="translate(541.021145 328.076563) scale(0.1 -0.1)">
       <use xlink:href="#DejaVuSans-31"/>
       <use xlink:href="#DejaVuSans-37" transform="translate(63.623047 0)"/>
       <use xlink:href="#DejaVuSans-35" transform="translate(127.246094 0)"/>
      </g>
     </g>
    </g>
    <g id="xtick_9">
     <g id="line2d_9">
      <g>
       <use xlink:href="#mec970518a2" x="619.135039" y="313.478125" style="stroke: #000000; stroke-width: 0.8"/>
      </g>
     </g>
     <g id="text_9">
      <!-- 200 -->
      <g transform="translate(609.591289 328.076563) scale(0.1 -0.1)">
       <use xlink:href="#DejaVuSans-32"/>
       <use xlink:href="#DejaVuSans-30" transform="translate(63.623047 0)"/>
       <use xlink:href="#DejaVuSans-30" transform="translate(127.246094 0)"/>
      </g>
     </g>
    </g>
    <g id="text_10">
     <!-- Cycle Time (days) -->
     <g transform="translate(293.74 341.754687) scale(0.1 -0.1)">
      <defs>
       <path id="DejaVuSans-43" d="M 4122 4306 
L 4122 3641 
Q 3803 3938 3442 4084 
Q 3081 4231 2675 4231 
Q 1875 4231 1450 3742 
Q 1025 3253 1025 2328 
Q 1025 1406 1450 917 
Q 1875 428 2675 428 
Q 3081 428 3442 575 
Q 3803 722 4122 1019 
L 4122 359 
Q 3791 134 3420 21 
Q 3050 -91 2638 -91 
Q 1578 -91 968 557 
Q 359 1206 359 2328 
Q 359 3453 968 4101 
Q 1578 4750 2638 4750 
Q 3056 4750 3426 4639 
Q 3797 4528 4122 4306 
z
" transform="scale(0.015625)"/>
       <path id="DejaVuSans-79" d="M 2059 -325 
Q 1816 -950 1584 -1140 
Q 1353 -1331 966 -1331 
L 506 -1331 
L 506 -850 
L 844 -850 
Q 1081 -850 1212 -737 
Q 1344 -625 1503 -206 
L 1606 56 
L 191 3500 
L 800 3500 
L 1894 763 
L 2988 3500 
L 3597 3500 
L 2059 -325 
z
" transform="scale(0.015625)"/>
       <path id="DejaVuSans-63" d="M 3122 3366 
L 3122 2828 
Q 2878 2963 2633 3030 
Q 2388 3097 2138 3097 
Q 1578 3097 1268 2742 
Q 959 2388 959 1747 
Q 959 1106 1268 751 
Q 1578 397 2138 397 
Q 2388 397 2633 464 
Q 2878 531 3122 666 
L 3122 134 
Q 2881 22 2623 -34 
Q 2366 -91 2075 -91 
Q 1284 -91 818 406 
Q 353 903 353 1747 
Q 353 2603 823 3093 
Q 1294 3584 2113 3584 
Q 2378 3584 2631 3529 
Q 2884 3475 3122 3366 
z
" transform="scale(0.015625)"/>
       <path id="DejaVuSans-6c" d="M 603 4863 
L 1178 4863 
L 1178 0 
L 603 0 
L 603 4863 
z
" transform="scale(0.015625)"/>
       <path id="DejaVuSans-65" d="M 3597 1894 
L 3597 1613 
L 953 1613 
Q 991 1019 1311 708 
Q 1631 397 2203 397 
Q 2534 397 2845 478 
Q 3156 559 3463 722 
L 3463 178 
Q 3153 47 2828 -22 
Q 2503 -91 2169 -91 
Q 1331 -91 842 396 
Q 353 884 353 1716 
Q 353 2575 817 3079 
Q 1281 3584 2069 3584 
Q 2775 3584 3186 3129 
Q 3597 2675 3597 1894 
z
M 3022 2063 
Q 3016 2534 2758 2815 
Q 2500 3097 2075 3097 
Q 1594 3097 1305 2825 
Q 1016 2553 972 2059 
L 3022 2063 
z
" transform="scale(0.015625)"/>
       <path id="DejaVuSans-20" transform="scale(0.015625)"/>
       <path id="DejaVuSans-54" d="M -19 4666 
L 3928 4666 
L 3928 4134 
L 2272 4134 
L 2272 0 
L 1638 0 
L 1638 4134 
L -19 4134 
L -19 4666 
z
" transform="scale(0.015625)"/>
       <path id="DejaVuSans-69" d="M 603 3500 
L 1178 3500 
L 1178 0 
L 603 0 
L 603 3500 
z
M 603 4863 
L 1178 4863 
L 1178 4134 
L 603 4134 
L 603 4863 
z
" transform="scale(0.015625)"/>
       <path id="DejaVuSans-6d" d="M 3328 2828 
Q 3544 3216 3844 3400 
Q 4144 3584 4550 3584 
Q 5097 3584 5394 3201 
Q 5691 2819 5691 2113 
L 5691 0 
L 5113 0 
L 5113 2094 
Q 5113 2597 4934 2840 
Q 4756 3084 4391 3084 
Q 3944 3084 3684 2787 
Q 3425 2491 3425 1978 
L 3425 0 
L 2847 0 
L 2847 2094 
Q 2847 2600 2669 2842 
Q 2491 3084 2119 3084 
Q 1678 3084 1418 2786 
Q 1159 2488 1159 1978 
L 1159 0 
L 581 0 
L 581 3500 
L 1159 3500 
L 1159 2956 
Q 1356 3278 1631 3431 
Q 1906 3584 2284 3584 
Q 2666 3584 2933 3390 
Q 3200 3197 3328 2828 
z
" transform="scale(0.015625)"/>
       <path id="DejaVuSans-28" d="M 1984 4856 
Q 1566 4138 1362 3434 
Q 1159 2731 1159 2009 
Q 1159 1288 1364 580 
Q 1569 -128 1984 -844 
L 1484 -844 
Q 1016 -109 783 600 
Q 550 1309 550 2009 
Q 550 2706 781 3412 
Q 1013 4119 1484 4856 
L 1984 4856 
z
" transform="scale(0.015625)"/>
       <path id="DejaVuSans-64" d="M 2906 2969 
L 2906 4863 
L 3481 4863 
L 3481 0 
L 2906 0 
L 2906 525 
Q 2725 213 2448 61 
Q 2172 -91 1784 -91 
Q 1150 -91 751 415 
Q 353 922 353 1747 
Q 353 2572 751 3078 
Q 1150 3584 1784 3584 
Q 2172 3584 2448 3432 
Q 2725 3281 2906 2969 
z
M 947 1747 
Q 947 1113 1208 752 
Q 1469 391 1925 391 
Q 2381 391 2643 752 
Q 2906 1113 2906 1747 
Q 2906 2381 2643 2742 
Q 2381 3103 1925 3103 
Q 1469 3103 1208 2742 
Q 947 2381 947 1747 
z
" transform="scale(0.015625)"/>
       <path id="DejaVuSans-61" d="M 2194 1759 
Q 1497 1759 1228 1600 
Q 959 1441 959 1056 
Q 959 750 1161 570 
Q 1363 391 1709 391 
Q 2188 391 2477 730 
Q 2766 1069 2766 1631 
L 2766 1759 
L 2194 1759 
z
M 3341 1997 
L 3341 0 
L 2766 0 
L 2766 531 
Q 2569 213 2275 61 
Q 1981 -91 1556 -91 
Q 1019 -91 701 211 
Q 384 513 384 1019 
Q 384 1609 779 1909 
Q 1175 2209 1959 2209 
L 2766 2209 
L 2766 2266 
Q 2766 2663 2505 2880 
Q 2244 3097 1772 3097 
Q 1472 3097 1187 3025 
Q 903 2953 641 2809 
L 641 3341 
Q 956 3463 1253 3523 
Q 1550 3584 1831 3584 
Q 2591 3584 2966 3190 
Q 3341 2797 3341 1997 
z
" transform="scale(0.015625)"/>
       <path id="DejaVuSans-73" d="M 2834 3397 
L 2834 2853 
Q 2591 2978 2328 3040 
Q 2066 3103 1784 3103 
Q 1356 3103 1142 2972 
Q 928 2841 928 2578 
Q 928 2378 1081 2264 
Q 1234 2150 1697 2047 
L 1894 2003 
Q 2506 1872 2764 1633 
Q 3022 1394 3022 966 
Q 3022 478 2636 193 
Q 2250 -91 1575 -91 
Q 1294 -91 989 -36 
Q 684 19 347 128 
L 347 722 
Q 666 556 975 473 
Q 1284 391 1588 391 
Q 1994 391 2212 530 
Q 2431 669 2431 922 
Q 2431 1156 2273 1281 
Q 2116 1406 1581 1522 
L 1381 1569 
Q 847 1681 609 1914 
Q 372 2147 372 2553 
Q 372 3047 722 3315 
Q 1072 3584 1716 3584 
Q 2034 3584 2315 3537 
Q 2597 3491 2834 3397 
z
" transform="scale(0.015625)"/>
       <path id="DejaVuSans-29" d="M 513 4856 
L 1013 4856 
Q 1481 4119 1714 3412 
Q 1947 2706 1947 2009 
Q 1947 1309 1714 600 
Q 1481 -109 1013 -844 
L 513 -844 
Q 928 -128 1133 580 
Q 1338 1288 1338 2009 
Q 1338 2731 1133 3434 
Q 928 4138 513 4856 
z
" transform="scale(0.015625)"/>
      </defs>
      <use xlink:href="#DejaVuSans-43"/>
      <use xlink:href="#DejaVuSans-79" transform="translate(69.824219 0)"/>
      <use xlink:href="#DejaVuSans-63" transform="translate(129.003906 0)"/>
      <use xlink:href="#DejaVuSans-6c" transform="translate(183.984375 0)"/>
      <use xlink:href="#DejaVuSans-65" transform="translate(211.767578 0)"/>
      <use xlink:href="#DejaVuSans-20" transform="translate(273.291016 0)"/>
      <use xlink:href="#DejaVuSans-54" transform="translate(305.078125 0)"/>
      <use xlink:href="#DejaVuSans-69" transform="translate(363.037109 0)"/>
      <use xlink:href="#DejaVuSans-6d" transform="translate(390.820312 0)"/>
      <use xlink:href="#DejaVuSans-65" transform="translate(488.232422 0)"/>
      <use xlink:href="#DejaVuSans-20" transform="translate(549.755859 0)"/>
      <use xlink:href="#DejaVuSans-28" transform="translate(581.542969 0)"/>
      <use xlink:href="#DejaVuSans-64" transform="translate(620.556641 0)"/>
      <use xlink:href="#DejaVuSans-61" transform="translate(684.033203 0)"/>
      <use xlink:href="#DejaVuSans-79" transform="translate(745.3125 0)"/>
      <use xlink:href="#DejaVuSans-73" transform="translate(804.492188 0)"/>
      <use xlink:href="#DejaVuSans-29" transform="translate(856.591797 0)"/>
     </g>
    </g>
   </g>
   <g id="matplotlib.axis_2">
    <g id="ytick_1">
     <g id="line2d_10">
      <defs>
       <path id="mb277e75752" d="M 0 0 
L -3.5 0 
" style="stroke: #000000; stroke-width: 0.8"/>
      </defs>
      <g>
       <use xlink:href="#mb277e75752" x="43.78125" y="300.274049" style="stroke: #000000; stroke-width: 0.8"/>
      </g>
     </g>
     <g id="text_11">
      <!-- 0.0 -->
      <g transform="translate(20.878125 304.073268) scale(0.1 -0.1)">
       <defs>
        <path id="DejaVuSans-2e" d="M 684 794 
L 1344 794 
L 1344 0 
L 684 0 
L 684 794 
z
" transform="scale(0.015625)"/>
       </defs>
       <use xlink:href="#DejaVuSans-30"/>
       <use xlink:href="#DejaVuSans-2e" transform="translate(63.623047 0)"/>
       <use xlink:href="#DejaVuSans-30" transform="translate(95.410156 0)"/>
      </g>
     </g>
    </g>
    <g id="ytick_2">
     <g id="line2d_11">
      <g>
       <use xlink:href="#mb277e75752" x="43.78125" y="244.538742" style="stroke: #000000; stroke-width: 0.8"/>
      </g>
     </g>
     <g id="text_12">
      <!-- 0.2 -->
      <g transform="translate(20.878125 248.337961) scale(0.1 -0.1)">
       <use xlink:href="#DejaVuSans-30"/>
       <use xlink:href="#DejaVuSans-2e" transform="translate(63.623047 0)"/>
       <use xlink:href="#DejaVuSans-32" transform="translate(95.410156 0)"/>
      </g>
     </g>
    </g>
    <g id="ytick_3">
     <g id="line2d_12">
      <g>
       <use xlink:href="#mb277e75752" x="43.78125" y="188.803436" style="stroke: #000000; stroke-width: 0.8"/>
      </g>
     </g>
     <g id="text_13">
      <!-- 0.4 -->
      <g transform="translate(20.878125 192.602654) scale(0.1 -0.1)">
       <defs>
        <path id="DejaVuSans-34" d="M 2419 4116 
L 825 1625 
L 2419 1625 
L 2419 4116 
z
M 2253 4666 
L 3047 4666 
L 3047 1625 
L 3713 1625 
L 3713 1100 
L 3047 1100 
L 3047 0 
L 2419 0 
L 2419 1100 
L 313 1100 
L 313 1709 
L 2253 4666 
z
" transform="scale(0.015625)"/>
       </defs>
       <use xlink:href="#DejaVuSans-30"/>
       <use xlink:href="#DejaVuSans-2e" transform="translate(63.623047 0)"/>
       <use xlink:href="#DejaVuSans-34" transform="translate(95.410156 0)"/>
      </g>
     </g>
    </g>
    <g id="ytick_4">
     <g id="line2d_13">
      <g>
       <use xlink:href="#mb277e75752" x="43.78125" y="133.068129" style="stroke: #000000; stroke-width: 0.8"/>
      </g>
     </g>
     <g id="text_14">
      <!-- 0.6 -->
      <g transform="translate(20.878125 136.867347) scale(0.1 -0.1)">
       <defs>
        <path id="DejaVuSans-36" d="M 2113 2584 
Q 1688 2584 1439 2293 
Q 1191 2003 1191 1497 
Q 1191 994 1439 701 
Q 1688 409 2113 409 
Q 2538 409 2786 701 
Q 3034 994 3034 1497 
Q 3034 2003 2786 2293 
Q 2538 2584 2113 2584 
z
M 3366 4563 
L 3366 3988 
Q 3128 4100 2886 4159 
Q 2644 4219 2406 4219 
Q 1781 4219 1451 3797 
Q 1122 3375 1075 2522 
Q 1259 2794 1537 2939 
Q 1816 3084 2150 3084 
Q 2853 3084 3261 2657 
Q 3669 2231 3669 1497 
Q 3669 778 3244 343 
Q 2819 -91 2113 -91 
Q 1303 -91 875 529 
Q 447 1150 447 2328 
Q 447 3434 972 4092 
Q 1497 4750 2381 4750 
Q 2619 4750 2861 4703 
Q 3103 4656 3366 4563 
z
" transform="scale(0.015625)"/>
       </defs>
       <use xlink:href="#DejaVuSans-30"/>
       <use xlink:href="#DejaVuSans-2e" transform="translate(63.623047 0)"/>
       <use xlink:href="#DejaVuSans-36" transform="translate(95.410156 0)"/>
      </g>
     </g>
    </g>
    <g id="ytick_5">
     <g id="line2d_14">
      <g>
       <use xlink:href="#mb277e75752" x="43.78125" y="77.332822" style="stroke: #000000; stroke-width: 0.8"/>
      </g>
     </g>
     <g id="text_15">
      <!-- 0.8 -->
      <g transform="translate(20.878125 81.132041) scale(0.1 -0.1)">
       <defs>
        <path id="DejaVuSans-38" d="M 2034 2216 
Q 1584 2216 1326 1975 
Q 1069 1734 1069 1313 
Q 1069 891 1326 650 
Q 1584 409 2034 409 
Q 2484 409 2743 651 
Q 3003 894 3003 1313 
Q 3003 1734 2745 1975 
Q 2488 2216 2034 2216 
z
M 1403 2484 
Q 997 2584 770 2862 
Q 544 3141 544 3541 
Q 544 4100 942 4425 
Q 1341 4750 2034 4750 
Q 2731 4750 3128 4425 
Q 3525 4100 3525 3541 
Q 3525 3141 3298 2862 
Q 3072 2584 2669 2484 
Q 3125 2378 3379 2068 
Q 3634 1759 3634 1313 
Q 3634 634 3220 271 
Q 2806 -91 2034 -91 
Q 1263 -91 848 271 
Q 434 634 434 1313 
Q 434 1759 690 2068 
Q 947 2378 1403 2484 
z
M 1172 3481 
Q 1172 3119 1398 2916 
Q 1625 2713 2034 2713 
Q 2441 2713 2670 2916 
Q 2900 3119 2900 3481 
Q 2900 3844 2670 4047 
Q 2441 4250 2034 4250 
Q 1625 4250 1398 4047 
Q 1172 3844 1172 3481 
z
" transform="scale(0.015625)"/>
       </defs>
       <use xlink:href="#DejaVuSans-30"/>
       <use xlink:href="#DejaVuSans-2e" transform="translate(63.623047 0)"/>
       <use xlink:href="#DejaVuSans-38" transform="translate(95.410156 0)"/>
      </g>
     </g>
    </g>
    <g id="text_16">
     <!-- Cumulative proportion -->
     <g transform="translate(14.798438 224.067656) rotate(-90) scale(0.1 -0.1)">
      <defs>
       <path id="DejaVuSans-75" d="M 544 1381 
L 544 3500 
L 1119 3500 
L 1119 1403 
Q 1119 906 1312 657 
Q 1506 409 1894 409 
Q 2359 409 2629 706 
Q 2900 1003 2900 1516 
L 2900 3500 
L 3475 3500 
L 3475 0 
L 2900 0 
L 2900 538 
Q 2691 219 2414 64 
Q 2138 -91 1772 -91 
Q 1169 -91 856 284 
Q 544 659 544 1381 
z
M 1991 3584 
L 1991 3584 
z
" transform="scale(0.015625)"/>
       <path id="DejaVuSans-74" d="M 1172 4494 
L 1172 3500 
L 2356 3500 
L 2356 3053 
L 1172 3053 
L 1172 1153 
Q 1172 725 1289 603 
Q 1406 481 1766 481 
L 2356 481 
L 2356 0 
L 1766 0 
Q 1100 0 847 248 
Q 594 497 594 1153 
L 594 3053 
L 172 3053 
L 172 3500 
L 594 3500 
L 594 4494 
L 1172 4494 
z
" transform="scale(0.015625)"/>
       <path id="DejaVuSans-76" d="M 191 3500 
L 800 3500 
L 1894 563 
L 2988 3500 
L 3597 3500 
L 2284 0 
L 1503 0 
L 191 3500 
z
" transform="scale(0.015625)"/>
       <path id="DejaVuSans-70" d="M 1159 525 
L 1159 -1331 
L 581 -1331 
L 581 3500 
L 1159 3500 
L 1159 2969 
Q 1341 3281 1617 3432 
Q 1894 3584 2278 3584 
Q 2916 3584 3314 3078 
Q 3713 2572 3713 1747 
Q 3713 922 3314 415 
Q 2916 -91 2278 -91 
Q 1894 -91 1617 61 
Q 1341 213 1159 525 
z
M 3116 1747 
Q 3116 2381 2855 2742 
Q 2594 3103 2138 3103 
Q 1681 3103 1420 2742 
Q 1159 2381 1159 1747 
Q 1159 1113 1420 752 
Q 1681 391 2138 391 
Q 2594 391 2855 752 
Q 3116 1113 3116 1747 
z
" transform="scale(0.015625)"/>
       <path id="DejaVuSans-72" d="M 2631 2963 
Q 2534 3019 2420 3045 
Q 2306 3072 2169 3072 
Q 1681 3072 1420 2755 
Q 1159 2438 1159 1844 
L 1159 0 
L 581 0 
L 581 3500 
L 1159 3500 
L 1159 2956 
Q 1341 3275 1631 3429 
Q 1922 3584 2338 3584 
Q 2397 3584 2469 3576 
Q 2541 3569 2628 3553 
L 2631 2963 
z
" transform="scale(0.015625)"/>
       <path id="DejaVuSans-6f" d="M 1959 3097 
Q 1497 3097 1228 2736 
Q 959 2375 959 1747 
Q 959 1119 1226 758 
Q 1494 397 1959 397 
Q 2419 397 2687 759 
Q 2956 1122 2956 1747 
Q 2956 2369 2687 2733 
Q 2419 3097 1959 3097 
z
M 1959 3584 
Q 2709 3584 3137 3096 
Q 3566 2609 3566 1747 
Q 3566 888 3137 398 
Q 2709 -91 1959 -91 
Q 1206 -91 779 398 
Q 353 888 353 1747 
Q 353 2609 779 3096 
Q 1206 3584 1959 3584 
z
" transform="scale(0.015625)"/>
       <path id="DejaVuSans-6e" d="M 3513 2113 
L 3513 0 
L 2938 0 
L 2938 2094 
Q 2938 2591 2744 2837 
Q 2550 3084 2163 3084 
Q 1697 3084 1428 2787 
Q 1159 2491 1159 1978 
L 1159 0 
L 581 0 
L 581 3500 
L 1159 3500 
L 1159 2956 
Q 1366 3272 1645 3428 
Q 1925 3584 2291 3584 
Q 2894 3584 3203 3211 
Q 3513 2838 3513 2113 
z
" transform="scale(0.015625)"/>
      </defs>
      <use xlink:href="#DejaVuSans-43"/>
      <use xlink:href="#DejaVuSans-75" transform="translate(69.824219 0)"/>
      <use xlink:href="#DejaVuSans-6d" transform="translate(133.203125 0)"/>
      <use xlink:href="#DejaVuSans-75" transform="translate(230.615234 0)"/>
      <use xlink:href="#DejaVuSans-6c" transform="translate(293.994141 0)"/>
      <use xlink:href="#DejaVuSans-61" transform="translate(321.777344 0)"/>
      <use xlink:href="#DejaVuSans-74" transform="translate(383.056641 0)"/>
      <use xlink:href="#DejaVuSans-69" transform="translate(422.265625 0)"/>
      <use xlink:href="#DejaVuSans-76" transform="translate(450.048828 0)"/>
      <use xlink:href="#DejaVuSans-65" transform="translate(509.228516 0)"/>
      <use xlink:href="#DejaVuSans-20" transform="translate(570.751953 0)"/>
      <use xlink:href="#DejaVuSans-70" transform="translate(602.539062 0)"/>
      <use xlink:href="#DejaVuSans-72" transform="translate(666.015625 0)"/>
      <use xlink:href="#DejaVuSans-6f" transform="translate(704.878906 0)"/>
      <use xlink:href="#DejaVuSans-70" transform="translate(766.060547 0)"/>
      <use xlink:href="#DejaVuSans-6f" transform="translate(829.537109 0)"/>
      <use xlink:href="#DejaVuSans-72" transform="translate(890.71875 0)"/>
      <use xlink:href="#DejaVuSans-74" transform="translate(931.832031 0)"/>
      <use xlink:href="#DejaVuSans-69" transform="translate(971.041016 0)"/>
      <use xlink:href="#DejaVuSans-6f" transform="translate(998.824219 0)"/>
      <use xlink:href="#DejaVuSans-6e" transform="translate(1060.005859 0)"/>
     </g>
    </g>
   </g>
   <g id="line2d_15">
    <path d="M 70.575795 300.24358 
L 70.68627 294.81996 
L 70.745316 292.10815 
L 70.85579 286.897819 
L 70.912932 284.216479 
L 71.023406 280.042121 
L 71.1015 277.025613 
L 71.210069 273.612999 
L 71.293877 272.05904 
L 71.404351 270.017566 
L 72.010054 265.995556 
L 72.194813 265.50804 
L 72.291954 265.142402 
L 72.35481 264.898644 
L 72.62909 261.821197 
L 73.010036 253.959996 
L 73.118605 250.79114 
L 73.18908 249.35906 
L 73.299554 245.702688 
L 73.396695 242.381483 
L 73.505264 239.425915 
L 73.550978 238.176654 
L 74.251917 228.639615 
L 74.537626 227.573173 
L 74.6481 227.359885 
L 74.78524 227.177066 
L 74.909048 226.994248 
L 75.162376 226.384852 
L 75.225232 226.019215 
L 75.4138 224.739485 
L 75.653796 222.880829 
L 75.762365 221.509689 
L 75.848078 220.473717 
L 75.958552 218.676 
L 76.590921 210.144464 
L 76.672824 209.900706 
L 77.177576 207.767822 
L 77.503285 207.402184 
L 77.88042 206.731849 
L 78.042322 205.848226 
L 78.430886 201.856686 
L 78.54136 200.363667 
L 79.253728 190.67428 
L 79.34325 190.125824 
L 79.449915 189.638307 
L 79.508961 189.2422 
L 79.737529 188.358577 
L 79.908954 188.175758 
L 80.00419 188.084349 
L 80.600369 187.657772 
L 80.7737 187.139786 
L 80.926078 186.378042 
L 80.969886 186.042874 
L 81.468925 181.167711 
L 81.575589 179.644222 
L 81.693682 178.425431 
L 81.958439 175.835501 
L 81.996534 175.652682 
L 82.061294 175.073756 
L 82.171769 174.403421 
L 82.512715 173.458858 
L 83.383174 172.788523 
L 84.023162 169.772016 
L 85.006001 162.763968 
L 85.247901 162.124103 
L 85.354566 161.880345 
L 86.091695 161.21001 
L 86.228835 160.752963 
L 86.445974 159.686521 
L 86.546925 158.711489 
L 86.594543 158.345851 
L 86.785015 156.944242 
L 86.838348 156.548135 
L 86.905013 155.969209 
L 87.844043 149.265859 
L 87.979279 148.961162 
L 88.122133 148.686934 
L 88.813549 148.077538 
L 88.931642 147.80331 
L 89.127829 147.102506 
L 89.352586 145.274319 
L 89.718294 141.465598 
L 90.042097 138.022514 
L 90.114477 137.291239 
L 90.30114 136.041978 
L 90.537326 134.914597 
L 90.676371 134.54896 
L 91.019222 134.305201 
L 91.242075 134.152853 
L 91.634448 133.848155 
L 91.843968 133.330169 
L 92.007775 132.598894 
L 92.221104 130.923057 
L 92.304912 130.46601 
L 92.413481 129.551917 
L 92.497289 128.912052 
L 93.152515 124.554874 
L 93.382987 123.85407 
L 94.666773 122.635279 
L 96.017223 117.607766 
L 96.255314 117.424948 
L 96.360074 117.303069 
L 96.449596 117.242129 
L 97.255295 117.08978 
L 97.377198 116.846022 
L 97.638145 116.236627 
L 97.893379 114.987366 
L 97.937187 114.743608 
L 98.047662 114.256091 
L 98.276229 113.281059 
L 98.462892 112.671663 
L 98.638127 112.092738 
L 99.076214 111.513812 
L 100.085719 111.148175 
L 100.205716 110.904417 
L 100.678088 109.716095 
L 100.836181 108.771532 
L 100.91237 108.436365 
L 101.019034 108.009788 
L 101.123794 107.7965 
L 101.527596 107.034755 
L 101.712355 106.851937 
L 102.062824 106.608179 
L 102.489483 106.45583 
L 102.605671 106.364421 
L 102.763764 106.212072 
L 102.92757 105.937844 
L 104.516112 102.007243 
L 104.727536 101.854894 
L 105.026578 101.702545 
L 105.039911 101.672076 
L 105.487522 101.550197 
L 105.837992 100.788452 
L 105.961799 100.300936 
L 106.864639 96.979731 
L 106.999875 96.796912 
L 107.457009 96.339866 
L 108.190329 96.187517 
L 109.018885 93.171009 
L 109.129359 92.439735 
L 109.344593 91.525642 
L 109.483638 91.068595 
L 109.582683 90.733427 
L 109.963629 90.093562 
L 110.074103 90.002153 
L 110.434096 89.788865 
L 110.540761 89.697455 
L 110.68171 89.514637 
L 110.935039 89.362288 
L 111.022656 89.209939 
L 111.203605 88.813832 
L 111.31408 88.570074 
L 111.561694 87.442692 
L 111.62455 87.229404 
L 111.824546 86.498129 
L 112.009305 86.254371 
L 112.243586 85.675445 
L 112.373107 85.492627 
L 112.655007 85.309808 
L 113.634036 85.03558 
L 113.782605 84.883231 
L 114.517829 83.512092 
L 114.637827 83.207394 
L 115.106389 82.35424 
L 115.192102 82.201891 
L 116.17875 81.653435 
L 116.508268 81.470617 
L 116.822548 80.9831 
L 117.340633 79.855719 
L 117.382537 79.76431 
L 117.729197 79.551021 
L 117.858719 79.398672 
L 118.100619 79.215854 
L 118.393947 79.093975 
L 119.121552 78.941626 
L 119.211074 78.789277 
L 119.393928 78.667398 
L 119.498688 78.454109 
L 119.738684 77.936123 
L 119.992012 77.631426 
L 120.077725 77.387667 
L 120.1482 77.204849 
L 120.329149 76.930621 
L 120.609143 76.625923 
L 122.23197 75.986058 
L 122.57863 75.498542 
L 123.113858 74.523509 
L 124.245266 74.157872 
L 124.658591 74.035992 
L 125.030013 73.457067 
L 125.159534 73.09143 
L 125.298579 72.878141 
L 125.39953 72.695322 
L 125.530956 72.146867 
L 125.610955 71.964048 
L 125.767142 71.537471 
L 126.02809 71.354653 
L 126.142373 71.141364 
L 127.125212 70.897606 
L 127.513776 70.684318 
L 127.654726 70.562438 
L 127.738534 70.28821 
L 127.849008 70.166331 
L 127.932816 69.922573 
L 128.045195 69.739755 
L 128.165192 69.282708 
L 128.540423 68.612373 
L 128.643279 68.368615 
L 128.868036 68.094387 
L 129.096603 67.972508 
L 129.386122 67.881099 
L 130.136584 67.69828 
L 130.431817 67.271703 
L 130.626099 66.845126 
L 131.085138 65.687275 
L 131.292753 65.413047 
L 131.407036 65.169289 
L 131.761315 64.895061 
L 133.128909 64.620833 
L 133.26224 64.559893 
L 133.53652 64.224726 
L 133.646994 64.102847 
L 133.77842 63.859089 
L 133.900323 63.73721 
L 134.048892 63.554391 
L 134.174604 63.462982 
L 135.452675 63.219223 
L 135.770764 63.005935 
L 136.864077 61.756674 
L 136.966932 61.695735 
L 138.530712 61.177749 
L 138.635472 61.05587 
L 139.029751 60.781642 
L 139.161177 60.720702 
L 139.345935 60.568353 
L 139.355459 60.537883 
L 139.753547 60.355065 
L 139.911639 60.202716 
L 139.953543 60.172246 
L 141.102093 59.958958 
L 141.155425 59.898018 
L 141.408754 59.745669 
L 141.517323 59.65426 
L 141.85065 59.471441 
L 142.180168 59.166744 
L 142.643016 58.648758 
L 144.2887 58.161241 
L 144.591551 57.612785 
L 144.943926 57.125269 
L 146.218187 56.546343 
L 146.682941 56.393994 
L 146.816271 56.272115 
L 147.063886 56.089297 
L 147.157217 55.906478 
L 147.233406 55.754129 
L 147.401022 55.418962 
L 147.482926 55.205673 
L 147.713397 54.992385 
L 147.97625 54.657217 
L 149.320986 54.29158 
L 149.694313 54.047822 
L 149.810501 53.956413 
L 150.399061 53.377487 
L 151.105715 53.103259 
L 152.157124 52.95091 
L 153.810426 52.006347 
L 155.229447 51.823529 
L 155.618011 51.549301 
L 155.981814 51.183663 
L 156.87513 50.878966 
L 156.87894 50.848496 
L 157.543689 50.696147 
L 158.286533 50.482859 
L 158.543671 50.208631 
L 159.141755 49.721114 
L 161.235049 49.294538 
L 161.385522 49.172659 
L 161.745515 48.9289 
L 161.846466 48.837491 
L 163.526434 48.563263 
L 163.709288 48.380444 
L 163.861666 48.197626 
L 164.067377 48.045277 
L 164.396894 47.771049 
L 166.145433 47.527291 
L 166.821611 46.826486 
L 167.852068 46.491319 
L 168.98538 46.3085 
L 169.396801 45.881923 
L 169.40061 45.851453 
L 169.692033 45.668635 
L 170.309164 45.455346 
L 170.455828 45.424877 
L 171.787232 45.302997 
L 172.263414 45.059239 
L 172.577693 44.93736 
L 174.339565 44.754542 
L 175.189073 44.175616 
L 177.71474 43.779509 
L 177.863309 43.62716 
L 178.72615 43.383402 
L 179.908985 43.231053 
L 180.169932 43.078704 
L 180.299453 43.017765 
L 183.204161 42.408369 
L 183.293683 42.34743 
L 183.87272 42.103671 
L 183.901291 42.073202 
L 185.583164 41.920853 
L 185.792684 41.768504 
L 186.607907 41.402867 
L 186.615525 41.372397 
L 187.453605 41.189578 
L 187.754552 41.098169 
L 188.377397 40.91535 
L 188.4993 40.763001 
L 188.969767 40.488774 
L 191.617337 40.031727 
L 191.851618 39.909848 
L 194.076338 39.452801 
L 194.120147 39.361392 
L 200.438124 38.508238 
L 200.636215 38.447299 
L 201.933334 38.29495 
L 205.043752 37.594145 
L 205.272319 37.502736 
L 205.822785 37.441796 
L 207.325614 37.319917 
L 208.338928 37.167568 
L 210.824596 36.92381 
L 210.851262 36.89334 
L 213.215027 36.740992 
L 213.218836 36.710522 
L 215.946404 36.405824 
L 216.00926 36.283945 
L 216.626392 36.131596 
L 219.483481 35.979247 
L 221.532966 35.826898 
L 221.906293 35.705019 
L 223.856732 35.55267 
L 223.856732 35.55267 
" clip-path="url(#p3b9de66bc4)" style="fill: none; stroke: #1f77b4; stroke-width: 1.5; stroke-linecap: square"/>
   </g>
   <g id="line2d_16">
    <path d="M 70.575795 300.193577 
L 70.68246 296.974674 
L 71.095786 294.801914 
L 71.198641 294.480024 
L 71.295782 294.158133 
L 71.455779 293.836243 
L 72.531949 289.973559 
L 72.66909 289.732142 
L 72.958608 288.605526 
L 73.251936 287.47891 
L 73.370029 287.076547 
L 74.050016 283.374808 
L 74.158585 282.570082 
L 74.318582 281.845829 
L 74.541435 279.351179 
L 74.636672 278.626926 
L 75.084282 276.132276 
L 75.206185 275.890858 
L 75.274755 275.086133 
L 75.369991 274.925188 
L 75.549036 273.959517 
L 75.686176 273.718099 
L 75.918552 272.430538 
L 76.088073 272.18912 
L 76.255689 270.821086 
L 76.581397 269.613997 
L 76.678538 269.050689 
L 77.038531 267.119348 
L 77.149006 266.314622 
L 77.204243 265.992731 
L 77.326145 265.107533 
L 77.472809 264.222335 
L 77.834707 262.049575 
L 77.935658 261.244849 
L 78.080417 260.842487 
L 78.181367 260.198706 
L 78.661358 257.945474 
L 78.764213 257.301693 
L 78.945162 256.89933 
L 79.036589 256.416495 
L 79.091826 256.175077 
L 79.209919 255.772714 
L 79.299441 255.128934 
L 79.661339 252.473339 
L 79.969905 250.541997 
L 80.097522 248.852073 
L 80.200377 248.44971 
L 80.242281 247.966874 
L 80.438468 246.518368 
L 80.497514 246.196478 
L 80.703225 244.587026 
L 80.992743 243.7823 
L 81.072742 243.218992 
L 81.249881 242.897102 
L 81.358451 242.172849 
L 81.472734 241.770486 
L 81.562256 241.126705 
L 81.754634 240.64387 
L 82.179388 238.793 
L 82.371765 237.183549 
L 82.548904 236.700713 
L 82.783186 235.33268 
L 82.931754 234.367009 
L 83.019372 233.723228 
L 83.20794 233.240393 
L 83.343175 232.757557 
L 83.461268 232.274722 
L 84.270777 229.699599 
L 84.503153 229.538654 
L 84.686007 229.055819 
L 84.779339 228.814401 
L 85.238378 227.929203 
L 85.522182 227.124477 
L 85.81551 226.883059 
L 86.0936 226.480696 
L 86.190741 226.239278 
L 86.364071 225.836916 
L 86.491688 225.35408 
L 86.61359 225.112662 
L 86.817396 224.951717 
L 87.388814 222.939903 
L 87.51643 222.054704 
L 87.704998 220.928088 
L 87.811663 220.686671 
L 88.480222 217.709185 
L 88.624981 217.065405 
L 88.746883 216.582569 
L 88.8745 216.260679 
L 89.506869 214.40981 
L 89.67258 213.524611 
L 89.807816 212.397995 
L 89.994479 210.708071 
L 90.103049 210.305708 
L 90.230665 209.581455 
L 90.602087 208.132949 
L 90.916367 206.362552 
L 91.295407 204.350737 
L 91.398262 203.787429 
L 91.543022 202.982704 
L 91.611592 202.419396 
L 91.733494 202.177978 
L 92.24777 199.683328 
L 92.409672 199.12002 
L 93.493461 194.533083 
L 93.579174 194.050248 
L 93.645839 193.728357 
L 94.504871 188.175749 
L 94.626773 187.934332 
L 94.868674 186.888188 
L 95.009623 186.405353 
L 95.441996 184.634956 
L 95.609612 183.749758 
L 95.666754 183.347395 
L 95.843893 182.381724 
L 97.160059 176.02439 
L 97.245772 175.622027 
L 97.386722 174.817302 
L 97.529576 174.575884 
L 97.678145 174.012576 
L 98.017186 173.127378 
L 98.09147 172.805487 
L 98.234325 172.000761 
L 98.358132 171.598399 
L 98.57908 170.793673 
L 98.984787 167.655242 
L 99.120022 167.172407 
L 99.384779 166.045791 
L 99.712392 164.275394 
L 99.86477 163.953504 
L 99.931436 163.792559 
L 100.11048 163.551141 
L 100.173336 163.229251 
L 100.432379 162.826888 
L 100.592376 162.344052 
L 100.719992 162.102634 
L 100.798086 161.539326 
L 100.918084 161.056491 
L 101.007606 160.573656 
L 101.270458 160.41271 
L 101.5695 159.76893 
L 101.664737 159.366567 
L 102.091395 158.481369 
L 102.487578 157.757115 
L 102.980902 157.193807 
L 103.043758 157.032862 
L 103.270421 156.871917 
L 103.931361 155.906246 
L 103.942789 155.825773 
L 104.097072 155.664828 
L 104.638014 154.296794 
L 104.990389 154.135849 
L 105.032293 154.055377 
L 105.417047 153.894432 
L 105.474189 153.813959 
L 106.02275 153.572541 
L 106.247508 153.250651 
L 106.462742 153.089706 
L 106.65131 152.928761 
L 106.777022 152.767816 
L 106.931305 152.60687 
L 107.186538 151.480254 
L 107.321773 151.158364 
L 107.430343 150.675529 
L 107.601768 150.273166 
L 107.990332 148.744187 
L 108.234137 148.502769 
L 108.348421 148.180879 
L 108.645558 148.019933 
L 108.786508 147.778516 
L 109.131263 147.376153 
L 109.247452 147.054263 
L 109.35983 146.6519 
L 109.46459 146.410482 
L 109.578874 146.008119 
L 110.114102 144.720558 
L 110.300765 143.754887 
L 110.468381 143.432997 
L 110.64933 142.869689 
L 110.78647 142.708743 
L 110.830279 142.467326 
L 111.03599 142.306381 
L 111.253128 141.260237 
L 111.59217 140.696929 
L 111.704548 140.133621 
L 111.809308 139.811731 
L 111.914068 139.650785 
L 112.024542 139.007005 
L 112.186444 138.84606 
L 112.333108 138.443697 
L 112.418821 138.202279 
L 112.59977 137.317081 
L 112.645483 136.753773 
L 112.952144 135.546684 
L 113.136903 135.144321 
L 113.264519 134.741958 
L 113.420707 134.339595 
L 113.523562 133.937232 
L 113.854984 133.53487 
L 113.874032 133.454397 
L 114.087361 133.212979 
L 115.839709 129.269823 
L 115.97304 128.54557 
L 116.049229 127.821317 
L 116.173036 127.579899 
L 116.293034 126.936118 
L 116.521601 126.533755 
L 116.691122 126.37281 
L 116.872071 125.809502 
L 117.188255 125.568084 
L 117.39587 125.004776 
L 117.481583 124.682886 
L 117.553963 124.280523 
L 117.693008 123.87816 
L 118.014906 123.55627 
L 118.294901 122.671072 
L 118.51204 122.510127 
L 118.708227 121.866346 
L 119.704399 120.498312 
L 120.119629 119.371696 
L 120.352005 118.969333 
L 120.56724 118.56697 
L 120.751998 118.406025 
L 120.9139 117.681772 
L 120.972946 117.520827 
L 121.313892 117.279409 
L 121.418652 117.037991 
L 121.487222 116.957519 
L 121.944357 116.796574 
L 122.19959 116.474683 
L 122.302445 116.394211 
L 122.862435 116.152793 
L 122.864339 116.07232 
L 123.271951 115.830903 
L 123.285284 115.75043 
L 125.123345 114.543341 
L 125.763333 113.658143 
L 126.090946 113.25578 
L 126.218562 113.014362 
L 126.287132 112.772945 
L 126.656649 112.290109 
L 126.700458 112.209637 
L 127.007119 111.968219 
L 127.532823 111.324438 
L 127.889007 111.002548 
L 128.085194 110.600185 
L 128.363284 110.358767 
L 128.673754 110.197822 
L 128.7728 109.956405 
L 129.149936 109.393096 
L 129.363265 109.232151 
L 129.490882 108.910261 
L 129.702306 108.668843 
L 129.810876 108.427426 
L 131.342276 107.139864 
L 131.460369 106.898447 
L 132.542253 105.288995 
L 132.761297 104.886632 
L 132.888913 104.725687 
L 132.894628 104.645214 
L 133.077481 104.403797 
L 133.307953 103.760016 
L 133.416522 103.438126 
L 133.578424 103.196708 
L 134.267935 102.552927 
L 134.486979 102.150565 
L 134.633643 101.828674 
L 134.734593 101.587257 
L 134.873638 101.426311 
L 134.947922 101.265366 
L 135.050778 101.023948 
L 135.391724 100.863003 
L 136.107901 99.81686 
L 136.460275 99.092607 
L 136.665985 98.770716 
L 136.791697 98.448826 
L 137.020264 98.046463 
L 137.140262 97.805045 
L 137.347877 97.00032 
L 137.770727 96.437012 
L 138.254527 96.195594 
L 138.450714 95.954176 
L 139.039274 95.793231 
L 140.265918 94.747087 
L 141.456372 94.344725 
L 141.995409 93.861889 
L 142.199215 93.620471 
L 142.705872 93.459526 
L 143.086817 93.137636 
L 144.601075 92.493855 
L 144.825832 92.252438 
L 145.294395 91.850075 
L 145.585818 91.447712 
L 145.88486 91.045349 
L 145.934383 90.884404 
L 146.541991 90.401568 
L 147.261977 89.677315 
L 147.431498 89.51637 
L 147.604828 88.711644 
L 147.669589 88.631172 
L 147.901965 88.470226 
L 148.10958 88.148336 
L 148.740045 87.826446 
L 148.867661 87.424083 
L 149.237178 87.02172 
L 149.64479 86.780302 
L 149.770502 86.619357 
L 149.793358 86.538885 
L 149.95526 86.377939 
L 149.999069 86.136522 
L 150.239064 85.975577 
L 150.280968 85.814631 
L 150.686675 85.573214 
L 151.120953 85.170851 
L 151.265712 84.929433 
L 151.393328 84.52707 
L 151.425709 84.366125 
L 151.787607 84.124707 
L 151.867605 83.963762 
L 152.863777 82.998091 
L 153.042821 82.756673 
L 153.299959 82.595728 
L 153.374244 82.515256 
L 153.808521 82.273838 
L 154.05804 81.951948 
L 154.574221 81.147222 
L 154.652315 80.986277 
L 154.858025 80.664386 
L 155.298017 80.503441 
L 155.539917 80.262024 
L 155.55706 80.181551 
L 155.793246 79.940133 
L 155.983719 79.698716 
L 156.04467 79.618243 
L 156.343712 79.457298 
L 156.46371 79.135408 
L 156.697991 78.974462 
L 157.374169 78.411154 
L 157.560832 78.169737 
L 158.909378 77.365011 
L 159.196992 77.123593 
L 159.560794 76.801703 
L 159.610317 76.640758 
L 160.398874 76.39934 
L 160.421731 76.318867 
L 162.728354 75.514142 
L 163.815953 75.353196 
L 164.383561 75.192251 
L 164.840695 74.950833 
L 164.867362 74.870361 
L 165.257831 74.709416 
L 165.985436 73.824217 
L 167.549216 73.502327 
L 168.141586 73.260909 
L 168.233013 73.099964 
L 168.690147 72.697601 
L 169.507275 72.536656 
L 169.581559 72.375711 
L 169.928219 72.214766 
L 170.191071 71.892876 
L 171.846278 71.007677 
L 171.895801 70.927205 
L 172.301508 70.766259 
L 173.54339 69.317753 
L 174.130045 68.995863 
L 174.152902 68.91539 
L 175.246215 68.191137 
L 175.415735 67.949719 
L 175.589065 67.869247 
L 176.745234 67.627829 
L 176.777615 67.466884 
L 179.099476 66.984048 
L 183.255588 66.823103 
L 183.97367 66.662158 
L 184.147 66.340268 
L 184.720323 66.018377 
L 184.777465 65.937905 
L 185.50888 65.696487 
L 185.569831 65.535542 
L 186.27077 65.294124 
L 186.41172 65.133179 
L 186.785046 64.891761 
L 187.00028 64.730816 
L 187.188848 64.569871 
L 187.217419 64.489398 
L 187.785027 64.247981 
L 187.792646 64.167508 
L 188.657392 64.006563 
L 189.464996 63.765145 
L 189.522138 63.6042 
L 189.775466 63.523728 
L 191.011634 63.362782 
L 192.824933 62.638529 
L 193.914436 62.477584 
L 194.426808 62.316639 
L 195.00394 62.075221 
L 196.064872 61.672858 
L 196.095348 61.592386 
L 196.489626 61.431441 
L 196.491531 61.350968 
L 197.169613 61.029078 
L 197.415323 60.78766 
L 201.015256 60.143879 
L 201.184776 59.982934 
L 204.87804 59.178208 
L 205.645645 58.936791 
L 207.377041 58.212537 
L 208.053219 57.97112 
L 209.916041 56.924976 
L 209.965564 56.844504 
L 210.613171 56.683558 
L 211.030306 56.281196 
L 211.199827 56.200723 
L 212.32171 56.039778 
L 212.441708 55.878833 
L 213.129314 55.556942 
L 213.767398 55.395997 
L 215.582602 54.752217 
L 216.693057 54.510799 
L 217.582564 54.269381 
L 221.706296 54.027963 
L 221.868198 53.867018 
L 223.365313 53.625601 
L 223.374837 53.545128 
L 223.934826 53.30371 
L 225.064329 53.062293 
L 225.129089 52.901347 
L 225.839552 52.579457 
L 226.490969 52.257567 
L 227.14048 52.096622 
L 227.967131 51.533314 
L 228.214746 51.291896 
L 228.74426 51.130951 
L 228.843306 51.050478 
L 229.61091 50.889533 
L 230.306135 50.48717 
L 230.374705 50.406697 
L 231.241356 50.245752 
L 232.869897 49.843389 
L 232.894658 49.762917 
L 233.728928 49.521499 
L 236.694587 49.038664 
L 240.475468 48.797246 
L 240.70975 48.716773 
L 243.279225 48.394883 
L 243.580172 48.233938 
L 245.271569 47.99252 
L 245.728703 47.912048 
L 247.646763 47.751102 
L 249.433396 47.187794 
L 250.145763 46.946377 
L 250.804799 46.785432 
L 250.842893 46.704959 
L 251.812399 46.222123 
L 253.804742 45.980706 
L 254.477111 45.819761 
L 256.115175 45.658815 
L 257.113252 45.417398 
L 259.097977 45.256453 
L 260.18748 45.015035 
L 260.739851 44.773617 
L 262.429343 44.612672 
L 262.608387 44.451727 
L 263.1779 44.290782 
L 265.349288 43.968891 
L 268.137807 43.486056 
L 270.434907 43.325111 
L 270.893946 43.164166 
L 273.996745 42.600858 
L 277.086211 42.439912 
L 277.385253 42.35944 
L 279.672829 42.118022 
L 281.002328 41.957077 
L 281.002328 41.876604 
L 282.179449 41.715659 
L 282.613726 41.474241 
L 284.415597 41.232824 
L 288.333619 40.589043 
L 290.284059 40.428098 
L 290.465008 40.347625 
L 299.718168 39.5429 
L 299.847689 39.462427 
L 308.839902 38.496756 
L 312.199839 38.255338 
L 313.847427 38.094393 
L 317.738782 37.933448 
L 317.885446 37.852975 
L 318.342581 37.772503 
L 325.035788 37.37014 
L 325.454828 37.209195 
L 325.473875 37.128722 
L 340.985966 36.404469 
L 341.005013 36.323996 
L 342.054517 36.082579 
L 347.890598 35.760688 
L 348.08488 35.680216 
L 349.073433 35.599743 
L 349.073433 35.599743 
" clip-path="url(#p3b9de66bc4)" style="fill: none; stroke: #ff7f0e; stroke-width: 1.5; stroke-linecap: square"/>
   </g>
   <g id="line2d_17">
    <path d="M 70.575795 299.127232 
L 70.68246 273.897258 
L 70.930075 267.016356 
L 71.093881 264.722722 
L 71.389114 258.988637 
L 71.895771 257.84182 
L 71.905294 256.695003 
L 72.234812 255.548186 
L 73.267174 246.37365 
L 73.552883 242.933199 
L 73.770021 241.786382 
L 73.811925 239.492748 
L 74.09192 237.199114 
L 74.712861 236.052297 
L 75.088092 234.90548 
L 75.507132 232.611845 
L 75.912838 224.584126 
L 76.093787 223.437309 
L 76.429019 222.290492 
L 76.429019 221.143675 
L 76.55854 219.996858 
L 78.758499 218.850041 
L 78.926115 217.703224 
L 79.080398 215.40959 
L 79.503247 214.262773 
L 80.981315 213.115956 
L 81.910821 210.822322 
L 82.019391 208.528688 
L 83.609837 206.235054 
L 84.173636 205.088237 
L 84.727911 199.354152 
L 86.049791 198.207335 
L 86.623114 195.913701 
L 86.653589 194.766884 
L 86.849776 193.620067 
L 86.857395 192.47325 
L 87.013583 191.326433 
L 87.015487 190.179616 
L 87.407861 189.032799 
L 87.571667 187.885982 
L 88.344986 186.739165 
L 88.348796 185.592348 
L 89.226874 184.445531 
L 89.529726 183.298714 
L 89.77734 178.711446 
L 89.981146 175.270995 
L 90.030669 174.124178 
L 90.455423 172.977361 
L 91.263027 171.830544 
L 92.514432 169.53691 
L 92.842045 167.243276 
L 93.243942 164.949642 
L 94.413444 163.802825 
L 95.108669 161.509191 
L 95.154382 160.362374 
L 95.325808 159.215557 
L 95.417235 155.775106 
L 97.131488 153.481472 
L 97.22101 152.334654 
L 97.939092 151.187837 
L 97.967663 150.04102 
L 100.746659 148.894203 
L 100.967607 147.747386 
L 101.462836 146.600569 
L 103.251374 145.453752 
L 105.464665 144.306935 
L 105.752279 142.013301 
L 106.6475 139.719667 
L 108.194138 138.57285 
L 108.316041 137.426033 
L 108.628416 136.279216 
L 108.708414 135.132399 
L 109.479828 133.985582 
L 109.519827 132.838765 
L 110.898849 131.691948 
L 111.083608 130.545131 
L 111.138845 129.398314 
L 111.877879 127.10468 
L 111.955972 125.957863 
L 113.386422 124.811046 
L 117.445393 123.664229 
L 119.397738 122.517412 
L 119.976774 121.370595 
L 121.548173 120.223778 
L 122.637677 119.076961 
L 122.942433 117.930144 
L 125.144297 116.783327 
L 127.835675 115.63651 
L 127.948054 114.489693 
L 128.18424 113.342876 
L 128.637564 112.196059 
L 129.791829 111.049242 
L 130.37277 109.902425 
L 130.776572 108.755608 
L 130.818476 107.608791 
L 136.326944 105.315157 
L 136.355515 104.16834 
L 144.433459 103.021523 
L 144.814404 101.874706 
L 147.10198 100.727889 
L 147.202931 99.581072 
L 147.980059 98.434255 
L 161.164574 97.287438 
L 161.257905 96.140621 
L 161.918845 94.993804 
L 166.122576 93.846987 
L 166.51114 92.70017 
L 166.608281 91.553353 
L 170.478685 90.406536 
L 172.318651 89.259719 
L 175.341451 88.112902 
L 179.385185 86.966085 
L 180.408023 85.819268 
L 180.430879 84.672451 
L 182.611791 83.525634 
L 183.310826 82.378817 
L 190.689735 81.232 
L 191.215439 80.085183 
L 193.708726 78.938366 
L 199.640043 77.791549 
L 202.634273 76.644732 
L 207.479896 75.497915 
L 216.026403 74.351098 
L 218.72159 73.204281 
L 218.851112 72.057464 
L 224.092918 70.910646 
L 236.763157 69.763829 
L 247.222009 68.617012 
L 251.24479 67.470195 
L 265.090245 66.323378 
L 276.581458 64.029744 
L 298.06677 61.73611 
L 300.36387 60.589293 
L 309.032279 59.442476 
L 314.424559 57.148842 
L 325.898629 56.002025 
L 336.081296 54.855208 
L 336.193675 53.708391 
L 394.817338 52.561574 
L 411.422741 51.414757 
L 416.338839 50.26794 
L 416.60931 49.121123 
L 421.456839 47.974306 
L 451.599131 46.827489 
L 451.635321 45.680672 
L 460.0904 44.533855 
L 461.355138 43.387038 
L 485.636588 42.240221 
L 501.323913 41.093404 
L 525.698694 39.946587 
L 531.759533 38.79977 
L 572.808288 37.652953 
L 606.466705 36.506136 
L 606.466705 36.506136 
" clip-path="url(#p3b9de66bc4)" style="fill: none; stroke: #2ca02c; stroke-width: 1.5; stroke-linecap: square"/>
   </g>
   <g id="patch_3">
    <path d="M 43.78125 313.478125 
L 43.78125 22.318125 
" style="fill: none; stroke: #000000; stroke-width: 0.8; stroke-linejoin: miter; stroke-linecap: square"/>
   </g>
   <g id="patch_4">
    <path d="M 633.26125 313.478125 
L 633.26125 22.318125 
" style="fill: none; stroke: #000000; stroke-width: 0.8; stroke-linejoin: miter; stroke-linecap: square"/>
   </g>
   <g id="patch_5">
    <path d="M 43.78125 313.478125 
L 633.26125 313.478125 
" style="fill: none; stroke: #000000; stroke-width: 0.8; stroke-linejoin: miter; stroke-linecap: square"/>
   </g>
   <g id="patch_6">
    <path d="M 43.78125 22.318125 
L 633.26125 22.318125 
" style="fill: none; stroke: #000000; stroke-width: 0.8; stroke-linejoin: miter; stroke-linecap: square"/>
   </g>
   <g id="text_17">
    <!-- ECDF of Cycle Time for CT4 (capped at project 95th percentile) -->
    <g transform="translate(149.195 16.318125) scale(0.12 -0.12)">
     <defs>
      <path id="DejaVuSans-45" d="M 628 4666 
L 3578 4666 
L 3578 4134 
L 1259 4134 
L 1259 2753 
L 3481 2753 
L 3481 2222 
L 1259 2222 
L 1259 531 
L 3634 531 
L 3634 0 
L 628 0 
L 628 4666 
z
" transform="scale(0.015625)"/>
      <path id="DejaVuSans-44" d="M 1259 4147 
L 1259 519 
L 2022 519 
Q 2988 519 3436 956 
Q 3884 1394 3884 2338 
Q 3884 3275 3436 3711 
Q 2988 4147 2022 4147 
L 1259 4147 
z
M 628 4666 
L 1925 4666 
Q 3281 4666 3915 4102 
Q 4550 3538 4550 2338 
Q 4550 1131 3912 565 
Q 3275 0 1925 0 
L 628 0 
L 628 4666 
z
" transform="scale(0.015625)"/>
      <path id="DejaVuSans-46" d="M 628 4666 
L 3309 4666 
L 3309 4134 
L 1259 4134 
L 1259 2759 
L 3109 2759 
L 3109 2228 
L 1259 2228 
L 1259 0 
L 628 0 
L 628 4666 
z
" transform="scale(0.015625)"/>
      <path id="DejaVuSans-66" d="M 2375 4863 
L 2375 4384 
L 1825 4384 
Q 1516 4384 1395 4259 
Q 1275 4134 1275 3809 
L 1275 3500 
L 2222 3500 
L 2222 3053 
L 1275 3053 
L 1275 0 
L 697 0 
L 697 3053 
L 147 3053 
L 147 3500 
L 697 3500 
L 697 3744 
Q 697 4328 969 4595 
Q 1241 4863 1831 4863 
L 2375 4863 
z
" transform="scale(0.015625)"/>
      <path id="DejaVuSans-6a" d="M 603 3500 
L 1178 3500 
L 1178 -63 
Q 1178 -731 923 -1031 
Q 669 -1331 103 -1331 
L -116 -1331 
L -116 -844 
L 38 -844 
Q 366 -844 484 -692 
Q 603 -541 603 -63 
L 603 3500 
z
M 603 4863 
L 1178 4863 
L 1178 4134 
L 603 4134 
L 603 4863 
z
" transform="scale(0.015625)"/>
      <path id="DejaVuSans-39" d="M 703 97 
L 703 672 
Q 941 559 1184 500 
Q 1428 441 1663 441 
Q 2288 441 2617 861 
Q 2947 1281 2994 2138 
Q 2813 1869 2534 1725 
Q 2256 1581 1919 1581 
Q 1219 1581 811 2004 
Q 403 2428 403 3163 
Q 403 3881 828 4315 
Q 1253 4750 1959 4750 
Q 2769 4750 3195 4129 
Q 3622 3509 3622 2328 
Q 3622 1225 3098 567 
Q 2575 -91 1691 -91 
Q 1453 -91 1209 -44 
Q 966 3 703 97 
z
M 1959 2075 
Q 2384 2075 2632 2365 
Q 2881 2656 2881 3163 
Q 2881 3666 2632 3958 
Q 2384 4250 1959 4250 
Q 1534 4250 1286 3958 
Q 1038 3666 1038 3163 
Q 1038 2656 1286 2365 
Q 1534 2075 1959 2075 
z
" transform="scale(0.015625)"/>
      <path id="DejaVuSans-68" d="M 3513 2113 
L 3513 0 
L 2938 0 
L 2938 2094 
Q 2938 2591 2744 2837 
Q 2550 3084 2163 3084 
Q 1697 3084 1428 2787 
Q 1159 2491 1159 1978 
L 1159 0 
L 581 0 
L 581 4863 
L 1159 4863 
L 1159 2956 
Q 1366 3272 1645 3428 
Q 1925 3584 2291 3584 
Q 2894 3584 3203 3211 
Q 3513 2838 3513 2113 
z
" transform="scale(0.015625)"/>
     </defs>
     <use xlink:href="#DejaVuSans-45"/>
     <use xlink:href="#DejaVuSans-43" transform="translate(63.183594 0)"/>
     <use xlink:href="#DejaVuSans-44" transform="translate(133.007812 0)"/>
     <use xlink:href="#DejaVuSans-46" transform="translate(210.009766 0)"/>
     <use xlink:href="#DejaVuSans-20" transform="translate(267.529297 0)"/>
     <use xlink:href="#DejaVuSans-6f" transform="translate(299.316406 0)"/>
     <use xlink:href="#DejaVuSans-66" transform="translate(360.498047 0)"/>
     <use xlink:href="#DejaVuSans-20" transform="translate(395.703125 0)"/>
     <use xlink:href="#DejaVuSans-43" transform="translate(427.490234 0)"/>
     <use xlink:href="#DejaVuSans-79" transform="translate(497.314453 0)"/>
     <use xlink:href="#DejaVuSans-63" transform="translate(556.494141 0)"/>
     <use xlink:href="#DejaVuSans-6c" transform="translate(611.474609 0)"/>
     <use xlink:href="#DejaVuSans-65" transform="translate(639.257812 0)"/>
     <use xlink:href="#DejaVuSans-20" transform="translate(700.78125 0)"/>
     <use xlink:href="#DejaVuSans-54" transform="translate(732.568359 0)"/>
     <use xlink:href="#DejaVuSans-69" transform="translate(790.527344 0)"/>
     <use xlink:href="#DejaVuSans-6d" transform="translate(818.310547 0)"/>
     <use xlink:href="#DejaVuSans-65" transform="translate(915.722656 0)"/>
     <use xlink:href="#DejaVuSans-20" transform="translate(977.246094 0)"/>
     <use xlink:href="#DejaVuSans-66" transform="translate(1009.033203 0)"/>
     <use xlink:href="#DejaVuSans-6f" transform="translate(1044.238281 0)"/>
     <use xlink:href="#DejaVuSans-72" transform="translate(1105.419922 0)"/>
     <use xlink:href="#DejaVuSans-20" transform="translate(1146.533203 0)"/>
     <use xlink:href="#DejaVuSans-43" transform="translate(1178.320312 0)"/>
     <use xlink:href="#DejaVuSans-54" transform="translate(1248.144531 0)"/>
     <use xlink:href="#DejaVuSans-34" transform="translate(1309.228516 0)"/>
     <use xlink:href="#DejaVuSans-20" transform="translate(1372.851562 0)"/>
     <use xlink:href="#DejaVuSans-28" transform="translate(1404.638672 0)"/>
     <use xlink:href="#DejaVuSans-63" transform="translate(1443.652344 0)"/>
     <use xlink:href="#DejaVuSans-61" transform="translate(1498.632812 0)"/>
     <use xlink:href="#DejaVuSans-70" transform="translate(1559.912109 0)"/>
     <use xlink:href="#DejaVuSans-70" transform="translate(1623.388672 0)"/>
     <use xlink:href="#DejaVuSans-65" transform="translate(1686.865234 0)"/>
     <use xlink:href="#DejaVuSans-64" transform="translate(1748.388672 0)"/>
     <use xlink:href="#DejaVuSans-20" transform="translate(1811.865234 0)"/>
     <use xlink:href="#DejaVuSans-61" transform="translate(1843.652344 0)"/>
     <use xlink:href="#DejaVuSans-74" transform="translate(1904.931641 0)"/>
     <use xlink:href="#DejaVuSans-20" transform="translate(1944.140625 0)"/>
     <use xlink:href="#DejaVuSans-70" transform="translate(1975.927734 0)"/>
     <use xlink:href="#DejaVuSans-72" transform="translate(2039.404297 0)"/>
     <use xlink:href="#DejaVuSans-6f" transform="translate(2078.267578 0)"/>
     <use xlink:href="#DejaVuSans-6a" transform="translate(2139.449219 0)"/>
     <use xlink:href="#DejaVuSans-65" transform="translate(2167.232422 0)"/>
     <use xlink:href="#DejaVuSans-63" transform="translate(2228.755859 0)"/>
     <use xlink:href="#DejaVuSans-74" transform="translate(2283.736328 0)"/>
     <use xlink:href="#DejaVuSans-20" transform="translate(2322.945312 0)"/>
     <use xlink:href="#DejaVuSans-39" transform="translate(2354.732422 0)"/>
     <use xlink:href="#DejaVuSans-35" transform="translate(2418.355469 0)"/>
     <use xlink:href="#DejaVuSans-74" transform="translate(2481.978516 0)"/>
     <use xlink:href="#DejaVuSans-68" transform="translate(2521.1875 0)"/>
     <use xlink:href="#DejaVuSans-20" transform="translate(2584.566406 0)"/>
     <use xlink:href="#DejaVuSans-70" transform="translate(2616.353516 0)"/>
     <use xlink:href="#DejaVuSans-65" transform="translate(2679.830078 0)"/>
     <use xlink:href="#DejaVuSans-72" transform="translate(2741.353516 0)"/>
     <use xlink:href="#DejaVuSans-63" transform="translate(2780.216797 0)"/>
     <use xlink:href="#DejaVuSans-65" transform="translate(2835.197266 0)"/>
     <use xlink:href="#DejaVuSans-6e" transform="translate(2896.720703 0)"/>
     <use xlink:href="#DejaVuSans-74" transform="translate(2960.099609 0)"/>
     <use xlink:href="#DejaVuSans-69" transform="translate(2999.308594 0)"/>
     <use xlink:href="#DejaVuSans-6c" transform="translate(3027.091797 0)"/>
     <use xlink:href="#DejaVuSans-65" transform="translate(3054.875 0)"/>
     <use xlink:href="#DejaVuSans-29" transform="translate(3116.398438 0)"/>
    </g>
   </g>
   <g id="legend_1">
    <g id="patch_7">
     <path d="M 543.014375 308.478125 
L 626.26125 308.478125 
Q 628.26125 308.478125 628.26125 306.478125 
L 628.26125 248.765625 
Q 628.26125 246.765625 626.26125 246.765625 
L 543.014375 246.765625 
Q 541.014375 246.765625 541.014375 248.765625 
L 541.014375 306.478125 
Q 541.014375 308.478125 543.014375 308.478125 
z
" style="fill: #ffffff; opacity: 0.8; stroke: #cccccc; stroke-linejoin: miter"/>
    </g>
    <g id="text_18">
     <!-- Project -->
     <g transform="translate(567.533125 258.364062) scale(0.1 -0.1)">
      <defs>
       <path id="DejaVuSans-50" d="M 1259 4147 
L 1259 2394 
L 2053 2394 
Q 2494 2394 2734 2622 
Q 2975 2850 2975 3272 
Q 2975 3691 2734 3919 
Q 2494 4147 2053 4147 
L 1259 4147 
z
M 628 4666 
L 2053 4666 
Q 2838 4666 3239 4311 
Q 3641 3956 3641 3272 
Q 3641 2581 3239 2228 
Q 2838 1875 2053 1875 
L 1259 1875 
L 1259 0 
L 628 0 
L 628 4666 
z
" transform="scale(0.015625)"/>
      </defs>
      <use xlink:href="#DejaVuSans-50"/>
      <use xlink:href="#DejaVuSans-72" transform="translate(58.552734 0)"/>
      <use xlink:href="#DejaVuSans-6f" transform="translate(97.416016 0)"/>
      <use xlink:href="#DejaVuSans-6a" transform="translate(158.597656 0)"/>
      <use xlink:href="#DejaVuSans-65" transform="translate(186.380859 0)"/>
      <use xlink:href="#DejaVuSans-63" transform="translate(247.904297 0)"/>
      <use xlink:href="#DejaVuSans-74" transform="translate(302.884766 0)"/>
     </g>
    </g>
    <g id="line2d_18">
     <path d="M 545.014375 269.542188 
L 555.014375 269.542188 
L 565.014375 269.542188 
" style="fill: none; stroke: #1f77b4; stroke-width: 1.5; stroke-linecap: square"/>
    </g>
    <g id="text_19">
     <!-- SERVER -->
     <g transform="translate(573.014375 273.042188) scale(0.1 -0.1)">
      <defs>
       <path id="DejaVuSans-53" d="M 3425 4513 
L 3425 3897 
Q 3066 4069 2747 4153 
Q 2428 4238 2131 4238 
Q 1616 4238 1336 4038 
Q 1056 3838 1056 3469 
Q 1056 3159 1242 3001 
Q 1428 2844 1947 2747 
L 2328 2669 
Q 3034 2534 3370 2195 
Q 3706 1856 3706 1288 
Q 3706 609 3251 259 
Q 2797 -91 1919 -91 
Q 1588 -91 1214 -16 
Q 841 59 441 206 
L 441 856 
Q 825 641 1194 531 
Q 1563 422 1919 422 
Q 2459 422 2753 634 
Q 3047 847 3047 1241 
Q 3047 1584 2836 1778 
Q 2625 1972 2144 2069 
L 1759 2144 
Q 1053 2284 737 2584 
Q 422 2884 422 3419 
Q 422 4038 858 4394 
Q 1294 4750 2059 4750 
Q 2388 4750 2728 4690 
Q 3069 4631 3425 4513 
z
" transform="scale(0.015625)"/>
       <path id="DejaVuSans-52" d="M 2841 2188 
Q 3044 2119 3236 1894 
Q 3428 1669 3622 1275 
L 4263 0 
L 3584 0 
L 2988 1197 
Q 2756 1666 2539 1819 
Q 2322 1972 1947 1972 
L 1259 1972 
L 1259 0 
L 628 0 
L 628 4666 
L 2053 4666 
Q 2853 4666 3247 4331 
Q 3641 3997 3641 3322 
Q 3641 2881 3436 2590 
Q 3231 2300 2841 2188 
z
M 1259 4147 
L 1259 2491 
L 2053 2491 
Q 2509 2491 2742 2702 
Q 2975 2913 2975 3322 
Q 2975 3731 2742 3939 
Q 2509 4147 2053 4147 
L 1259 4147 
z
" transform="scale(0.015625)"/>
       <path id="DejaVuSans-56" d="M 1831 0 
L 50 4666 
L 709 4666 
L 2188 738 
L 3669 4666 
L 4325 4666 
L 2547 0 
L 1831 0 
z
" transform="scale(0.015625)"/>
      </defs>
      <use xlink:href="#DejaVuSans-53"/>
      <use xlink:href="#DejaVuSans-45" transform="translate(63.476562 0)"/>
      <use xlink:href="#DejaVuSans-52" transform="translate(126.660156 0)"/>
      <use xlink:href="#DejaVuSans-56" transform="translate(190.642578 0)"/>
      <use xlink:href="#DejaVuSans-45" transform="translate(259.050781 0)"/>
      <use xlink:href="#DejaVuSans-52" transform="translate(322.234375 0)"/>
     </g>
    </g>
    <g id="line2d_19">
     <path d="M 545.014375 284.220313 
L 555.014375 284.220313 
L 565.014375 284.220313 
" style="fill: none; stroke: #ff7f0e; stroke-width: 1.5; stroke-linecap: square"/>
    </g>
    <g id="text_20">
     <!-- MDL -->
     <g transform="translate(573.014375 287.720313) scale(0.1 -0.1)">
      <defs>
       <path id="DejaVuSans-4d" d="M 628 4666 
L 1569 4666 
L 2759 1491 
L 3956 4666 
L 4897 4666 
L 4897 0 
L 4281 0 
L 4281 4097 
L 3078 897 
L 2444 897 
L 1241 4097 
L 1241 0 
L 628 0 
L 628 4666 
z
" transform="scale(0.015625)"/>
       <path id="DejaVuSans-4c" d="M 628 4666 
L 1259 4666 
L 1259 531 
L 3531 531 
L 3531 0 
L 628 0 
L 628 4666 
z
" transform="scale(0.015625)"/>
      </defs>
      <use xlink:href="#DejaVuSans-4d"/>
      <use xlink:href="#DejaVuSans-44" transform="translate(86.279297 0)"/>
      <use xlink:href="#DejaVuSans-4c" transform="translate(163.28125 0)"/>
     </g>
    </g>
    <g id="line2d_20">
     <path d="M 545.014375 298.898438 
L 555.014375 298.898438 
L 565.014375 298.898438 
" style="fill: none; stroke: #2ca02c; stroke-width: 1.5; stroke-linecap: square"/>
    </g>
    <g id="text_21">
     <!-- JRACLOUD -->
     <g transform="translate(573.014375 302.398438) scale(0.1 -0.1)">
      <defs>
       <path id="DejaVuSans-4a" d="M 628 4666 
L 1259 4666 
L 1259 325 
Q 1259 -519 939 -900 
Q 619 -1281 -91 -1281 
L -331 -1281 
L -331 -750 
L -134 -750 
Q 284 -750 456 -515 
Q 628 -281 628 325 
L 628 4666 
z
" transform="scale(0.015625)"/>
       <path id="DejaVuSans-41" d="M 2188 4044 
L 1331 1722 
L 3047 1722 
L 2188 4044 
z
M 1831 4666 
L 2547 4666 
L 4325 0 
L 3669 0 
L 3244 1197 
L 1141 1197 
L 716 0 
L 50 0 
L 1831 4666 
z
" transform="scale(0.015625)"/>
       <path id="DejaVuSans-4f" d="M 2522 4238 
Q 1834 4238 1429 3725 
Q 1025 3213 1025 2328 
Q 1025 1447 1429 934 
Q 1834 422 2522 422 
Q 3209 422 3611 934 
Q 4013 1447 4013 2328 
Q 4013 3213 3611 3725 
Q 3209 4238 2522 4238 
z
M 2522 4750 
Q 3503 4750 4090 4092 
Q 4678 3434 4678 2328 
Q 4678 1225 4090 567 
Q 3503 -91 2522 -91 
Q 1538 -91 948 565 
Q 359 1222 359 2328 
Q 359 3434 948 4092 
Q 1538 4750 2522 4750 
z
" transform="scale(0.015625)"/>
       <path id="DejaVuSans-55" d="M 556 4666 
L 1191 4666 
L 1191 1831 
Q 1191 1081 1462 751 
Q 1734 422 2344 422 
Q 2950 422 3222 751 
Q 3494 1081 3494 1831 
L 3494 4666 
L 4128 4666 
L 4128 1753 
Q 4128 841 3676 375 
Q 3225 -91 2344 -91 
Q 1459 -91 1007 375 
Q 556 841 556 1753 
L 556 4666 
z
" transform="scale(0.015625)"/>
      </defs>
      <use xlink:href="#DejaVuSans-4a"/>
      <use xlink:href="#DejaVuSans-52" transform="translate(29.492188 0)"/>
      <use xlink:href="#DejaVuSans-41" transform="translate(94.974609 0)"/>
      <use xlink:href="#DejaVuSans-43" transform="translate(161.632812 0)"/>
      <use xlink:href="#DejaVuSans-4c" transform="translate(231.457031 0)"/>
      <use xlink:href="#DejaVuSans-4f" transform="translate(283.544922 0)"/>
      <use xlink:href="#DejaVuSans-55" transform="translate(362.255859 0)"/>
      <use xlink:href="#DejaVuSans-44" transform="translate(435.449219 0)"/>
     </g>
    </g>
   </g>
  </g>
 </g>
 <defs>
  <clipPath id="p3b9de66bc4">
   <rect x="43.78125" y="22.318125" width="589.48" height="291.16"/>
  </clipPath>
 </defs>
</svg>
