<?xml version="1.0" encoding="utf-8" standalone="no"?>
<!DOCTYPE svg PUBLIC "-//W3C//DTD SVG 1.1//EN"
  "http://www.w3.org/Graphics/SVG/1.1/DTD/svg11.dtd">
<svg xmlns:xlink="http://www.w3.org/1999/xlink" width="640.46125pt" height="351.034375pt" viewBox="0 0 640.46125 351.034375" xmlns="http://www.w3.org/2000/svg" version="1.1">
 <metadata>
  <rdf:RDF xmlns:dc="http://purl.org/dc/elements/1.1/" xmlns:cc="http://creativecommons.org/ns#" xmlns:rdf="http://www.w3.org/1999/02/22-rdf-syntax-ns#">
   <cc:Work>
    <dc:type rdf:resource="http://purl.org/dc/dcmitype/StillImage"/>
    <dc:date>2026-03-24T15:10:08.069773</dc:date>
    <dc:format>image/svg+xml</dc:format>
    <dc:creator>
     <cc:Agent>
      <dc:title>Matplotlib v3.10.8, https://matplotlib.org/</dc:title>
     </cc:Agent>
    </dc:creator>
   </cc:Work>
  </rdf:RDF>
 </metadata>
 <defs>
  <style type="text/css">*{stroke-linejoin: round; stroke-linecap: butt}</style>
 </defs>
 <g id="figure_1">
  <g id="patch_1">
   <path d="M 0 351.034375 
L 640.46125 351.034375 
L 640.46125 0 
L 0 0 
z
" style="fill: #ffffff"/>
  </g>
  <g id="axes_1">
   <g id="patch_2">
    <path d="M 43.78125 313.478125 
L 633.26125 313.478125 
L 633.26125 22.318125 
L 43.78125 22.318125 
z
" style="fill: #ffffff"/>
   </g>
   <g id="matplotlib.axis_1">
    <g id="xtick_1">
     <g id="line2d_1">
      <defs>
       <path id="mfcd6a11aff" d="M 0 0 
L 0 3.5 
" style="stroke: #000000; stroke-width: 0.8"/>
      </defs>
      <g>
       <use xlink:href="#mfcd6a11aff" x="70.573923" y="313.478125" style="stroke: #000000; stroke-width: 0.8"/>
      </g>
     </g>
     <g id="text_1">
      <!-- 0 -->
      <g transform="translate(67.392673 328.076563) scale(0.1 -0.1)">
       <defs>
        <path id="DejaVuSans-30" d="M 2034 4250 
Q 1547 4250 1301 3770 
Q 1056 3291 1056 2328 
Q 1056 1369 1301 889 
Q 1547 409 2034 409 
Q 2525 409 2770 889 
Q 3016 1369 3016 2328 
Q 3016 3291 2770 3770 
Q 2525 4250 2034 4250 
z
M 2034 4750 
Q 2819 4750 3233 4129 
Q 3647 3509 3647 2328 
Q 3647 1150 3233 529 
Q 2819 -91 2034 -91 
Q 1250 -91 836 529 
Q 422 1150 422 2328 
Q 422 3509 836 4129 
Q 1250 4750 2034 4750 
z
" transform="scale(0.015625)"/>
       </defs>
       <use xlink:href="#DejaVuSans-30"/>
      </g>
     </g>
    </g>
    <g id="xtick_2">
     <g id="line2d_2">
      <g>
       <use xlink:href="#mfcd6a11aff" x="137.966044" y="313.478125" style="stroke: #000000; stroke-width: 0.8"/>
      </g>
     </g>
     <g id="text_2">
      <!-- 25 -->
      <g transform="translate(131.603544 328.076563) scale(0.1 -0.1)">
       <defs>
        <path id="DejaVuSans-32" d="M 1228 531 
L 3431 531 
L 3431 0 
L 469 0 
L 469 531 
Q 828 903 1448 1529 
Q 2069 2156 2228 2338 
Q 2531 2678 2651 2914 
Q 2772 3150 2772 3378 
Q 2772 3750 2511 3984 
Q 2250 4219 1831 4219 
Q 1534 4219 1204 4116 
Q 875 4013 500 3803 
L 500 4441 
Q 881 4594 1212 4672 
Q 1544 4750 1819 4750 
Q 2544 4750 2975 4387 
Q 3406 4025 3406 3419 
Q 3406 3131 3298 2873 
Q 3191 2616 2906 2266 
Q 2828 2175 2409 1742 
Q 1991 1309 1228 531 
z
" transform="scale(0.015625)"/>
        <path id="DejaVuSans-35" d="M 691 4666 
L 3169 4666 
L 3169 4134 
L 1269 4134 
L 1269 2991 
Q 1406 3038 1543 3061 
Q 1681 3084 1819 3084 
Q 2600 3084 3056 2656 
Q 3513 2228 3513 1497 
Q 3513 744 3044 326 
Q 2575 -91 1722 -91 
Q 1428 -91 1123 -41 
Q 819 9 494 109 
L 494 744 
Q 775 591 1075 516 
Q 1375 441 1709 441 
Q 2250 441 2565 725 
Q 2881 1009 2881 1497 
Q 2881 1984 2565 2268 
Q 2250 2553 1709 2553 
Q 1456 2553 1204 2497 
Q 953 2441 691 2322 
L 691 4666 
z
" transform="scale(0.015625)"/>
       </defs>
       <use xlink:href="#DejaVuSans-32"/>
       <use xlink:href="#DejaVuSans-35" transform="translate(63.623047 0)"/>
      </g>
     </g>
    </g>
    <g id="xtick_3">
     <g id="line2d_3">
      <g>
       <use xlink:href="#mfcd6a11aff" x="205.358164" y="313.478125" style="stroke: #000000; stroke-width: 0.8"/>
      </g>
     </g>
     <g id="text_3">
      <!-- 50 -->
      <g transform="translate(198.995664 328.076563) scale(0.1 -0.1)">
       <use xlink:href="#DejaVuSans-35"/>
       <use xlink:href="#DejaVuSans-30" transform="translate(63.623047 0)"/>
      </g>
     </g>
    </g>
    <g id="xtick_4">
     <g id="line2d_4">
      <g>
       <use xlink:href="#mfcd6a11aff" x="272.750285" y="313.478125" style="stroke: #000000; stroke-width: 0.8"/>
      </g>
     </g>
     <g id="text_4">
      <!-- 75 -->
      <g transform="translate(266.387785 328.076563) scale(0.1 -0.1)">
       <defs>
        <path id="DejaVuSans-37" d="M 525 4666 
L 3525 4666 
L 3525 4397 
L 1831 0 
L 1172 0 
L 2766 4134 
L 525 4134 
L 525 4666 
z
" transform="scale(0.015625)"/>
       </defs>
       <use xlink:href="#DejaVuSans-37"/>
       <use xlink:href="#DejaVuSans-35" transform="translate(63.623047 0)"/>
      </g>
     </g>
    </g>
    <g id="xtick_5">
     <g id="line2d_5">
      <g>
       <use xlink:href="#mfcd6a11aff" x="340.142405" y="313.478125" style="stroke: #000000; stroke-width: 0.8"/>
      </g>
     </g>
     <g id="text_5">
      <!-- 100 -->
      <g transform="translate(330.598655 328.076563) scale(0.1 -0.1)">
       <defs>
        <path id="DejaVuSans-31" d="M 794 531 
L 1825 531 
L 1825 4091 
L 703 3866 
L 703 4441 
L 1819 4666 
L 2450 4666 
L 2450 531 
L 3481 531 
L 3481 0 
L 794 0 
L 794 531 
z
" transform="scale(0.015625)"/>
       </defs>
       <use xlink:href="#DejaVuSans-31"/>
       <use xlink:href="#DejaVuSans-30" transform="translate(63.623047 0)"/>
       <use xlink:href="#DejaVuSans-30" transform="translate(127.246094 0)"/>
      </g>
     </g>
    </g>
    <g id="xtick_6">
     <g id="line2d_6">
      <g>
       <use xlink:href="#mfcd6a11aff" x="407.534525" y="313.478125" style="stroke: #000000; stroke-width: 0.8"/>
      </g>
     </g>
     <g id="text_6">
      <!-- 125 -->
      <g transform="translate(397.990775 328.076563) scale(0.1 -0.1)">
       <use xlink:href="#DejaVuSans-31"/>
       <use xlink:href="#DejaVuSans-32" transform="translate(63.623047 0)"/>
       <use xlink:href="#DejaVuSans-35" transform="translate(127.246094 0)"/>
      </g>
     </g>
    </g>
    <g id="xtick_7">
     <g id="line2d_7">
      <g>
       <use xlink:href="#mfcd6a11aff" x="474.926646" y="313.478125" style="stroke: #000000; stroke-width: 0.8"/>
      </g>
     </g>
     <g id="text_7">
      <!-- 150 -->
      <g transform="translate(465.382896 328.076563) scale(0.1 -0.1)">
       <use xlink:href="#DejaVuSans-31"/>
       <use xlink:href="#DejaVuSans-35" transform="translate(63.623047 0)"/>
       <use xlink:href="#DejaVuSans-30" transform="translate(127.246094 0)"/>
      </g>
     </g>
    </g>
    <g id="xtick_8">
     <g id="line2d_8">
      <g>
       <use xlink:href="#mfcd6a11aff" x="542.318766" y="313.478125" style="stroke: #000000; stroke-width: 0.8"/>
      </g>
     </g>
     <g id="text_8">
      <!-- 175 -->
      <g transform="translate(532.775016 328.076563) scale(0.1 -0.1)">
       <use xlink:href="#DejaVuSans-31"/>
       <use xlink:href="#DejaVuSans-37" transform="translate(63.623047 0)"/>
       <use xlink:href="#DejaVuSans-35" transform="translate(127.246094 0)"/>
      </g>
     </g>
    </g>
    <g id="xtick_9">
     <g id="line2d_9">
      <g>
       <use xlink:href="#mfcd6a11aff" x="609.710886" y="313.478125" style="stroke: #000000; stroke-width: 0.8"/>
      </g>
     </g>
     <g id="text_9">
      <!-- 200 -->
      <g transform="translate(600.167136 328.076563) scale(0.1 -0.1)">
       <use xlink:href="#DejaVuSans-32"/>
       <use xlink:href="#DejaVuSans-30" transform="translate(63.623047 0)"/>
       <use xlink:href="#DejaVuSans-30" transform="translate(127.246094 0)"/>
      </g>
     </g>
    </g>
    <g id="text_10">
     <!-- Cycle Time (days) -->
     <g transform="translate(293.74 341.754687) scale(0.1 -0.1)">
      <defs>
       <path id="DejaVuSans-43" d="M 4122 4306 
L 4122 3641 
Q 3803 3938 3442 4084 
Q 3081 4231 2675 4231 
Q 1875 4231 1450 3742 
Q 1025 3253 1025 2328 
Q 1025 1406 1450 917 
Q 1875 428 2675 428 
Q 3081 428 3442 575 
Q 3803 722 4122 1019 
L 4122 359 
Q 3791 134 3420 21 
Q 3050 -91 2638 -91 
Q 1578 -91 968 557 
Q 359 1206 359 2328 
Q 359 3453 968 4101 
Q 1578 4750 2638 4750 
Q 3056 4750 3426 4639 
Q 3797 4528 4122 4306 
z
" transform="scale(0.015625)"/>
       <path id="DejaVuSans-79" d="M 2059 -325 
Q 1816 -950 1584 -1140 
Q 1353 -1331 966 -1331 
L 506 -1331 
L 506 -850 
L 844 -850 
Q 1081 -850 1212 -737 
Q 1344 -625 1503 -206 
L 1606 56 
L 191 3500 
L 800 3500 
L 1894 763 
L 2988 3500 
L 3597 3500 
L 2059 -325 
z
" transform="scale(0.015625)"/>
       <path id="DejaVuSans-63" d="M 3122 3366 
L 3122 2828 
Q 2878 2963 2633 3030 
Q 2388 3097 2138 3097 
Q 1578 3097 1268 2742 
Q 959 2388 959 1747 
Q 959 1106 1268 751 
Q 1578 397 2138 397 
Q 2388 397 2633 464 
Q 2878 531 3122 666 
L 3122 134 
Q 2881 22 2623 -34 
Q 2366 -91 2075 -91 
Q 1284 -91 818 406 
Q 353 903 353 1747 
Q 353 2603 823 3093 
Q 1294 3584 2113 3584 
Q 2378 3584 2631 3529 
Q 2884 3475 3122 3366 
z
" transform="scale(0.015625)"/>
       <path id="DejaVuSans-6c" d="M 603 4863 
L 1178 4863 
L 1178 0 
L 603 0 
L 603 4863 
z
" transform="scale(0.015625)"/>
       <path id="DejaVuSans-65" d="M 3597 1894 
L 3597 1613 
L 953 1613 
Q 991 1019 1311 708 
Q 1631 397 2203 397 
Q 2534 397 2845 478 
Q 3156 559 3463 722 
L 3463 178 
Q 3153 47 2828 -22 
Q 2503 -91 2169 -91 
Q 1331 -91 842 396 
Q 353 884 353 1716 
Q 353 2575 817 3079 
Q 1281 3584 2069 3584 
Q 2775 3584 3186 3129 
Q 3597 2675 3597 1894 
z
M 3022 2063 
Q 3016 2534 2758 2815 
Q 2500 3097 2075 3097 
Q 1594 3097 1305 2825 
Q 1016 2553 972 2059 
L 3022 2063 
z
" transform="scale(0.015625)"/>
       <path id="DejaVuSans-20" transform="scale(0.015625)"/>
       <path id="DejaVuSans-54" d="M -19 4666 
L 3928 4666 
L 3928 4134 
L 2272 4134 
L 2272 0 
L 1638 0 
L 1638 4134 
L -19 4134 
L -19 4666 
z
" transform="scale(0.015625)"/>
       <path id="DejaVuSans-69" d="M 603 3500 
L 1178 3500 
L 1178 0 
L 603 0 
L 603 3500 
z
M 603 4863 
L 1178 4863 
L 1178 4134 
L 603 4134 
L 603 4863 
z
" transform="scale(0.015625)"/>
       <path id="DejaVuSans-6d" d="M 3328 2828 
Q 3544 3216 3844 3400 
Q 4144 3584 4550 3584 
Q 5097 3584 5394 3201 
Q 5691 2819 5691 2113 
L 5691 0 
L 5113 0 
L 5113 2094 
Q 5113 2597 4934 2840 
Q 4756 3084 4391 3084 
Q 3944 3084 3684 2787 
Q 3425 2491 3425 1978 
L 3425 0 
L 2847 0 
L 2847 2094 
Q 2847 2600 2669 2842 
Q 2491 3084 2119 3084 
Q 1678 3084 1418 2786 
Q 1159 2488 1159 1978 
L 1159 0 
L 581 0 
L 581 3500 
L 1159 3500 
L 1159 2956 
Q 1356 3278 1631 3431 
Q 1906 3584 2284 3584 
Q 2666 3584 2933 3390 
Q 3200 3197 3328 2828 
z
" transform="scale(0.015625)"/>
       <path id="DejaVuSans-28" d="M 1984 4856 
Q 1566 4138 1362 3434 
Q 1159 2731 1159 2009 
Q 1159 1288 1364 580 
Q 1569 -128 1984 -844 
L 1484 -844 
Q 1016 -109 783 600 
Q 550 1309 550 2009 
Q 550 2706 781 3412 
Q 1013 4119 1484 4856 
L 1984 4856 
z
" transform="scale(0.015625)"/>
       <path id="DejaVuSans-64" d="M 2906 2969 
L 2906 4863 
L 3481 4863 
L 3481 0 
L 2906 0 
L 2906 525 
Q 2725 213 2448 61 
Q 2172 -91 1784 -91 
Q 1150 -91 751 415 
Q 353 922 353 1747 
Q 353 2572 751 3078 
Q 1150 3584 1784 3584 
Q 2172 3584 2448 3432 
Q 2725 3281 2906 2969 
z
M 947 1747 
Q 947 1113 1208 752 
Q 1469 391 1925 391 
Q 2381 391 2643 752 
Q 2906 1113 2906 1747 
Q 2906 2381 2643 2742 
Q 2381 3103 1925 3103 
Q 1469 3103 1208 2742 
Q 947 2381 947 1747 
z
" transform="scale(0.015625)"/>
       <path id="DejaVuSans-61" d="M 2194 1759 
Q 1497 1759 1228 1600 
Q 959 1441 959 1056 
Q 959 750 1161 570 
Q 1363 391 1709 391 
Q 2188 391 2477 730 
Q 2766 1069 2766 1631 
L 2766 1759 
L 2194 1759 
z
M 3341 1997 
L 3341 0 
L 2766 0 
L 2766 531 
Q 2569 213 2275 61 
Q 1981 -91 1556 -91 
Q 1019 -91 701 211 
Q 384 513 384 1019 
Q 384 1609 779 1909 
Q 1175 2209 1959 2209 
L 2766 2209 
L 2766 2266 
Q 2766 2663 2505 2880 
Q 2244 3097 1772 3097 
Q 1472 3097 1187 3025 
Q 903 2953 641 2809 
L 641 3341 
Q 956 3463 1253 3523 
Q 1550 3584 1831 3584 
Q 2591 3584 2966 3190 
Q 3341 2797 3341 1997 
z
" transform="scale(0.015625)"/>
       <path id="DejaVuSans-73" d="M 2834 3397 
L 2834 2853 
Q 2591 2978 2328 3040 
Q 2066 3103 1784 3103 
Q 1356 3103 1142 2972 
Q 928 2841 928 2578 
Q 928 2378 1081 2264 
Q 1234 2150 1697 2047 
L 1894 2003 
Q 2506 1872 2764 1633 
Q 3022 1394 3022 966 
Q 3022 478 2636 193 
Q 2250 -91 1575 -91 
Q 1294 -91 989 -36 
Q 684 19 347 128 
L 347 722 
Q 666 556 975 473 
Q 1284 391 1588 391 
Q 1994 391 2212 530 
Q 2431 669 2431 922 
Q 2431 1156 2273 1281 
Q 2116 1406 1581 1522 
L 1381 1569 
Q 847 1681 609 1914 
Q 372 2147 372 2553 
Q 372 3047 722 3315 
Q 1072 3584 1716 3584 
Q 2034 3584 2315 3537 
Q 2597 3491 2834 3397 
z
" transform="scale(0.015625)"/>
       <path id="DejaVuSans-29" d="M 513 4856 
L 1013 4856 
Q 1481 4119 1714 3412 
Q 1947 2706 1947 2009 
Q 1947 1309 1714 600 
Q 1481 -109 1013 -844 
L 513 -844 
Q 928 -128 1133 580 
Q 1338 1288 1338 2009 
Q 1338 2731 1133 3434 
Q 928 4138 513 4856 
z
" transform="scale(0.015625)"/>
      </defs>
      <use xlink:href="#DejaVuSans-43"/>
      <use xlink:href="#DejaVuSans-79" transform="translate(69.824219 0)"/>
      <use xlink:href="#DejaVuSans-63" transform="translate(129.003906 0)"/>
      <use xlink:href="#DejaVuSans-6c" transform="translate(183.984375 0)"/>
      <use xlink:href="#DejaVuSans-65" transform="translate(211.767578 0)"/>
      <use xlink:href="#DejaVuSans-20" transform="translate(273.291016 0)"/>
      <use xlink:href="#DejaVuSans-54" transform="translate(305.078125 0)"/>
      <use xlink:href="#DejaVuSans-69" transform="translate(363.037109 0)"/>
      <use xlink:href="#DejaVuSans-6d" transform="translate(390.820312 0)"/>
      <use xlink:href="#DejaVuSans-65" transform="translate(488.232422 0)"/>
      <use xlink:href="#DejaVuSans-20" transform="translate(549.755859 0)"/>
      <use xlink:href="#DejaVuSans-28" transform="translate(581.542969 0)"/>
      <use xlink:href="#DejaVuSans-64" transform="translate(620.556641 0)"/>
      <use xlink:href="#DejaVuSans-61" transform="translate(684.033203 0)"/>
      <use xlink:href="#DejaVuSans-79" transform="translate(745.3125 0)"/>
      <use xlink:href="#DejaVuSans-73" transform="translate(804.492188 0)"/>
      <use xlink:href="#DejaVuSans-29" transform="translate(856.591797 0)"/>
     </g>
    </g>
   </g>
   <g id="matplotlib.axis_2">
    <g id="ytick_1">
     <g id="line2d_10">
      <defs>
       <path id="mb3c4c3aa24" d="M 0 0 
L -3.5 0 
" style="stroke: #000000; stroke-width: 0.8"/>
      </defs>
      <g>
       <use xlink:href="#mb3c4c3aa24" x="43.78125" y="300.274197" style="stroke: #000000; stroke-width: 0.8"/>
      </g>
     </g>
     <g id="text_11">
      <!-- 0.0 -->
      <g transform="translate(20.878125 304.073416) scale(0.1 -0.1)">
       <defs>
        <path id="DejaVuSans-2e" d="M 684 794 
L 1344 794 
L 1344 0 
L 684 0 
L 684 794 
z
" transform="scale(0.015625)"/>
       </defs>
       <use xlink:href="#DejaVuSans-30"/>
       <use xlink:href="#DejaVuSans-2e" transform="translate(63.623047 0)"/>
       <use xlink:href="#DejaVuSans-30" transform="translate(95.410156 0)"/>
      </g>
     </g>
    </g>
    <g id="ytick_2">
     <g id="line2d_11">
      <g>
       <use xlink:href="#mb3c4c3aa24" x="43.78125" y="244.543672" style="stroke: #000000; stroke-width: 0.8"/>
      </g>
     </g>
     <g id="text_12">
      <!-- 0.2 -->
      <g transform="translate(20.878125 248.342891) scale(0.1 -0.1)">
       <use xlink:href="#DejaVuSans-30"/>
       <use xlink:href="#DejaVuSans-2e" transform="translate(63.623047 0)"/>
       <use xlink:href="#DejaVuSans-32" transform="translate(95.410156 0)"/>
      </g>
     </g>
    </g>
    <g id="ytick_3">
     <g id="line2d_12">
      <g>
       <use xlink:href="#mb3c4c3aa24" x="43.78125" y="188.813146" style="stroke: #000000; stroke-width: 0.8"/>
      </g>
     </g>
     <g id="text_13">
      <!-- 0.4 -->
      <g transform="translate(20.878125 192.612365) scale(0.1 -0.1)">
       <defs>
        <path id="DejaVuSans-34" d="M 2419 4116 
L 825 1625 
L 2419 1625 
L 2419 4116 
z
M 2253 4666 
L 3047 4666 
L 3047 1625 
L 3713 1625 
L 3713 1100 
L 3047 1100 
L 3047 0 
L 2419 0 
L 2419 1100 
L 313 1100 
L 313 1709 
L 2253 4666 
z
" transform="scale(0.015625)"/>
       </defs>
       <use xlink:href="#DejaVuSans-30"/>
       <use xlink:href="#DejaVuSans-2e" transform="translate(63.623047 0)"/>
       <use xlink:href="#DejaVuSans-34" transform="translate(95.410156 0)"/>
      </g>
     </g>
    </g>
    <g id="ytick_4">
     <g id="line2d_13">
      <g>
       <use xlink:href="#mb3c4c3aa24" x="43.78125" y="133.082621" style="stroke: #000000; stroke-width: 0.8"/>
      </g>
     </g>
     <g id="text_14">
      <!-- 0.6 -->
      <g transform="translate(20.878125 136.88184) scale(0.1 -0.1)">
       <defs>
        <path id="DejaVuSans-36" d="M 2113 2584 
Q 1688 2584 1439 2293 
Q 1191 2003 1191 1497 
Q 1191 994 1439 701 
Q 1688 409 2113 409 
Q 2538 409 2786 701 
Q 3034 994 3034 1497 
Q 3034 2003 2786 2293 
Q 2538 2584 2113 2584 
z
M 3366 4563 
L 3366 3988 
Q 3128 4100 2886 4159 
Q 2644 4219 2406 4219 
Q 1781 4219 1451 3797 
Q 1122 3375 1075 2522 
Q 1259 2794 1537 2939 
Q 1816 3084 2150 3084 
Q 2853 3084 3261 2657 
Q 3669 2231 3669 1497 
Q 3669 778 3244 343 
Q 2819 -91 2113 -91 
Q 1303 -91 875 529 
Q 447 1150 447 2328 
Q 447 3434 972 4092 
Q 1497 4750 2381 4750 
Q 2619 4750 2861 4703 
Q 3103 4656 3366 4563 
z
" transform="scale(0.015625)"/>
       </defs>
       <use xlink:href="#DejaVuSans-30"/>
       <use xlink:href="#DejaVuSans-2e" transform="translate(63.623047 0)"/>
       <use xlink:href="#DejaVuSans-36" transform="translate(95.410156 0)"/>
      </g>
     </g>
    </g>
    <g id="ytick_5">
     <g id="line2d_14">
      <g>
       <use xlink:href="#mb3c4c3aa24" x="43.78125" y="77.352095" style="stroke: #000000; stroke-width: 0.8"/>
      </g>
     </g>
     <g id="text_15">
      <!-- 0.8 -->
      <g transform="translate(20.878125 81.151314) scale(0.1 -0.1)">
       <defs>
        <path id="DejaVuSans-38" d="M 2034 2216 
Q 1584 2216 1326 1975 
Q 1069 1734 1069 1313 
Q 1069 891 1326 650 
Q 1584 409 2034 409 
Q 2484 409 2743 651 
Q 3003 894 3003 1313 
Q 3003 1734 2745 1975 
Q 2488 2216 2034 2216 
z
M 1403 2484 
Q 997 2584 770 2862 
Q 544 3141 544 3541 
Q 544 4100 942 4425 
Q 1341 4750 2034 4750 
Q 2731 4750 3128 4425 
Q 3525 4100 3525 3541 
Q 3525 3141 3298 2862 
Q 3072 2584 2669 2484 
Q 3125 2378 3379 2068 
Q 3634 1759 3634 1313 
Q 3634 634 3220 271 
Q 2806 -91 2034 -91 
Q 1263 -91 848 271 
Q 434 634 434 1313 
Q 434 1759 690 2068 
Q 947 2378 1403 2484 
z
M 1172 3481 
Q 1172 3119 1398 2916 
Q 1625 2713 2034 2713 
Q 2441 2713 2670 2916 
Q 2900 3119 2900 3481 
Q 2900 3844 2670 4047 
Q 2441 4250 2034 4250 
Q 1625 4250 1398 4047 
Q 1172 3844 1172 3481 
z
" transform="scale(0.015625)"/>
       </defs>
       <use xlink:href="#DejaVuSans-30"/>
       <use xlink:href="#DejaVuSans-2e" transform="translate(63.623047 0)"/>
       <use xlink:href="#DejaVuSans-38" transform="translate(95.410156 0)"/>
      </g>
     </g>
    </g>
    <g id="text_16">
     <!-- Cumulative proportion -->
     <g transform="translate(14.798438 224.067656) rotate(-90) scale(0.1 -0.1)">
      <defs>
       <path id="DejaVuSans-75" d="M 544 1381 
L 544 3500 
L 1119 3500 
L 1119 1403 
Q 1119 906 1312 657 
Q 1506 409 1894 409 
Q 2359 409 2629 706 
Q 2900 1003 2900 1516 
L 2900 3500 
L 3475 3500 
L 3475 0 
L 2900 0 
L 2900 538 
Q 2691 219 2414 64 
Q 2138 -91 1772 -91 
Q 1169 -91 856 284 
Q 544 659 544 1381 
z
M 1991 3584 
L 1991 3584 
z
" transform="scale(0.015625)"/>
       <path id="DejaVuSans-74" d="M 1172 4494 
L 1172 3500 
L 2356 3500 
L 2356 3053 
L 1172 3053 
L 1172 1153 
Q 1172 725 1289 603 
Q 1406 481 1766 481 
L 2356 481 
L 2356 0 
L 1766 0 
Q 1100 0 847 248 
Q 594 497 594 1153 
L 594 3053 
L 172 3053 
L 172 3500 
L 594 3500 
L 594 4494 
L 1172 4494 
z
" transform="scale(0.015625)"/>
       <path id="DejaVuSans-76" d="M 191 3500 
L 800 3500 
L 1894 563 
L 2988 3500 
L 3597 3500 
L 2284 0 
L 1503 0 
L 191 3500 
z
" transform="scale(0.015625)"/>
       <path id="DejaVuSans-70" d="M 1159 525 
L 1159 -1331 
L 581 -1331 
L 581 3500 
L 1159 3500 
L 1159 2969 
Q 1341 3281 1617 3432 
Q 1894 3584 2278 3584 
Q 2916 3584 3314 3078 
Q 3713 2572 3713 1747 
Q 3713 922 3314 415 
Q 2916 -91 2278 -91 
Q 1894 -91 1617 61 
Q 1341 213 1159 525 
z
M 3116 1747 
Q 3116 2381 2855 2742 
Q 2594 3103 2138 3103 
Q 1681 3103 1420 2742 
Q 1159 2381 1159 1747 
Q 1159 1113 1420 752 
Q 1681 391 2138 391 
Q 2594 391 2855 752 
Q 3116 1113 3116 1747 
z
" transform="scale(0.015625)"/>
       <path id="DejaVuSans-72" d="M 2631 2963 
Q 2534 3019 2420 3045 
Q 2306 3072 2169 3072 
Q 1681 3072 1420 2755 
Q 1159 2438 1159 1844 
L 1159 0 
L 581 0 
L 581 3500 
L 1159 3500 
L 1159 2956 
Q 1341 3275 1631 3429 
Q 1922 3584 2338 3584 
Q 2397 3584 2469 3576 
Q 2541 3569 2628 3553 
L 2631 2963 
z
" transform="scale(0.015625)"/>
       <path id="DejaVuSans-6f" d="M 1959 3097 
Q 1497 3097 1228 2736 
Q 959 2375 959 1747 
Q 959 1119 1226 758 
Q 1494 397 1959 397 
Q 2419 397 2687 759 
Q 2956 1122 2956 1747 
Q 2956 2369 2687 2733 
Q 2419 3097 1959 3097 
z
M 1959 3584 
Q 2709 3584 3137 3096 
Q 3566 2609 3566 1747 
Q 3566 888 3137 398 
Q 2709 -91 1959 -91 
Q 1206 -91 779 398 
Q 353 888 353 1747 
Q 353 2609 779 3096 
Q 1206 3584 1959 3584 
z
" transform="scale(0.015625)"/>
       <path id="DejaVuSans-6e" d="M 3513 2113 
L 3513 0 
L 2938 0 
L 2938 2094 
Q 2938 2591 2744 2837 
Q 2550 3084 2163 3084 
Q 1697 3084 1428 2787 
Q 1159 2491 1159 1978 
L 1159 0 
L 581 0 
L 581 3500 
L 1159 3500 
L 1159 2956 
Q 1366 3272 1645 3428 
Q 1925 3584 2291 3584 
Q 2894 3584 3203 3211 
Q 3513 2838 3513 2113 
z
" transform="scale(0.015625)"/>
      </defs>
      <use xlink:href="#DejaVuSans-43"/>
      <use xlink:href="#DejaVuSans-75" transform="translate(69.824219 0)"/>
      <use xlink:href="#DejaVuSans-6d" transform="translate(133.203125 0)"/>
      <use xlink:href="#DejaVuSans-75" transform="translate(230.615234 0)"/>
      <use xlink:href="#DejaVuSans-6c" transform="translate(293.994141 0)"/>
      <use xlink:href="#DejaVuSans-61" transform="translate(321.777344 0)"/>
      <use xlink:href="#DejaVuSans-74" transform="translate(383.056641 0)"/>
      <use xlink:href="#DejaVuSans-69" transform="translate(422.265625 0)"/>
      <use xlink:href="#DejaVuSans-76" transform="translate(450.048828 0)"/>
      <use xlink:href="#DejaVuSans-65" transform="translate(509.228516 0)"/>
      <use xlink:href="#DejaVuSans-20" transform="translate(570.751953 0)"/>
      <use xlink:href="#DejaVuSans-70" transform="translate(602.539062 0)"/>
      <use xlink:href="#DejaVuSans-72" transform="translate(666.015625 0)"/>
      <use xlink:href="#DejaVuSans-6f" transform="translate(704.878906 0)"/>
      <use xlink:href="#DejaVuSans-70" transform="translate(766.060547 0)"/>
      <use xlink:href="#DejaVuSans-6f" transform="translate(829.537109 0)"/>
      <use xlink:href="#DejaVuSans-72" transform="translate(890.71875 0)"/>
      <use xlink:href="#DejaVuSans-74" transform="translate(931.832031 0)"/>
      <use xlink:href="#DejaVuSans-69" transform="translate(971.041016 0)"/>
      <use xlink:href="#DejaVuSans-6f" transform="translate(998.824219 0)"/>
      <use xlink:href="#DejaVuSans-6e" transform="translate(1060.005859 0)"/>
     </g>
    </g>
   </g>
   <g id="line2d_15">
    <path d="M 70.575795 300.24358 
L 70.686244 294.609904 
L 70.740532 291.915537 
L 70.85098 286.465568 
L 70.905268 283.771201 
L 71.015716 279.423473 
L 71.092468 276.361693 
L 71.202917 272.687557 
L 71.244101 271.860876 
L 71.700869 266.165965 
L 71.79447 265.67608 
L 71.89743 265.155577 
L 72.004134 264.910635 
L 72.24375 264.206425 
L 72.335479 263.869629 
L 73.031864 250.673356 
L 73.142312 248.070843 
L 73.2434 244.611031 
L 73.353848 240.753188 
L 73.516713 236.282989 
L 73.619673 233.741711 
L 73.644009 233.282444 
L 73.758201 231.445376 
L 73.866777 229.883868 
L 74.400298 226.36282 
L 74.667995 225.719846 
L 74.795291 225.444286 
L 74.952539 225.199344 
L 75.180924 224.188956 
L 75.25206 223.790925 
L 75.325068 223.178569 
L 75.521628 221.49459 
L 76.330334 210.043531 
L 76.395854 209.461793 
L 76.826415 206.675573 
L 76.910655 206.43063 
L 77.041695 206.032599 
L 77.79424 204.716033 
L 77.874736 204.379238 
L 77.975825 203.675028 
L 78.436337 197.918881 
L 78.514962 196.877876 
L 78.696546 194.489687 
L 78.806994 192.591383 
L 79.192627 187.968095 
L 79.318051 187.416975 
L 79.424755 186.835236 
L 79.69994 186.161645 
L 79.922708 185.886084 
L 80.201637 185.67176 
L 80.444997 185.518671 
L 80.671509 184.569519 
L 80.723926 184.355194 
L 80.91487 183.038629 
L 81.094582 181.446503 
L 81.20503 180.038084 
L 81.635591 174.771822 
L 81.841512 173.057225 
L 81.935112 172.353015 
L 81.993144 172.046837 
L 82.35444 171.03645 
L 82.558489 170.852743 
L 82.856137 170.638418 
L 82.906681 170.577183 
L 83.170634 170.424094 
L 83.792139 167.423549 
L 84.744989 160.534543 
L 84.969629 159.922187 
L 85.460094 159.309831 
L 85.64355 159.156742 
L 85.757743 158.942418 
L 85.881295 158.758711 
L 86.107807 157.717705 
L 86.167711 157.38091 
L 86.3156 155.972491 
L 86.424176 155.14581 
L 86.648816 153.308742 
L 87.58669 146.3585 
L 87.68029 146.205411 
L 87.82069 145.929851 
L 88.502099 145.317495 
L 88.700532 144.82761 
L 88.796004 144.398961 
L 89.419381 138.397872 
L 89.71703 135.336091 
L 89.928566 133.590876 
L 90.037142 133.070374 
L 90.085814 132.886667 
L 90.19439 132.304929 
L 90.325431 131.906897 
L 91.377497 130.927128 
L 91.585289 130.039211 
L 91.637705 129.824887 
L 91.849241 128.171525 
L 91.939098 127.68164 
L 92.028954 127.008049 
L 92.734699 122.1092 
L 92.963083 121.404991 
L 93.0623 121.190666 
L 94.262254 120.02719 
L 94.400782 119.751629 
L 94.593598 118.924949 
L 94.754591 118.037032 
L 95.580144 115.00587 
L 95.814145 114.822163 
L 95.917105 114.73031 
L 96.005089 114.669074 
L 96.796946 114.546603 
L 96.916754 114.30166 
L 97.173219 113.689304 
L 97.424067 112.49521 
L 97.467123 112.21965 
L 97.5757 111.729765 
L 97.80034 110.719377 
L 97.993156 110.076404 
L 98.127941 109.617137 
L 98.848662 108.943545 
L 99.483271 108.790456 
L 99.604951 108.576131 
L 99.960632 107.780068 
L 100.087928 107.47389 
L 100.243304 106.708445 
L 100.338777 106.034854 
L 100.436121 105.575586 
L 100.559673 105.269408 
L 100.99585 104.473346 
L 101.214874 104.289639 
L 101.349658 104.167168 
L 101.922491 103.891607 
L 102.755533 102.330099 
L 102.918397 101.809597 
L 103.000765 101.472801 
L 103.339598 100.462413 
L 103.446302 100.248089 
L 103.657839 99.880675 
L 103.770159 99.66635 
L 103.957359 99.421408 
L 104.30368 99.237701 
L 104.942033 98.900905 
L 105.132977 98.472256 
L 105.39693 97.58434 
L 105.511122 97.125073 
L 105.589746 96.88013 
L 105.718914 96.267774 
L 105.775074 96.022832 
L 105.900499 95.655418 
L 106.025923 95.226769 
L 106.121395 94.951209 
L 106.823396 94.002057 
L 107.534757 93.81835 
L 108.403367 90.603481 
L 108.495095 90.144214 
L 108.554999 89.868653 
L 108.712248 89.103208 
L 108.813336 88.79703 
L 108.936888 88.368381 
L 109.167144 87.939732 
L 109.303801 87.694789 
L 109.794265 87.419229 
L 110.318426 87.051816 
L 110.447595 86.71502 
L 110.690955 85.980192 
L 111.016684 84.786098 
L 111.117772 84.357449 
L 111.278764 84.112506 
L 111.932093 83.22459 
L 112.894303 82.94903 
L 113.040319 82.795941 
L 113.905185 81.173197 
L 114.137313 80.744548 
L 114.421858 80.43837 
L 114.47053 80.285281 
L 114.66709 80.132192 
L 114.734482 80.040339 
L 115.677972 79.672925 
L 115.747236 79.581072 
L 115.889508 79.427983 
L 116.080453 79.060569 
L 116.239573 78.846244 
L 116.711318 77.958328 
L 116.941574 77.682768 
L 117.572439 77.315354 
L 118.304393 77.162265 
L 118.375529 77.009176 
L 118.555241 76.886705 
L 118.665689 76.580527 
L 119.749579 74.835312 
L 121.383838 74.16172 
L 121.492414 73.978014 
L 121.636559 73.794307 
L 121.913615 73.273804 
L 122.057759 72.998244 
L 122.602512 72.508359 
L 123.755666 72.232799 
L 124.045827 71.865385 
L 124.160019 71.528589 
L 124.354708 71.130558 
L 124.500724 70.732526 
L 124.583092 70.426348 
L 124.72162 70.058935 
L 125.187749 69.507814 
L 126.153703 69.262872 
L 126.511255 69.048547 
L 126.887528 68.405573 
L 127.125272 67.762599 
L 127.224489 67.487039 
L 127.368633 67.211479 
L 127.692489 66.599123 
L 128.323355 66.139856 
L 128.375771 66.109238 
L 129.11334 65.925531 
L 129.32862 65.711207 
L 129.440941 65.496882 
L 129.615037 65.068233 
L 129.729229 64.82329 
L 129.834061 64.608966 
L 130.045598 64.088463 
L 130.219694 63.904756 
L 130.50611 63.445489 
L 130.947903 63.323018 
L 131.835233 63.200547 
L 132.222738 62.955604 
L 132.48669 62.557573 
L 132.649554 62.373866 
L 133.407716 61.853363 
L 134.590822 61.48595 
L 134.680678 61.363479 
L 134.912806 61.179772 
L 135.270359 60.689887 
L 135.725256 60.200002 
L 135.826344 60.108149 
L 137.389467 59.587646 
L 137.541099 59.465175 
L 137.853724 59.25085 
L 137.982892 59.158997 
L 138.467741 58.883437 
L 138.761645 58.607876 
L 139.942879 58.362934 
L 140.191856 58.209845 
L 140.29856 58.087374 
L 140.626161 57.873049 
L 141.073569 57.505635 
L 141.552802 57.046368 
L 142.900645 56.74019 
L 143.119669 56.495248 
L 143.205781 56.342159 
L 143.334949 56.005363 
L 143.54087 55.760421 
L 143.666294 55.607332 
L 144.875608 55.025593 
L 145.270601 54.903122 
L 145.749834 54.535708 
L 145.822842 54.352002 
L 145.929546 54.198913 
L 146.318923 53.494703 
L 146.434987 53.310996 
L 146.835596 52.974201 
L 147.721053 52.790494 
L 148.160974 52.606787 
L 148.41931 52.42308 
L 149.201808 51.749488 
L 149.722225 51.596399 
L 150.809859 51.44331 
L 150.821091 51.382075 
L 151.298452 51.198368 
L 151.444468 51.014661 
L 151.884389 50.769719 
L 152.110901 50.61663 
L 152.226965 50.494158 
L 152.837238 50.402305 
L 153.863096 50.249216 
L 155.130442 49.606242 
L 156.2499 49.3613 
L 156.807757 49.146975 
L 156.916334 49.024504 
L 157.942191 48.38153 
L 158.908145 48.259059 
L 159.132786 48.197823 
L 159.177714 48.167205 
L 159.636355 48.014116 
L 160.561124 47.462996 
L 161.749846 47.340525 
L 162.036263 47.156818 
L 162.259031 46.881258 
L 162.461208 46.728169 
L 162.785064 46.452608 
L 164.527899 46.207666 
L 164.83678 45.962724 
L 165.110092 45.656546 
L 165.770909 45.350367 
L 167.487537 44.952336 
L 168.05101 44.493069 
L 168.739907 44.33998 
L 170.048437 44.217509 
L 170.516438 43.972566 
L 171.070551 43.850095 
L 172.603722 43.605153 
L 172.618698 43.574535 
L 173.024922 43.390828 
L 173.144731 43.329592 
L 173.391835 43.145886 
L 175.874112 42.747854 
L 176.1624 42.564147 
L 176.504977 42.441676 
L 178.247812 42.135498 
L 178.599748 41.982409 
L 180.78812 41.645613 
L 180.810584 41.614995 
L 181.278585 41.431289 
L 181.954378 41.155728 
L 183.607357 41.002639 
L 183.813278 40.880168 
L 184.612623 40.57399 
L 184.621983 40.512755 
L 185.934257 40.267812 
L 186.993811 39.686074 
L 187.162292 39.655456 
L 188.51575 39.502367 
L 188.892023 39.379896 
L 189.575304 39.196189 
L 189.987145 39.012482 
L 191.94526 38.76754 
L 191.984572 38.675686 
L 198.207111 37.849006 
L 198.4018 37.78777 
L 199.833882 37.634681 
L 199.91625 37.573445 
L 200.665052 37.297885 
L 202.087774 37.144796 
L 202.958256 36.777383 
L 203.499265 36.716147 
L 204.976275 36.593676 
L 205.972181 36.409969 
L 210.674654 36.073173 
L 211.268079 35.98132 
L 213.080178 35.858848 
L 213.892627 35.55267 
L 213.892627 35.55267 
" clip-path="url(#p54c63cf13d)" style="fill: none; stroke: #1f77b4; stroke-width: 1.5; stroke-linecap: square"/>
   </g>
   <g id="line2d_16">
    <path d="M 70.575795 300.193358 
L 70.680628 296.717274 
L 71.086852 294.453777 
L 71.187941 294.049581 
L 71.283413 293.726224 
L 71.440661 293.402868 
L 72.498343 289.522587 
L 72.517063 289.28007 
L 72.694903 289.037552 
L 72.917672 288.067482 
L 73.20596 286.935734 
L 73.338872 286.450699 
L 73.825593 283.621328 
L 73.947273 283.055454 
L 74.067082 282.40874 
L 74.258026 281.115313 
L 74.342266 280.306922 
L 74.557547 278.043425 
L 74.845835 276.345802 
L 74.922587 276.022446 
L 75.826765 271.818809 
L 75.993373 271.576291 
L 76.158109 270.202025 
L 76.478222 268.989438 
L 76.573694 268.423563 
L 76.948095 266.321745 
L 77.240127 264.300766 
L 78.891234 255.893492 
L 78.945522 255.650974 
L 79.061587 255.246778 
L 79.149571 254.600065 
L 79.505251 251.932372 
L 79.808516 249.992232 
L 79.93394 248.294609 
L 80.035028 247.890414 
L 80.091188 247.324539 
L 80.214741 246.596987 
L 80.529237 244.090973 
L 80.813782 243.282581 
L 80.892406 242.716707 
L 81.066502 242.39335 
L 81.173206 241.665797 
L 81.285527 241.261601 
L 81.373511 240.614888 
L 81.562583 240.129853 
L 81.98004 238.270552 
L 82.169112 236.653769 
L 82.343208 236.168734 
L 82.573465 234.794468 
L 82.719481 233.824398 
L 82.805593 233.177684 
L 83.052698 232.61181 
L 83.784651 230.024957 
L 83.880123 229.782439 
L 84.035499 229.216565 
L 84.263884 229.054886 
L 84.443596 228.569851 
L 84.535324 228.327334 
L 85.010813 227.357264 
L 85.265406 226.629711 
L 85.553694 226.387194 
L 85.827007 225.982998 
L 85.922479 225.74048 
L 86.092831 225.336285 
L 86.218255 224.851249 
L 86.338064 224.608732 
L 86.538368 224.447054 
L 87.099969 222.426074 
L 87.225393 221.617683 
L 87.410722 220.566773 
L 87.515554 220.324256 
L 88.165139 217.333206 
L 88.314899 216.605654 
L 88.434707 216.120619 
L 88.597572 215.635584 
L 88.82034 214.908031 
L 88.956996 214.584675 
L 89.082421 214.342157 
L 89.181637 213.937961 
L 89.344501 213.04873 
L 89.477413 211.916982 
L 89.66087 210.219359 
L 89.767574 209.815163 
L 89.892998 209.087611 
L 90.258039 207.632506 
L 90.566919 205.854044 
L 90.94132 203.752225 
L 91.083592 203.024673 
L 91.2502 201.892924 
L 91.370009 201.650407 
L 91.875449 199.144393 
L 92.03457 198.578518 
L 93.09974 193.970686 
L 93.18398 193.485651 
L 93.2495 193.162294 
L 94.093773 187.584391 
L 94.213582 187.341873 
L 94.451326 186.290964 
L 94.589854 185.805929 
L 95.014799 184.027467 
L 95.179535 183.138236 
L 95.241312 182.653201 
L 95.409792 181.763971 
L 96.703346 175.377676 
L 96.787586 174.97348 
L 96.926115 174.165088 
L 97.066515 173.922571 
L 97.212531 173.356697 
L 97.545748 172.467466 
L 97.618756 172.144109 
L 97.759156 171.335717 
L 97.880836 170.931521 
L 98.097989 170.12313 
L 98.479877 167.13208 
L 99.363463 163.332639 
L 99.644263 162.847604 
L 99.779048 162.443408 
L 99.988712 162.120052 
L 100.400553 160.422429 
L 100.484793 160.018233 
L 100.793673 159.856555 
L 100.887274 159.533198 
L 101.037034 159.290681 
L 101.130634 158.886485 
L 101.549963 157.997254 
L 101.939339 157.269701 
L 102.424188 156.703827 
L 102.485964 156.542149 
L 102.708733 156.38047 
L 103.358318 155.4104 
L 103.36955 155.329561 
L 103.521182 155.167883 
L 104.052831 153.793617 
L 104.399152 153.631939 
L 104.440336 153.551099 
L 104.818481 153.389421 
L 104.874641 153.308582 
L 105.413778 153.066064 
L 105.634674 152.742708 
L 105.84621 152.581029 
L 106.031539 152.419351 
L 106.155091 152.257673 
L 106.306723 152.095994 
L 106.557572 150.964246 
L 106.690484 150.640889 
L 106.797188 150.155854 
L 106.982516 149.751658 
L 107.096709 149.185784 
L 107.347557 148.377392 
L 107.598406 148.134875 
L 107.699494 147.892357 
L 107.991526 147.730679 
L 108.130055 147.488161 
L 108.468887 147.083966 
L 108.583079 146.760609 
L 108.693528 146.356413 
L 108.796488 146.113896 
L 108.908808 145.7097 
L 109.434841 144.416273 
L 109.618297 143.446203 
L 109.783033 143.122846 
L 109.960874 142.556972 
L 110.095658 142.395294 
L 110.138714 142.152776 
L 110.34089 141.991098 
L 110.554299 140.940188 
L 110.887515 140.374314 
L 110.997964 139.80844 
L 111.100924 139.485083 
L 111.203884 139.323405 
L 111.31246 138.676692 
L 111.47158 138.515013 
L 111.615725 138.110817 
L 111.699965 137.8683 
L 111.943325 136.251516 
L 112.093086 135.847321 
L 112.224126 135.200607 
L 112.40571 134.796411 
L 112.531134 134.392216 
L 112.684639 133.98802 
L 112.785727 133.583824 
L 113.111455 133.179628 
L 113.130175 133.098789 
L 113.33984 132.856271 
L 115.062083 128.895152 
L 115.193123 128.167599 
L 115.268003 127.440047 
L 115.389683 127.197529 
L 115.50762 126.550816 
L 115.73226 126.14662 
L 115.898868 125.984942 
L 116.076709 125.419067 
L 116.387461 125.17655 
L 116.59151 124.610676 
L 116.67575 124.287319 
L 116.746886 123.883123 
L 116.883542 123.478927 
L 117.199911 123.155571 
L 117.475095 122.26634 
L 117.688504 122.104661 
L 117.88132 121.457948 
L 118.860378 120.083682 
L 119.268474 118.951934 
L 119.496859 118.547738 
L 119.708395 118.143542 
L 119.88998 117.981864 
L 120.0491 117.254311 
L 120.107132 117.092633 
L 120.442221 116.850115 
L 120.545181 116.607598 
L 120.612573 116.526758 
L 121.061854 116.36508 
L 121.312702 116.041723 
L 121.41379 115.960884 
L 121.964159 115.718367 
L 121.966031 115.637528 
L 122.36664 115.39501 
L 122.379744 115.314171 
L 124.186227 114.101583 
L 124.81522 113.212352 
L 125.137205 112.808156 
L 125.262629 112.565639 
L 125.330021 112.323121 
L 126.370855 111.191373 
L 126.380215 111.029695 
L 126.698456 110.787177 
L 127.007336 110.46382 
L 127.170201 110.140464 
L 127.370505 109.978785 
L 127.675641 109.817107 
L 127.772986 109.57459 
L 128.143642 109.008715 
L 128.353307 108.847037 
L 128.478731 108.52368 
L 128.686523 108.281163 
L 128.793227 108.038645 
L 130.298318 106.745219 
L 130.414382 106.502701 
L 131.47768 104.885918 
L 131.692961 104.481722 
L 131.818385 104.320043 
L 131.824001 104.239204 
L 132.003713 103.996687 
L 132.230226 103.349973 
L 132.33693 103.026617 
L 132.49605 102.784099 
L 133.173715 102.137386 
L 133.388996 101.73319 
L 133.53314 101.409833 
L 133.632356 101.167316 
L 133.769012 101.005637 
L 133.84202 100.843959 
L 133.943109 100.601441 
L 134.278197 100.439763 
L 134.98207 99.388854 
L 135.328391 98.661301 
L 135.530567 98.337945 
L 135.65412 98.014588 
L 135.87876 97.610392 
L 135.996696 97.367875 
L 136.200745 96.559483 
L 136.616329 95.993609 
L 137.091818 95.751091 
L 137.284635 95.508574 
L 137.863084 95.346895 
L 139.068654 94.295986 
L 140.238656 93.89179 
L 140.768433 93.406755 
L 140.968737 93.164238 
L 141.46669 93.002559 
L 141.648274 92.840881 
L 143.368645 92.032489 
L 143.415446 91.95165 
L 143.997639 91.709132 
L 144.078135 91.385776 
L 144.452535 90.98158 
L 145.444697 89.768992 
L 145.884618 89.445636 
L 146.234683 88.798922 
L 146.345131 88.313887 
L 146.573515 88.152209 
L 146.777564 87.909691 
L 147.397197 87.586335 
L 147.522621 87.182139 
L 147.88579 86.777943 
L 148.286398 86.535425 
L 148.29763 86.454586 
L 148.591535 86.212069 
L 148.634591 85.969551 
L 148.870463 85.807873 
L 148.911647 85.646195 
L 149.310384 85.403677 
L 149.737201 84.999481 
L 149.879473 84.756964 
L 150.004897 84.352768 
L 150.036721 84.191089 
L 150.392402 83.948572 
L 150.471026 83.786894 
L 151.450084 82.816824 
L 151.626052 82.574306 
L 151.878773 82.412628 
L 151.951781 82.331788 
L 152.378598 82.089271 
L 152.62383 81.765914 
L 153.131143 80.957523 
L 153.207895 80.795844 
L 153.410071 80.472488 
L 153.842504 80.310809 
L 154.080249 80.068292 
L 154.097097 79.987452 
L 154.329225 79.744935 
L 154.516425 79.502417 
L 154.576329 79.421578 
L 154.870234 79.2599 
L 154.98817 78.936543 
L 155.218427 78.774865 
L 155.882988 78.208991 
L 156.066444 77.966473 
L 157.391823 77.158081 
L 157.674495 76.915564 
L 158.032048 76.592207 
L 158.08072 76.430529 
L 158.855729 76.188011 
L 158.878193 76.107172 
L 161.145189 75.29878 
L 162.214103 75.137102 
L 162.77196 74.975424 
L 163.221241 74.732906 
L 163.247449 74.652067 
L 163.63121 74.490389 
L 164.346315 73.601158 
L 165.88323 73.277801 
L 166.465423 73.035284 
L 166.555279 72.873605 
L 166.922192 72.550249 
L 167.807649 72.38857 
L 167.880657 72.226892 
L 168.221362 72.065214 
L 168.479698 71.741857 
L 170.106469 70.852626 
L 170.155141 70.771787 
L 170.553878 70.610108 
L 171.774424 69.155003 
L 172.351001 68.831647 
L 172.510122 68.669968 
L 172.768458 68.427451 
L 173.380603 68.184933 
L 173.614603 67.780737 
L 173.784956 67.699898 
L 174.921262 67.457381 
L 174.953086 67.295702 
L 177.235058 66.810667 
L 181.319769 66.648989 
L 182.025515 66.487311 
L 182.195867 66.163954 
L 182.75934 65.840597 
L 182.8155 65.759758 
L 183.534349 65.517241 
L 183.594253 65.355562 
L 184.283151 65.113045 
L 184.421679 64.951366 
L 184.788591 64.708849 
L 185.000128 64.547171 
L 185.185456 64.385492 
L 185.213536 64.304653 
L 185.771393 64.062136 
L 185.778881 63.981296 
L 186.628771 63.819618 
L 187.4225 63.5771 
L 187.47866 63.415422 
L 187.727637 63.334583 
L 188.942567 63.172905 
L 190.724714 62.445352 
L 191.7955 62.283674 
L 192.299069 62.121995 
L 192.866286 61.879478 
L 193.908992 61.475282 
L 193.938944 61.394443 
L 194.326448 61.232764 
L 194.32832 61.151925 
L 194.994754 60.828569 
L 195.236242 60.586051 
L 198.774328 59.939338 
L 198.940937 59.777659 
L 202.570751 58.969268 
L 203.325169 58.72675 
L 205.02682 57.999198 
L 205.691381 57.75668 
L 207.5222 56.705771 
L 207.570872 56.624932 
L 208.207353 56.463253 
L 208.617322 56.059057 
L 208.78393 55.978218 
L 209.88654 55.81654 
L 210.004476 55.654862 
L 210.68027 55.331505 
L 211.307391 55.169827 
L 213.09141 54.523113 
L 214.182788 54.280596 
L 215.057013 54.038078 
L 219.109901 53.795561 
L 219.269021 53.633882 
L 220.740416 53.391365 
L 220.749776 53.310526 
L 221.300145 53.068008 
L 222.410243 52.825491 
L 222.473891 52.663812 
L 223.172148 52.340456 
L 223.812373 52.017099 
L 224.450726 51.85542 
L 225.263176 51.289546 
L 225.506536 51.047029 
L 226.026953 50.88535 
L 226.124297 50.804511 
L 226.878715 50.642833 
L 227.561996 50.238637 
L 227.629388 50.157798 
L 228.481149 49.996119 
L 230.081712 49.591924 
L 230.106048 49.511084 
L 230.925986 49.268567 
L 233.840695 48.783532 
L 237.556622 48.541014 
L 237.786878 48.460175 
L 240.312211 48.136819 
L 240.607987 47.97514 
L 242.270326 47.732623 
L 242.719607 47.651783 
L 244.604714 47.490105 
L 246.360653 46.924231 
L 247.060783 46.681713 
L 247.708496 46.520035 
L 247.745936 46.439196 
L 248.698786 45.954161 
L 250.656901 45.711643 
L 251.317718 45.549965 
L 252.927641 45.388287 
L 253.908571 45.145769 
L 255.859198 44.984091 
L 257.472865 44.499056 
L 259.133332 44.337377 
L 259.86903 44.09486 
L 262.003113 43.771503 
L 264.743726 43.286468 
L 267.001362 43.12479 
L 267.452515 42.963111 
L 270.502009 42.397237 
L 273.538398 42.235559 
L 273.832302 42.15472 
L 276.080578 41.912202 
L 277.387237 41.750524 
L 277.387237 41.669685 
L 278.544135 41.508006 
L 278.970952 41.265489 
L 280.741867 41.022971 
L 284.592578 40.376258 
L 286.509509 40.21458 
L 286.687349 40.13374 
L 295.781542 39.325349 
L 295.908838 39.24451 
L 302.114529 38.516957 
L 306.629801 38.274439 
L 321.051715 37.142691 
L 321.094771 36.981013 
L 336.340366 36.25346 
L 336.359086 36.172621 
L 337.39056 35.930103 
L 343.126378 35.606747 
L 343.126378 35.606747 
" clip-path="url(#p54c63cf13d)" style="fill: none; stroke: #ff7f0e; stroke-width: 1.5; stroke-linecap: square"/>
   </g>
   <g id="line2d_17">
    <path d="M 70.575795 298.254975 
L 70.678756 269.985868 
L 71.043796 263.928202 
L 71.375141 255.851315 
L 71.873094 253.832093 
L 71.882454 251.812871 
L 72.20631 249.793649 
L 72.341095 247.774427 
L 72.810967 245.755205 
L 73.220936 241.716761 
L 73.501737 235.659095 
L 73.715145 233.639873 
L 73.756329 229.60143 
L 74.031514 225.562986 
L 74.641787 223.543764 
L 75.010571 221.524542 
L 75.422412 217.486098 
L 75.618972 213.447654 
L 75.821149 209.40921 
L 76.455758 207.389988 
L 78.617922 205.370766 
L 78.93429 201.332322 
L 80.80255 199.3131 
L 81.716087 197.293879 
L 81.822792 193.255435 
L 82.586569 191.236213 
L 86.347424 187.197769 
L 86.377376 185.178547 
L 86.733056 183.159325 
L 88.039715 181.140103 
L 88.043459 179.120881 
L 89.247157 177.101659 
L 89.501749 171.043993 
L 89.647766 164.986328 
L 92.251722 162.967106 
L 94.39891 160.947884 
L 94.900607 156.90944 
L 95.872177 154.890218 
L 96.488066 152.870996 
L 96.675266 150.851774 
L 97.468995 148.832552 
L 97.497076 146.81333 
L 100.228328 144.794108 
L 100.254536 142.774886 
L 102.690013 140.755664 
L 104.865281 138.736442 
L 105.147953 136.71722 
L 107.547861 134.697998 
L 108.053302 132.678777 
L 108.264839 130.659555 
L 110.786427 128.640333 
L 111.245068 126.621111 
L 112.650943 124.601889 
L 118.558985 122.582667 
L 118.998906 120.563445 
L 120.024764 118.544223 
L 121.743263 116.525001 
L 126.962408 112.486557 
L 127.640073 110.467335 
L 128.774507 108.448113 
L 129.345468 106.428891 
L 129.742333 104.409669 
L 135.197351 100.371226 
L 135.225431 98.352004 
L 145.787274 96.332782 
L 159.608274 94.31356 
L 159.700003 92.294338 
L 169.827541 88.255894 
L 170.570726 86.236672 
L 180.687032 84.21745 
L 181.374057 82.198228 
L 188.626198 80.179006 
L 189.142871 78.159784 
L 197.422742 76.140562 
L 200.365531 74.12134 
L 216.176471 72.102118 
L 216.303768 70.082896 
L 221.455521 68.063675 
L 244.187258 66.044453 
L 248.140929 64.025231 
L 261.748521 62.006009 
L 267.186691 59.986787 
L 273.042317 57.967565 
L 296.416151 55.948343 
L 304.935638 53.929121 
L 307.638811 51.909899 
L 321.512228 49.890677 
L 389.246925 47.871455 
L 410.664515 45.852233 
L 478.505916 43.833011 
L 493.923736 41.813789 
L 517.879762 39.794567 
L 564.180021 37.775345 
L 606.466705 35.756124 
L 606.466705 35.756124 
" clip-path="url(#p54c63cf13d)" style="fill: none; stroke: #2ca02c; stroke-width: 1.5; stroke-linecap: square"/>
   </g>
   <g id="patch_3">
    <path d="M 43.78125 313.478125 
L 43.78125 22.318125 
" style="fill: none; stroke: #000000; stroke-width: 0.8; stroke-linejoin: miter; stroke-linecap: square"/>
   </g>
   <g id="patch_4">
    <path d="M 633.26125 313.478125 
L 633.26125 22.318125 
" style="fill: none; stroke: #000000; stroke-width: 0.8; stroke-linejoin: miter; stroke-linecap: square"/>
   </g>
   <g id="patch_5">
    <path d="M 43.78125 313.478125 
L 633.26125 313.478125 
" style="fill: none; stroke: #000000; stroke-width: 0.8; stroke-linejoin: miter; stroke-linecap: square"/>
   </g>
   <g id="patch_6">
    <path d="M 43.78125 22.318125 
L 633.26125 22.318125 
" style="fill: none; stroke: #000000; stroke-width: 0.8; stroke-linejoin: miter; stroke-linecap: square"/>
   </g>
   <g id="text_17">
    <!-- ECDF of Cycle Time for CT6 (capped at project 95th percentile) -->
    <g transform="translate(149.195 16.318125) scale(0.12 -0.12)">
     <defs>
      <path id="DejaVuSans-45" d="M 628 4666 
L 3578 4666 
L 3578 4134 
L 1259 4134 
L 1259 2753 
L 3481 2753 
L 3481 2222 
L 1259 2222 
L 1259 531 
L 3634 531 
L 3634 0 
L 628 0 
L 628 4666 
z
" transform="scale(0.015625)"/>
      <path id="DejaVuSans-44" d="M 1259 4147 
L 1259 519 
L 2022 519 
Q 2988 519 3436 956 
Q 3884 1394 3884 2338 
Q 3884 3275 3436 3711 
Q 2988 4147 2022 4147 
L 1259 4147 
z
M 628 4666 
L 1925 4666 
Q 3281 4666 3915 4102 
Q 4550 3538 4550 2338 
Q 4550 1131 3912 565 
Q 3275 0 1925 0 
L 628 0 
L 628 4666 
z
" transform="scale(0.015625)"/>
      <path id="DejaVuSans-46" d="M 628 4666 
L 3309 4666 
L 3309 4134 
L 1259 4134 
L 1259 2759 
L 3109 2759 
L 3109 2228 
L 1259 2228 
L 1259 0 
L 628 0 
L 628 4666 
z
" transform="scale(0.015625)"/>
      <path id="DejaVuSans-66" d="M 2375 4863 
L 2375 4384 
L 1825 4384 
Q 1516 4384 1395 4259 
Q 1275 4134 1275 3809 
L 1275 3500 
L 2222 3500 
L 2222 3053 
L 1275 3053 
L 1275 0 
L 697 0 
L 697 3053 
L 147 3053 
L 147 3500 
L 697 3500 
L 697 3744 
Q 697 4328 969 4595 
Q 1241 4863 1831 4863 
L 2375 4863 
z
" transform="scale(0.015625)"/>
      <path id="DejaVuSans-6a" d="M 603 3500 
L 1178 3500 
L 1178 -63 
Q 1178 -731 923 -1031 
Q 669 -1331 103 -1331 
L -116 -1331 
L -116 -844 
L 38 -844 
Q 366 -844 484 -692 
Q 603 -541 603 -63 
L 603 3500 
z
M 603 4863 
L 1178 4863 
L 1178 4134 
L 603 4134 
L 603 4863 
z
" transform="scale(0.015625)"/>
      <path id="DejaVuSans-39" d="M 703 97 
L 703 672 
Q 941 559 1184 500 
Q 1428 441 1663 441 
Q 2288 441 2617 861 
Q 2947 1281 2994 2138 
Q 2813 1869 2534 1725 
Q 2256 1581 1919 1581 
Q 1219 1581 811 2004 
Q 403 2428 403 3163 
Q 403 3881 828 4315 
Q 1253 4750 1959 4750 
Q 2769 4750 3195 4129 
Q 3622 3509 3622 2328 
Q 3622 1225 3098 567 
Q 2575 -91 1691 -91 
Q 1453 -91 1209 -44 
Q 966 3 703 97 
z
M 1959 2075 
Q 2384 2075 2632 2365 
Q 2881 2656 2881 3163 
Q 2881 3666 2632 3958 
Q 2384 4250 1959 4250 
Q 1534 4250 1286 3958 
Q 1038 3666 1038 3163 
Q 1038 2656 1286 2365 
Q 1534 2075 1959 2075 
z
" transform="scale(0.015625)"/>
      <path id="DejaVuSans-68" d="M 3513 2113 
L 3513 0 
L 2938 0 
L 2938 2094 
Q 2938 2591 2744 2837 
Q 2550 3084 2163 3084 
Q 1697 3084 1428 2787 
Q 1159 2491 1159 1978 
L 1159 0 
L 581 0 
L 581 4863 
L 1159 4863 
L 1159 2956 
Q 1366 3272 1645 3428 
Q 1925 3584 2291 3584 
Q 2894 3584 3203 3211 
Q 3513 2838 3513 2113 
z
" transform="scale(0.015625)"/>
     </defs>
     <use xlink:href="#DejaVuSans-45"/>
     <use xlink:href="#DejaVuSans-43" transform="translate(63.183594 0)"/>
     <use xlink:href="#DejaVuSans-44" transform="translate(133.007812 0)"/>
     <use xlink:href="#DejaVuSans-46" transform="translate(210.009766 0)"/>
     <use xlink:href="#DejaVuSans-20" transform="translate(267.529297 0)"/>
     <use xlink:href="#DejaVuSans-6f" transform="translate(299.316406 0)"/>
     <use xlink:href="#DejaVuSans-66" transform="translate(360.498047 0)"/>
     <use xlink:href="#DejaVuSans-20" transform="translate(395.703125 0)"/>
     <use xlink:href="#DejaVuSans-43" transform="translate(427.490234 0)"/>
     <use xlink:href="#DejaVuSans-79" transform="translate(497.314453 0)"/>
     <use xlink:href="#DejaVuSans-63" transform="translate(556.494141 0)"/>
     <use xlink:href="#DejaVuSans-6c" transform="translate(611.474609 0)"/>
     <use xlink:href="#DejaVuSans-65" transform="translate(639.257812 0)"/>
     <use xlink:href="#DejaVuSans-20" transform="translate(700.78125 0)"/>
     <use xlink:href="#DejaVuSans-54" transform="translate(732.568359 0)"/>
     <use xlink:href="#DejaVuSans-69" transform="translate(790.527344 0)"/>
     <use xlink:href="#DejaVuSans-6d" transform="translate(818.310547 0)"/>
     <use xlink:href="#DejaVuSans-65" transform="translate(915.722656 0)"/>
     <use xlink:href="#DejaVuSans-20" transform="translate(977.246094 0)"/>
     <use xlink:href="#DejaVuSans-66" transform="translate(1009.033203 0)"/>
     <use xlink:href="#DejaVuSans-6f" transform="translate(1044.238281 0)"/>
     <use xlink:href="#DejaVuSans-72" transform="translate(1105.419922 0)"/>
     <use xlink:href="#DejaVuSans-20" transform="translate(1146.533203 0)"/>
     <use xlink:href="#DejaVuSans-43" transform="translate(1178.320312 0)"/>
     <use xlink:href="#DejaVuSans-54" transform="translate(1248.144531 0)"/>
     <use xlink:href="#DejaVuSans-36" transform="translate(1309.228516 0)"/>
     <use xlink:href="#DejaVuSans-20" transform="translate(1372.851562 0)"/>
     <use xlink:href="#DejaVuSans-28" transform="translate(1404.638672 0)"/>
     <use xlink:href="#DejaVuSans-63" transform="translate(1443.652344 0)"/>
     <use xlink:href="#DejaVuSans-61" transform="translate(1498.632812 0)"/>
     <use xlink:href="#DejaVuSans-70" transform="translate(1559.912109 0)"/>
     <use xlink:href="#DejaVuSans-70" transform="translate(1623.388672 0)"/>
     <use xlink:href="#DejaVuSans-65" transform="translate(1686.865234 0)"/>
     <use xlink:href="#DejaVuSans-64" transform="translate(1748.388672 0)"/>
     <use xlink:href="#DejaVuSans-20" transform="translate(1811.865234 0)"/>
     <use xlink:href="#DejaVuSans-61" transform="translate(1843.652344 0)"/>
     <use xlink:href="#DejaVuSans-74" transform="translate(1904.931641 0)"/>
     <use xlink:href="#DejaVuSans-20" transform="translate(1944.140625 0)"/>
     <use xlink:href="#DejaVuSans-70" transform="translate(1975.927734 0)"/>
     <use xlink:href="#DejaVuSans-72" transform="translate(2039.404297 0)"/>
     <use xlink:href="#DejaVuSans-6f" transform="translate(2078.267578 0)"/>
     <use xlink:href="#DejaVuSans-6a" transform="translate(2139.449219 0)"/>
     <use xlink:href="#DejaVuSans-65" transform="translate(2167.232422 0)"/>
     <use xlink:href="#DejaVuSans-63" transform="translate(2228.755859 0)"/>
     <use xlink:href="#DejaVuSans-74" transform="translate(2283.736328 0)"/>
     <use xlink:href="#DejaVuSans-20" transform="translate(2322.945312 0)"/>
     <use xlink:href="#DejaVuSans-39" transform="translate(2354.732422 0)"/>
     <use xlink:href="#DejaVuSans-35" transform="translate(2418.355469 0)"/>
     <use xlink:href="#DejaVuSans-74" transform="translate(2481.978516 0)"/>
     <use xlink:href="#DejaVuSans-68" transform="translate(2521.1875 0)"/>
     <use xlink:href="#DejaVuSans-20" transform="translate(2584.566406 0)"/>
     <use xlink:href="#DejaVuSans-70" transform="translate(2616.353516 0)"/>
     <use xlink:href="#DejaVuSans-65" transform="translate(2679.830078 0)"/>
     <use xlink:href="#DejaVuSans-72" transform="translate(2741.353516 0)"/>
     <use xlink:href="#DejaVuSans-63" transform="translate(2780.216797 0)"/>
     <use xlink:href="#DejaVuSans-65" transform="translate(2835.197266 0)"/>
     <use xlink:href="#DejaVuSans-6e" transform="translate(2896.720703 0)"/>
     <use xlink:href="#DejaVuSans-74" transform="translate(2960.099609 0)"/>
     <use xlink:href="#DejaVuSans-69" transform="translate(2999.308594 0)"/>
     <use xlink:href="#DejaVuSans-6c" transform="translate(3027.091797 0)"/>
     <use xlink:href="#DejaVuSans-65" transform="translate(3054.875 0)"/>
     <use xlink:href="#DejaVuSans-29" transform="translate(3116.398438 0)"/>
    </g>
   </g>
   <g id="legend_1">
    <g id="patch_7">
     <path d="M 543.014375 308.478125 
L 626.26125 308.478125 
Q 628.26125 308.478125 628.26125 306.478125 
L 628.26125 248.765625 
Q 628.26125 246.765625 626.26125 246.765625 
L 543.014375 246.765625 
Q 541.014375 246.765625 541.014375 248.765625 
L 541.014375 306.478125 
Q 541.014375 308.478125 543.014375 308.478125 
z
" style="fill: #ffffff; opacity: 0.8; stroke: #cccccc; stroke-linejoin: miter"/>
    </g>
    <g id="text_18">
     <!-- Project -->
     <g transform="translate(567.533125 258.364062) scale(0.1 -0.1)">
      <defs>
       <path id="DejaVuSans-50" d="M 1259 4147 
L 1259 2394 
L 2053 2394 
Q 2494 2394 2734 2622 
Q 2975 2850 2975 3272 
Q 2975 3691 2734 3919 
Q 2494 4147 2053 4147 
L 1259 4147 
z
M 628 4666 
L 2053 4666 
Q 2838 4666 3239 4311 
Q 3641 3956 3641 3272 
Q 3641 2581 3239 2228 
Q 2838 1875 2053 1875 
L 1259 1875 
L 1259 0 
L 628 0 
L 628 4666 
z
" transform="scale(0.015625)"/>
      </defs>
      <use xlink:href="#DejaVuSans-50"/>
      <use xlink:href="#DejaVuSans-72" transform="translate(58.552734 0)"/>
      <use xlink:href="#DejaVuSans-6f" transform="translate(97.416016 0)"/>
      <use xlink:href="#DejaVuSans-6a" transform="translate(158.597656 0)"/>
      <use xlink:href="#DejaVuSans-65" transform="translate(186.380859 0)"/>
      <use xlink:href="#DejaVuSans-63" transform="translate(247.904297 0)"/>
      <use xlink:href="#DejaVuSans-74" transform="translate(302.884766 0)"/>
     </g>
    </g>
    <g id="line2d_18">
     <path d="M 545.014375 269.542188 
L 555.014375 269.542188 
L 565.014375 269.542188 
" style="fill: none; stroke: #1f77b4; stroke-width: 1.5; stroke-linecap: square"/>
    </g>
    <g id="text_19">
     <!-- SERVER -->
     <g transform="translate(573.014375 273.042188) scale(0.1 -0.1)">
      <defs>
       <path id="DejaVuSans-53" d="M 3425 4513 
L 3425 3897 
Q 3066 4069 2747 4153 
Q 2428 4238 2131 4238 
Q 1616 4238 1336 4038 
Q 1056 3838 1056 3469 
Q 1056 3159 1242 3001 
Q 1428 2844 1947 2747 
L 2328 2669 
Q 3034 2534 3370 2195 
Q 3706 1856 3706 1288 
Q 3706 609 3251 259 
Q 2797 -91 1919 -91 
Q 1588 -91 1214 -16 
Q 841 59 441 206 
L 441 856 
Q 825 641 1194 531 
Q 1563 422 1919 422 
Q 2459 422 2753 634 
Q 3047 847 3047 1241 
Q 3047 1584 2836 1778 
Q 2625 1972 2144 2069 
L 1759 2144 
Q 1053 2284 737 2584 
Q 422 2884 422 3419 
Q 422 4038 858 4394 
Q 1294 4750 2059 4750 
Q 2388 4750 2728 4690 
Q 3069 4631 3425 4513 
z
" transform="scale(0.015625)"/>
       <path id="DejaVuSans-52" d="M 2841 2188 
Q 3044 2119 3236 1894 
Q 3428 1669 3622 1275 
L 4263 0 
L 3584 0 
L 2988 1197 
Q 2756 1666 2539 1819 
Q 2322 1972 1947 1972 
L 1259 1972 
L 1259 0 
L 628 0 
L 628 4666 
L 2053 4666 
Q 2853 4666 3247 4331 
Q 3641 3997 3641 3322 
Q 3641 2881 3436 2590 
Q 3231 2300 2841 2188 
z
M 1259 4147 
L 1259 2491 
L 2053 2491 
Q 2509 2491 2742 2702 
Q 2975 2913 2975 3322 
Q 2975 3731 2742 3939 
Q 2509 4147 2053 4147 
L 1259 4147 
z
" transform="scale(0.015625)"/>
       <path id="DejaVuSans-56" d="M 1831 0 
L 50 4666 
L 709 4666 
L 2188 738 
L 3669 4666 
L 4325 4666 
L 2547 0 
L 1831 0 
z
" transform="scale(0.015625)"/>
      </defs>
      <use xlink:href="#DejaVuSans-53"/>
      <use xlink:href="#DejaVuSans-45" transform="translate(63.476562 0)"/>
      <use xlink:href="#DejaVuSans-52" transform="translate(126.660156 0)"/>
      <use xlink:href="#DejaVuSans-56" transform="translate(190.642578 0)"/>
      <use xlink:href="#DejaVuSans-45" transform="translate(259.050781 0)"/>
      <use xlink:href="#DejaVuSans-52" transform="translate(322.234375 0)"/>
     </g>
    </g>
    <g id="line2d_19">
     <path d="M 545.014375 284.220313 
L 555.014375 284.220313 
L 565.014375 284.220313 
" style="fill: none; stroke: #ff7f0e; stroke-width: 1.5; stroke-linecap: square"/>
    </g>
    <g id="text_20">
     <!-- MDL -->
     <g transform="translate(573.014375 287.720313) scale(0.1 -0.1)">
      <defs>
       <path id="DejaVuSans-4d" d="M 628 4666 
L 1569 4666 
L 2759 1491 
L 3956 4666 
L 4897 4666 
L 4897 0 
L 4281 0 
L 4281 4097 
L 3078 897 
L 2444 897 
L 1241 4097 
L 1241 0 
L 628 0 
L 628 4666 
z
" transform="scale(0.015625)"/>
       <path id="DejaVuSans-4c" d="M 628 4666 
L 1259 4666 
L 1259 531 
L 3531 531 
L 3531 0 
L 628 0 
L 628 4666 
z
" transform="scale(0.015625)"/>
      </defs>
      <use xlink:href="#DejaVuSans-4d"/>
      <use xlink:href="#DejaVuSans-44" transform="translate(86.279297 0)"/>
      <use xlink:href="#DejaVuSans-4c" transform="translate(163.28125 0)"/>
     </g>
    </g>
    <g id="line2d_20">
     <path d="M 545.014375 298.898438 
L 555.014375 298.898438 
L 565.014375 298.898438 
" style="fill: none; stroke: #2ca02c; stroke-width: 1.5; stroke-linecap: square"/>
    </g>
    <g id="text_21">
     <!-- JRACLOUD -->
     <g transform="translate(573.014375 302.398438) scale(0.1 -0.1)">
      <defs>
       <path id="DejaVuSans-4a" d="M 628 4666 
L 1259 4666 
L 1259 325 
Q 1259 -519 939 -900 
Q 619 -1281 -91 -1281 
L -331 -1281 
L -331 -750 
L -134 -750 
Q 284 -750 456 -515 
Q 628 -281 628 325 
L 628 4666 
z
" transform="scale(0.015625)"/>
       <path id="DejaVuSans-41" d="M 2188 4044 
L 1331 1722 
L 3047 1722 
L 2188 4044 
z
M 1831 4666 
L 2547 4666 
L 4325 0 
L 3669 0 
L 3244 1197 
L 1141 1197 
L 716 0 
L 50 0 
L 1831 4666 
z
" transform="scale(0.015625)"/>
       <path id="DejaVuSans-4f" d="M 2522 4238 
Q 1834 4238 1429 3725 
Q 1025 3213 1025 2328 
Q 1025 1447 1429 934 
Q 1834 422 2522 422 
Q 3209 422 3611 934 
Q 4013 1447 4013 2328 
Q 4013 3213 3611 3725 
Q 3209 4238 2522 4238 
z
M 2522 4750 
Q 3503 4750 4090 4092 
Q 4678 3434 4678 2328 
Q 4678 1225 4090 567 
Q 3503 -91 2522 -91 
Q 1538 -91 948 565 
Q 359 1222 359 2328 
Q 359 3434 948 4092 
Q 1538 4750 2522 4750 
z
" transform="scale(0.015625)"/>
       <path id="DejaVuSans-55" d="M 556 4666 
L 1191 4666 
L 1191 1831 
Q 1191 1081 1462 751 
Q 1734 422 2344 422 
Q 2950 422 3222 751 
Q 3494 1081 3494 1831 
L 3494 4666 
L 4128 4666 
L 4128 1753 
Q 4128 841 3676 375 
Q 3225 -91 2344 -91 
Q 1459 -91 1007 375 
Q 556 841 556 1753 
L 556 4666 
z
" transform="scale(0.015625)"/>
      </defs>
      <use xlink:href="#DejaVuSans-4a"/>
      <use xlink:href="#DejaVuSans-52" transform="translate(29.492188 0)"/>
      <use xlink:href="#DejaVuSans-41" transform="translate(94.974609 0)"/>
      <use xlink:href="#DejaVuSans-43" transform="translate(161.632812 0)"/>
      <use xlink:href="#DejaVuSans-4c" transform="translate(231.457031 0)"/>
      <use xlink:href="#DejaVuSans-4f" transform="translate(283.544922 0)"/>
      <use xlink:href="#DejaVuSans-55" transform="translate(362.255859 0)"/>
      <use xlink:href="#DejaVuSans-44" transform="translate(435.449219 0)"/>
     </g>
    </g>
   </g>
  </g>
 </g>
 <defs>
  <clipPath id="p54c63cf13d">
   <rect x="43.78125" y="22.318125" width="589.48" height="291.16"/>
  </clipPath>
 </defs>
</svg>
