<?xml version="1.0" encoding="utf-8" standalone="no"?>
<!DOCTYPE svg PUBLIC "-//W3C//DTD SVG 1.1//EN"
  "http://www.w3.org/Graphics/SVG/1.1/DTD/svg11.dtd">
<svg xmlns:xlink="http://www.w3.org/1999/xlink" width="640.46125pt" height="351.034375pt" viewBox="0 0 640.46125 351.034375" xmlns="http://www.w3.org/2000/svg" version="1.1">
 <metadata>
  <rdf:RDF xmlns:dc="http://purl.org/dc/elements/1.1/" xmlns:cc="http://creativecommons.org/ns#" xmlns:rdf="http://www.w3.org/1999/02/22-rdf-syntax-ns#">
   <cc:Work>
    <dc:type rdf:resource="http://purl.org/dc/dcmitype/StillImage"/>
    <dc:date>2026-03-24T20:16:09.649935</dc:date>
    <dc:format>image/svg+xml</dc:format>
    <dc:creator>
     <cc:Agent>
      <dc:title>Matplotlib v3.10.8, https://matplotlib.org/</dc:title>
     </cc:Agent>
    </dc:creator>
   </cc:Work>
  </rdf:RDF>
 </metadata>
 <defs>
  <style type="text/css">*{stroke-linejoin: round; stroke-linecap: butt}</style>
 </defs>
 <g id="figure_1">
  <g id="patch_1">
   <path d="M 0 351.034375 
L 640.46125 351.034375 
L 640.46125 0 
L 0 0 
z
" style="fill: #ffffff"/>
  </g>
  <g id="axes_1">
   <g id="patch_2">
    <path d="M 43.78125 313.478125 
L 633.26125 313.478125 
L 633.26125 22.318125 
L 43.78125 22.318125 
z
" style="fill: #ffffff"/>
   </g>
   <g id="matplotlib.axis_1">
    <g id="xtick_1">
     <g id="line2d_1">
      <defs>
       <path id="mb678e974dc" d="M 0 0 
L 0 3.5 
" style="stroke: #000000; stroke-width: 0.8"/>
      </defs>
      <g>
       <use xlink:href="#mb678e974dc" x="70.573923" y="313.478125" style="stroke: #000000; stroke-width: 0.8"/>
      </g>
     </g>
     <g id="text_1">
      <!-- 0 -->
      <g transform="translate(67.392673 328.076563) scale(0.1 -0.1)">
       <defs>
        <path id="DejaVuSans-30" d="M 2034 4250 
Q 1547 4250 1301 3770 
Q 1056 3291 1056 2328 
Q 1056 1369 1301 889 
Q 1547 409 2034 409 
Q 2525 409 2770 889 
Q 3016 1369 3016 2328 
Q 3016 3291 2770 3770 
Q 2525 4250 2034 4250 
z
M 2034 4750 
Q 2819 4750 3233 4129 
Q 3647 3509 3647 2328 
Q 3647 1150 3233 529 
Q 2819 -91 2034 -91 
Q 1250 -91 836 529 
Q 422 1150 422 2328 
Q 422 3509 836 4129 
Q 1250 4750 2034 4750 
z
" transform="scale(0.015625)"/>
       </defs>
       <use xlink:href="#DejaVuSans-30"/>
      </g>
     </g>
    </g>
    <g id="xtick_2">
     <g id="line2d_2">
      <g>
       <use xlink:href="#mb678e974dc" x="137.966044" y="313.478125" style="stroke: #000000; stroke-width: 0.8"/>
      </g>
     </g>
     <g id="text_2">
      <!-- 25 -->
      <g transform="translate(131.603544 328.076563) scale(0.1 -0.1)">
       <defs>
        <path id="DejaVuSans-32" d="M 1228 531 
L 3431 531 
L 3431 0 
L 469 0 
L 469 531 
Q 828 903 1448 1529 
Q 2069 2156 2228 2338 
Q 2531 2678 2651 2914 
Q 2772 3150 2772 3378 
Q 2772 3750 2511 3984 
Q 2250 4219 1831 4219 
Q 1534 4219 1204 4116 
Q 875 4013 500 3803 
L 500 4441 
Q 881 4594 1212 4672 
Q 1544 4750 1819 4750 
Q 2544 4750 2975 4387 
Q 3406 4025 3406 3419 
Q 3406 3131 3298 2873 
Q 3191 2616 2906 2266 
Q 2828 2175 2409 1742 
Q 1991 1309 1228 531 
z
" transform="scale(0.015625)"/>
        <path id="DejaVuSans-35" d="M 691 4666 
L 3169 4666 
L 3169 4134 
L 1269 4134 
L 1269 2991 
Q 1406 3038 1543 3061 
Q 1681 3084 1819 3084 
Q 2600 3084 3056 2656 
Q 3513 2228 3513 1497 
Q 3513 744 3044 326 
Q 2575 -91 1722 -91 
Q 1428 -91 1123 -41 
Q 819 9 494 109 
L 494 744 
Q 775 591 1075 516 
Q 1375 441 1709 441 
Q 2250 441 2565 725 
Q 2881 1009 2881 1497 
Q 2881 1984 2565 2268 
Q 2250 2553 1709 2553 
Q 1456 2553 1204 2497 
Q 953 2441 691 2322 
L 691 4666 
z
" transform="scale(0.015625)"/>
       </defs>
       <use xlink:href="#DejaVuSans-32"/>
       <use xlink:href="#DejaVuSans-35" transform="translate(63.623047 0)"/>
      </g>
     </g>
    </g>
    <g id="xtick_3">
     <g id="line2d_3">
      <g>
       <use xlink:href="#mb678e974dc" x="205.358164" y="313.478125" style="stroke: #000000; stroke-width: 0.8"/>
      </g>
     </g>
     <g id="text_3">
      <!-- 50 -->
      <g transform="translate(198.995664 328.076563) scale(0.1 -0.1)">
       <use xlink:href="#DejaVuSans-35"/>
       <use xlink:href="#DejaVuSans-30" transform="translate(63.623047 0)"/>
      </g>
     </g>
    </g>
    <g id="xtick_4">
     <g id="line2d_4">
      <g>
       <use xlink:href="#mb678e974dc" x="272.750285" y="313.478125" style="stroke: #000000; stroke-width: 0.8"/>
      </g>
     </g>
     <g id="text_4">
      <!-- 75 -->
      <g transform="translate(266.387785 328.076563) scale(0.1 -0.1)">
       <defs>
        <path id="DejaVuSans-37" d="M 525 4666 
L 3525 4666 
L 3525 4397 
L 1831 0 
L 1172 0 
L 2766 4134 
L 525 4134 
L 525 4666 
z
" transform="scale(0.015625)"/>
       </defs>
       <use xlink:href="#DejaVuSans-37"/>
       <use xlink:href="#DejaVuSans-35" transform="translate(63.623047 0)"/>
      </g>
     </g>
    </g>
    <g id="xtick_5">
     <g id="line2d_5">
      <g>
       <use xlink:href="#mb678e974dc" x="340.142405" y="313.478125" style="stroke: #000000; stroke-width: 0.8"/>
      </g>
     </g>
     <g id="text_5">
      <!-- 100 -->
      <g transform="translate(330.598655 328.076563) scale(0.1 -0.1)">
       <defs>
        <path id="DejaVuSans-31" d="M 794 531 
L 1825 531 
L 1825 4091 
L 703 3866 
L 703 4441 
L 1819 4666 
L 2450 4666 
L 2450 531 
L 3481 531 
L 3481 0 
L 794 0 
L 794 531 
z
" transform="scale(0.015625)"/>
       </defs>
       <use xlink:href="#DejaVuSans-31"/>
       <use xlink:href="#DejaVuSans-30" transform="translate(63.623047 0)"/>
       <use xlink:href="#DejaVuSans-30" transform="translate(127.246094 0)"/>
      </g>
     </g>
    </g>
    <g id="xtick_6">
     <g id="line2d_6">
      <g>
       <use xlink:href="#mb678e974dc" x="407.534525" y="313.478125" style="stroke: #000000; stroke-width: 0.8"/>
      </g>
     </g>
     <g id="text_6">
      <!-- 125 -->
      <g transform="translate(397.990775 328.076563) scale(0.1 -0.1)">
       <use xlink:href="#DejaVuSans-31"/>
       <use xlink:href="#DejaVuSans-32" transform="translate(63.623047 0)"/>
       <use xlink:href="#DejaVuSans-35" transform="translate(127.246094 0)"/>
      </g>
     </g>
    </g>
    <g id="xtick_7">
     <g id="line2d_7">
      <g>
       <use xlink:href="#mb678e974dc" x="474.926646" y="313.478125" style="stroke: #000000; stroke-width: 0.8"/>
      </g>
     </g>
     <g id="text_7">
      <!-- 150 -->
      <g transform="translate(465.382896 328.076563) scale(0.1 -0.1)">
       <use xlink:href="#DejaVuSans-31"/>
       <use xlink:href="#DejaVuSans-35" transform="translate(63.623047 0)"/>
       <use xlink:href="#DejaVuSans-30" transform="translate(127.246094 0)"/>
      </g>
     </g>
    </g>
    <g id="xtick_8">
     <g id="line2d_8">
      <g>
       <use xlink:href="#mb678e974dc" x="542.318766" y="313.478125" style="stroke: #000000; stroke-width: 0.8"/>
      </g>
     </g>
     <g id="text_8">
      <!-- 175 -->
      <g transform="translate(532.775016 328.076563) scale(0.1 -0.1)">
       <use xlink:href="#DejaVuSans-31"/>
       <use xlink:href="#DejaVuSans-37" transform="translate(63.623047 0)"/>
       <use xlink:href="#DejaVuSans-35" transform="translate(127.246094 0)"/>
      </g>
     </g>
    </g>
    <g id="xtick_9">
     <g id="line2d_9">
      <g>
       <use xlink:href="#mb678e974dc" x="609.710886" y="313.478125" style="stroke: #000000; stroke-width: 0.8"/>
      </g>
     </g>
     <g id="text_9">
      <!-- 200 -->
      <g transform="translate(600.167136 328.076563) scale(0.1 -0.1)">
       <use xlink:href="#DejaVuSans-32"/>
       <use xlink:href="#DejaVuSans-30" transform="translate(63.623047 0)"/>
       <use xlink:href="#DejaVuSans-30" transform="translate(127.246094 0)"/>
      </g>
     </g>
    </g>
    <g id="text_10">
     <!-- Cycle Time (days) -->
     <g transform="translate(293.74 341.754687) scale(0.1 -0.1)">
      <defs>
       <path id="DejaVuSans-43" d="M 4122 4306 
L 4122 3641 
Q 3803 3938 3442 4084 
Q 3081 4231 2675 4231 
Q 1875 4231 1450 3742 
Q 1025 3253 1025 2328 
Q 1025 1406 1450 917 
Q 1875 428 2675 428 
Q 3081 428 3442 575 
Q 3803 722 4122 1019 
L 4122 359 
Q 3791 134 3420 21 
Q 3050 -91 2638 -91 
Q 1578 -91 968 557 
Q 359 1206 359 2328 
Q 359 3453 968 4101 
Q 1578 4750 2638 4750 
Q 3056 4750 3426 4639 
Q 3797 4528 4122 4306 
z
" transform="scale(0.015625)"/>
       <path id="DejaVuSans-79" d="M 2059 -325 
Q 1816 -950 1584 -1140 
Q 1353 -1331 966 -1331 
L 506 -1331 
L 506 -850 
L 844 -850 
Q 1081 -850 1212 -737 
Q 1344 -625 1503 -206 
L 1606 56 
L 191 3500 
L 800 3500 
L 1894 763 
L 2988 3500 
L 3597 3500 
L 2059 -325 
z
" transform="scale(0.015625)"/>
       <path id="DejaVuSans-63" d="M 3122 3366 
L 3122 2828 
Q 2878 2963 2633 3030 
Q 2388 3097 2138 3097 
Q 1578 3097 1268 2742 
Q 959 2388 959 1747 
Q 959 1106 1268 751 
Q 1578 397 2138 397 
Q 2388 397 2633 464 
Q 2878 531 3122 666 
L 3122 134 
Q 2881 22 2623 -34 
Q 2366 -91 2075 -91 
Q 1284 -91 818 406 
Q 353 903 353 1747 
Q 353 2603 823 3093 
Q 1294 3584 2113 3584 
Q 2378 3584 2631 3529 
Q 2884 3475 3122 3366 
z
" transform="scale(0.015625)"/>
       <path id="DejaVuSans-6c" d="M 603 4863 
L 1178 4863 
L 1178 0 
L 603 0 
L 603 4863 
z
" transform="scale(0.015625)"/>
       <path id="DejaVuSans-65" d="M 3597 1894 
L 3597 1613 
L 953 1613 
Q 991 1019 1311 708 
Q 1631 397 2203 397 
Q 2534 397 2845 478 
Q 3156 559 3463 722 
L 3463 178 
Q 3153 47 2828 -22 
Q 2503 -91 2169 -91 
Q 1331 -91 842 396 
Q 353 884 353 1716 
Q 353 2575 817 3079 
Q 1281 3584 2069 3584 
Q 2775 3584 3186 3129 
Q 3597 2675 3597 1894 
z
M 3022 2063 
Q 3016 2534 2758 2815 
Q 2500 3097 2075 3097 
Q 1594 3097 1305 2825 
Q 1016 2553 972 2059 
L 3022 2063 
z
" transform="scale(0.015625)"/>
       <path id="DejaVuSans-20" transform="scale(0.015625)"/>
       <path id="DejaVuSans-54" d="M -19 4666 
L 3928 4666 
L 3928 4134 
L 2272 4134 
L 2272 0 
L 1638 0 
L 1638 4134 
L -19 4134 
L -19 4666 
z
" transform="scale(0.015625)"/>
       <path id="DejaVuSans-69" d="M 603 3500 
L 1178 3500 
L 1178 0 
L 603 0 
L 603 3500 
z
M 603 4863 
L 1178 4863 
L 1178 4134 
L 603 4134 
L 603 4863 
z
" transform="scale(0.015625)"/>
       <path id="DejaVuSans-6d" d="M 3328 2828 
Q 3544 3216 3844 3400 
Q 4144 3584 4550 3584 
Q 5097 3584 5394 3201 
Q 5691 2819 5691 2113 
L 5691 0 
L 5113 0 
L 5113 2094 
Q 5113 2597 4934 2840 
Q 4756 3084 4391 3084 
Q 3944 3084 3684 2787 
Q 3425 2491 3425 1978 
L 3425 0 
L 2847 0 
L 2847 2094 
Q 2847 2600 2669 2842 
Q 2491 3084 2119 3084 
Q 1678 3084 1418 2786 
Q 1159 2488 1159 1978 
L 1159 0 
L 581 0 
L 581 3500 
L 1159 3500 
L 1159 2956 
Q 1356 3278 1631 3431 
Q 1906 3584 2284 3584 
Q 2666 3584 2933 3390 
Q 3200 3197 3328 2828 
z
" transform="scale(0.015625)"/>
       <path id="DejaVuSans-28" d="M 1984 4856 
Q 1566 4138 1362 3434 
Q 1159 2731 1159 2009 
Q 1159 1288 1364 580 
Q 1569 -128 1984 -844 
L 1484 -844 
Q 1016 -109 783 600 
Q 550 1309 550 2009 
Q 550 2706 781 3412 
Q 1013 4119 1484 4856 
L 1984 4856 
z
" transform="scale(0.015625)"/>
       <path id="DejaVuSans-64" d="M 2906 2969 
L 2906 4863 
L 3481 4863 
L 3481 0 
L 2906 0 
L 2906 525 
Q 2725 213 2448 61 
Q 2172 -91 1784 -91 
Q 1150 -91 751 415 
Q 353 922 353 1747 
Q 353 2572 751 3078 
Q 1150 3584 1784 3584 
Q 2172 3584 2448 3432 
Q 2725 3281 2906 2969 
z
M 947 1747 
Q 947 1113 1208 752 
Q 1469 391 1925 391 
Q 2381 391 2643 752 
Q 2906 1113 2906 1747 
Q 2906 2381 2643 2742 
Q 2381 3103 1925 3103 
Q 1469 3103 1208 2742 
Q 947 2381 947 1747 
z
" transform="scale(0.015625)"/>
       <path id="DejaVuSans-61" d="M 2194 1759 
Q 1497 1759 1228 1600 
Q 959 1441 959 1056 
Q 959 750 1161 570 
Q 1363 391 1709 391 
Q 2188 391 2477 730 
Q 2766 1069 2766 1631 
L 2766 1759 
L 2194 1759 
z
M 3341 1997 
L 3341 0 
L 2766 0 
L 2766 531 
Q 2569 213 2275 61 
Q 1981 -91 1556 -91 
Q 1019 -91 701 211 
Q 384 513 384 1019 
Q 384 1609 779 1909 
Q 1175 2209 1959 2209 
L 2766 2209 
L 2766 2266 
Q 2766 2663 2505 2880 
Q 2244 3097 1772 3097 
Q 1472 3097 1187 3025 
Q 903 2953 641 2809 
L 641 3341 
Q 956 3463 1253 3523 
Q 1550 3584 1831 3584 
Q 2591 3584 2966 3190 
Q 3341 2797 3341 1997 
z
" transform="scale(0.015625)"/>
       <path id="DejaVuSans-73" d="M 2834 3397 
L 2834 2853 
Q 2591 2978 2328 3040 
Q 2066 3103 1784 3103 
Q 1356 3103 1142 2972 
Q 928 2841 928 2578 
Q 928 2378 1081 2264 
Q 1234 2150 1697 2047 
L 1894 2003 
Q 2506 1872 2764 1633 
Q 3022 1394 3022 966 
Q 3022 478 2636 193 
Q 2250 -91 1575 -91 
Q 1294 -91 989 -36 
Q 684 19 347 128 
L 347 722 
Q 666 556 975 473 
Q 1284 391 1588 391 
Q 1994 391 2212 530 
Q 2431 669 2431 922 
Q 2431 1156 2273 1281 
Q 2116 1406 1581 1522 
L 1381 1569 
Q 847 1681 609 1914 
Q 372 2147 372 2553 
Q 372 3047 722 3315 
Q 1072 3584 1716 3584 
Q 2034 3584 2315 3537 
Q 2597 3491 2834 3397 
z
" transform="scale(0.015625)"/>
       <path id="DejaVuSans-29" d="M 513 4856 
L 1013 4856 
Q 1481 4119 1714 3412 
Q 1947 2706 1947 2009 
Q 1947 1309 1714 600 
Q 1481 -109 1013 -844 
L 513 -844 
Q 928 -128 1133 580 
Q 1338 1288 1338 2009 
Q 1338 2731 1133 3434 
Q 928 4138 513 4856 
z
" transform="scale(0.015625)"/>
      </defs>
      <use xlink:href="#DejaVuSans-43"/>
      <use xlink:href="#DejaVuSans-79" transform="translate(69.824219 0)"/>
      <use xlink:href="#DejaVuSans-63" transform="translate(129.003906 0)"/>
      <use xlink:href="#DejaVuSans-6c" transform="translate(183.984375 0)"/>
      <use xlink:href="#DejaVuSans-65" transform="translate(211.767578 0)"/>
      <use xlink:href="#DejaVuSans-20" transform="translate(273.291016 0)"/>
      <use xlink:href="#DejaVuSans-54" transform="translate(305.078125 0)"/>
      <use xlink:href="#DejaVuSans-69" transform="translate(363.037109 0)"/>
      <use xlink:href="#DejaVuSans-6d" transform="translate(390.820312 0)"/>
      <use xlink:href="#DejaVuSans-65" transform="translate(488.232422 0)"/>
      <use xlink:href="#DejaVuSans-20" transform="translate(549.755859 0)"/>
      <use xlink:href="#DejaVuSans-28" transform="translate(581.542969 0)"/>
      <use xlink:href="#DejaVuSans-64" transform="translate(620.556641 0)"/>
      <use xlink:href="#DejaVuSans-61" transform="translate(684.033203 0)"/>
      <use xlink:href="#DejaVuSans-79" transform="translate(745.3125 0)"/>
      <use xlink:href="#DejaVuSans-73" transform="translate(804.492188 0)"/>
      <use xlink:href="#DejaVuSans-29" transform="translate(856.591797 0)"/>
     </g>
    </g>
   </g>
   <g id="matplotlib.axis_2">
    <g id="ytick_1">
     <g id="line2d_10">
      <defs>
       <path id="me1cf7ff8f5" d="M 0 0 
L -3.5 0 
" style="stroke: #000000; stroke-width: 0.8"/>
      </defs>
      <g>
       <use xlink:href="#me1cf7ff8f5" x="43.78125" y="300.274275" style="stroke: #000000; stroke-width: 0.8"/>
      </g>
     </g>
     <g id="text_11">
      <!-- 0.0 -->
      <g transform="translate(20.878125 304.073494) scale(0.1 -0.1)">
       <defs>
        <path id="DejaVuSans-2e" d="M 684 794 
L 1344 794 
L 1344 0 
L 684 0 
L 684 794 
z
" transform="scale(0.015625)"/>
       </defs>
       <use xlink:href="#DejaVuSans-30"/>
       <use xlink:href="#DejaVuSans-2e" transform="translate(63.623047 0)"/>
       <use xlink:href="#DejaVuSans-30" transform="translate(95.410156 0)"/>
      </g>
     </g>
    </g>
    <g id="ytick_2">
     <g id="line2d_11">
      <g>
       <use xlink:href="#me1cf7ff8f5" x="43.78125" y="244.542765" style="stroke: #000000; stroke-width: 0.8"/>
      </g>
     </g>
     <g id="text_12">
      <!-- 0.2 -->
      <g transform="translate(20.878125 248.341984) scale(0.1 -0.1)">
       <use xlink:href="#DejaVuSans-30"/>
       <use xlink:href="#DejaVuSans-2e" transform="translate(63.623047 0)"/>
       <use xlink:href="#DejaVuSans-32" transform="translate(95.410156 0)"/>
      </g>
     </g>
    </g>
    <g id="ytick_3">
     <g id="line2d_12">
      <g>
       <use xlink:href="#me1cf7ff8f5" x="43.78125" y="188.811255" style="stroke: #000000; stroke-width: 0.8"/>
      </g>
     </g>
     <g id="text_13">
      <!-- 0.4 -->
      <g transform="translate(20.878125 192.610473) scale(0.1 -0.1)">
       <defs>
        <path id="DejaVuSans-34" d="M 2419 4116 
L 825 1625 
L 2419 1625 
L 2419 4116 
z
M 2253 4666 
L 3047 4666 
L 3047 1625 
L 3713 1625 
L 3713 1100 
L 3047 1100 
L 3047 0 
L 2419 0 
L 2419 1100 
L 313 1100 
L 313 1709 
L 2253 4666 
z
" transform="scale(0.015625)"/>
       </defs>
       <use xlink:href="#DejaVuSans-30"/>
       <use xlink:href="#DejaVuSans-2e" transform="translate(63.623047 0)"/>
       <use xlink:href="#DejaVuSans-34" transform="translate(95.410156 0)"/>
      </g>
     </g>
    </g>
    <g id="ytick_4">
     <g id="line2d_13">
      <g>
       <use xlink:href="#me1cf7ff8f5" x="43.78125" y="133.079744" style="stroke: #000000; stroke-width: 0.8"/>
      </g>
     </g>
     <g id="text_14">
      <!-- 0.6 -->
      <g transform="translate(20.878125 136.878963) scale(0.1 -0.1)">
       <defs>
        <path id="DejaVuSans-36" d="M 2113 2584 
Q 1688 2584 1439 2293 
Q 1191 2003 1191 1497 
Q 1191 994 1439 701 
Q 1688 409 2113 409 
Q 2538 409 2786 701 
Q 3034 994 3034 1497 
Q 3034 2003 2786 2293 
Q 2538 2584 2113 2584 
z
M 3366 4563 
L 3366 3988 
Q 3128 4100 2886 4159 
Q 2644 4219 2406 4219 
Q 1781 4219 1451 3797 
Q 1122 3375 1075 2522 
Q 1259 2794 1537 2939 
Q 1816 3084 2150 3084 
Q 2853 3084 3261 2657 
Q 3669 2231 3669 1497 
Q 3669 778 3244 343 
Q 2819 -91 2113 -91 
Q 1303 -91 875 529 
Q 447 1150 447 2328 
Q 447 3434 972 4092 
Q 1497 4750 2381 4750 
Q 2619 4750 2861 4703 
Q 3103 4656 3366 4563 
z
" transform="scale(0.015625)"/>
       </defs>
       <use xlink:href="#DejaVuSans-30"/>
       <use xlink:href="#DejaVuSans-2e" transform="translate(63.623047 0)"/>
       <use xlink:href="#DejaVuSans-36" transform="translate(95.410156 0)"/>
      </g>
     </g>
    </g>
    <g id="ytick_5">
     <g id="line2d_14">
      <g>
       <use xlink:href="#me1cf7ff8f5" x="43.78125" y="77.348234" style="stroke: #000000; stroke-width: 0.8"/>
      </g>
     </g>
     <g id="text_15">
      <!-- 0.8 -->
      <g transform="translate(20.878125 81.147452) scale(0.1 -0.1)">
       <defs>
        <path id="DejaVuSans-38" d="M 2034 2216 
Q 1584 2216 1326 1975 
Q 1069 1734 1069 1313 
Q 1069 891 1326 650 
Q 1584 409 2034 409 
Q 2484 409 2743 651 
Q 3003 894 3003 1313 
Q 3003 1734 2745 1975 
Q 2488 2216 2034 2216 
z
M 1403 2484 
Q 997 2584 770 2862 
Q 544 3141 544 3541 
Q 544 4100 942 4425 
Q 1341 4750 2034 4750 
Q 2731 4750 3128 4425 
Q 3525 4100 3525 3541 
Q 3525 3141 3298 2862 
Q 3072 2584 2669 2484 
Q 3125 2378 3379 2068 
Q 3634 1759 3634 1313 
Q 3634 634 3220 271 
Q 2806 -91 2034 -91 
Q 1263 -91 848 271 
Q 434 634 434 1313 
Q 434 1759 690 2068 
Q 947 2378 1403 2484 
z
M 1172 3481 
Q 1172 3119 1398 2916 
Q 1625 2713 2034 2713 
Q 2441 2713 2670 2916 
Q 2900 3119 2900 3481 
Q 2900 3844 2670 4047 
Q 2441 4250 2034 4250 
Q 1625 4250 1398 4047 
Q 1172 3844 1172 3481 
z
" transform="scale(0.015625)"/>
       </defs>
       <use xlink:href="#DejaVuSans-30"/>
       <use xlink:href="#DejaVuSans-2e" transform="translate(63.623047 0)"/>
       <use xlink:href="#DejaVuSans-38" transform="translate(95.410156 0)"/>
      </g>
     </g>
    </g>
    <g id="text_16">
     <!-- Cumulative proportion -->
     <g transform="translate(14.798438 224.067656) rotate(-90) scale(0.1 -0.1)">
      <defs>
       <path id="DejaVuSans-75" d="M 544 1381 
L 544 3500 
L 1119 3500 
L 1119 1403 
Q 1119 906 1312 657 
Q 1506 409 1894 409 
Q 2359 409 2629 706 
Q 2900 1003 2900 1516 
L 2900 3500 
L 3475 3500 
L 3475 0 
L 2900 0 
L 2900 538 
Q 2691 219 2414 64 
Q 2138 -91 1772 -91 
Q 1169 -91 856 284 
Q 544 659 544 1381 
z
M 1991 3584 
L 1991 3584 
z
" transform="scale(0.015625)"/>
       <path id="DejaVuSans-74" d="M 1172 4494 
L 1172 3500 
L 2356 3500 
L 2356 3053 
L 1172 3053 
L 1172 1153 
Q 1172 725 1289 603 
Q 1406 481 1766 481 
L 2356 481 
L 2356 0 
L 1766 0 
Q 1100 0 847 248 
Q 594 497 594 1153 
L 594 3053 
L 172 3053 
L 172 3500 
L 594 3500 
L 594 4494 
L 1172 4494 
z
" transform="scale(0.015625)"/>
       <path id="DejaVuSans-76" d="M 191 3500 
L 800 3500 
L 1894 563 
L 2988 3500 
L 3597 3500 
L 2284 0 
L 1503 0 
L 191 3500 
z
" transform="scale(0.015625)"/>
       <path id="DejaVuSans-70" d="M 1159 525 
L 1159 -1331 
L 581 -1331 
L 581 3500 
L 1159 3500 
L 1159 2969 
Q 1341 3281 1617 3432 
Q 1894 3584 2278 3584 
Q 2916 3584 3314 3078 
Q 3713 2572 3713 1747 
Q 3713 922 3314 415 
Q 2916 -91 2278 -91 
Q 1894 -91 1617 61 
Q 1341 213 1159 525 
z
M 3116 1747 
Q 3116 2381 2855 2742 
Q 2594 3103 2138 3103 
Q 1681 3103 1420 2742 
Q 1159 2381 1159 1747 
Q 1159 1113 1420 752 
Q 1681 391 2138 391 
Q 2594 391 2855 752 
Q 3116 1113 3116 1747 
z
" transform="scale(0.015625)"/>
       <path id="DejaVuSans-72" d="M 2631 2963 
Q 2534 3019 2420 3045 
Q 2306 3072 2169 3072 
Q 1681 3072 1420 2755 
Q 1159 2438 1159 1844 
L 1159 0 
L 581 0 
L 581 3500 
L 1159 3500 
L 1159 2956 
Q 1341 3275 1631 3429 
Q 1922 3584 2338 3584 
Q 2397 3584 2469 3576 
Q 2541 3569 2628 3553 
L 2631 2963 
z
" transform="scale(0.015625)"/>
       <path id="DejaVuSans-6f" d="M 1959 3097 
Q 1497 3097 1228 2736 
Q 959 2375 959 1747 
Q 959 1119 1226 758 
Q 1494 397 1959 397 
Q 2419 397 2687 759 
Q 2956 1122 2956 1747 
Q 2956 2369 2687 2733 
Q 2419 3097 1959 3097 
z
M 1959 3584 
Q 2709 3584 3137 3096 
Q 3566 2609 3566 1747 
Q 3566 888 3137 398 
Q 2709 -91 1959 -91 
Q 1206 -91 779 398 
Q 353 888 353 1747 
Q 353 2609 779 3096 
Q 1206 3584 1959 3584 
z
" transform="scale(0.015625)"/>
       <path id="DejaVuSans-6e" d="M 3513 2113 
L 3513 0 
L 2938 0 
L 2938 2094 
Q 2938 2591 2744 2837 
Q 2550 3084 2163 3084 
Q 1697 3084 1428 2787 
Q 1159 2491 1159 1978 
L 1159 0 
L 581 0 
L 581 3500 
L 1159 3500 
L 1159 2956 
Q 1366 3272 1645 3428 
Q 1925 3584 2291 3584 
Q 2894 3584 3203 3211 
Q 3513 2838 3513 2113 
z
" transform="scale(0.015625)"/>
      </defs>
      <use xlink:href="#DejaVuSans-43"/>
      <use xlink:href="#DejaVuSans-75" transform="translate(69.824219 0)"/>
      <use xlink:href="#DejaVuSans-6d" transform="translate(133.203125 0)"/>
      <use xlink:href="#DejaVuSans-75" transform="translate(230.615234 0)"/>
      <use xlink:href="#DejaVuSans-6c" transform="translate(293.994141 0)"/>
      <use xlink:href="#DejaVuSans-61" transform="translate(321.777344 0)"/>
      <use xlink:href="#DejaVuSans-74" transform="translate(383.056641 0)"/>
      <use xlink:href="#DejaVuSans-69" transform="translate(422.265625 0)"/>
      <use xlink:href="#DejaVuSans-76" transform="translate(450.048828 0)"/>
      <use xlink:href="#DejaVuSans-65" transform="translate(509.228516 0)"/>
      <use xlink:href="#DejaVuSans-20" transform="translate(570.751953 0)"/>
      <use xlink:href="#DejaVuSans-70" transform="translate(602.539062 0)"/>
      <use xlink:href="#DejaVuSans-72" transform="translate(666.015625 0)"/>
      <use xlink:href="#DejaVuSans-6f" transform="translate(704.878906 0)"/>
      <use xlink:href="#DejaVuSans-70" transform="translate(766.060547 0)"/>
      <use xlink:href="#DejaVuSans-6f" transform="translate(829.537109 0)"/>
      <use xlink:href="#DejaVuSans-72" transform="translate(890.71875 0)"/>
      <use xlink:href="#DejaVuSans-74" transform="translate(931.832031 0)"/>
      <use xlink:href="#DejaVuSans-69" transform="translate(971.041016 0)"/>
      <use xlink:href="#DejaVuSans-6f" transform="translate(998.824219 0)"/>
      <use xlink:href="#DejaVuSans-6e" transform="translate(1060.005859 0)"/>
     </g>
    </g>
   </g>
   <g id="line2d_15">
    <path d="M 70.575795 300.24358 
L 70.686244 294.59553 
L 70.740532 291.89429 
L 70.85098 286.461112 
L 70.905268 283.759871 
L 71.015716 279.401051 
L 71.092468 276.331459 
L 71.202917 272.647948 
L 71.244101 271.819159 
L 71.700869 266.109718 
L 71.79447 265.618583 
L 71.89743 265.096752 
L 72.004134 264.851185 
L 72.24375 264.145179 
L 72.335479 263.807524 
L 73.031864 250.577583 
L 73.142312 247.96843 
L 73.2434 244.499791 
L 73.353848 240.632105 
L 73.516713 236.150501 
L 73.619673 233.60274 
L 73.644009 233.142301 
L 73.758201 231.300546 
L 73.866777 229.735054 
L 74.400298 226.205023 
L 74.667995 225.560409 
L 74.795291 225.284145 
L 74.952539 225.038578 
L 75.180924 224.025613 
L 75.25206 223.626566 
L 75.325068 223.012647 
L 75.544092 221.201588 
L 75.650797 219.789576 
L 75.720061 219.052874 
L 75.830509 217.487382 
L 76.487582 208.278606 
L 76.568078 208.033039 
L 77.064159 205.822933 
L 77.258847 205.608061 
L 77.384272 205.485278 
L 77.571472 205.209014 
L 77.650096 205.024839 
L 77.769904 204.779272 
L 78.325889 199.315398 
L 79.095283 188.510435 
L 79.385443 186.852855 
L 79.580132 186.208241 
L 79.69994 186.054761 
L 79.922708 185.778498 
L 80.201637 185.563626 
L 80.428149 185.440843 
L 80.598501 184.919012 
L 80.748262 184.151614 
L 80.795062 183.813959 
L 81.010342 182.094988 
L 81.255575 179.178875 
L 81.358535 177.766863 
L 81.386615 177.306424 
L 82.257096 171.044457 
L 82.558489 170.737498 
L 82.856137 170.522626 
L 82.906681 170.461234 
L 83.170634 170.307755 
L 83.792139 167.299555 
L 84.700061 160.699932 
L 84.943421 159.871142 
L 85.072589 159.564183 
L 85.254174 159.349312 
L 85.656654 158.980961 
L 86.100319 157.661036 
L 86.309984 155.911369 
L 86.506544 154.376573 
L 86.570192 153.94683 
L 87.084993 148.820611 
L 87.275937 147.469991 
L 87.375153 146.978856 
L 87.498706 146.579809 
L 87.730834 145.996587 
L 87.82069 145.843107 
L 88.502099 145.229189 
L 88.700532 144.738054 
L 88.796004 144.308311 
L 89.419381 138.291911 
L 89.71703 135.222319 
L 89.928566 133.472652 
L 90.037142 132.950821 
L 90.085814 132.766646 
L 90.19439 132.183423 
L 90.325431 131.784376 
L 91.377497 130.802107 
L 91.579673 129.942621 
L 91.632089 129.758446 
L 91.99713 127.149293 
L 92.27793 124.325268 
L 92.895691 121.470548 
L 92.963083 121.286372 
L 93.0623 121.071501 
L 94.262254 119.905056 
L 94.400782 119.628792 
L 94.593598 118.800003 
L 94.754591 117.909821 
L 95.580144 114.870925 
L 95.814145 114.68675 
L 95.917105 114.594662 
L 96.005089 114.53327 
L 96.796946 114.410486 
L 96.916754 114.164919 
L 97.173219 113.551001 
L 97.424067 112.35386 
L 97.467123 112.077596 
L 97.5757 111.586462 
L 97.80034 110.573496 
L 97.993156 109.928882 
L 98.127941 109.468443 
L 98.848662 108.793133 
L 99.483271 108.639653 
L 99.604951 108.424782 
L 99.960632 107.626688 
L 100.087928 107.319729 
L 100.243304 106.552331 
L 100.391193 105.692845 
L 100.496025 105.263102 
L 100.621449 105.017535 
L 100.728153 104.864055 
L 100.99585 104.342225 
L 101.214874 104.158049 
L 101.349658 104.035266 
L 101.922491 103.759002 
L 102.755533 102.19351 
L 102.918397 101.67168 
L 103.000765 101.334025 
L 103.339598 100.321059 
L 103.446302 100.106188 
L 103.657839 99.737837 
L 103.770159 99.522966 
L 103.957359 99.277398 
L 104.30368 99.093223 
L 104.942033 98.755568 
L 105.132977 98.325825 
L 105.39693 97.435643 
L 105.511122 96.975204 
L 105.589746 96.729637 
L 105.718914 96.115719 
L 105.775074 95.870151 
L 105.900499 95.5018 
L 106.025923 95.072057 
L 106.121395 94.795794 
L 106.823396 93.844221 
L 107.534757 93.660045 
L 108.403367 90.436974 
L 108.495095 89.976535 
L 108.554999 89.700271 
L 108.712248 88.932874 
L 108.813336 88.625914 
L 108.936888 88.196171 
L 109.167144 87.766429 
L 109.303801 87.520861 
L 109.794265 87.244598 
L 110.318426 86.876247 
L 110.447595 86.538592 
L 110.690955 85.80189 
L 111.016684 84.604749 
L 111.117772 84.175006 
L 111.278764 83.929439 
L 111.932093 83.039257 
L 112.894303 82.762994 
L 113.040319 82.609514 
L 113.905185 80.98263 
L 114.137313 80.552888 
L 114.421858 80.245928 
L 114.47053 80.092449 
L 114.66709 79.938969 
L 114.734482 79.846881 
L 115.677972 79.47853 
L 115.747236 79.386443 
L 115.889508 79.232963 
L 116.080453 78.864612 
L 116.239573 78.649741 
L 116.711318 77.759559 
L 116.941574 77.483296 
L 117.572439 77.114945 
L 118.304393 76.961465 
L 118.375529 76.807986 
L 118.555241 76.685202 
L 118.665689 76.378243 
L 119.749579 74.628575 
L 121.383838 73.953265 
L 121.492414 73.76909 
L 121.636559 73.584914 
L 121.913615 73.063083 
L 122.057759 72.78682 
L 122.602512 72.295685 
L 123.755666 72.019422 
L 124.045827 71.651071 
L 124.160019 71.313416 
L 124.354708 70.914369 
L 124.500724 70.515322 
L 124.583092 70.208363 
L 124.72162 69.840012 
L 125.187749 69.287485 
L 126.153703 69.041918 
L 126.511255 68.827047 
L 126.887528 68.182432 
L 127.125272 67.537818 
L 127.224489 67.261555 
L 127.368633 66.985291 
L 127.692489 66.371373 
L 128.323355 65.910934 
L 128.375771 65.880238 
L 129.11334 65.696063 
L 129.32862 65.481191 
L 129.440941 65.26632 
L 129.615037 64.836577 
L 129.729229 64.59101 
L 129.834061 64.376138 
L 130.045598 63.854308 
L 130.219694 63.670132 
L 130.50611 63.209693 
L 130.947903 63.08691 
L 131.835233 62.964126 
L 132.222738 62.718559 
L 132.48669 62.319512 
L 132.649554 62.135336 
L 133.407716 61.613506 
L 134.590822 61.245155 
L 134.680678 61.122371 
L 134.912806 60.938195 
L 135.270359 60.447061 
L 135.725256 59.955926 
L 135.826344 59.863838 
L 137.389467 59.342008 
L 137.541099 59.219224 
L 137.853724 59.004353 
L 137.982892 58.912265 
L 138.467741 58.636002 
L 138.761645 58.359738 
L 139.942879 58.114171 
L 140.191856 57.960691 
L 140.29856 57.837908 
L 140.626161 57.653732 
L 141.073569 57.285381 
L 141.404914 56.947726 
L 142.971781 56.487287 
L 143.110309 56.333808 
L 143.40983 55.689193 
L 144.413223 54.983187 
L 145.375433 54.645532 
L 145.506473 54.522748 
L 145.749834 54.338573 
L 145.822842 54.154397 
L 145.929546 54.000918 
L 146.318923 53.294912 
L 146.434987 53.110736 
L 146.835596 52.773081 
L 147.721053 52.588905 
L 148.160974 52.40473 
L 148.41931 52.220554 
L 149.201808 51.545244 
L 149.722225 51.391765 
L 150.809859 51.238285 
L 150.821091 51.176893 
L 151.298452 50.992718 
L 151.444468 50.808542 
L 151.884389 50.562975 
L 152.110901 50.409495 
L 152.226965 50.286712 
L 152.837238 50.194624 
L 153.863096 50.041144 
L 155.130442 49.39653 
L 156.2499 49.150963 
L 156.807757 48.936091 
L 156.916334 48.813307 
L 157.942191 48.168693 
L 158.908145 48.045909 
L 159.132786 47.984518 
L 159.177714 47.953822 
L 159.636355 47.800342 
L 160.561124 47.247816 
L 161.749846 47.125032 
L 162.036263 46.940856 
L 162.259031 46.664593 
L 162.461208 46.511114 
L 162.785064 46.23485 
L 164.527899 45.989283 
L 164.83678 45.743716 
L 165.110092 45.436756 
L 165.770909 45.129797 
L 167.487537 44.73075 
L 168.05101 44.270311 
L 168.739907 44.116832 
L 170.048437 43.994048 
L 170.507078 43.779177 
L 170.587574 43.717785 
L 171.409384 43.595001 
L 172.510122 43.472218 
L 173.391835 42.919691 
L 175.874112 42.520644 
L 176.1624 42.336469 
L 176.504977 42.213685 
L 178.247812 41.906726 
L 178.599748 41.783942 
L 180.78812 41.446287 
L 180.810584 41.415591 
L 181.278585 41.231415 
L 181.954378 40.955152 
L 183.607357 40.801673 
L 183.813278 40.678889 
L 184.612623 40.37193 
L 184.621983 40.310538 
L 185.934257 40.064971 
L 186.993811 39.481748 
L 187.162292 39.451052 
L 188.51575 39.297573 
L 188.892023 39.174789 
L 189.575304 38.990613 
L 189.987145 38.806438 
L 191.95462 38.560871 
L 191.984572 38.499479 
L 198.207111 37.670689 
L 198.4018 37.609297 
L 199.833882 37.455817 
L 199.91625 37.394426 
L 200.665052 37.118162 
L 202.087774 36.964683 
L 202.958256 36.596332 
L 203.499265 36.53494 
L 204.976275 36.412156 
L 205.972181 36.227981 
L 210.674654 35.890326 
L 211.268079 35.798238 
L 213.080178 35.675454 
L 213.448963 35.55267 
L 213.448963 35.55267 
" clip-path="url(#pfabbe2a89a)" style="fill: none; stroke: #1f77b4; stroke-width: 1.5; stroke-linecap: square"/>
   </g>
   <g id="line2d_16">
    <path d="M 70.575795 300.193435 
L 70.680628 296.717289 
L 71.086852 294.453752 
L 71.187941 294.049549 
L 71.283413 293.726187 
L 71.440661 293.402824 
L 72.498343 289.522476 
L 72.517063 289.279954 
L 72.694903 289.037432 
L 72.917672 288.067345 
L 73.20596 286.935576 
L 73.338872 286.450533 
L 73.825593 283.621112 
L 73.947273 283.055227 
L 74.067082 282.408503 
L 74.258026 281.115053 
L 74.342266 280.306647 
L 74.557547 278.04311 
L 74.845835 276.345458 
L 74.922587 276.022095 
L 75.826765 271.818384 
L 75.993373 271.575862 
L 76.158109 270.201572 
L 76.478222 268.988963 
L 76.573694 268.423079 
L 76.948095 266.321223 
L 77.240127 264.300208 
L 78.891234 255.892785 
L 78.945522 255.650264 
L 79.061587 255.246061 
L 79.149571 254.599336 
L 79.505251 251.931596 
L 79.808516 249.991422 
L 79.93394 248.293769 
L 80.035028 247.889566 
L 80.091188 247.323682 
L 80.214741 246.596116 
L 80.529237 244.090058 
L 80.813782 243.281652 
L 80.892406 242.715767 
L 81.066502 242.392405 
L 81.173206 241.66484 
L 81.285527 241.260637 
L 81.373511 240.613912 
L 81.562583 240.128868 
L 81.98004 238.269534 
L 82.169112 236.652722 
L 82.343208 236.167679 
L 82.573465 234.793389 
L 82.719481 233.823301 
L 82.805593 233.176576 
L 83.052698 232.610692 
L 83.784651 230.023793 
L 83.880123 229.781271 
L 84.035499 229.215387 
L 84.263884 229.053706 
L 84.443596 228.568662 
L 84.535324 228.32614 
L 85.010813 227.356053 
L 85.265406 226.628488 
L 85.553694 226.385966 
L 85.827007 225.981763 
L 85.922479 225.739241 
L 86.092831 225.335038 
L 86.218255 224.849995 
L 86.338064 224.607473 
L 86.538368 224.445792 
L 87.099969 222.424777 
L 87.225393 221.616371 
L 87.410722 220.565443 
L 87.515554 220.322921 
L 88.165139 217.331819 
L 88.314899 216.604253 
L 88.434707 216.11921 
L 88.597572 215.634166 
L 88.82034 214.906601 
L 88.956996 214.583238 
L 89.082421 214.340716 
L 89.181637 213.936513 
L 89.344501 213.047267 
L 89.477413 211.915498 
L 89.66087 210.217846 
L 89.767574 209.813643 
L 89.892998 209.086077 
L 90.258039 207.630947 
L 90.566919 205.852453 
L 90.94132 203.750598 
L 91.083592 203.023032 
L 91.2502 201.891264 
L 91.370009 201.648742 
L 91.875449 199.142683 
L 92.03457 198.576799 
L 93.09974 193.968885 
L 93.18398 193.483841 
L 93.2495 193.160479 
L 94.093773 187.582477 
L 94.213582 187.339956 
L 94.451326 186.289028 
L 94.589854 185.803984 
L 95.014799 184.025491 
L 95.179535 183.136244 
L 95.241312 182.651201 
L 95.409792 181.761954 
L 96.703346 175.375547 
L 96.787586 174.971344 
L 96.926115 174.162938 
L 97.066515 173.920416 
L 97.212531 173.354532 
L 97.545748 172.465285 
L 97.618756 172.141923 
L 97.759156 171.333517 
L 97.880836 170.929314 
L 98.097989 170.120908 
L 98.479877 167.129805 
L 99.363463 163.330297 
L 99.644263 162.845253 
L 99.779048 162.44105 
L 99.988712 162.117688 
L 100.400553 160.420035 
L 100.484793 160.015832 
L 100.793673 159.854151 
L 100.887274 159.530789 
L 101.037034 159.288267 
L 101.130634 158.884064 
L 101.549963 157.994817 
L 101.939339 157.267252 
L 102.424188 156.701368 
L 102.485964 156.539687 
L 102.708733 156.378005 
L 103.358318 155.407918 
L 103.36955 155.327078 
L 103.521182 155.165396 
L 104.052831 153.791106 
L 104.399152 153.629425 
L 104.440336 153.548584 
L 104.818481 153.386903 
L 104.874641 153.306063 
L 105.413778 153.063541 
L 105.634674 152.740178 
L 105.84621 152.578497 
L 106.031539 152.416816 
L 106.155091 152.255135 
L 106.306723 152.093454 
L 106.557572 150.961685 
L 106.690484 150.638323 
L 106.797188 150.153279 
L 106.982516 149.749076 
L 107.096709 149.183192 
L 107.347557 148.374786 
L 107.598406 148.132264 
L 107.699494 147.889742 
L 107.991526 147.728061 
L 108.130055 147.485539 
L 108.468887 147.081336 
L 108.583079 146.757974 
L 108.693528 146.353771 
L 108.796488 146.111249 
L 108.908808 145.707046 
L 109.434841 144.413596 
L 109.618297 143.443509 
L 109.783033 143.120147 
L 109.960874 142.554263 
L 110.095658 142.392581 
L 110.138714 142.15006 
L 110.34089 141.988378 
L 110.554299 140.937451 
L 110.887515 140.371566 
L 110.997964 139.805682 
L 111.100924 139.48232 
L 111.203884 139.320639 
L 111.31246 138.673914 
L 111.47158 138.512233 
L 111.615725 138.10803 
L 111.699965 137.865508 
L 111.943325 136.248696 
L 112.093086 135.844493 
L 112.224126 135.197768 
L 112.40571 134.793565 
L 112.531134 134.389362 
L 112.684639 133.985159 
L 112.785727 133.580956 
L 113.111455 133.176753 
L 113.130175 133.095912 
L 113.33984 132.85339 
L 115.062083 128.892201 
L 115.193123 128.164636 
L 115.268003 127.43707 
L 115.389683 127.194548 
L 115.50762 126.547824 
L 115.73226 126.143621 
L 115.898868 125.981939 
L 116.076709 125.416055 
L 116.387461 125.173533 
L 116.59151 124.607649 
L 116.67575 124.284287 
L 116.746886 123.880084 
L 116.883542 123.475881 
L 117.199911 123.152518 
L 117.475095 122.263272 
L 117.688504 122.10159 
L 117.88132 121.454866 
L 118.860378 120.080575 
L 119.268474 118.948807 
L 119.496859 118.544604 
L 119.708395 118.140401 
L 119.88998 117.97872 
L 120.0491 117.251154 
L 120.107132 117.089473 
L 120.442221 116.846951 
L 120.545181 116.60443 
L 120.612573 116.523589 
L 121.061854 116.361908 
L 121.312702 116.038545 
L 121.41379 115.957705 
L 121.964159 115.715183 
L 121.966031 115.634342 
L 122.36664 115.391821 
L 122.379744 115.31098 
L 124.186227 114.098371 
L 124.81522 113.209124 
L 125.137205 112.804921 
L 125.262629 112.5624 
L 125.330021 112.319878 
L 126.370855 111.188109 
L 126.380215 111.026428 
L 126.698456 110.783906 
L 127.007336 110.460544 
L 127.170201 110.137182 
L 127.370505 109.9755 
L 127.675641 109.813819 
L 127.772986 109.571297 
L 128.143642 109.005413 
L 128.353307 108.843732 
L 128.478731 108.52037 
L 128.686523 108.277848 
L 128.793227 108.035326 
L 130.298318 106.741876 
L 130.414382 106.499354 
L 131.47768 104.882542 
L 131.692961 104.478339 
L 131.818385 104.316658 
L 131.824001 104.235818 
L 132.003713 103.993296 
L 132.230226 103.346571 
L 132.33693 103.023209 
L 132.49605 102.780687 
L 133.173715 102.133962 
L 133.388996 101.729759 
L 133.53314 101.406397 
L 133.632356 101.163875 
L 133.769012 101.002194 
L 133.84202 100.840512 
L 133.943109 100.597991 
L 134.278197 100.436309 
L 134.98207 99.385382 
L 135.328391 98.657816 
L 135.530567 98.334454 
L 135.65412 98.011091 
L 135.87876 97.606888 
L 135.996696 97.364367 
L 136.200745 96.555961 
L 136.616329 95.990076 
L 137.091818 95.747555 
L 137.284635 95.505033 
L 137.863084 95.343352 
L 139.068654 94.292424 
L 140.238656 93.888221 
L 140.768433 93.403177 
L 140.968737 93.160655 
L 141.46669 92.998974 
L 141.648274 92.837293 
L 143.368645 92.028887 
L 143.415446 91.948046 
L 143.997639 91.705524 
L 144.078135 91.382162 
L 144.452535 90.977959 
L 145.444697 89.76535 
L 145.884618 89.441988 
L 146.234683 88.795263 
L 146.345131 88.310219 
L 146.573515 88.148538 
L 146.777564 87.906016 
L 147.397197 87.582654 
L 147.522621 87.178451 
L 147.88579 86.774248 
L 148.286398 86.531726 
L 148.29763 86.450885 
L 148.591535 86.208364 
L 148.634591 85.965842 
L 148.870463 85.804161 
L 148.911647 85.642479 
L 149.310384 85.399958 
L 149.737201 84.995755 
L 149.879473 84.753233 
L 150.004897 84.34903 
L 150.036721 84.187349 
L 150.392402 83.944827 
L 150.471026 83.783146 
L 151.450084 82.813058 
L 151.626052 82.570537 
L 151.878773 82.408855 
L 151.951781 82.328015 
L 152.378598 82.085493 
L 152.62383 81.762131 
L 153.131143 80.953725 
L 153.207895 80.792043 
L 153.410071 80.468681 
L 153.842504 80.307 
L 154.080249 80.064478 
L 154.097097 79.983637 
L 154.329225 79.741115 
L 154.516425 79.498594 
L 154.576329 79.417753 
L 154.870234 79.256072 
L 154.98817 78.932709 
L 155.218427 78.771028 
L 155.882988 78.205144 
L 156.066444 77.962622 
L 157.391823 77.154216 
L 157.674495 76.911694 
L 158.032048 76.588332 
L 158.08072 76.426651 
L 158.855729 76.184129 
L 158.878193 76.103288 
L 161.145189 75.294882 
L 162.214103 75.133201 
L 162.77196 74.97152 
L 163.221241 74.728998 
L 163.247449 74.648158 
L 163.63121 74.486476 
L 164.346315 73.59723 
L 165.88323 73.273867 
L 166.465423 73.031346 
L 166.555279 72.869664 
L 166.922192 72.546302 
L 167.807649 72.384621 
L 167.880657 72.22294 
L 168.221362 72.061258 
L 168.479698 71.737896 
L 170.106469 70.848649 
L 170.155141 70.767809 
L 170.553878 70.606128 
L 171.774424 69.150997 
L 172.351001 68.827634 
L 172.510122 68.665953 
L 172.768458 68.423431 
L 173.380603 68.18091 
L 173.614603 67.776707 
L 173.784956 67.695866 
L 174.921262 67.453344 
L 174.953086 67.291663 
L 177.235058 66.806619 
L 181.319769 66.644938 
L 182.025515 66.483257 
L 182.195867 66.159894 
L 182.75934 65.836532 
L 182.8155 65.755691 
L 183.534349 65.51317 
L 183.594253 65.351488 
L 184.283151 65.108967 
L 184.421679 64.947285 
L 184.788591 64.704764 
L 185.000128 64.543082 
L 185.185456 64.381401 
L 185.213536 64.300561 
L 185.771393 64.058039 
L 185.778881 63.977198 
L 186.628771 63.815517 
L 187.4225 63.572995 
L 187.47866 63.411314 
L 187.727637 63.330473 
L 188.942567 63.168792 
L 190.724714 62.441227 
L 191.7955 62.279546 
L 192.299069 62.117864 
L 192.866286 61.875343 
L 193.908992 61.47114 
L 193.938944 61.390299 
L 194.326448 61.228618 
L 194.32832 61.147777 
L 194.994754 60.824415 
L 195.236242 60.581893 
L 198.774328 59.935168 
L 198.940937 59.773487 
L 202.570751 58.965081 
L 203.325169 58.722559 
L 205.02682 57.994994 
L 205.691381 57.752472 
L 207.5222 56.701544 
L 207.570872 56.620704 
L 208.207353 56.459022 
L 208.617322 56.054819 
L 208.78393 55.973979 
L 209.88654 55.812298 
L 210.004476 55.650616 
L 210.68027 55.327254 
L 211.307391 55.165573 
L 213.09141 54.518848 
L 214.182788 54.276326 
L 215.057013 54.033804 
L 219.109901 53.791283 
L 219.269021 53.629601 
L 220.740416 53.38708 
L 220.749776 53.306239 
L 221.300145 53.063717 
L 222.410243 52.821195 
L 222.473891 52.659514 
L 223.172148 52.336152 
L 223.812373 52.012789 
L 224.450726 51.851108 
L 225.263176 51.285224 
L 225.506536 51.042702 
L 226.026953 50.881021 
L 226.124297 50.80018 
L 226.878715 50.638499 
L 227.561996 50.234296 
L 227.629388 50.153455 
L 228.481149 49.991774 
L 230.081712 49.587571 
L 230.106048 49.506731 
L 230.925986 49.264209 
L 233.840695 48.779165 
L 237.556622 48.536643 
L 237.786878 48.455803 
L 240.312211 48.13244 
L 240.607987 47.970759 
L 242.270326 47.728237 
L 242.719607 47.647397 
L 244.604714 47.485716 
L 246.360653 46.919831 
L 247.060783 46.67731 
L 247.708496 46.515628 
L 247.745936 46.434788 
L 248.698786 45.949744 
L 250.656901 45.707222 
L 251.317718 45.545541 
L 252.927641 45.38386 
L 253.908571 45.141338 
L 255.859198 44.979657 
L 257.472865 44.494613 
L 259.133332 44.332932 
L 259.86903 44.09041 
L 262.003113 43.767048 
L 264.743726 43.282004 
L 267.001362 43.120323 
L 267.452515 42.958642 
L 270.502009 42.392758 
L 273.538398 42.231077 
L 273.832302 42.150236 
L 276.080578 41.907714 
L 277.387237 41.746033 
L 277.387237 41.665192 
L 278.544135 41.503511 
L 278.970952 41.260989 
L 280.741867 41.018468 
L 284.592578 40.371743 
L 286.509509 40.210062 
L 286.687349 40.129221 
L 295.781542 39.320815 
L 295.908838 39.239974 
L 302.114529 38.512409 
L 306.629801 38.269887 
L 321.051715 37.138119 
L 321.094771 36.976437 
L 336.340366 36.248872 
L 336.359086 36.168031 
L 337.39056 35.92551 
L 343.126378 35.602147 
L 343.126378 35.602147 
" clip-path="url(#pfabbe2a89a)" style="fill: none; stroke: #ff7f0e; stroke-width: 1.5; stroke-linecap: square"/>
   </g>
   <g id="line2d_17">
    <path d="M 70.575795 298.210145 
L 70.678756 269.312325 
L 71.043796 263.119935 
L 71.375141 254.863415 
L 71.873094 252.799285 
L 71.882454 250.735155 
L 72.20631 248.671025 
L 72.341095 246.606895 
L 72.810967 244.542765 
L 73.220936 240.414505 
L 73.501737 234.222115 
L 73.715145 232.157985 
L 73.756329 228.029725 
L 74.031514 223.901465 
L 74.641787 221.837335 
L 75.010571 219.773205 
L 75.422412 215.644945 
L 75.618972 211.516685 
L 75.821149 207.388425 
L 76.455758 205.324295 
L 78.617922 203.260165 
L 78.93429 199.131905 
L 80.80255 197.067775 
L 81.716087 195.003645 
L 81.822792 190.875385 
L 82.586569 188.811255 
L 86.347424 184.682995 
L 86.377376 182.618865 
L 86.733056 180.554735 
L 88.039715 178.490604 
L 88.043459 176.426474 
L 89.247157 174.362344 
L 89.501749 168.169954 
L 89.647766 161.977564 
L 92.251722 159.913434 
L 94.39891 157.849304 
L 94.900607 153.721044 
L 95.872177 151.656914 
L 96.488066 149.592784 
L 96.675266 147.528654 
L 97.468995 145.464524 
L 97.497076 143.400394 
L 100.228328 141.336264 
L 102.690013 139.272134 
L 104.865281 137.208004 
L 105.147953 135.143874 
L 107.547861 133.079744 
L 108.053302 131.015614 
L 110.786427 128.951484 
L 111.245068 126.887354 
L 112.650943 124.823224 
L 118.558985 122.759094 
L 120.024764 120.694964 
L 121.743263 118.630834 
L 126.962408 114.502574 
L 127.640073 112.438444 
L 128.774507 110.374314 
L 129.345468 108.310184 
L 129.742333 106.246054 
L 135.197351 102.117794 
L 135.225431 100.053664 
L 145.787274 97.989534 
L 159.608274 95.925404 
L 159.700003 93.861274 
L 169.827541 89.733014 
L 170.570726 87.668884 
L 180.687032 85.604754 
L 181.374057 83.540624 
L 188.626198 81.476494 
L 189.142871 79.412364 
L 197.422742 77.348234 
L 200.365531 75.284104 
L 216.176471 73.219974 
L 216.303768 71.155844 
L 221.455521 69.091714 
L 244.187258 67.027584 
L 248.140929 64.963454 
L 261.748521 62.899324 
L 267.186691 60.835194 
L 273.042317 58.771064 
L 296.416151 56.706934 
L 304.935638 54.642804 
L 307.638811 52.578673 
L 321.512228 50.514543 
L 389.246925 48.450413 
L 410.664515 46.386283 
L 478.505916 44.322153 
L 493.923736 42.258023 
L 517.879762 40.193893 
L 564.180021 38.129763 
L 606.466705 36.065633 
L 606.466705 36.065633 
" clip-path="url(#pfabbe2a89a)" style="fill: none; stroke: #2ca02c; stroke-width: 1.5; stroke-linecap: square"/>
   </g>
   <g id="patch_3">
    <path d="M 43.78125 313.478125 
L 43.78125 22.318125 
" style="fill: none; stroke: #000000; stroke-width: 0.8; stroke-linejoin: miter; stroke-linecap: square"/>
   </g>
   <g id="patch_4">
    <path d="M 633.26125 313.478125 
L 633.26125 22.318125 
" style="fill: none; stroke: #000000; stroke-width: 0.8; stroke-linejoin: miter; stroke-linecap: square"/>
   </g>
   <g id="patch_5">
    <path d="M 43.78125 313.478125 
L 633.26125 313.478125 
" style="fill: none; stroke: #000000; stroke-width: 0.8; stroke-linejoin: miter; stroke-linecap: square"/>
   </g>
   <g id="patch_6">
    <path d="M 43.78125 22.318125 
L 633.26125 22.318125 
" style="fill: none; stroke: #000000; stroke-width: 0.8; stroke-linejoin: miter; stroke-linecap: square"/>
   </g>
   <g id="text_17">
    <!-- ECDF of Cycle Time for CT6 (capped at project 95th percentile) -->
    <g transform="translate(149.195 16.318125) scale(0.12 -0.12)">
     <defs>
      <path id="DejaVuSans-45" d="M 628 4666 
L 3578 4666 
L 3578 4134 
L 1259 4134 
L 1259 2753 
L 3481 2753 
L 3481 2222 
L 1259 2222 
L 1259 531 
L 3634 531 
L 3634 0 
L 628 0 
L 628 4666 
z
" transform="scale(0.015625)"/>
      <path id="DejaVuSans-44" d="M 1259 4147 
L 1259 519 
L 2022 519 
Q 2988 519 3436 956 
Q 3884 1394 3884 2338 
Q 3884 3275 3436 3711 
Q 2988 4147 2022 4147 
L 1259 4147 
z
M 628 4666 
L 1925 4666 
Q 3281 4666 3915 4102 
Q 4550 3538 4550 2338 
Q 4550 1131 3912 565 
Q 3275 0 1925 0 
L 628 0 
L 628 4666 
z
" transform="scale(0.015625)"/>
      <path id="DejaVuSans-46" d="M 628 4666 
L 3309 4666 
L 3309 4134 
L 1259 4134 
L 1259 2759 
L 3109 2759 
L 3109 2228 
L 1259 2228 
L 1259 0 
L 628 0 
L 628 4666 
z
" transform="scale(0.015625)"/>
      <path id="DejaVuSans-66" d="M 2375 4863 
L 2375 4384 
L 1825 4384 
Q 1516 4384 1395 4259 
Q 1275 4134 1275 3809 
L 1275 3500 
L 2222 3500 
L 2222 3053 
L 1275 3053 
L 1275 0 
L 697 0 
L 697 3053 
L 147 3053 
L 147 3500 
L 697 3500 
L 697 3744 
Q 697 4328 969 4595 
Q 1241 4863 1831 4863 
L 2375 4863 
z
" transform="scale(0.015625)"/>
      <path id="DejaVuSans-6a" d="M 603 3500 
L 1178 3500 
L 1178 -63 
Q 1178 -731 923 -1031 
Q 669 -1331 103 -1331 
L -116 -1331 
L -116 -844 
L 38 -844 
Q 366 -844 484 -692 
Q 603 -541 603 -63 
L 603 3500 
z
M 603 4863 
L 1178 4863 
L 1178 4134 
L 603 4134 
L 603 4863 
z
" transform="scale(0.015625)"/>
      <path id="DejaVuSans-39" d="M 703 97 
L 703 672 
Q 941 559 1184 500 
Q 1428 441 1663 441 
Q 2288 441 2617 861 
Q 2947 1281 2994 2138 
Q 2813 1869 2534 1725 
Q 2256 1581 1919 1581 
Q 1219 1581 811 2004 
Q 403 2428 403 3163 
Q 403 3881 828 4315 
Q 1253 4750 1959 4750 
Q 2769 4750 3195 4129 
Q 3622 3509 3622 2328 
Q 3622 1225 3098 567 
Q 2575 -91 1691 -91 
Q 1453 -91 1209 -44 
Q 966 3 703 97 
z
M 1959 2075 
Q 2384 2075 2632 2365 
Q 2881 2656 2881 3163 
Q 2881 3666 2632 3958 
Q 2384 4250 1959 4250 
Q 1534 4250 1286 3958 
Q 1038 3666 1038 3163 
Q 1038 2656 1286 2365 
Q 1534 2075 1959 2075 
z
" transform="scale(0.015625)"/>
      <path id="DejaVuSans-68" d="M 3513 2113 
L 3513 0 
L 2938 0 
L 2938 2094 
Q 2938 2591 2744 2837 
Q 2550 3084 2163 3084 
Q 1697 3084 1428 2787 
Q 1159 2491 1159 1978 
L 1159 0 
L 581 0 
L 581 4863 
L 1159 4863 
L 1159 2956 
Q 1366 3272 1645 3428 
Q 1925 3584 2291 3584 
Q 2894 3584 3203 3211 
Q 3513 2838 3513 2113 
z
" transform="scale(0.015625)"/>
     </defs>
     <use xlink:href="#DejaVuSans-45"/>
     <use xlink:href="#DejaVuSans-43" transform="translate(63.183594 0)"/>
     <use xlink:href="#DejaVuSans-44" transform="translate(133.007812 0)"/>
     <use xlink:href="#DejaVuSans-46" transform="translate(210.009766 0)"/>
     <use xlink:href="#DejaVuSans-20" transform="translate(267.529297 0)"/>
     <use xlink:href="#DejaVuSans-6f" transform="translate(299.316406 0)"/>
     <use xlink:href="#DejaVuSans-66" transform="translate(360.498047 0)"/>
     <use xlink:href="#DejaVuSans-20" transform="translate(395.703125 0)"/>
     <use xlink:href="#DejaVuSans-43" transform="translate(427.490234 0)"/>
     <use xlink:href="#DejaVuSans-79" transform="translate(497.314453 0)"/>
     <use xlink:href="#DejaVuSans-63" transform="translate(556.494141 0)"/>
     <use xlink:href="#DejaVuSans-6c" transform="translate(611.474609 0)"/>
     <use xlink:href="#DejaVuSans-65" transform="translate(639.257812 0)"/>
     <use xlink:href="#DejaVuSans-20" transform="translate(700.78125 0)"/>
     <use xlink:href="#DejaVuSans-54" transform="translate(732.568359 0)"/>
     <use xlink:href="#DejaVuSans-69" transform="translate(790.527344 0)"/>
     <use xlink:href="#DejaVuSans-6d" transform="translate(818.310547 0)"/>
     <use xlink:href="#DejaVuSans-65" transform="translate(915.722656 0)"/>
     <use xlink:href="#DejaVuSans-20" transform="translate(977.246094 0)"/>
     <use xlink:href="#DejaVuSans-66" transform="translate(1009.033203 0)"/>
     <use xlink:href="#DejaVuSans-6f" transform="translate(1044.238281 0)"/>
     <use xlink:href="#DejaVuSans-72" transform="translate(1105.419922 0)"/>
     <use xlink:href="#DejaVuSans-20" transform="translate(1146.533203 0)"/>
     <use xlink:href="#DejaVuSans-43" transform="translate(1178.320312 0)"/>
     <use xlink:href="#DejaVuSans-54" transform="translate(1248.144531 0)"/>
     <use xlink:href="#DejaVuSans-36" transform="translate(1309.228516 0)"/>
     <use xlink:href="#DejaVuSans-20" transform="translate(1372.851562 0)"/>
     <use xlink:href="#DejaVuSans-28" transform="translate(1404.638672 0)"/>
     <use xlink:href="#DejaVuSans-63" transform="translate(1443.652344 0)"/>
     <use xlink:href="#DejaVuSans-61" transform="translate(1498.632812 0)"/>
     <use xlink:href="#DejaVuSans-70" transform="translate(1559.912109 0)"/>
     <use xlink:href="#DejaVuSans-70" transform="translate(1623.388672 0)"/>
     <use xlink:href="#DejaVuSans-65" transform="translate(1686.865234 0)"/>
     <use xlink:href="#DejaVuSans-64" transform="translate(1748.388672 0)"/>
     <use xlink:href="#DejaVuSans-20" transform="translate(1811.865234 0)"/>
     <use xlink:href="#DejaVuSans-61" transform="translate(1843.652344 0)"/>
     <use xlink:href="#DejaVuSans-74" transform="translate(1904.931641 0)"/>
     <use xlink:href="#DejaVuSans-20" transform="translate(1944.140625 0)"/>
     <use xlink:href="#DejaVuSans-70" transform="translate(1975.927734 0)"/>
     <use xlink:href="#DejaVuSans-72" transform="translate(2039.404297 0)"/>
     <use xlink:href="#DejaVuSans-6f" transform="translate(2078.267578 0)"/>
     <use xlink:href="#DejaVuSans-6a" transform="translate(2139.449219 0)"/>
     <use xlink:href="#DejaVuSans-65" transform="translate(2167.232422 0)"/>
     <use xlink:href="#DejaVuSans-63" transform="translate(2228.755859 0)"/>
     <use xlink:href="#DejaVuSans-74" transform="translate(2283.736328 0)"/>
     <use xlink:href="#DejaVuSans-20" transform="translate(2322.945312 0)"/>
     <use xlink:href="#DejaVuSans-39" transform="translate(2354.732422 0)"/>
     <use xlink:href="#DejaVuSans-35" transform="translate(2418.355469 0)"/>
     <use xlink:href="#DejaVuSans-74" transform="translate(2481.978516 0)"/>
     <use xlink:href="#DejaVuSans-68" transform="translate(2521.1875 0)"/>
     <use xlink:href="#DejaVuSans-20" transform="translate(2584.566406 0)"/>
     <use xlink:href="#DejaVuSans-70" transform="translate(2616.353516 0)"/>
     <use xlink:href="#DejaVuSans-65" transform="translate(2679.830078 0)"/>
     <use xlink:href="#DejaVuSans-72" transform="translate(2741.353516 0)"/>
     <use xlink:href="#DejaVuSans-63" transform="translate(2780.216797 0)"/>
     <use xlink:href="#DejaVuSans-65" transform="translate(2835.197266 0)"/>
     <use xlink:href="#DejaVuSans-6e" transform="translate(2896.720703 0)"/>
     <use xlink:href="#DejaVuSans-74" transform="translate(2960.099609 0)"/>
     <use xlink:href="#DejaVuSans-69" transform="translate(2999.308594 0)"/>
     <use xlink:href="#DejaVuSans-6c" transform="translate(3027.091797 0)"/>
     <use xlink:href="#DejaVuSans-65" transform="translate(3054.875 0)"/>
     <use xlink:href="#DejaVuSans-29" transform="translate(3116.398438 0)"/>
    </g>
   </g>
   <g id="legend_1">
    <g id="patch_7">
     <path d="M 543.014375 308.478125 
L 626.26125 308.478125 
Q 628.26125 308.478125 628.26125 306.478125 
L 628.26125 248.765625 
Q 628.26125 246.765625 626.26125 246.765625 
L 543.014375 246.765625 
Q 541.014375 246.765625 541.014375 248.765625 
L 541.014375 306.478125 
Q 541.014375 308.478125 543.014375 308.478125 
z
" style="fill: #ffffff; opacity: 0.8; stroke: #cccccc; stroke-linejoin: miter"/>
    </g>
    <g id="text_18">
     <!-- Project -->
     <g transform="translate(567.533125 258.364062) scale(0.1 -0.1)">
      <defs>
       <path id="DejaVuSans-50" d="M 1259 4147 
L 1259 2394 
L 2053 2394 
Q 2494 2394 2734 2622 
Q 2975 2850 2975 3272 
Q 2975 3691 2734 3919 
Q 2494 4147 2053 4147 
L 1259 4147 
z
M 628 4666 
L 2053 4666 
Q 2838 4666 3239 4311 
Q 3641 3956 3641 3272 
Q 3641 2581 3239 2228 
Q 2838 1875 2053 1875 
L 1259 1875 
L 1259 0 
L 628 0 
L 628 4666 
z
" transform="scale(0.015625)"/>
      </defs>
      <use xlink:href="#DejaVuSans-50"/>
      <use xlink:href="#DejaVuSans-72" transform="translate(58.552734 0)"/>
      <use xlink:href="#DejaVuSans-6f" transform="translate(97.416016 0)"/>
      <use xlink:href="#DejaVuSans-6a" transform="translate(158.597656 0)"/>
      <use xlink:href="#DejaVuSans-65" transform="translate(186.380859 0)"/>
      <use xlink:href="#DejaVuSans-63" transform="translate(247.904297 0)"/>
      <use xlink:href="#DejaVuSans-74" transform="translate(302.884766 0)"/>
     </g>
    </g>
    <g id="line2d_18">
     <path d="M 545.014375 269.542188 
L 555.014375 269.542188 
L 565.014375 269.542188 
" style="fill: none; stroke: #1f77b4; stroke-width: 1.5; stroke-linecap: square"/>
    </g>
    <g id="text_19">
     <!-- SERVER -->
     <g transform="translate(573.014375 273.042188) scale(0.1 -0.1)">
      <defs>
       <path id="DejaVuSans-53" d="M 3425 4513 
L 3425 3897 
Q 3066 4069 2747 4153 
Q 2428 4238 2131 4238 
Q 1616 4238 1336 4038 
Q 1056 3838 1056 3469 
Q 1056 3159 1242 3001 
Q 1428 2844 1947 2747 
L 2328 2669 
Q 3034 2534 3370 2195 
Q 3706 1856 3706 1288 
Q 3706 609 3251 259 
Q 2797 -91 1919 -91 
Q 1588 -91 1214 -16 
Q 841 59 441 206 
L 441 856 
Q 825 641 1194 531 
Q 1563 422 1919 422 
Q 2459 422 2753 634 
Q 3047 847 3047 1241 
Q 3047 1584 2836 1778 
Q 2625 1972 2144 2069 
L 1759 2144 
Q 1053 2284 737 2584 
Q 422 2884 422 3419 
Q 422 4038 858 4394 
Q 1294 4750 2059 4750 
Q 2388 4750 2728 4690 
Q 3069 4631 3425 4513 
z
" transform="scale(0.015625)"/>
       <path id="DejaVuSans-52" d="M 2841 2188 
Q 3044 2119 3236 1894 
Q 3428 1669 3622 1275 
L 4263 0 
L 3584 0 
L 2988 1197 
Q 2756 1666 2539 1819 
Q 2322 1972 1947 1972 
L 1259 1972 
L 1259 0 
L 628 0 
L 628 4666 
L 2053 4666 
Q 2853 4666 3247 4331 
Q 3641 3997 3641 3322 
Q 3641 2881 3436 2590 
Q 3231 2300 2841 2188 
z
M 1259 4147 
L 1259 2491 
L 2053 2491 
Q 2509 2491 2742 2702 
Q 2975 2913 2975 3322 
Q 2975 3731 2742 3939 
Q 2509 4147 2053 4147 
L 1259 4147 
z
" transform="scale(0.015625)"/>
       <path id="DejaVuSans-56" d="M 1831 0 
L 50 4666 
L 709 4666 
L 2188 738 
L 3669 4666 
L 4325 4666 
L 2547 0 
L 1831 0 
z
" transform="scale(0.015625)"/>
      </defs>
      <use xlink:href="#DejaVuSans-53"/>
      <use xlink:href="#DejaVuSans-45" transform="translate(63.476562 0)"/>
      <use xlink:href="#DejaVuSans-52" transform="translate(126.660156 0)"/>
      <use xlink:href="#DejaVuSans-56" transform="translate(190.642578 0)"/>
      <use xlink:href="#DejaVuSans-45" transform="translate(259.050781 0)"/>
      <use xlink:href="#DejaVuSans-52" transform="translate(322.234375 0)"/>
     </g>
    </g>
    <g id="line2d_19">
     <path d="M 545.014375 284.220313 
L 555.014375 284.220313 
L 565.014375 284.220313 
" style="fill: none; stroke: #ff7f0e; stroke-width: 1.5; stroke-linecap: square"/>
    </g>
    <g id="text_20">
     <!-- MDL -->
     <g transform="translate(573.014375 287.720313) scale(0.1 -0.1)">
      <defs>
       <path id="DejaVuSans-4d" d="M 628 4666 
L 1569 4666 
L 2759 1491 
L 3956 4666 
L 4897 4666 
L 4897 0 
L 4281 0 
L 4281 4097 
L 3078 897 
L 2444 897 
L 1241 4097 
L 1241 0 
L 628 0 
L 628 4666 
z
" transform="scale(0.015625)"/>
       <path id="DejaVuSans-4c" d="M 628 4666 
L 1259 4666 
L 1259 531 
L 3531 531 
L 3531 0 
L 628 0 
L 628 4666 
z
" transform="scale(0.015625)"/>
      </defs>
      <use xlink:href="#DejaVuSans-4d"/>
      <use xlink:href="#DejaVuSans-44" transform="translate(86.279297 0)"/>
      <use xlink:href="#DejaVuSans-4c" transform="translate(163.28125 0)"/>
     </g>
    </g>
    <g id="line2d_20">
     <path d="M 545.014375 298.898438 
L 555.014375 298.898438 
L 565.014375 298.898438 
" style="fill: none; stroke: #2ca02c; stroke-width: 1.5; stroke-linecap: square"/>
    </g>
    <g id="text_21">
     <!-- JRACLOUD -->
     <g transform="translate(573.014375 302.398438) scale(0.1 -0.1)">
      <defs>
       <path id="DejaVuSans-4a" d="M 628 4666 
L 1259 4666 
L 1259 325 
Q 1259 -519 939 -900 
Q 619 -1281 -91 -1281 
L -331 -1281 
L -331 -750 
L -134 -750 
Q 284 -750 456 -515 
Q 628 -281 628 325 
L 628 4666 
z
" transform="scale(0.015625)"/>
       <path id="DejaVuSans-41" d="M 2188 4044 
L 1331 1722 
L 3047 1722 
L 2188 4044 
z
M 1831 4666 
L 2547 4666 
L 4325 0 
L 3669 0 
L 3244 1197 
L 1141 1197 
L 716 0 
L 50 0 
L 1831 4666 
z
" transform="scale(0.015625)"/>
       <path id="DejaVuSans-4f" d="M 2522 4238 
Q 1834 4238 1429 3725 
Q 1025 3213 1025 2328 
Q 1025 1447 1429 934 
Q 1834 422 2522 422 
Q 3209 422 3611 934 
Q 4013 1447 4013 2328 
Q 4013 3213 3611 3725 
Q 3209 4238 2522 4238 
z
M 2522 4750 
Q 3503 4750 4090 4092 
Q 4678 3434 4678 2328 
Q 4678 1225 4090 567 
Q 3503 -91 2522 -91 
Q 1538 -91 948 565 
Q 359 1222 359 2328 
Q 359 3434 948 4092 
Q 1538 4750 2522 4750 
z
" transform="scale(0.015625)"/>
       <path id="DejaVuSans-55" d="M 556 4666 
L 1191 4666 
L 1191 1831 
Q 1191 1081 1462 751 
Q 1734 422 2344 422 
Q 2950 422 3222 751 
Q 3494 1081 3494 1831 
L 3494 4666 
L 4128 4666 
L 4128 1753 
Q 4128 841 3676 375 
Q 3225 -91 2344 -91 
Q 1459 -91 1007 375 
Q 556 841 556 1753 
L 556 4666 
z
" transform="scale(0.015625)"/>
      </defs>
      <use xlink:href="#DejaVuSans-4a"/>
      <use xlink:href="#DejaVuSans-52" transform="translate(29.492188 0)"/>
      <use xlink:href="#DejaVuSans-41" transform="translate(94.974609 0)"/>
      <use xlink:href="#DejaVuSans-43" transform="translate(161.632812 0)"/>
      <use xlink:href="#DejaVuSans-4c" transform="translate(231.457031 0)"/>
      <use xlink:href="#DejaVuSans-4f" transform="translate(283.544922 0)"/>
      <use xlink:href="#DejaVuSans-55" transform="translate(362.255859 0)"/>
      <use xlink:href="#DejaVuSans-44" transform="translate(435.449219 0)"/>
     </g>
    </g>
   </g>
  </g>
 </g>
 <defs>
  <clipPath id="pfabbe2a89a">
   <rect x="43.78125" y="22.318125" width="589.48" height="291.16"/>
  </clipPath>
 </defs>
</svg>
