<?xml version="1.0" encoding="utf-8" standalone="no"?>
<!DOCTYPE svg PUBLIC "-//W3C//DTD SVG 1.1//EN"
  "http://www.w3.org/Graphics/SVG/1.1/DTD/svg11.dtd">
<svg xmlns:xlink="http://www.w3.org/1999/xlink" width="640.46125pt" height="351.034375pt" viewBox="0 0 640.46125 351.034375" xmlns="http://www.w3.org/2000/svg" version="1.1">
 <metadata>
  <rdf:RDF xmlns:dc="http://purl.org/dc/elements/1.1/" xmlns:cc="http://creativecommons.org/ns#" xmlns:rdf="http://www.w3.org/1999/02/22-rdf-syntax-ns#">
   <cc:Work>
    <dc:type rdf:resource="http://purl.org/dc/dcmitype/StillImage"/>
    <dc:date>2026-03-24T15:10:07.449227</dc:date>
    <dc:format>image/svg+xml</dc:format>
    <dc:creator>
     <cc:Agent>
      <dc:title>Matplotlib v3.10.8, https://matplotlib.org/</dc:title>
     </cc:Agent>
    </dc:creator>
   </cc:Work>
  </rdf:RDF>
 </metadata>
 <defs>
  <style type="text/css">*{stroke-linejoin: round; stroke-linecap: butt}</style>
 </defs>
 <g id="figure_1">
  <g id="patch_1">
   <path d="M 0 351.034375 
L 640.46125 351.034375 
L 640.46125 0 
L 0 0 
z
" style="fill: #ffffff"/>
  </g>
  <g id="axes_1">
   <g id="patch_2">
    <path d="M 43.78125 313.478125 
L 633.26125 313.478125 
L 633.26125 22.318125 
L 43.78125 22.318125 
z
" style="fill: #ffffff"/>
   </g>
   <g id="matplotlib.axis_1">
    <g id="xtick_1">
     <g id="line2d_1">
      <defs>
       <path id="ma99d0ed4b3" d="M 0 0 
L 0 3.5 
" style="stroke: #000000; stroke-width: 0.8"/>
      </defs>
      <g>
       <use xlink:href="#ma99d0ed4b3" x="70.575226" y="313.478125" style="stroke: #000000; stroke-width: 0.8"/>
      </g>
     </g>
     <g id="text_1">
      <!-- 0 -->
      <g transform="translate(67.393976 328.076563) scale(0.1 -0.1)">
       <defs>
        <path id="DejaVuSans-30" d="M 2034 4250 
Q 1547 4250 1301 3770 
Q 1056 3291 1056 2328 
Q 1056 1369 1301 889 
Q 1547 409 2034 409 
Q 2525 409 2770 889 
Q 3016 1369 3016 2328 
Q 3016 3291 2770 3770 
Q 2525 4250 2034 4250 
z
M 2034 4750 
Q 2819 4750 3233 4129 
Q 3647 3509 3647 2328 
Q 3647 1150 3233 529 
Q 2819 -91 2034 -91 
Q 1250 -91 836 529 
Q 422 1150 422 2328 
Q 422 3509 836 4129 
Q 1250 4750 2034 4750 
z
" transform="scale(0.015625)"/>
       </defs>
       <use xlink:href="#DejaVuSans-30"/>
      </g>
     </g>
    </g>
    <g id="xtick_2">
     <g id="line2d_2">
      <g>
       <use xlink:href="#ma99d0ed4b3" x="152.581824" y="313.478125" style="stroke: #000000; stroke-width: 0.8"/>
      </g>
     </g>
     <g id="text_2">
      <!-- 100 -->
      <g transform="translate(143.038074 328.076563) scale(0.1 -0.1)">
       <defs>
        <path id="DejaVuSans-31" d="M 794 531 
L 1825 531 
L 1825 4091 
L 703 3866 
L 703 4441 
L 1819 4666 
L 2450 4666 
L 2450 531 
L 3481 531 
L 3481 0 
L 794 0 
L 794 531 
z
" transform="scale(0.015625)"/>
       </defs>
       <use xlink:href="#DejaVuSans-31"/>
       <use xlink:href="#DejaVuSans-30" transform="translate(63.623047 0)"/>
       <use xlink:href="#DejaVuSans-30" transform="translate(127.246094 0)"/>
      </g>
     </g>
    </g>
    <g id="xtick_3">
     <g id="line2d_3">
      <g>
       <use xlink:href="#ma99d0ed4b3" x="234.588422" y="313.478125" style="stroke: #000000; stroke-width: 0.8"/>
      </g>
     </g>
     <g id="text_3">
      <!-- 200 -->
      <g transform="translate(225.044672 328.076563) scale(0.1 -0.1)">
       <defs>
        <path id="DejaVuSans-32" d="M 1228 531 
L 3431 531 
L 3431 0 
L 469 0 
L 469 531 
Q 828 903 1448 1529 
Q 2069 2156 2228 2338 
Q 2531 2678 2651 2914 
Q 2772 3150 2772 3378 
Q 2772 3750 2511 3984 
Q 2250 4219 1831 4219 
Q 1534 4219 1204 4116 
Q 875 4013 500 3803 
L 500 4441 
Q 881 4594 1212 4672 
Q 1544 4750 1819 4750 
Q 2544 4750 2975 4387 
Q 3406 4025 3406 3419 
Q 3406 3131 3298 2873 
Q 3191 2616 2906 2266 
Q 2828 2175 2409 1742 
Q 1991 1309 1228 531 
z
" transform="scale(0.015625)"/>
       </defs>
       <use xlink:href="#DejaVuSans-32"/>
       <use xlink:href="#DejaVuSans-30" transform="translate(63.623047 0)"/>
       <use xlink:href="#DejaVuSans-30" transform="translate(127.246094 0)"/>
      </g>
     </g>
    </g>
    <g id="xtick_4">
     <g id="line2d_4">
      <g>
       <use xlink:href="#ma99d0ed4b3" x="316.595021" y="313.478125" style="stroke: #000000; stroke-width: 0.8"/>
      </g>
     </g>
     <g id="text_4">
      <!-- 300 -->
      <g transform="translate(307.051271 328.076563) scale(0.1 -0.1)">
       <defs>
        <path id="DejaVuSans-33" d="M 2597 2516 
Q 3050 2419 3304 2112 
Q 3559 1806 3559 1356 
Q 3559 666 3084 287 
Q 2609 -91 1734 -91 
Q 1441 -91 1130 -33 
Q 819 25 488 141 
L 488 750 
Q 750 597 1062 519 
Q 1375 441 1716 441 
Q 2309 441 2620 675 
Q 2931 909 2931 1356 
Q 2931 1769 2642 2001 
Q 2353 2234 1838 2234 
L 1294 2234 
L 1294 2753 
L 1863 2753 
Q 2328 2753 2575 2939 
Q 2822 3125 2822 3475 
Q 2822 3834 2567 4026 
Q 2313 4219 1838 4219 
Q 1578 4219 1281 4162 
Q 984 4106 628 3988 
L 628 4550 
Q 988 4650 1302 4700 
Q 1616 4750 1894 4750 
Q 2613 4750 3031 4423 
Q 3450 4097 3450 3541 
Q 3450 3153 3228 2886 
Q 3006 2619 2597 2516 
z
" transform="scale(0.015625)"/>
       </defs>
       <use xlink:href="#DejaVuSans-33"/>
       <use xlink:href="#DejaVuSans-30" transform="translate(63.623047 0)"/>
       <use xlink:href="#DejaVuSans-30" transform="translate(127.246094 0)"/>
      </g>
     </g>
    </g>
    <g id="xtick_5">
     <g id="line2d_5">
      <g>
       <use xlink:href="#ma99d0ed4b3" x="398.601619" y="313.478125" style="stroke: #000000; stroke-width: 0.8"/>
      </g>
     </g>
     <g id="text_5">
      <!-- 400 -->
      <g transform="translate(389.057869 328.076563) scale(0.1 -0.1)">
       <defs>
        <path id="DejaVuSans-34" d="M 2419 4116 
L 825 1625 
L 2419 1625 
L 2419 4116 
z
M 2253 4666 
L 3047 4666 
L 3047 1625 
L 3713 1625 
L 3713 1100 
L 3047 1100 
L 3047 0 
L 2419 0 
L 2419 1100 
L 313 1100 
L 313 1709 
L 2253 4666 
z
" transform="scale(0.015625)"/>
       </defs>
       <use xlink:href="#DejaVuSans-34"/>
       <use xlink:href="#DejaVuSans-30" transform="translate(63.623047 0)"/>
       <use xlink:href="#DejaVuSans-30" transform="translate(127.246094 0)"/>
      </g>
     </g>
    </g>
    <g id="xtick_6">
     <g id="line2d_6">
      <g>
       <use xlink:href="#ma99d0ed4b3" x="480.608217" y="313.478125" style="stroke: #000000; stroke-width: 0.8"/>
      </g>
     </g>
     <g id="text_6">
      <!-- 500 -->
      <g transform="translate(471.064467 328.076563) scale(0.1 -0.1)">
       <defs>
        <path id="DejaVuSans-35" d="M 691 4666 
L 3169 4666 
L 3169 4134 
L 1269 4134 
L 1269 2991 
Q 1406 3038 1543 3061 
Q 1681 3084 1819 3084 
Q 2600 3084 3056 2656 
Q 3513 2228 3513 1497 
Q 3513 744 3044 326 
Q 2575 -91 1722 -91 
Q 1428 -91 1123 -41 
Q 819 9 494 109 
L 494 744 
Q 775 591 1075 516 
Q 1375 441 1709 441 
Q 2250 441 2565 725 
Q 2881 1009 2881 1497 
Q 2881 1984 2565 2268 
Q 2250 2553 1709 2553 
Q 1456 2553 1204 2497 
Q 953 2441 691 2322 
L 691 4666 
z
" transform="scale(0.015625)"/>
       </defs>
       <use xlink:href="#DejaVuSans-35"/>
       <use xlink:href="#DejaVuSans-30" transform="translate(63.623047 0)"/>
       <use xlink:href="#DejaVuSans-30" transform="translate(127.246094 0)"/>
      </g>
     </g>
    </g>
    <g id="xtick_7">
     <g id="line2d_7">
      <g>
       <use xlink:href="#ma99d0ed4b3" x="562.614815" y="313.478125" style="stroke: #000000; stroke-width: 0.8"/>
      </g>
     </g>
     <g id="text_7">
      <!-- 600 -->
      <g transform="translate(553.071065 328.076563) scale(0.1 -0.1)">
       <defs>
        <path id="DejaVuSans-36" d="M 2113 2584 
Q 1688 2584 1439 2293 
Q 1191 2003 1191 1497 
Q 1191 994 1439 701 
Q 1688 409 2113 409 
Q 2538 409 2786 701 
Q 3034 994 3034 1497 
Q 3034 2003 2786 2293 
Q 2538 2584 2113 2584 
z
M 3366 4563 
L 3366 3988 
Q 3128 4100 2886 4159 
Q 2644 4219 2406 4219 
Q 1781 4219 1451 3797 
Q 1122 3375 1075 2522 
Q 1259 2794 1537 2939 
Q 1816 3084 2150 3084 
Q 2853 3084 3261 2657 
Q 3669 2231 3669 1497 
Q 3669 778 3244 343 
Q 2819 -91 2113 -91 
Q 1303 -91 875 529 
Q 447 1150 447 2328 
Q 447 3434 972 4092 
Q 1497 4750 2381 4750 
Q 2619 4750 2861 4703 
Q 3103 4656 3366 4563 
z
" transform="scale(0.015625)"/>
       </defs>
       <use xlink:href="#DejaVuSans-36"/>
       <use xlink:href="#DejaVuSans-30" transform="translate(63.623047 0)"/>
       <use xlink:href="#DejaVuSans-30" transform="translate(127.246094 0)"/>
      </g>
     </g>
    </g>
    <g id="text_8">
     <!-- Cycle Time (days) -->
     <g transform="translate(293.74 341.754687) scale(0.1 -0.1)">
      <defs>
       <path id="DejaVuSans-43" d="M 4122 4306 
L 4122 3641 
Q 3803 3938 3442 4084 
Q 3081 4231 2675 4231 
Q 1875 4231 1450 3742 
Q 1025 3253 1025 2328 
Q 1025 1406 1450 917 
Q 1875 428 2675 428 
Q 3081 428 3442 575 
Q 3803 722 4122 1019 
L 4122 359 
Q 3791 134 3420 21 
Q 3050 -91 2638 -91 
Q 1578 -91 968 557 
Q 359 1206 359 2328 
Q 359 3453 968 4101 
Q 1578 4750 2638 4750 
Q 3056 4750 3426 4639 
Q 3797 4528 4122 4306 
z
" transform="scale(0.015625)"/>
       <path id="DejaVuSans-79" d="M 2059 -325 
Q 1816 -950 1584 -1140 
Q 1353 -1331 966 -1331 
L 506 -1331 
L 506 -850 
L 844 -850 
Q 1081 -850 1212 -737 
Q 1344 -625 1503 -206 
L 1606 56 
L 191 3500 
L 800 3500 
L 1894 763 
L 2988 3500 
L 3597 3500 
L 2059 -325 
z
" transform="scale(0.015625)"/>
       <path id="DejaVuSans-63" d="M 3122 3366 
L 3122 2828 
Q 2878 2963 2633 3030 
Q 2388 3097 2138 3097 
Q 1578 3097 1268 2742 
Q 959 2388 959 1747 
Q 959 1106 1268 751 
Q 1578 397 2138 397 
Q 2388 397 2633 464 
Q 2878 531 3122 666 
L 3122 134 
Q 2881 22 2623 -34 
Q 2366 -91 2075 -91 
Q 1284 -91 818 406 
Q 353 903 353 1747 
Q 353 2603 823 3093 
Q 1294 3584 2113 3584 
Q 2378 3584 2631 3529 
Q 2884 3475 3122 3366 
z
" transform="scale(0.015625)"/>
       <path id="DejaVuSans-6c" d="M 603 4863 
L 1178 4863 
L 1178 0 
L 603 0 
L 603 4863 
z
" transform="scale(0.015625)"/>
       <path id="DejaVuSans-65" d="M 3597 1894 
L 3597 1613 
L 953 1613 
Q 991 1019 1311 708 
Q 1631 397 2203 397 
Q 2534 397 2845 478 
Q 3156 559 3463 722 
L 3463 178 
Q 3153 47 2828 -22 
Q 2503 -91 2169 -91 
Q 1331 -91 842 396 
Q 353 884 353 1716 
Q 353 2575 817 3079 
Q 1281 3584 2069 3584 
Q 2775 3584 3186 3129 
Q 3597 2675 3597 1894 
z
M 3022 2063 
Q 3016 2534 2758 2815 
Q 2500 3097 2075 3097 
Q 1594 3097 1305 2825 
Q 1016 2553 972 2059 
L 3022 2063 
z
" transform="scale(0.015625)"/>
       <path id="DejaVuSans-20" transform="scale(0.015625)"/>
       <path id="DejaVuSans-54" d="M -19 4666 
L 3928 4666 
L 3928 4134 
L 2272 4134 
L 2272 0 
L 1638 0 
L 1638 4134 
L -19 4134 
L -19 4666 
z
" transform="scale(0.015625)"/>
       <path id="DejaVuSans-69" d="M 603 3500 
L 1178 3500 
L 1178 0 
L 603 0 
L 603 3500 
z
M 603 4863 
L 1178 4863 
L 1178 4134 
L 603 4134 
L 603 4863 
z
" transform="scale(0.015625)"/>
       <path id="DejaVuSans-6d" d="M 3328 2828 
Q 3544 3216 3844 3400 
Q 4144 3584 4550 3584 
Q 5097 3584 5394 3201 
Q 5691 2819 5691 2113 
L 5691 0 
L 5113 0 
L 5113 2094 
Q 5113 2597 4934 2840 
Q 4756 3084 4391 3084 
Q 3944 3084 3684 2787 
Q 3425 2491 3425 1978 
L 3425 0 
L 2847 0 
L 2847 2094 
Q 2847 2600 2669 2842 
Q 2491 3084 2119 3084 
Q 1678 3084 1418 2786 
Q 1159 2488 1159 1978 
L 1159 0 
L 581 0 
L 581 3500 
L 1159 3500 
L 1159 2956 
Q 1356 3278 1631 3431 
Q 1906 3584 2284 3584 
Q 2666 3584 2933 3390 
Q 3200 3197 3328 2828 
z
" transform="scale(0.015625)"/>
       <path id="DejaVuSans-28" d="M 1984 4856 
Q 1566 4138 1362 3434 
Q 1159 2731 1159 2009 
Q 1159 1288 1364 580 
Q 1569 -128 1984 -844 
L 1484 -844 
Q 1016 -109 783 600 
Q 550 1309 550 2009 
Q 550 2706 781 3412 
Q 1013 4119 1484 4856 
L 1984 4856 
z
" transform="scale(0.015625)"/>
       <path id="DejaVuSans-64" d="M 2906 2969 
L 2906 4863 
L 3481 4863 
L 3481 0 
L 2906 0 
L 2906 525 
Q 2725 213 2448 61 
Q 2172 -91 1784 -91 
Q 1150 -91 751 415 
Q 353 922 353 1747 
Q 353 2572 751 3078 
Q 1150 3584 1784 3584 
Q 2172 3584 2448 3432 
Q 2725 3281 2906 2969 
z
M 947 1747 
Q 947 1113 1208 752 
Q 1469 391 1925 391 
Q 2381 391 2643 752 
Q 2906 1113 2906 1747 
Q 2906 2381 2643 2742 
Q 2381 3103 1925 3103 
Q 1469 3103 1208 2742 
Q 947 2381 947 1747 
z
" transform="scale(0.015625)"/>
       <path id="DejaVuSans-61" d="M 2194 1759 
Q 1497 1759 1228 1600 
Q 959 1441 959 1056 
Q 959 750 1161 570 
Q 1363 391 1709 391 
Q 2188 391 2477 730 
Q 2766 1069 2766 1631 
L 2766 1759 
L 2194 1759 
z
M 3341 1997 
L 3341 0 
L 2766 0 
L 2766 531 
Q 2569 213 2275 61 
Q 1981 -91 1556 -91 
Q 1019 -91 701 211 
Q 384 513 384 1019 
Q 384 1609 779 1909 
Q 1175 2209 1959 2209 
L 2766 2209 
L 2766 2266 
Q 2766 2663 2505 2880 
Q 2244 3097 1772 3097 
Q 1472 3097 1187 3025 
Q 903 2953 641 2809 
L 641 3341 
Q 956 3463 1253 3523 
Q 1550 3584 1831 3584 
Q 2591 3584 2966 3190 
Q 3341 2797 3341 1997 
z
" transform="scale(0.015625)"/>
       <path id="DejaVuSans-73" d="M 2834 3397 
L 2834 2853 
Q 2591 2978 2328 3040 
Q 2066 3103 1784 3103 
Q 1356 3103 1142 2972 
Q 928 2841 928 2578 
Q 928 2378 1081 2264 
Q 1234 2150 1697 2047 
L 1894 2003 
Q 2506 1872 2764 1633 
Q 3022 1394 3022 966 
Q 3022 478 2636 193 
Q 2250 -91 1575 -91 
Q 1294 -91 989 -36 
Q 684 19 347 128 
L 347 722 
Q 666 556 975 473 
Q 1284 391 1588 391 
Q 1994 391 2212 530 
Q 2431 669 2431 922 
Q 2431 1156 2273 1281 
Q 2116 1406 1581 1522 
L 1381 1569 
Q 847 1681 609 1914 
Q 372 2147 372 2553 
Q 372 3047 722 3315 
Q 1072 3584 1716 3584 
Q 2034 3584 2315 3537 
Q 2597 3491 2834 3397 
z
" transform="scale(0.015625)"/>
       <path id="DejaVuSans-29" d="M 513 4856 
L 1013 4856 
Q 1481 4119 1714 3412 
Q 1947 2706 1947 2009 
Q 1947 1309 1714 600 
Q 1481 -109 1013 -844 
L 513 -844 
Q 928 -128 1133 580 
Q 1338 1288 1338 2009 
Q 1338 2731 1133 3434 
Q 928 4138 513 4856 
z
" transform="scale(0.015625)"/>
      </defs>
      <use xlink:href="#DejaVuSans-43"/>
      <use xlink:href="#DejaVuSans-79" transform="translate(69.824219 0)"/>
      <use xlink:href="#DejaVuSans-63" transform="translate(129.003906 0)"/>
      <use xlink:href="#DejaVuSans-6c" transform="translate(183.984375 0)"/>
      <use xlink:href="#DejaVuSans-65" transform="translate(211.767578 0)"/>
      <use xlink:href="#DejaVuSans-20" transform="translate(273.291016 0)"/>
      <use xlink:href="#DejaVuSans-54" transform="translate(305.078125 0)"/>
      <use xlink:href="#DejaVuSans-69" transform="translate(363.037109 0)"/>
      <use xlink:href="#DejaVuSans-6d" transform="translate(390.820312 0)"/>
      <use xlink:href="#DejaVuSans-65" transform="translate(488.232422 0)"/>
      <use xlink:href="#DejaVuSans-20" transform="translate(549.755859 0)"/>
      <use xlink:href="#DejaVuSans-28" transform="translate(581.542969 0)"/>
      <use xlink:href="#DejaVuSans-64" transform="translate(620.556641 0)"/>
      <use xlink:href="#DejaVuSans-61" transform="translate(684.033203 0)"/>
      <use xlink:href="#DejaVuSans-79" transform="translate(745.3125 0)"/>
      <use xlink:href="#DejaVuSans-73" transform="translate(804.492188 0)"/>
      <use xlink:href="#DejaVuSans-29" transform="translate(856.591797 0)"/>
     </g>
    </g>
   </g>
   <g id="matplotlib.axis_2">
    <g id="ytick_1">
     <g id="line2d_8">
      <defs>
       <path id="m47ed3bfad8" d="M 0 0 
L -3.5 0 
" style="stroke: #000000; stroke-width: 0.8"/>
      </defs>
      <g>
       <use xlink:href="#m47ed3bfad8" x="43.78125" y="300.261036" style="stroke: #000000; stroke-width: 0.8"/>
      </g>
     </g>
     <g id="text_9">
      <!-- 0.0 -->
      <g transform="translate(20.878125 304.060254) scale(0.1 -0.1)">
       <defs>
        <path id="DejaVuSans-2e" d="M 684 794 
L 1344 794 
L 1344 0 
L 684 0 
L 684 794 
z
" transform="scale(0.015625)"/>
       </defs>
       <use xlink:href="#DejaVuSans-30"/>
       <use xlink:href="#DejaVuSans-2e" transform="translate(63.623047 0)"/>
       <use xlink:href="#DejaVuSans-30" transform="translate(95.410156 0)"/>
      </g>
     </g>
    </g>
    <g id="ytick_2">
     <g id="line2d_9">
      <g>
       <use xlink:href="#m47ed3bfad8" x="43.78125" y="244.530562" style="stroke: #000000; stroke-width: 0.8"/>
      </g>
     </g>
     <g id="text_10">
      <!-- 0.2 -->
      <g transform="translate(20.878125 248.329781) scale(0.1 -0.1)">
       <use xlink:href="#DejaVuSans-30"/>
       <use xlink:href="#DejaVuSans-2e" transform="translate(63.623047 0)"/>
       <use xlink:href="#DejaVuSans-32" transform="translate(95.410156 0)"/>
      </g>
     </g>
    </g>
    <g id="ytick_3">
     <g id="line2d_10">
      <g>
       <use xlink:href="#m47ed3bfad8" x="43.78125" y="188.800089" style="stroke: #000000; stroke-width: 0.8"/>
      </g>
     </g>
     <g id="text_11">
      <!-- 0.4 -->
      <g transform="translate(20.878125 192.599308) scale(0.1 -0.1)">
       <use xlink:href="#DejaVuSans-30"/>
       <use xlink:href="#DejaVuSans-2e" transform="translate(63.623047 0)"/>
       <use xlink:href="#DejaVuSans-34" transform="translate(95.410156 0)"/>
      </g>
     </g>
    </g>
    <g id="ytick_4">
     <g id="line2d_11">
      <g>
       <use xlink:href="#m47ed3bfad8" x="43.78125" y="133.069616" style="stroke: #000000; stroke-width: 0.8"/>
      </g>
     </g>
     <g id="text_12">
      <!-- 0.6 -->
      <g transform="translate(20.878125 136.868835) scale(0.1 -0.1)">
       <use xlink:href="#DejaVuSans-30"/>
       <use xlink:href="#DejaVuSans-2e" transform="translate(63.623047 0)"/>
       <use xlink:href="#DejaVuSans-36" transform="translate(95.410156 0)"/>
      </g>
     </g>
    </g>
    <g id="ytick_5">
     <g id="line2d_12">
      <g>
       <use xlink:href="#m47ed3bfad8" x="43.78125" y="77.339143" style="stroke: #000000; stroke-width: 0.8"/>
      </g>
     </g>
     <g id="text_13">
      <!-- 0.8 -->
      <g transform="translate(20.878125 81.138361) scale(0.1 -0.1)">
       <defs>
        <path id="DejaVuSans-38" d="M 2034 2216 
Q 1584 2216 1326 1975 
Q 1069 1734 1069 1313 
Q 1069 891 1326 650 
Q 1584 409 2034 409 
Q 2484 409 2743 651 
Q 3003 894 3003 1313 
Q 3003 1734 2745 1975 
Q 2488 2216 2034 2216 
z
M 1403 2484 
Q 997 2584 770 2862 
Q 544 3141 544 3541 
Q 544 4100 942 4425 
Q 1341 4750 2034 4750 
Q 2731 4750 3128 4425 
Q 3525 4100 3525 3541 
Q 3525 3141 3298 2862 
Q 3072 2584 2669 2484 
Q 3125 2378 3379 2068 
Q 3634 1759 3634 1313 
Q 3634 634 3220 271 
Q 2806 -91 2034 -91 
Q 1263 -91 848 271 
Q 434 634 434 1313 
Q 434 1759 690 2068 
Q 947 2378 1403 2484 
z
M 1172 3481 
Q 1172 3119 1398 2916 
Q 1625 2713 2034 2713 
Q 2441 2713 2670 2916 
Q 2900 3119 2900 3481 
Q 2900 3844 2670 4047 
Q 2441 4250 2034 4250 
Q 1625 4250 1398 4047 
Q 1172 3844 1172 3481 
z
" transform="scale(0.015625)"/>
       </defs>
       <use xlink:href="#DejaVuSans-30"/>
       <use xlink:href="#DejaVuSans-2e" transform="translate(63.623047 0)"/>
       <use xlink:href="#DejaVuSans-38" transform="translate(95.410156 0)"/>
      </g>
     </g>
    </g>
    <g id="text_14">
     <!-- Cumulative proportion -->
     <g transform="translate(14.798438 224.067656) rotate(-90) scale(0.1 -0.1)">
      <defs>
       <path id="DejaVuSans-75" d="M 544 1381 
L 544 3500 
L 1119 3500 
L 1119 1403 
Q 1119 906 1312 657 
Q 1506 409 1894 409 
Q 2359 409 2629 706 
Q 2900 1003 2900 1516 
L 2900 3500 
L 3475 3500 
L 3475 0 
L 2900 0 
L 2900 538 
Q 2691 219 2414 64 
Q 2138 -91 1772 -91 
Q 1169 -91 856 284 
Q 544 659 544 1381 
z
M 1991 3584 
L 1991 3584 
z
" transform="scale(0.015625)"/>
       <path id="DejaVuSans-74" d="M 1172 4494 
L 1172 3500 
L 2356 3500 
L 2356 3053 
L 1172 3053 
L 1172 1153 
Q 1172 725 1289 603 
Q 1406 481 1766 481 
L 2356 481 
L 2356 0 
L 1766 0 
Q 1100 0 847 248 
Q 594 497 594 1153 
L 594 3053 
L 172 3053 
L 172 3500 
L 594 3500 
L 594 4494 
L 1172 4494 
z
" transform="scale(0.015625)"/>
       <path id="DejaVuSans-76" d="M 191 3500 
L 800 3500 
L 1894 563 
L 2988 3500 
L 3597 3500 
L 2284 0 
L 1503 0 
L 191 3500 
z
" transform="scale(0.015625)"/>
       <path id="DejaVuSans-70" d="M 1159 525 
L 1159 -1331 
L 581 -1331 
L 581 3500 
L 1159 3500 
L 1159 2969 
Q 1341 3281 1617 3432 
Q 1894 3584 2278 3584 
Q 2916 3584 3314 3078 
Q 3713 2572 3713 1747 
Q 3713 922 3314 415 
Q 2916 -91 2278 -91 
Q 1894 -91 1617 61 
Q 1341 213 1159 525 
z
M 3116 1747 
Q 3116 2381 2855 2742 
Q 2594 3103 2138 3103 
Q 1681 3103 1420 2742 
Q 1159 2381 1159 1747 
Q 1159 1113 1420 752 
Q 1681 391 2138 391 
Q 2594 391 2855 752 
Q 3116 1113 3116 1747 
z
" transform="scale(0.015625)"/>
       <path id="DejaVuSans-72" d="M 2631 2963 
Q 2534 3019 2420 3045 
Q 2306 3072 2169 3072 
Q 1681 3072 1420 2755 
Q 1159 2438 1159 1844 
L 1159 0 
L 581 0 
L 581 3500 
L 1159 3500 
L 1159 2956 
Q 1341 3275 1631 3429 
Q 1922 3584 2338 3584 
Q 2397 3584 2469 3576 
Q 2541 3569 2628 3553 
L 2631 2963 
z
" transform="scale(0.015625)"/>
       <path id="DejaVuSans-6f" d="M 1959 3097 
Q 1497 3097 1228 2736 
Q 959 2375 959 1747 
Q 959 1119 1226 758 
Q 1494 397 1959 397 
Q 2419 397 2687 759 
Q 2956 1122 2956 1747 
Q 2956 2369 2687 2733 
Q 2419 3097 1959 3097 
z
M 1959 3584 
Q 2709 3584 3137 3096 
Q 3566 2609 3566 1747 
Q 3566 888 3137 398 
Q 2709 -91 1959 -91 
Q 1206 -91 779 398 
Q 353 888 353 1747 
Q 353 2609 779 3096 
Q 1206 3584 1959 3584 
z
" transform="scale(0.015625)"/>
       <path id="DejaVuSans-6e" d="M 3513 2113 
L 3513 0 
L 2938 0 
L 2938 2094 
Q 2938 2591 2744 2837 
Q 2550 3084 2163 3084 
Q 1697 3084 1428 2787 
Q 1159 2491 1159 1978 
L 1159 0 
L 581 0 
L 581 3500 
L 1159 3500 
L 1159 2956 
Q 1366 3272 1645 3428 
Q 1925 3584 2291 3584 
Q 2894 3584 3203 3211 
Q 3513 2838 3513 2113 
z
" transform="scale(0.015625)"/>
      </defs>
      <use xlink:href="#DejaVuSans-43"/>
      <use xlink:href="#DejaVuSans-75" transform="translate(69.824219 0)"/>
      <use xlink:href="#DejaVuSans-6d" transform="translate(133.203125 0)"/>
      <use xlink:href="#DejaVuSans-75" transform="translate(230.615234 0)"/>
      <use xlink:href="#DejaVuSans-6c" transform="translate(293.994141 0)"/>
      <use xlink:href="#DejaVuSans-61" transform="translate(321.777344 0)"/>
      <use xlink:href="#DejaVuSans-74" transform="translate(383.056641 0)"/>
      <use xlink:href="#DejaVuSans-69" transform="translate(422.265625 0)"/>
      <use xlink:href="#DejaVuSans-76" transform="translate(450.048828 0)"/>
      <use xlink:href="#DejaVuSans-65" transform="translate(509.228516 0)"/>
      <use xlink:href="#DejaVuSans-20" transform="translate(570.751953 0)"/>
      <use xlink:href="#DejaVuSans-70" transform="translate(602.539062 0)"/>
      <use xlink:href="#DejaVuSans-72" transform="translate(666.015625 0)"/>
      <use xlink:href="#DejaVuSans-6f" transform="translate(704.878906 0)"/>
      <use xlink:href="#DejaVuSans-70" transform="translate(766.060547 0)"/>
      <use xlink:href="#DejaVuSans-6f" transform="translate(829.537109 0)"/>
      <use xlink:href="#DejaVuSans-72" transform="translate(890.71875 0)"/>
      <use xlink:href="#DejaVuSans-74" transform="translate(931.832031 0)"/>
      <use xlink:href="#DejaVuSans-69" transform="translate(971.041016 0)"/>
      <use xlink:href="#DejaVuSans-6f" transform="translate(998.824219 0)"/>
      <use xlink:href="#DejaVuSans-6e" transform="translate(1060.005859 0)"/>
     </g>
    </g>
   </g>
   <g id="line2d_13">
    <path d="M 70.575795 300.24358 
L 70.686846 284.742527 
L 70.747782 279.470773 
L 70.858263 274.583053 
L 71.205652 267.565685 
L 71.316702 263.166738 
L 71.836077 250.49358 
L 71.918654 250.022264 
L 72.094626 247.82279 
L 72.382219 242.359019 
L 72.869133 238.693229 
L 73.001824 234.957615 
L 73.112875 231.606036 
L 73.303654 229.109808 
L 73.389647 228.847966 
L 73.493864 228.551212 
L 73.57644 228.271913 
L 73.9113 221.376738 
L 73.996154 220.172264 
L 74.106066 219.124896 
L 74.29058 218.321913 
L 74.336709 218.129896 
L 74.644803 214.917966 
L 74.755854 213.13744 
L 75.107229 210.676124 
L 75.232517 210.309545 
L 75.39767 208.197352 
L 75.508151 206.294633 
L 75.991078 202.489194 
L 76.061695 202.105159 
L 76.317966 197.636387 
L 76.377193 196.327177 
L 76.664785 193.481826 
L 76.809436 193.272352 
L 77.007619 192.085335 
L 77.340201 188.629019 
L 77.838505 187.180159 
L 78.036687 185.27744 
L 78.222911 184.003142 
L 78.535561 183.427089 
L 78.680211 182.397177 
L 78.742286 181.733844 
L 78.852767 180.861037 
L 79.191614 179.53437 
L 79.308929 179.377265 
L 79.546406 177.841124 
L 79.784453 175.763844 
L 79.90006 175.536914 
L 80.004846 175.344896 
L 80.128995 175.135423 
L 80.232642 174.646651 
L 80.385265 173.372352 
L 80.692221 171.364896 
L 80.837441 171.068142 
L 80.954756 170.911037 
L 81.375039 167.734019 
L 81.435975 167.36744 
L 81.5755 166.808844 
L 81.830062 166.250247 
L 81.912638 165.499633 
L 82.158088 161.8513 
L 82.265722 160.943581 
L 82.67063 160.000949 
L 82.780541 159.075774 
L 82.913802 157.818931 
L 83.05048 156.911212 
L 83.743549 154.43244 
L 83.84378 153.961124 
L 84.33468 153.12323 
L 84.661568 150.801563 
L 85.087546 150.190598 
L 85.207139 149.806563 
L 85.428102 148.095861 
L 85.834148 147.170686 
L 85.911599 146.996125 
L 86.109212 145.9313 
L 86.248168 145.041037 
L 86.452615 144.534809 
L 86.71458 144.238054 
L 86.93839 142.9463 
L 87.109806 141.968756 
L 87.609819 140.781739 
L 87.817683 139.297967 
L 88.104706 137.884019 
L 88.347309 137.639633 
L 88.980582 134.75937 
L 89.140609 134.602265 
L 89.640052 132.874107 
L 90.084254 132.245686 
L 90.197013 131.791826 
L 90.605338 130.657177 
L 90.802951 130.517528 
L 90.919696 130.273142 
L 91.366177 128.78937 
L 91.646366 128.492616 
L 91.756277 128.213318 
L 91.947626 127.323054 
L 92.087151 126.956476 
L 92.364493 126.624809 
L 92.478961 126.467704 
L 92.575774 126.118581 
L 93.201074 123.831826 
L 93.333765 123.639809 
L 93.804164 120.881739 
L 94.206794 120.131125 
L 94.514319 118.612441 
L 94.589491 118.385511 
L 94.716488 118.193493 
L 95.013762 117.826914 
L 95.637923 116.604984 
L 95.817312 116.447879 
L 96.16641 115.208493 
L 96.428376 114.894283 
L 96.578721 114.754634 
L 96.733622 114.31823 
L 96.956863 113.445423 
L 97.190354 113.166125 
L 97.427261 112.991563 
L 97.594692 112.537704 
L 97.677268 112.310774 
L 97.858935 111.804546 
L 98.17785 111.56016 
L 98.264982 111.211037 
L 98.455191 110.373142 
L 98.544601 110.093844 
L 98.670459 109.57016 
L 98.921604 109.255949 
L 99.12662 108.819546 
L 99.709778 107.178669 
L 99.88632 107.004107 
L 100.196693 105.747265 
L 100.740556 105.153756 
L 100.862996 104.787177 
L 101.041816 104.211125 
L 101.614154 103.774721 
L 101.853909 102.954283 
L 102.022478 102.762265 
L 102.111319 102.692441 
L 102.359617 102.535335 
L 102.822612 101.278493 
L 103.256564 100.964283 
L 103.380143 100.475511 
L 103.56238 100.143844 
L 103.664319 100.039107 
L 103.859085 99.864546 
L 104.124467 99.323406 
L 104.190528 99.113932 
L 104.316955 98.62516 
L 104.490649 98.380774 
L 104.882459 97.909458 
L 105.196817 96.600248 
L 105.314702 96.320949 
L 105.439989 96.1813 
L 105.550471 96.09402 
L 105.659813 95.95437 
L 105.847175 95.343406 
L 106.336937 94.680072 
L 106.461655 94.505511 
L 106.582956 94.330949 
L 106.776583 93.842178 
L 107.329558 93.318493 
L 107.471931 92.969371 
L 107.920689 92.410774 
L 108.118872 92.271125 
L 108.70146 91.503055 
L 108.983927 91.328493 
L 109.100103 91.153932 
L 109.172998 90.927002 
L 109.273798 90.769897 
L 109.513553 90.560423 
L 109.62916 90.490599 
L 109.767546 90.316037 
L 110.00901 89.739985 
L 110.150243 89.44323 
L 110.329633 89.338493 
L 110.520982 89.198844 
L 110.659937 88.849721 
L 110.997645 87.592879 
L 111.289793 87.435774 
L 111.625223 86.877178 
L 111.766457 86.528055 
L 111.90769 86.353493 
L 112.105304 86.213844 
L 112.853614 85.2363 
L 113.120705 85.079195 
L 113.411714 84.450774 
L 114.16458 83.944546 
L 114.284743 83.682704 
L 114.653203 83.525599 
L 114.872457 83.228844 
L 115.290463 82.984458 
L 115.441378 82.844809 
L 115.670882 82.373493 
L 115.811546 82.006914 
L 115.941959 81.71016 
L 116.268277 81.570511 
L 116.777402 80.732616 
L 116.865103 80.592967 
L 116.943693 80.383493 
L 117.160099 80.243844 
L 117.363407 79.929634 
L 117.760911 79.510686 
L 117.933467 79.371037 
L 118.294524 78.672792 
L 118.759228 78.515686 
L 118.873695 78.358581 
L 119.311064 77.869809 
L 119.654467 77.73016 
L 119.764948 77.555599 
L 119.883402 77.381037 
L 119.990466 77.311213 
L 120.609502 76.892265 
L 120.897664 76.595511 
L 121.2143 76.438406 
L 121.381161 75.914722 
L 121.537201 75.757616 
L 121.67274 75.600511 
L 121.845296 75.495774 
L 122.099858 75.338669 
L 122.178447 74.954634 
L 122.364101 74.396037 
L 122.461484 74.221476 
L 122.613538 74.169107 
L 123.039517 73.610511 
L 123.200113 73.2963 
L 124.061752 72.702792 
L 124.606754 72.580599 
L 124.751404 72.371125 
L 125.045831 72.126739 
L 125.367593 71.98709 
L 125.554955 71.812529 
L 125.679104 71.707792 
L 126.214994 71.498318 
L 126.353381 71.323757 
L 127.060118 70.99209 
L 127.385297 70.520774 
L 127.815832 70.206564 
L 128.035655 69.682879 
L 128.339763 69.368669 
L 128.423478 69.298844 
L 128.745809 69.124283 
L 129.054473 68.705336 
L 129.614851 68.495862 
L 129.809617 68.303844 
L 130.329562 68.129283 
L 130.891648 67.657967 
L 131.109194 67.500862 
L 131.238468 67.291388 
L 131.475945 67.134283 
L 131.656474 67.047002 
L 131.967416 66.907353 
L 132.159334 66.697879 
L 132.2869 66.593143 
L 132.888851 66.191651 
L 132.997054 65.894897 
L 133.212321 65.737792 
L 133.591032 65.528318 
L 134.072252 64.934809 
L 134.379776 64.777704 
L 134.617823 64.411125 
L 134.732291 64.219108 
L 135.263625 63.939809 
L 135.417957 63.538318 
L 135.624682 63.381213 
L 136.091095 63.224108 
L 136.646348 62.892441 
L 136.970388 62.752792 
L 137.100801 62.613143 
L 137.437939 62.421125 
L 137.753437 62.281476 
L 137.915172 61.984722 
L 138.112785 61.932353 
L 138.77795 61.443581 
L 139.022261 61.251564 
L 139.43685 61.077002 
L 139.549609 60.972265 
L 140.150991 60.535862 
L 140.344048 60.256564 
L 141.065023 59.872529 
L 141.238148 59.715423 
L 142.049102 59.348844 
L 142.098647 59.244108 
L 142.704016 59.104458 
L 143.448909 58.685511 
L 143.632854 58.545862 
L 144.216012 58.231651 
L 145.253054 57.411213 
L 145.341325 57.358844 
L 146.180184 56.904985 
L 146.295221 56.852616 
L 146.922799 56.625687 
L 147.017904 56.573318 
L 148.021916 56.206739 
L 148.118159 56.154371 
L 148.438213 56.014722 
L 151.007184 54.775336 
L 151.151834 54.600774 
L 151.769731 54.461125 
L 151.88306 54.338932 
L 152.041947 54.251651 
L 153.649618 53.588318 
L 153.674676 53.553406 
L 154.174119 53.431213 
L 154.520369 53.256652 
L 155.029493 53.117002 
L 155.14453 52.959897 
L 155.995349 52.820248 
L 156.113233 52.76788 
L 156.645707 52.62823 
L 156.958357 52.31402 
L 157.436159 52.156915 
L 157.571698 52.034722 
L 158.363289 51.825248 
L 158.371832 51.790336 
L 159.230054 51.598318 
L 159.407734 51.476125 
L 159.884398 51.353932 
L 160.74205 51.09209 
L 160.923148 50.900073 
L 161.586035 50.603318 
L 161.752326 50.166915 
L 162.476718 49.887616 
L 162.696541 49.747967 
L 163.458519 49.451213 
L 164.040538 49.32902 
L 164.240429 49.206827 
L 165.817347 48.78788 
L 165.822473 48.770423 
L 167.124328 48.543494 
L 167.488801 48.281652 
L 168.073098 48.159459 
L 168.180163 48.037266 
L 168.464908 47.897616 
L 169.026425 47.670687 
L 169.105015 47.583406 
L 170.856197 47.216827 
L 172.256574 47.059722 
L 172.967298 46.850248 
L 173.092016 46.728055 
L 173.353982 46.675687 
L 174.081221 46.536038 
L 174.175756 46.501125 
L 174.859714 46.326564 
L 174.907551 46.256739 
L 178.253306 45.488669 
L 178.845576 45.34902 
L 179.442402 45.157002 
L 179.559148 45.087178 
L 184.553008 44.039809 
L 185.056437 43.917616 
L 185.29904 43.777967 
L 187.727346 43.271739 
L 187.855482 43.219371 
L 191.327094 42.713143 
L 191.340762 42.695687 
L 192.171079 42.538581 
L 192.218347 42.503669 
L 195.14154 42.049809 
L 195.265689 41.979985 
L 196.25945 41.805424 
L 197.648436 41.630862 
L 197.790239 41.59595 
L 199.080704 41.491213 
L 200.171278 41.299195 
L 200.199183 41.246827 
L 201.647397 41.107178 
L 201.81198 40.967529 
L 203.068845 40.82788 
L 205.970967 40.513669 
L 206.000011 40.496213 
L 207.56554 40.304195 
L 208.51488 40.164546 
L 209.163529 40.024897 
L 209.455678 39.972529 
L 210.782021 39.815424 
L 211.887971 39.571038 
L 214.020712 39.37902 
L 214.155112 39.309195 
L 215.724627 39.15209 
L 215.871555 39.099722 
L 219.694543 38.715687 
L 219.705933 38.680774 
L 224.881461 38.104722 
L 224.942396 38.052353 
L 225.573961 37.912704 
L 225.582503 37.895248 
L 227.247123 37.755599 
L 228.293277 37.61595 
L 228.500002 37.563581 
L 229.884433 37.38902 
L 231.292213 37.092266 
L 231.438002 37.022441 
L 233.664709 36.865336 
L 236.571957 36.568581 
L 237.726314 36.411476 
L 237.970625 36.289283 
L 239.601076 36.114722 
L 239.682513 36.07981 
L 242.205924 35.870336 
L 242.961068 35.730687 
L 243.617121 35.556125 
L 243.617121 35.556125 
" clip-path="url(#p2093b0f498)" style="fill: none; stroke: #1f77b4; stroke-width: 1.5; stroke-linecap: square"/>
   </g>
   <g id="line2d_14">
    <path d="M 70.575795 300.204121 
L 70.686846 288.479778 
L 70.854276 282.67452 
L 71.031388 277.89372 
L 71.28595 270.722519 
L 71.365109 269.356576 
L 71.516024 267.02309 
L 71.583793 266.22629 
L 71.900999 261.957718 
L 72.084375 259.794975 
L 72.127656 259.339661 
L 72.307046 256.550861 
L 72.350327 256.209375 
L 72.696008 251.485489 
L 73.692046 241.582402 
L 73.764371 240.899431 
L 73.875992 239.590402 
L 73.96711 239.192002 
L 74.428967 234.183544 
L 74.675556 232.077716 
L 74.932965 230.654858 
L 75.292314 229.459658 
L 75.435825 228.776687 
L 75.499039 228.321372 
L 76.611823 218.133714 
L 76.741667 216.8816 
L 76.845314 215.857143 
L 77.033815 214.0928 
L 77.0845 213.6944 
L 77.220608 212.442285 
L 77.345326 211.816228 
L 77.454099 210.450285 
L 78.952428 198.953599 
L 79.192183 196.335541 
L 79.521349 194.343541 
L 79.627843 193.546741 
L 80.040154 192.010055 
L 80.117605 191.611655 
L 80.22353 191.383998 
L 80.297564 190.985598 
L 80.383557 190.757941 
L 80.519665 190.131884 
L 80.868763 188.139883 
L 80.986647 187.855312 
L 81.123894 187.17234 
L 81.319229 186.489369 
L 81.445656 185.97714 
L 82.166631 182.220797 
L 82.372786 180.627197 
L 82.450806 180.114968 
L 82.773707 178.749025 
L 82.90526 177.61074 
L 83.193991 175.618739 
L 83.274859 175.220339 
L 84.445731 168.447539 
L 84.523751 168.162967 
L 85.257254 164.805024 
L 85.39678 164.122053 
L 85.534027 163.894396 
L 85.727653 163.211424 
L 85.918433 162.585367 
L 85.981077 162.35771 
L 86.071056 161.902395 
L 86.353523 160.991767 
L 86.551706 160.650281 
L 88.210631 154.332795 
L 88.409383 153.592909 
L 88.642305 152.796109 
L 89.179903 150.633366 
L 89.394032 149.950394 
L 89.472621 149.608909 
L 89.615563 149.039766 
L 90.822313 145.397251 
L 91.143506 145.11268 
L 91.304102 144.429708 
L 91.535885 144.031308 
L 91.769376 143.803651 
L 92.181687 142.949937 
L 92.256859 142.608451 
L 92.50174 142.437708 
L 92.739218 141.982394 
L 92.845712 141.697822 
L 92.936261 141.299422 
L 93.193671 140.673365 
L 93.372491 140.274965 
L 93.456775 139.876565 
L 93.539921 139.705822 
L 93.707921 138.909022 
L 93.816124 138.453708 
L 93.911798 137.770736 
L 94.026266 137.543079 
L 94.108272 137.03085 
L 94.324109 136.860108 
L 94.690861 135.721822 
L 94.774006 135.323422 
L 94.846901 135.152679 
L 95.047931 134.583536 
L 95.279714 133.84365 
L 95.381652 133.388336 
L 95.46309 132.933022 
L 95.59635 132.25005 
L 95.905014 131.737821 
L 96.399332 130.201136 
L 96.571887 129.85965 
L 96.856063 129.688907 
L 97.008686 129.290507 
L 97.297418 128.66445 
L 97.324184 128.493707 
L 97.503573 128.322964 
L 97.769525 128.038393 
L 98.698364 127.013935 
L 98.808275 126.615535 
L 98.93698 126.444792 
L 99.147122 126.160221 
L 99.346444 125.534164 
L 99.778687 124.737364 
L 99.854998 124.509707 
L 99.964341 124.282049 
L 100.560597 123.086849 
L 100.944433 122.745364 
L 101.184189 122.233135 
L 101.329978 121.834735 
L 101.716662 121.094849 
L 101.849923 120.867192 
L 102.263373 119.956563 
L 102.655182 119.728906 
L 102.755982 119.444335 
L 103.040158 119.159763 
L 103.061229 119.102849 
L 103.459302 118.875192 
L 103.719559 118.419877 
L 104.158636 118.249135 
L 105.125061 116.655534 
L 105.24921 116.427877 
L 105.465617 115.744906 
L 105.589196 115.517249 
L 105.68544 115.346506 
L 105.822687 114.948106 
L 105.887609 114.720449 
L 106.015175 114.20822 
L 106.544231 113.01302 
L 106.641614 112.728448 
L 106.92579 112.386963 
L 107.163267 111.988563 
L 107.38309 111.760905 
L 107.511795 111.476334 
L 107.58412 111.305591 
L 107.725923 110.679534 
L 108.17639 110.110391 
L 108.479929 109.882734 
L 108.562505 109.768905 
L 108.934951 109.42742 
L 109.63998 108.744448 
L 109.900807 108.459877 
L 110.113796 108.118391 
L 110.398541 107.947648 
L 110.485104 107.776905 
L 110.659368 107.549248 
L 110.977713 106.923191 
L 111.570552 106.183305 
L 111.667935 105.955648 
L 111.80746 105.784905 
L 112.045507 105.045019 
L 112.16567 104.134391 
L 112.346767 103.565248 
L 112.481167 103.223762 
L 112.575133 103.053019 
L 112.684475 102.93919 
L 112.84621 102.711533 
L 112.966942 102.426962 
L 113.257952 102.256219 
L 113.259091 102.199305 
L 113.451009 102.028562 
L 113.501124 101.914733 
L 113.629829 101.74399 
L 114.043848 101.174847 
L 114.881569 100.434962 
L 116.166908 99.524333 
L 116.450514 99.012104 
L 116.891869 98.215304 
L 117.303611 97.930733 
L 117.854877 97.304676 
L 117.955677 96.96319 
L 118.002375 96.849361 
L 118.195432 96.678618 
L 118.3771 96.337133 
L 118.848638 95.824904 
L 118.856611 95.76799 
L 119.15901 95.597247 
L 119.52747 95.085018 
L 119.626561 94.914275 
L 120.114045 94.231304 
L 120.120879 94.17439 
L 120.6562 93.832904 
L 120.760986 93.662161 
L 121.432985 93.491418 
L 122.553741 92.18239 
L 122.762175 92.011647 
L 122.944981 91.840904 
L 124.06403 90.588789 
L 124.442741 90.019646 
L 124.619283 89.848904 
L 124.917126 89.564332 
L 125.830019 89.052104 
L 125.917151 88.938275 
L 126.570356 88.482961 
L 126.921162 88.312218 
L 126.927427 88.255303 
L 127.32607 88.084561 
L 127.660361 87.629246 
L 128.025404 87.401589 
L 128.100007 87.287761 
L 128.469606 87.003189 
L 128.673484 86.718618 
L 128.879639 86.547875 
L 130.044247 85.125018 
L 130.059054 85.068103 
L 130.336965 84.840446 
L 130.515215 84.612789 
L 130.842103 84.157475 
L 131.233343 83.986732 
L 131.579023 83.70216 
L 132.290886 83.474503 
L 132.349544 83.246846 
L 132.792037 83.019189 
L 132.921312 82.848446 
L 133.007305 82.734617 
L 133.220864 82.563874 
L 133.332484 82.336217 
L 133.49308 82.165474 
L 133.655954 81.994732 
L 134.164509 81.767074 
L 134.322258 81.596331 
L 134.561444 81.425589 
L 134.646298 81.31176 
L 134.877511 81.141017 
L 134.882636 81.084103 
L 135.288683 80.856446 
L 136.323447 79.945817 
L 136.55466 79.775074 
L 138.161761 79.035188 
L 138.250032 78.92136 
L 139.048457 78.579874 
L 139.797337 77.783074 
L 139.846883 77.612331 
L 140.5428 77.100103 
L 140.715925 76.815531 
L 141.028575 76.644788 
L 143.051405 75.73416 
L 143.183526 75.563417 
L 144.009287 75.051188 
L 144.01783 74.937359 
L 144.485381 74.709702 
L 144.505313 74.652788 
L 145.487114 74.197474 
L 145.779832 73.855988 
L 146.085649 73.685245 
L 146.704685 73.343759 
L 146.907993 73.116102 
L 147.054921 72.945359 
L 147.109592 72.717702 
L 147.720086 72.262388 
L 147.86075 72.034731 
L 148.016221 71.807074 
L 148.45302 71.636331 
L 149.198482 71.465588 
L 149.205316 71.408673 
L 150.409219 71.010273 
L 150.409788 70.953359 
L 150.969028 70.782616 
L 151.254342 70.554959 
L 151.613691 70.327302 
L 151.734992 70.213473 
L 151.941148 70.099645 
L 152.276008 69.928902 
L 152.863722 69.587416 
L 152.883654 69.530502 
L 154.291434 69.075188 
L 154.326173 69.018273 
L 156.37349 68.335302 
L 156.42987 68.164559 
L 156.736256 67.823073 
L 156.949814 67.595416 
L 157.248227 67.25393 
L 157.623521 67.026273 
L 158.154286 66.85553 
L 158.186178 66.798616 
L 158.443587 66.627873 
L 159.444182 65.887987 
L 160.260261 65.546502 
L 160.333726 65.489587 
L 161.114497 65.318844 
L 161.136137 65.205016 
L 161.742075 64.977359 
L 162.717042 64.06673 
L 163.04336 63.895987 
L 163.284255 63.782159 
L 164.126531 63.554501 
L 164.243846 63.440673 
L 165.086691 63.099187 
L 165.123708 63.042273 
L 166.729101 62.586958 
L 167.48994 62.416216 
L 167.520693 62.359301 
L 168.140298 62.188558 
L 169.226316 61.448673 
L 169.779291 60.993358 
L 170.666557 60.765701 
L 170.798679 60.538044 
L 173.682577 60.025815 
L 174.051607 59.855073 
L 174.890466 59.456672 
L 174.899009 59.399758 
L 175.70142 59.058272 
L 175.705407 59.001358 
L 177.258976 58.432215 
L 178.011842 58.261472 
L 178.063666 58.204558 
L 179.079637 58.033815 
L 179.67874 57.749244 
L 179.745371 57.692329 
L 180.329668 57.521587 
L 180.342197 57.464672 
L 181.655441 56.952444 
L 182.512524 56.554044 
L 183.504007 56.383301 
L 185.358267 56.155644 
L 186.411254 55.927986 
L 190.844167 55.415758 
L 190.85157 55.358844 
L 191.922212 55.131186 
L 192.450129 54.903529 
L 193.036704 54.732786 
L 193.385232 54.618958 
L 194.429677 54.334386 
L 194.440498 54.277472 
L 195.382435 54.106729 
L 196.373348 53.935986 
L 197.284532 53.651415 
L 197.928056 53.480672 
L 198.0243 53.366843 
L 198.596068 53.196101 
L 198.687756 53.082272 
L 199.494724 52.911529 
L 199.508392 52.854615 
L 201.397391 52.626958 
L 205.167416 51.431758 
L 206.706748 51.2041 
L 206.897528 51.090272 
L 207.984115 50.919529 
L 207.998352 50.862615 
L 210.069019 50.350386 
L 215.527583 49.838157 
L 216.580001 49.6105 
L 216.708136 49.439757 
L 217.815795 49.269014 
L 217.823198 49.2121 
L 219.460483 48.984443 
L 219.500917 48.927529 
L 219.861404 48.756786 
L 219.939424 48.642957 
L 222.580151 47.789243 
L 223.64225 47.6185 
L 223.852961 47.504671 
L 227.178785 47.106271 
L 227.580845 46.935529 
L 227.605902 46.878614 
L 230.666912 46.594043 
L 230.73696 46.4233 
L 231.18401 46.252557 
L 234.751866 45.512671 
L 237.732578 45.341928 
L 237.993405 45.171186 
L 239.2161 44.943528 
L 239.591394 44.8297 
L 242.524269 44.545128 
L 242.586344 44.4313 
L 243.883642 44.260557 
L 246.531772 43.577585 
L 248.873516 43.406843 
L 250.015914 43.008443 
L 253.516001 42.780785 
L 254.829815 42.610042 
L 255.201123 42.382385 
L 255.283129 42.268557 
L 257.67328 41.983985 
L 260.154549 41.756328 
L 263.591423 41.187185 
L 265.421195 41.016442 
L 265.551039 40.959528 
L 268.45373 40.731871 
L 268.493595 40.674957 
L 268.694625 40.618042 
L 272.808053 40.219642 
L 276.469875 39.707414 
L 276.519991 39.650499 
L 277.354863 39.479757 
L 280.264389 39.309014 
L 284.176787 39.081356 
L 285.021341 38.967528 
L 289.453115 38.341471 
L 301.033699 37.317013 
L 301.087231 37.260099 
L 302.632258 37.089356 
L 302.739322 36.975528 
L 303.296853 36.918613 
L 307.587963 36.747871 
L 313.148465 36.292556 
L 313.343801 36.178728 
L 317.351304 35.894156 
L 322.795631 35.666499 
L 323.258626 35.55267 
L 323.258626 35.55267 
" clip-path="url(#p2093b0f498)" style="fill: none; stroke: #ff7f0e; stroke-width: 1.5; stroke-linecap: square"/>
   </g>
   <g id="line2d_15">
    <path d="M 70.575795 300.091539 
L 70.685707 290.599731 
L 71.152689 278.395978 
L 71.212486 277.717991 
L 71.37536 274.32806 
L 71.616254 271.785611 
L 71.715345 270.768632 
L 72.025148 267.209204 
L 72.305337 265.344742 
L 72.397025 264.666755 
L 72.511493 263.649776 
L 72.823574 260.598838 
L 72.944305 259.920851 
L 73.059912 258.903872 
L 73.247274 257.717396 
L 73.313335 256.869913 
L 73.439193 256.191927 
L 73.64307 254.666457 
L 73.761524 254.327464 
L 73.938066 253.479981 
L 74.144791 252.801995 
L 74.742756 248.395084 
L 74.876016 248.056091 
L 75.161331 246.191629 
L 76.764446 237.547304 
L 77.077666 236.191331 
L 77.111266 235.852338 
L 77.354438 235.343848 
L 77.713217 234.496365 
L 77.991698 233.987876 
L 78.419954 232.29291 
L 78.563466 231.953917 
L 79.393213 229.072475 
L 79.512806 228.733482 
L 79.569755 228.055495 
L 79.800968 227.885999 
L 79.975232 226.36053 
L 80.740627 223.987578 
L 80.880152 223.648585 
L 80.943935 223.140095 
L 81.270823 222.462109 
L 81.328341 222.123115 
L 81.524815 221.614626 
L 81.712178 220.597646 
L 82.171187 218.563687 
L 82.42461 218.055198 
L 82.512881 217.377211 
L 82.698535 216.529729 
L 82.814141 215.851742 
L 82.842616 215.682246 
L 83.014032 215.512749 
L 83.111985 214.834763 
L 83.538533 214.49577 
L 83.637624 213.817783 
L 83.669516 213.648287 
L 84.097772 213.309294 
L 84.202559 212.631307 
L 84.593229 211.953321 
L 85.180943 211.614328 
L 85.319898 211.275335 
L 85.504983 210.766845 
L 85.801118 210.427852 
L 86.121741 209.749866 
L 86.238486 209.241376 
L 86.367191 208.56339 
L 86.807407 207.376914 
L 87.093291 207.207417 
L 87.374619 205.512451 
L 87.569385 205.003962 
L 87.68613 204.664968 
L 87.967459 203.817486 
L 88.068258 203.308996 
L 88.132041 202.800506 
L 88.3456 202.631009 
L 88.45722 201.953023 
L 88.598454 201.61403 
L 88.696406 201.10554 
L 88.905409 200.766547 
L 88.935023 200.258057 
L 89.745407 199.241078 
L 89.813746 198.902085 
L 90.083684 198.563092 
L 90.362165 197.885105 
L 90.575155 197.715609 
L 90.716388 197.207119 
L 90.788144 197.037623 
L 91.435085 196.698629 
L 91.593973 195.851147 
L 92.097402 195.68165 
L 92.276792 195.342657 
L 92.287042 195.17316 
L 93.009725 194.156181 
L 93.316111 192.969705 
L 93.974442 192.461215 
L 94.930047 190.935746 
L 95.218209 190.596753 
L 95.572432 190.25776 
L 95.613435 190.088263 
L 96.16641 189.74927 
L 96.292837 189.410277 
L 96.612321 188.901787 
L 97.153906 188.73229 
L 97.577607 188.054304 
L 97.812237 187.884808 
L 97.988779 187.206821 
L 98.369768 186.359338 
L 98.714309 186.020345 
L 99.1494 185.342359 
L 99.577657 185.172862 
L 99.783243 184.664373 
L 99.925046 184.32538 
L 100.144869 183.647393 
L 100.593627 183.138904 
L 100.667661 182.969407 
L 101.032704 182.79991 
L 101.267904 182.460917 
L 101.664269 182.121924 
L 102.127265 181.613434 
L 102.33342 180.596455 
L 102.716118 179.918469 
L 102.717257 179.748972 
L 103.084578 179.579476 
L 104.111938 179.240482 
L 104.282216 178.901489 
L 104.755462 178.393 
L 104.849428 177.88451 
L 105.184858 177.715013 
L 105.256614 177.545517 
L 105.546484 177.37602 
L 105.743528 176.86753 
L 106.282835 176.189544 
L 106.515757 175.681054 
L 106.645031 175.172565 
L 106.883647 175.003068 
L 108.19917 174.494578 
L 108.327875 173.986089 
L 109.061378 173.816592 
L 109.240768 173.647095 
L 109.262408 173.308102 
L 109.617201 172.799613 
L 109.768685 172.291123 
L 109.886569 171.95213 
L 109.933268 171.782633 
L 110.272684 171.613137 
L 110.279518 171.44364 
L 110.470297 171.104647 
L 110.539205 170.93515 
L 110.892859 170.765654 
L 110.971448 170.426661 
L 111.3382 170.087667 
L 111.413373 169.579178 
L 111.599027 169.240185 
L 111.630349 169.070688 
L 111.895731 168.731695 
L 112.0643 168.392702 
L 112.103026 168.053709 
L 112.900312 167.714715 
L 113.239159 167.545219 
L 113.252257 167.375722 
L 113.518209 167.036729 
L 114.059794 166.697736 
L 115.175995 165.341763 
L 115.881024 165.00277 
L 115.981824 164.663777 
L 116.216454 164.494281 
L 116.534229 163.477301 
L 116.582067 163.307805 
L 116.960778 163.138308 
L 117.41637 162.121328 
L 118.3771 161.782335 
L 118.68975 161.273846 
L 119.488175 160.934852 
L 119.61745 160.765356 
L 121.327629 159.748376 
L 121.603832 159.57888 
L 121.611235 159.409383 
L 122.921632 157.714418 
L 123.517319 157.375424 
L 123.634064 157.036431 
L 123.700125 156.527942 
L 123.822566 156.358445 
L 125.893802 155.849955 
L 126.016242 155.680459 
L 126.801569 155.341466 
L 127.396117 155.002472 
L 127.593161 154.832976 
L 127.630178 154.493983 
L 129.170079 154.15499 
L 129.682621 153.985493 
L 129.861441 153.477003 
L 130.30906 152.968514 
L 130.749276 152.799017 
L 130.84552 152.460024 
L 132.218561 151.782038 
L 132.292594 151.612541 
L 132.616065 151.443044 
L 133.323941 151.273548 
L 133.430436 150.765058 
L 134.255058 150.426065 
L 134.37522 150.087072 
L 134.729443 149.917575 
L 134.996534 149.409086 
L 136.110457 149.070092 
L 136.845669 148.561603 
L 138.669177 147.544623 
L 139.14584 146.866637 
L 139.328647 146.358147 
L 140.090625 145.849657 
L 140.113974 145.680161 
L 140.885633 145.510664 
L 140.981307 145.341168 
L 142.511528 145.171671 
L 142.722239 145.002175 
L 143.164733 144.832678 
L 143.228516 144.663181 
L 144.680716 144.324188 
L 144.878899 143.985195 
L 146.287818 143.476705 
L 146.484292 143.137712 
L 147.574866 142.968216 
L 147.639218 142.798719 
L 149.173994 142.459726 
L 149.688244 142.120733 
L 149.689383 141.951236 
L 150.315822 141.442747 
L 150.621069 141.27325 
L 150.665489 140.934257 
L 151.215617 140.76476 
L 151.232132 140.595264 
L 151.758911 140.256271 
L 152.293093 140.086774 
L 152.330679 139.747781 
L 153.256101 139.408788 
L 154.433807 138.900298 
L 154.637684 138.730801 
L 155.573926 138.222312 
L 155.64796 138.052815 
L 156.089884 137.883319 
L 156.17303 137.713822 
L 156.502195 137.544325 
L 157.445271 137.374829 
L 157.498234 137.205332 
L 158.547235 136.866339 
L 158.593363 136.696843 
L 158.813756 136.527346 
L 160.621888 136.018856 
L 160.678837 135.84936 
L 166.437522 135.171373 
L 166.558824 135.001877 
L 167.806007 134.662884 
L 167.86979 134.493387 
L 170.329988 134.32389 
L 172.79759 133.815401 
L 172.905793 133.645904 
L 173.610252 133.306911 
L 173.697384 133.137414 
L 174.447972 132.628925 
L 176.585269 132.459428 
L 176.823316 132.289932 
L 178.499896 131.950938 
L 178.959474 131.781442 
L 179.922482 131.611945 
L 180.046631 131.442449 
L 181.43334 131.103456 
L 181.494845 130.933959 
L 182.095088 130.764462 
L 184.714173 130.425469 
L 184.808139 130.255973 
L 185.112247 130.086476 
L 187.339524 129.91698 
L 187.374832 129.747483 
L 187.951156 129.577986 
L 187.963685 129.40849 
L 188.783181 129.069497 
L 190.176155 128.9 
L 190.267842 128.730504 
L 191.250213 128.052517 
L 193.48831 127.544028 
L 194.005407 127.374531 
L 194.085136 127.205034 
L 195.299289 126.866041 
L 195.457607 126.696545 
L 196.819828 126.357552 
L 199.593246 125.340572 
L 200.118885 125.001579 
L 202.025538 124.832082 
L 202.447531 124.154096 
L 202.874079 123.9846 
L 206.251726 123.645606 
L 206.911195 123.306613 
L 207.989241 123.137117 
L 208.172047 122.798124 
L 209.773454 122.120137 
L 211.927266 121.950641 
L 212.278641 121.781144 
L 213.550882 121.611647 
L 214.085634 121.272654 
L 214.767883 120.933661 
L 215.221767 120.764165 
L 218.507726 120.425171 
L 219.587479 120.086178 
L 221.338662 119.916682 
L 221.695163 119.747185 
L 221.774891 119.577689 
L 221.979908 119.408192 
L 224.01071 119.069199 
L 224.343862 118.899702 
L 224.345001 118.730206 
L 225.814855 118.560709 
L 226.362135 118.221716 
L 227.940762 118.052219 
L 231.407819 117.882723 
L 231.439141 117.713226 
L 236.248486 116.865743 
L 236.786655 116.187757 
L 238.532142 116.018261 
L 238.587383 115.679267 
L 239.044684 115.509771 
L 241.922887 115.170778 
L 242.302737 115.001281 
L 243.120526 114.831785 
L 243.190003 114.662288 
L 244.003805 114.492791 
L 244.12112 114.323295 
L 247.026659 113.984302 
L 247.202632 113.814805 
L 249.559752 113.306315 
L 250.338245 112.967322 
L 252.245468 112.797826 
L 252.357658 112.628329 
L 252.766552 112.458833 
L 255.024581 111.950343 
L 255.070709 111.780846 
L 256.395913 110.933363 
L 258.22056 110.255377 
L 259.822536 110.085881 
L 260.360704 109.916384 
L 265.687716 109.577391 
L 266.602318 109.407894 
L 266.790249 109.238398 
L 267.675237 108.899404 
L 267.702003 108.729908 
L 270.854132 108.560411 
L 271.035799 108.390915 
L 271.845614 108.221418 
L 272.080814 108.051922 
L 272.743131 107.882425 
L 274.675412 107.712928 
L 275.826351 107.373935 
L 275.860521 106.695949 
L 276.45393 106.526452 
L 276.532519 106.356956 
L 277.25805 106.187459 
L 277.312152 106.017963 
L 277.616829 105.848466 
L 278.494983 105.509473 
L 282.139151 105.339976 
L 282.618092 105.17048 
L 283.542375 105.000983 
L 283.741697 104.831487 
L 286.58687 104.66199 
L 289.608016 103.645011 
L 293.143411 103.475514 
L 293.923613 102.967024 
L 294.892886 102.797528 
L 295.124099 102.628031 
L 295.907148 102.458535 
L 300.257484 102.119542 
L 301.729047 101.611052 
L 302.926685 101.441555 
L 303.004705 101.272059 
L 303.978533 101.102562 
L 308.125561 100.594072 
L 308.892665 100.424576 
L 308.946197 100.255079 
L 310.101693 99.916086 
L 310.379034 99.577093 
L 311.335778 99.2381 
L 312.576128 99.068603 
L 312.650731 98.899107 
L 313.513509 98.72961 
L 317.595045 98.22112 
L 318.69644 97.882127 
L 318.802365 97.712631 
L 319.373564 97.373638 
L 321.137275 97.204141 
L 321.649816 97.034644 
L 321.661775 96.865148 
L 322.373069 96.526155 
L 326.209725 96.187162 
L 326.230226 96.017665 
L 327.677301 95.848168 
L 328.072527 95.678672 
L 330.312333 95.339679 
L 334.286236 95.000685 
L 334.383049 94.831189 
L 340.11383 94.322699 
L 340.728879 94.153203 
L 340.862709 93.983706 
L 342.865037 93.644713 
L 344.95051 93.475216 
L 345.028531 93.30572 
L 348.991044 93.136223 
L 349.06223 92.79723 
L 352.221193 92.458237 
L 357.97817 92.119244 
L 358.265762 91.949747 
L 358.79368 91.780251 
L 360.689513 91.441257 
L 360.881431 91.271761 
L 365.103632 90.593775 
L 368.728437 90.254781 
L 369.219338 89.746292 
L 369.829262 89.576795 
L 370.935212 89.407299 
L 373.538352 89.237802 
L 374.164222 89.068305 
L 374.315706 88.898809 
L 374.664234 88.729312 
L 376.285573 88.559816 
L 376.930806 88.220823 
L 379.336333 87.881829 
L 379.376197 87.712333 
L 380.597754 87.37334 
L 383.649082 86.86485 
L 384.324498 86.695353 
L 386.207802 86.525857 
L 387.169671 86.186864 
L 389.88614 86.017367 
L 390.134437 85.678374 
L 392.39987 85.169884 
L 392.464792 85.000388 
L 392.715937 84.830891 
L 392.762635 84.661395 
L 393.222783 84.491898 
L 393.229617 84.322401 
L 393.576437 83.983408 
L 398.218352 83.135925 
L 398.314026 82.966429 
L 402.598871 82.457939 
L 404.817605 81.779953 
L 404.865442 81.610456 
L 405.572749 81.271463 
L 405.576736 81.101966 
L 405.890525 80.93247 
L 407.019824 80.762973 
L 408.937298 80.593477 
L 409.000511 80.42398 
L 409.257351 80.254484 
L 410.332549 80.084987 
L 412.356517 79.91549 
L 413.709057 79.237504 
L 413.742656 79.068008 
L 415.410693 78.729014 
L 416.43065 78.559518 
L 416.798541 78.051028 
L 417.86121 77.881532 
L 420.692716 77.712035 
L 420.874383 77.542538 
L 421.420524 77.373042 
L 422.672264 77.203545 
L 422.901768 76.864552 
L 423.209293 76.695056 
L 423.220113 76.525559 
L 423.40235 76.356062 
L 425.16777 76.186566 
L 425.606278 75.847573 
L 426.418371 75.678076 
L 426.645028 75.50858 
L 431.025547 75.169586 
L 431.03352 75.00009 
L 431.683878 74.830593 
L 431.729437 74.4916 
L 432.573422 73.98311 
L 432.640621 73.813614 
L 433.163983 73.644117 
L 436.164627 73.135628 
L 436.905534 72.627138 
L 437.45737 72.457641 
L 437.501221 72.288145 
L 439.755833 72.118648 
L 439.8031 71.949152 
L 442.712057 71.779655 
L 443.070836 71.610158 
L 443.212069 71.271165 
L 444.002522 71.101669 
L 444.163687 70.932172 
L 446.085148 70.423682 
L 449.149005 70.084689 
L 449.292517 69.745696 
L 449.801641 69.5762 
L 449.813031 69.406703 
L 450.693463 69.237206 
L 450.978777 69.06771 
L 452.720848 68.898213 
L 452.989648 68.728717 
L 456.970385 68.220227 
L 456.995442 68.05073 
L 460.408967 67.372744 
L 460.777996 67.033751 
L 462.153885 66.864254 
L 465.553742 66.694758 
L 466.685888 66.355765 
L 466.878376 66.186268 
L 468.765667 65.338785 
L 471.504915 64.999792 
L 471.836928 64.830295 
L 473.564761 64.321806 
L 473.847798 64.152309 
L 477.399139 63.643819 
L 478.365564 62.965833 
L 478.532994 62.796337 
L 482.488674 61.779357 
L 484.33667 61.440364 
L 484.42551 61.270867 
L 486.536611 60.253888 
L 487.127742 60.084391 
L 488.271278 59.914895 
L 488.481989 59.745398 
L 491.004262 59.575902 
L 491.027611 59.406405 
L 492.822075 59.067412 
L 493.043037 58.897915 
L 494.176323 58.728419 
L 494.18999 58.558922 
L 495.288537 58.389426 
L 495.319289 58.219929 
L 496.240155 57.711439 
L 496.258948 57.541943 
L 497.079014 57.372446 
L 497.165007 57.20295 
L 500.828538 56.524963 
L 505.024543 56.355467 
L 505.281383 56.18597 
L 507.618571 55.846977 
L 507.825296 55.67748 
L 511.426183 54.829998 
L 512.671658 54.660501 
L 513.274748 54.321508 
L 518.50153 54.152011 
L 519.706571 53.643522 
L 519.789147 53.474025 
L 522.262443 53.304528 
L 523.017588 53.135032 
L 523.116679 52.965535 
L 526.216414 52.626542 
L 527.993793 52.287549 
L 529.417519 51.779059 
L 532.452333 51.27057 
L 535.545234 50.931576 
L 535.848773 50.76208 
L 536.90176 50.423087 
L 538.028781 49.914597 
L 540.132478 49.7451 
L 540.389319 49.575604 
L 543.377434 49.067114 
L 543.438939 48.897618 
L 545.699815 48.728121 
L 546.383204 48.558624 
L 546.483434 48.389128 
L 547.3707 47.880638 
L 551.480141 47.202652 
L 551.668073 46.863659 
L 552.194852 46.694162 
L 554.197749 46.524666 
L 554.887402 46.185672 
L 555.656783 46.016176 
L 557.188142 45.846679 
L 558.094771 45.507686 
L 559.564625 45.33819 
L 560.359064 44.999196 
L 561.497475 44.8297 
L 564.638784 44.490707 
L 564.909291 44.151714 
L 568.669636 43.982217 
L 569.153133 43.81272 
L 569.194706 43.643224 
L 569.445851 43.473727 
L 570.392344 43.304231 
L 570.69816 43.134734 
L 571.602511 42.795741 
L 571.951039 42.626244 
L 574.543358 42.287251 
L 576.576438 41.609265 
L 576.822458 41.270272 
L 577.0326 41.100775 
L 580.863561 40.931279 
L 581.757091 40.761782 
L 581.868712 40.592285 
L 583.55725 40.253292 
L 583.772517 40.083796 
L 587.681499 39.744803 
L 588.522066 39.236313 
L 593.427655 38.89732 
L 595.149225 38.38883 
L 595.177699 38.219333 
L 595.402078 38.049837 
L 597.542223 37.710844 
L 597.574684 37.541347 
L 598.165814 37.371851 
L 598.330397 37.202354 
L 600.0924 36.863361 
L 600.117458 36.524368 
L 600.91873 36.354871 
L 602.938712 36.185375 
L 603.062292 36.015878 
L 605.717825 35.846381 
L 606.466705 35.676885 
L 606.466705 35.676885 
" clip-path="url(#p2093b0f498)" style="fill: none; stroke: #2ca02c; stroke-width: 1.5; stroke-linecap: square"/>
   </g>
   <g id="patch_3">
    <path d="M 43.78125 313.478125 
L 43.78125 22.318125 
" style="fill: none; stroke: #000000; stroke-width: 0.8; stroke-linejoin: miter; stroke-linecap: square"/>
   </g>
   <g id="patch_4">
    <path d="M 633.26125 313.478125 
L 633.26125 22.318125 
" style="fill: none; stroke: #000000; stroke-width: 0.8; stroke-linejoin: miter; stroke-linecap: square"/>
   </g>
   <g id="patch_5">
    <path d="M 43.78125 313.478125 
L 633.26125 313.478125 
" style="fill: none; stroke: #000000; stroke-width: 0.8; stroke-linejoin: miter; stroke-linecap: square"/>
   </g>
   <g id="patch_6">
    <path d="M 43.78125 22.318125 
L 633.26125 22.318125 
" style="fill: none; stroke: #000000; stroke-width: 0.8; stroke-linejoin: miter; stroke-linecap: square"/>
   </g>
   <g id="text_15">
    <!-- ECDF of Cycle Time for CT1 (capped at project 95th percentile) -->
    <g transform="translate(149.195 16.318125) scale(0.12 -0.12)">
     <defs>
      <path id="DejaVuSans-45" d="M 628 4666 
L 3578 4666 
L 3578 4134 
L 1259 4134 
L 1259 2753 
L 3481 2753 
L 3481 2222 
L 1259 2222 
L 1259 531 
L 3634 531 
L 3634 0 
L 628 0 
L 628 4666 
z
" transform="scale(0.015625)"/>
      <path id="DejaVuSans-44" d="M 1259 4147 
L 1259 519 
L 2022 519 
Q 2988 519 3436 956 
Q 3884 1394 3884 2338 
Q 3884 3275 3436 3711 
Q 2988 4147 2022 4147 
L 1259 4147 
z
M 628 4666 
L 1925 4666 
Q 3281 4666 3915 4102 
Q 4550 3538 4550 2338 
Q 4550 1131 3912 565 
Q 3275 0 1925 0 
L 628 0 
L 628 4666 
z
" transform="scale(0.015625)"/>
      <path id="DejaVuSans-46" d="M 628 4666 
L 3309 4666 
L 3309 4134 
L 1259 4134 
L 1259 2759 
L 3109 2759 
L 3109 2228 
L 1259 2228 
L 1259 0 
L 628 0 
L 628 4666 
z
" transform="scale(0.015625)"/>
      <path id="DejaVuSans-66" d="M 2375 4863 
L 2375 4384 
L 1825 4384 
Q 1516 4384 1395 4259 
Q 1275 4134 1275 3809 
L 1275 3500 
L 2222 3500 
L 2222 3053 
L 1275 3053 
L 1275 0 
L 697 0 
L 697 3053 
L 147 3053 
L 147 3500 
L 697 3500 
L 697 3744 
Q 697 4328 969 4595 
Q 1241 4863 1831 4863 
L 2375 4863 
z
" transform="scale(0.015625)"/>
      <path id="DejaVuSans-6a" d="M 603 3500 
L 1178 3500 
L 1178 -63 
Q 1178 -731 923 -1031 
Q 669 -1331 103 -1331 
L -116 -1331 
L -116 -844 
L 38 -844 
Q 366 -844 484 -692 
Q 603 -541 603 -63 
L 603 3500 
z
M 603 4863 
L 1178 4863 
L 1178 4134 
L 603 4134 
L 603 4863 
z
" transform="scale(0.015625)"/>
      <path id="DejaVuSans-39" d="M 703 97 
L 703 672 
Q 941 559 1184 500 
Q 1428 441 1663 441 
Q 2288 441 2617 861 
Q 2947 1281 2994 2138 
Q 2813 1869 2534 1725 
Q 2256 1581 1919 1581 
Q 1219 1581 811 2004 
Q 403 2428 403 3163 
Q 403 3881 828 4315 
Q 1253 4750 1959 4750 
Q 2769 4750 3195 4129 
Q 3622 3509 3622 2328 
Q 3622 1225 3098 567 
Q 2575 -91 1691 -91 
Q 1453 -91 1209 -44 
Q 966 3 703 97 
z
M 1959 2075 
Q 2384 2075 2632 2365 
Q 2881 2656 2881 3163 
Q 2881 3666 2632 3958 
Q 2384 4250 1959 4250 
Q 1534 4250 1286 3958 
Q 1038 3666 1038 3163 
Q 1038 2656 1286 2365 
Q 1534 2075 1959 2075 
z
" transform="scale(0.015625)"/>
      <path id="DejaVuSans-68" d="M 3513 2113 
L 3513 0 
L 2938 0 
L 2938 2094 
Q 2938 2591 2744 2837 
Q 2550 3084 2163 3084 
Q 1697 3084 1428 2787 
Q 1159 2491 1159 1978 
L 1159 0 
L 581 0 
L 581 4863 
L 1159 4863 
L 1159 2956 
Q 1366 3272 1645 3428 
Q 1925 3584 2291 3584 
Q 2894 3584 3203 3211 
Q 3513 2838 3513 2113 
z
" transform="scale(0.015625)"/>
     </defs>
     <use xlink:href="#DejaVuSans-45"/>
     <use xlink:href="#DejaVuSans-43" transform="translate(63.183594 0)"/>
     <use xlink:href="#DejaVuSans-44" transform="translate(133.007812 0)"/>
     <use xlink:href="#DejaVuSans-46" transform="translate(210.009766 0)"/>
     <use xlink:href="#DejaVuSans-20" transform="translate(267.529297 0)"/>
     <use xlink:href="#DejaVuSans-6f" transform="translate(299.316406 0)"/>
     <use xlink:href="#DejaVuSans-66" transform="translate(360.498047 0)"/>
     <use xlink:href="#DejaVuSans-20" transform="translate(395.703125 0)"/>
     <use xlink:href="#DejaVuSans-43" transform="translate(427.490234 0)"/>
     <use xlink:href="#DejaVuSans-79" transform="translate(497.314453 0)"/>
     <use xlink:href="#DejaVuSans-63" transform="translate(556.494141 0)"/>
     <use xlink:href="#DejaVuSans-6c" transform="translate(611.474609 0)"/>
     <use xlink:href="#DejaVuSans-65" transform="translate(639.257812 0)"/>
     <use xlink:href="#DejaVuSans-20" transform="translate(700.78125 0)"/>
     <use xlink:href="#DejaVuSans-54" transform="translate(732.568359 0)"/>
     <use xlink:href="#DejaVuSans-69" transform="translate(790.527344 0)"/>
     <use xlink:href="#DejaVuSans-6d" transform="translate(818.310547 0)"/>
     <use xlink:href="#DejaVuSans-65" transform="translate(915.722656 0)"/>
     <use xlink:href="#DejaVuSans-20" transform="translate(977.246094 0)"/>
     <use xlink:href="#DejaVuSans-66" transform="translate(1009.033203 0)"/>
     <use xlink:href="#DejaVuSans-6f" transform="translate(1044.238281 0)"/>
     <use xlink:href="#DejaVuSans-72" transform="translate(1105.419922 0)"/>
     <use xlink:href="#DejaVuSans-20" transform="translate(1146.533203 0)"/>
     <use xlink:href="#DejaVuSans-43" transform="translate(1178.320312 0)"/>
     <use xlink:href="#DejaVuSans-54" transform="translate(1248.144531 0)"/>
     <use xlink:href="#DejaVuSans-31" transform="translate(1309.228516 0)"/>
     <use xlink:href="#DejaVuSans-20" transform="translate(1372.851562 0)"/>
     <use xlink:href="#DejaVuSans-28" transform="translate(1404.638672 0)"/>
     <use xlink:href="#DejaVuSans-63" transform="translate(1443.652344 0)"/>
     <use xlink:href="#DejaVuSans-61" transform="translate(1498.632812 0)"/>
     <use xlink:href="#DejaVuSans-70" transform="translate(1559.912109 0)"/>
     <use xlink:href="#DejaVuSans-70" transform="translate(1623.388672 0)"/>
     <use xlink:href="#DejaVuSans-65" transform="translate(1686.865234 0)"/>
     <use xlink:href="#DejaVuSans-64" transform="translate(1748.388672 0)"/>
     <use xlink:href="#DejaVuSans-20" transform="translate(1811.865234 0)"/>
     <use xlink:href="#DejaVuSans-61" transform="translate(1843.652344 0)"/>
     <use xlink:href="#DejaVuSans-74" transform="translate(1904.931641 0)"/>
     <use xlink:href="#DejaVuSans-20" transform="translate(1944.140625 0)"/>
     <use xlink:href="#DejaVuSans-70" transform="translate(1975.927734 0)"/>
     <use xlink:href="#DejaVuSans-72" transform="translate(2039.404297 0)"/>
     <use xlink:href="#DejaVuSans-6f" transform="translate(2078.267578 0)"/>
     <use xlink:href="#DejaVuSans-6a" transform="translate(2139.449219 0)"/>
     <use xlink:href="#DejaVuSans-65" transform="translate(2167.232422 0)"/>
     <use xlink:href="#DejaVuSans-63" transform="translate(2228.755859 0)"/>
     <use xlink:href="#DejaVuSans-74" transform="translate(2283.736328 0)"/>
     <use xlink:href="#DejaVuSans-20" transform="translate(2322.945312 0)"/>
     <use xlink:href="#DejaVuSans-39" transform="translate(2354.732422 0)"/>
     <use xlink:href="#DejaVuSans-35" transform="translate(2418.355469 0)"/>
     <use xlink:href="#DejaVuSans-74" transform="translate(2481.978516 0)"/>
     <use xlink:href="#DejaVuSans-68" transform="translate(2521.1875 0)"/>
     <use xlink:href="#DejaVuSans-20" transform="translate(2584.566406 0)"/>
     <use xlink:href="#DejaVuSans-70" transform="translate(2616.353516 0)"/>
     <use xlink:href="#DejaVuSans-65" transform="translate(2679.830078 0)"/>
     <use xlink:href="#DejaVuSans-72" transform="translate(2741.353516 0)"/>
     <use xlink:href="#DejaVuSans-63" transform="translate(2780.216797 0)"/>
     <use xlink:href="#DejaVuSans-65" transform="translate(2835.197266 0)"/>
     <use xlink:href="#DejaVuSans-6e" transform="translate(2896.720703 0)"/>
     <use xlink:href="#DejaVuSans-74" transform="translate(2960.099609 0)"/>
     <use xlink:href="#DejaVuSans-69" transform="translate(2999.308594 0)"/>
     <use xlink:href="#DejaVuSans-6c" transform="translate(3027.091797 0)"/>
     <use xlink:href="#DejaVuSans-65" transform="translate(3054.875 0)"/>
     <use xlink:href="#DejaVuSans-29" transform="translate(3116.398438 0)"/>
    </g>
   </g>
   <g id="legend_1">
    <g id="patch_7">
     <path d="M 543.014375 308.478125 
L 626.26125 308.478125 
Q 628.26125 308.478125 628.26125 306.478125 
L 628.26125 248.765625 
Q 628.26125 246.765625 626.26125 246.765625 
L 543.014375 246.765625 
Q 541.014375 246.765625 541.014375 248.765625 
L 541.014375 306.478125 
Q 541.014375 308.478125 543.014375 308.478125 
z
" style="fill: #ffffff; opacity: 0.8; stroke: #cccccc; stroke-linejoin: miter"/>
    </g>
    <g id="text_16">
     <!-- Project -->
     <g transform="translate(567.533125 258.364062) scale(0.1 -0.1)">
      <defs>
       <path id="DejaVuSans-50" d="M 1259 4147 
L 1259 2394 
L 2053 2394 
Q 2494 2394 2734 2622 
Q 2975 2850 2975 3272 
Q 2975 3691 2734 3919 
Q 2494 4147 2053 4147 
L 1259 4147 
z
M 628 4666 
L 2053 4666 
Q 2838 4666 3239 4311 
Q 3641 3956 3641 3272 
Q 3641 2581 3239 2228 
Q 2838 1875 2053 1875 
L 1259 1875 
L 1259 0 
L 628 0 
L 628 4666 
z
" transform="scale(0.015625)"/>
      </defs>
      <use xlink:href="#DejaVuSans-50"/>
      <use xlink:href="#DejaVuSans-72" transform="translate(58.552734 0)"/>
      <use xlink:href="#DejaVuSans-6f" transform="translate(97.416016 0)"/>
      <use xlink:href="#DejaVuSans-6a" transform="translate(158.597656 0)"/>
      <use xlink:href="#DejaVuSans-65" transform="translate(186.380859 0)"/>
      <use xlink:href="#DejaVuSans-63" transform="translate(247.904297 0)"/>
      <use xlink:href="#DejaVuSans-74" transform="translate(302.884766 0)"/>
     </g>
    </g>
    <g id="line2d_16">
     <path d="M 545.014375 269.542188 
L 555.014375 269.542188 
L 565.014375 269.542188 
" style="fill: none; stroke: #1f77b4; stroke-width: 1.5; stroke-linecap: square"/>
    </g>
    <g id="text_17">
     <!-- SERVER -->
     <g transform="translate(573.014375 273.042188) scale(0.1 -0.1)">
      <defs>
       <path id="DejaVuSans-53" d="M 3425 4513 
L 3425 3897 
Q 3066 4069 2747 4153 
Q 2428 4238 2131 4238 
Q 1616 4238 1336 4038 
Q 1056 3838 1056 3469 
Q 1056 3159 1242 3001 
Q 1428 2844 1947 2747 
L 2328 2669 
Q 3034 2534 3370 2195 
Q 3706 1856 3706 1288 
Q 3706 609 3251 259 
Q 2797 -91 1919 -91 
Q 1588 -91 1214 -16 
Q 841 59 441 206 
L 441 856 
Q 825 641 1194 531 
Q 1563 422 1919 422 
Q 2459 422 2753 634 
Q 3047 847 3047 1241 
Q 3047 1584 2836 1778 
Q 2625 1972 2144 2069 
L 1759 2144 
Q 1053 2284 737 2584 
Q 422 2884 422 3419 
Q 422 4038 858 4394 
Q 1294 4750 2059 4750 
Q 2388 4750 2728 4690 
Q 3069 4631 3425 4513 
z
" transform="scale(0.015625)"/>
       <path id="DejaVuSans-52" d="M 2841 2188 
Q 3044 2119 3236 1894 
Q 3428 1669 3622 1275 
L 4263 0 
L 3584 0 
L 2988 1197 
Q 2756 1666 2539 1819 
Q 2322 1972 1947 1972 
L 1259 1972 
L 1259 0 
L 628 0 
L 628 4666 
L 2053 4666 
Q 2853 4666 3247 4331 
Q 3641 3997 3641 3322 
Q 3641 2881 3436 2590 
Q 3231 2300 2841 2188 
z
M 1259 4147 
L 1259 2491 
L 2053 2491 
Q 2509 2491 2742 2702 
Q 2975 2913 2975 3322 
Q 2975 3731 2742 3939 
Q 2509 4147 2053 4147 
L 1259 4147 
z
" transform="scale(0.015625)"/>
       <path id="DejaVuSans-56" d="M 1831 0 
L 50 4666 
L 709 4666 
L 2188 738 
L 3669 4666 
L 4325 4666 
L 2547 0 
L 1831 0 
z
" transform="scale(0.015625)"/>
      </defs>
      <use xlink:href="#DejaVuSans-53"/>
      <use xlink:href="#DejaVuSans-45" transform="translate(63.476562 0)"/>
      <use xlink:href="#DejaVuSans-52" transform="translate(126.660156 0)"/>
      <use xlink:href="#DejaVuSans-56" transform="translate(190.642578 0)"/>
      <use xlink:href="#DejaVuSans-45" transform="translate(259.050781 0)"/>
      <use xlink:href="#DejaVuSans-52" transform="translate(322.234375 0)"/>
     </g>
    </g>
    <g id="line2d_17">
     <path d="M 545.014375 284.220313 
L 555.014375 284.220313 
L 565.014375 284.220313 
" style="fill: none; stroke: #ff7f0e; stroke-width: 1.5; stroke-linecap: square"/>
    </g>
    <g id="text_18">
     <!-- MDL -->
     <g transform="translate(573.014375 287.720313) scale(0.1 -0.1)">
      <defs>
       <path id="DejaVuSans-4d" d="M 628 4666 
L 1569 4666 
L 2759 1491 
L 3956 4666 
L 4897 4666 
L 4897 0 
L 4281 0 
L 4281 4097 
L 3078 897 
L 2444 897 
L 1241 4097 
L 1241 0 
L 628 0 
L 628 4666 
z
" transform="scale(0.015625)"/>
       <path id="DejaVuSans-4c" d="M 628 4666 
L 1259 4666 
L 1259 531 
L 3531 531 
L 3531 0 
L 628 0 
L 628 4666 
z
" transform="scale(0.015625)"/>
      </defs>
      <use xlink:href="#DejaVuSans-4d"/>
      <use xlink:href="#DejaVuSans-44" transform="translate(86.279297 0)"/>
      <use xlink:href="#DejaVuSans-4c" transform="translate(163.28125 0)"/>
     </g>
    </g>
    <g id="line2d_18">
     <path d="M 545.014375 298.898438 
L 555.014375 298.898438 
L 565.014375 298.898438 
" style="fill: none; stroke: #2ca02c; stroke-width: 1.5; stroke-linecap: square"/>
    </g>
    <g id="text_19">
     <!-- JRACLOUD -->
     <g transform="translate(573.014375 302.398438) scale(0.1 -0.1)">
      <defs>
       <path id="DejaVuSans-4a" d="M 628 4666 
L 1259 4666 
L 1259 325 
Q 1259 -519 939 -900 
Q 619 -1281 -91 -1281 
L -331 -1281 
L -331 -750 
L -134 -750 
Q 284 -750 456 -515 
Q 628 -281 628 325 
L 628 4666 
z
" transform="scale(0.015625)"/>
       <path id="DejaVuSans-41" d="M 2188 4044 
L 1331 1722 
L 3047 1722 
L 2188 4044 
z
M 1831 4666 
L 2547 4666 
L 4325 0 
L 3669 0 
L 3244 1197 
L 1141 1197 
L 716 0 
L 50 0 
L 1831 4666 
z
" transform="scale(0.015625)"/>
       <path id="DejaVuSans-4f" d="M 2522 4238 
Q 1834 4238 1429 3725 
Q 1025 3213 1025 2328 
Q 1025 1447 1429 934 
Q 1834 422 2522 422 
Q 3209 422 3611 934 
Q 4013 1447 4013 2328 
Q 4013 3213 3611 3725 
Q 3209 4238 2522 4238 
z
M 2522 4750 
Q 3503 4750 4090 4092 
Q 4678 3434 4678 2328 
Q 4678 1225 4090 567 
Q 3503 -91 2522 -91 
Q 1538 -91 948 565 
Q 359 1222 359 2328 
Q 359 3434 948 4092 
Q 1538 4750 2522 4750 
z
" transform="scale(0.015625)"/>
       <path id="DejaVuSans-55" d="M 556 4666 
L 1191 4666 
L 1191 1831 
Q 1191 1081 1462 751 
Q 1734 422 2344 422 
Q 2950 422 3222 751 
Q 3494 1081 3494 1831 
L 3494 4666 
L 4128 4666 
L 4128 1753 
Q 4128 841 3676 375 
Q 3225 -91 2344 -91 
Q 1459 -91 1007 375 
Q 556 841 556 1753 
L 556 4666 
z
" transform="scale(0.015625)"/>
      </defs>
      <use xlink:href="#DejaVuSans-4a"/>
      <use xlink:href="#DejaVuSans-52" transform="translate(29.492188 0)"/>
      <use xlink:href="#DejaVuSans-41" transform="translate(94.974609 0)"/>
      <use xlink:href="#DejaVuSans-43" transform="translate(161.632812 0)"/>
      <use xlink:href="#DejaVuSans-4c" transform="translate(231.457031 0)"/>
      <use xlink:href="#DejaVuSans-4f" transform="translate(283.544922 0)"/>
      <use xlink:href="#DejaVuSans-55" transform="translate(362.255859 0)"/>
      <use xlink:href="#DejaVuSans-44" transform="translate(435.449219 0)"/>
     </g>
    </g>
   </g>
  </g>
 </g>
 <defs>
  <clipPath id="p2093b0f498">
   <rect x="43.78125" y="22.318125" width="589.48" height="291.16"/>
  </clipPath>
 </defs>
</svg>
