<?xml version="1.0" encoding="utf-8" standalone="no"?>
<!DOCTYPE svg PUBLIC "-//W3C//DTD SVG 1.1//EN"
  "http://www.w3.org/Graphics/SVG/1.1/DTD/svg11.dtd">
<svg xmlns:xlink="http://www.w3.org/1999/xlink" width="640.46125pt" height="351.034375pt" viewBox="0 0 640.46125 351.034375" xmlns="http://www.w3.org/2000/svg" version="1.1">
 <metadata>
  <rdf:RDF xmlns:dc="http://purl.org/dc/elements/1.1/" xmlns:cc="http://creativecommons.org/ns#" xmlns:rdf="http://www.w3.org/1999/02/22-rdf-syntax-ns#">
   <cc:Work>
    <dc:type rdf:resource="http://purl.org/dc/dcmitype/StillImage"/>
    <dc:date>2026-03-24T15:10:07.571767</dc:date>
    <dc:format>image/svg+xml</dc:format>
    <dc:creator>
     <cc:Agent>
      <dc:title>Matplotlib v3.10.8, https://matplotlib.org/</dc:title>
     </cc:Agent>
    </dc:creator>
   </cc:Work>
  </rdf:RDF>
 </metadata>
 <defs>
  <style type="text/css">*{stroke-linejoin: round; stroke-linecap: butt}</style>
 </defs>
 <g id="figure_1">
  <g id="patch_1">
   <path d="M 0 351.034375 
L 640.46125 351.034375 
L 640.46125 0 
L 0 0 
z
" style="fill: #ffffff"/>
  </g>
  <g id="axes_1">
   <g id="patch_2">
    <path d="M 43.78125 313.478125 
L 633.26125 313.478125 
L 633.26125 22.318125 
L 43.78125 22.318125 
z
" style="fill: #ffffff"/>
   </g>
   <g id="matplotlib.axis_1">
    <g id="xtick_1">
     <g id="line2d_1">
      <defs>
       <path id="me013cd37b6" d="M 0 0 
L 0 3.5 
" style="stroke: #000000; stroke-width: 0.8"/>
      </defs>
      <g>
       <use xlink:href="#me013cd37b6" x="70.573336" y="313.478125" style="stroke: #000000; stroke-width: 0.8"/>
      </g>
     </g>
     <g id="text_1">
      <!-- 0 -->
      <g transform="translate(67.392086 328.076563) scale(0.1 -0.1)">
       <defs>
        <path id="DejaVuSans-30" d="M 2034 4250 
Q 1547 4250 1301 3770 
Q 1056 3291 1056 2328 
Q 1056 1369 1301 889 
Q 1547 409 2034 409 
Q 2525 409 2770 889 
Q 3016 1369 3016 2328 
Q 3016 3291 2770 3770 
Q 2525 4250 2034 4250 
z
M 2034 4750 
Q 2819 4750 3233 4129 
Q 3647 3509 3647 2328 
Q 3647 1150 3233 529 
Q 2819 -91 2034 -91 
Q 1250 -91 836 529 
Q 422 1150 422 2328 
Q 422 3509 836 4129 
Q 1250 4750 2034 4750 
z
" transform="scale(0.015625)"/>
       </defs>
       <use xlink:href="#DejaVuSans-30"/>
      </g>
     </g>
    </g>
    <g id="xtick_2">
     <g id="line2d_2">
      <g>
       <use xlink:href="#me013cd37b6" x="141.398848" y="313.478125" style="stroke: #000000; stroke-width: 0.8"/>
      </g>
     </g>
     <g id="text_2">
      <!-- 20 -->
      <g transform="translate(135.036348 328.076563) scale(0.1 -0.1)">
       <defs>
        <path id="DejaVuSans-32" d="M 1228 531 
L 3431 531 
L 3431 0 
L 469 0 
L 469 531 
Q 828 903 1448 1529 
Q 2069 2156 2228 2338 
Q 2531 2678 2651 2914 
Q 2772 3150 2772 3378 
Q 2772 3750 2511 3984 
Q 2250 4219 1831 4219 
Q 1534 4219 1204 4116 
Q 875 4013 500 3803 
L 500 4441 
Q 881 4594 1212 4672 
Q 1544 4750 1819 4750 
Q 2544 4750 2975 4387 
Q 3406 4025 3406 3419 
Q 3406 3131 3298 2873 
Q 3191 2616 2906 2266 
Q 2828 2175 2409 1742 
Q 1991 1309 1228 531 
z
" transform="scale(0.015625)"/>
       </defs>
       <use xlink:href="#DejaVuSans-32"/>
       <use xlink:href="#DejaVuSans-30" transform="translate(63.623047 0)"/>
      </g>
     </g>
    </g>
    <g id="xtick_3">
     <g id="line2d_3">
      <g>
       <use xlink:href="#me013cd37b6" x="212.224361" y="313.478125" style="stroke: #000000; stroke-width: 0.8"/>
      </g>
     </g>
     <g id="text_3">
      <!-- 40 -->
      <g transform="translate(205.861861 328.076563) scale(0.1 -0.1)">
       <defs>
        <path id="DejaVuSans-34" d="M 2419 4116 
L 825 1625 
L 2419 1625 
L 2419 4116 
z
M 2253 4666 
L 3047 4666 
L 3047 1625 
L 3713 1625 
L 3713 1100 
L 3047 1100 
L 3047 0 
L 2419 0 
L 2419 1100 
L 313 1100 
L 313 1709 
L 2253 4666 
z
" transform="scale(0.015625)"/>
       </defs>
       <use xlink:href="#DejaVuSans-34"/>
       <use xlink:href="#DejaVuSans-30" transform="translate(63.623047 0)"/>
      </g>
     </g>
    </g>
    <g id="xtick_4">
     <g id="line2d_4">
      <g>
       <use xlink:href="#me013cd37b6" x="283.049873" y="313.478125" style="stroke: #000000; stroke-width: 0.8"/>
      </g>
     </g>
     <g id="text_4">
      <!-- 60 -->
      <g transform="translate(276.687373 328.076563) scale(0.1 -0.1)">
       <defs>
        <path id="DejaVuSans-36" d="M 2113 2584 
Q 1688 2584 1439 2293 
Q 1191 2003 1191 1497 
Q 1191 994 1439 701 
Q 1688 409 2113 409 
Q 2538 409 2786 701 
Q 3034 994 3034 1497 
Q 3034 2003 2786 2293 
Q 2538 2584 2113 2584 
z
M 3366 4563 
L 3366 3988 
Q 3128 4100 2886 4159 
Q 2644 4219 2406 4219 
Q 1781 4219 1451 3797 
Q 1122 3375 1075 2522 
Q 1259 2794 1537 2939 
Q 1816 3084 2150 3084 
Q 2853 3084 3261 2657 
Q 3669 2231 3669 1497 
Q 3669 778 3244 343 
Q 2819 -91 2113 -91 
Q 1303 -91 875 529 
Q 447 1150 447 2328 
Q 447 3434 972 4092 
Q 1497 4750 2381 4750 
Q 2619 4750 2861 4703 
Q 3103 4656 3366 4563 
z
" transform="scale(0.015625)"/>
       </defs>
       <use xlink:href="#DejaVuSans-36"/>
       <use xlink:href="#DejaVuSans-30" transform="translate(63.623047 0)"/>
      </g>
     </g>
    </g>
    <g id="xtick_5">
     <g id="line2d_5">
      <g>
       <use xlink:href="#me013cd37b6" x="353.875385" y="313.478125" style="stroke: #000000; stroke-width: 0.8"/>
      </g>
     </g>
     <g id="text_5">
      <!-- 80 -->
      <g transform="translate(347.512885 328.076563) scale(0.1 -0.1)">
       <defs>
        <path id="DejaVuSans-38" d="M 2034 2216 
Q 1584 2216 1326 1975 
Q 1069 1734 1069 1313 
Q 1069 891 1326 650 
Q 1584 409 2034 409 
Q 2484 409 2743 651 
Q 3003 894 3003 1313 
Q 3003 1734 2745 1975 
Q 2488 2216 2034 2216 
z
M 1403 2484 
Q 997 2584 770 2862 
Q 544 3141 544 3541 
Q 544 4100 942 4425 
Q 1341 4750 2034 4750 
Q 2731 4750 3128 4425 
Q 3525 4100 3525 3541 
Q 3525 3141 3298 2862 
Q 3072 2584 2669 2484 
Q 3125 2378 3379 2068 
Q 3634 1759 3634 1313 
Q 3634 634 3220 271 
Q 2806 -91 2034 -91 
Q 1263 -91 848 271 
Q 434 634 434 1313 
Q 434 1759 690 2068 
Q 947 2378 1403 2484 
z
M 1172 3481 
Q 1172 3119 1398 2916 
Q 1625 2713 2034 2713 
Q 2441 2713 2670 2916 
Q 2900 3119 2900 3481 
Q 2900 3844 2670 4047 
Q 2441 4250 2034 4250 
Q 1625 4250 1398 4047 
Q 1172 3844 1172 3481 
z
" transform="scale(0.015625)"/>
       </defs>
       <use xlink:href="#DejaVuSans-38"/>
       <use xlink:href="#DejaVuSans-30" transform="translate(63.623047 0)"/>
      </g>
     </g>
    </g>
    <g id="xtick_6">
     <g id="line2d_6">
      <g>
       <use xlink:href="#me013cd37b6" x="424.700897" y="313.478125" style="stroke: #000000; stroke-width: 0.8"/>
      </g>
     </g>
     <g id="text_6">
      <!-- 100 -->
      <g transform="translate(415.157147 328.076563) scale(0.1 -0.1)">
       <defs>
        <path id="DejaVuSans-31" d="M 794 531 
L 1825 531 
L 1825 4091 
L 703 3866 
L 703 4441 
L 1819 4666 
L 2450 4666 
L 2450 531 
L 3481 531 
L 3481 0 
L 794 0 
L 794 531 
z
" transform="scale(0.015625)"/>
       </defs>
       <use xlink:href="#DejaVuSans-31"/>
       <use xlink:href="#DejaVuSans-30" transform="translate(63.623047 0)"/>
       <use xlink:href="#DejaVuSans-30" transform="translate(127.246094 0)"/>
      </g>
     </g>
    </g>
    <g id="xtick_7">
     <g id="line2d_7">
      <g>
       <use xlink:href="#me013cd37b6" x="495.526409" y="313.478125" style="stroke: #000000; stroke-width: 0.8"/>
      </g>
     </g>
     <g id="text_7">
      <!-- 120 -->
      <g transform="translate(485.982659 328.076563) scale(0.1 -0.1)">
       <use xlink:href="#DejaVuSans-31"/>
       <use xlink:href="#DejaVuSans-32" transform="translate(63.623047 0)"/>
       <use xlink:href="#DejaVuSans-30" transform="translate(127.246094 0)"/>
      </g>
     </g>
    </g>
    <g id="xtick_8">
     <g id="line2d_8">
      <g>
       <use xlink:href="#me013cd37b6" x="566.351921" y="313.478125" style="stroke: #000000; stroke-width: 0.8"/>
      </g>
     </g>
     <g id="text_8">
      <!-- 140 -->
      <g transform="translate(556.808171 328.076563) scale(0.1 -0.1)">
       <use xlink:href="#DejaVuSans-31"/>
       <use xlink:href="#DejaVuSans-34" transform="translate(63.623047 0)"/>
       <use xlink:href="#DejaVuSans-30" transform="translate(127.246094 0)"/>
      </g>
     </g>
    </g>
    <g id="text_9">
     <!-- Cycle Time (days) -->
     <g transform="translate(293.74 341.754687) scale(0.1 -0.1)">
      <defs>
       <path id="DejaVuSans-43" d="M 4122 4306 
L 4122 3641 
Q 3803 3938 3442 4084 
Q 3081 4231 2675 4231 
Q 1875 4231 1450 3742 
Q 1025 3253 1025 2328 
Q 1025 1406 1450 917 
Q 1875 428 2675 428 
Q 3081 428 3442 575 
Q 3803 722 4122 1019 
L 4122 359 
Q 3791 134 3420 21 
Q 3050 -91 2638 -91 
Q 1578 -91 968 557 
Q 359 1206 359 2328 
Q 359 3453 968 4101 
Q 1578 4750 2638 4750 
Q 3056 4750 3426 4639 
Q 3797 4528 4122 4306 
z
" transform="scale(0.015625)"/>
       <path id="DejaVuSans-79" d="M 2059 -325 
Q 1816 -950 1584 -1140 
Q 1353 -1331 966 -1331 
L 506 -1331 
L 506 -850 
L 844 -850 
Q 1081 -850 1212 -737 
Q 1344 -625 1503 -206 
L 1606 56 
L 191 3500 
L 800 3500 
L 1894 763 
L 2988 3500 
L 3597 3500 
L 2059 -325 
z
" transform="scale(0.015625)"/>
       <path id="DejaVuSans-63" d="M 3122 3366 
L 3122 2828 
Q 2878 2963 2633 3030 
Q 2388 3097 2138 3097 
Q 1578 3097 1268 2742 
Q 959 2388 959 1747 
Q 959 1106 1268 751 
Q 1578 397 2138 397 
Q 2388 397 2633 464 
Q 2878 531 3122 666 
L 3122 134 
Q 2881 22 2623 -34 
Q 2366 -91 2075 -91 
Q 1284 -91 818 406 
Q 353 903 353 1747 
Q 353 2603 823 3093 
Q 1294 3584 2113 3584 
Q 2378 3584 2631 3529 
Q 2884 3475 3122 3366 
z
" transform="scale(0.015625)"/>
       <path id="DejaVuSans-6c" d="M 603 4863 
L 1178 4863 
L 1178 0 
L 603 0 
L 603 4863 
z
" transform="scale(0.015625)"/>
       <path id="DejaVuSans-65" d="M 3597 1894 
L 3597 1613 
L 953 1613 
Q 991 1019 1311 708 
Q 1631 397 2203 397 
Q 2534 397 2845 478 
Q 3156 559 3463 722 
L 3463 178 
Q 3153 47 2828 -22 
Q 2503 -91 2169 -91 
Q 1331 -91 842 396 
Q 353 884 353 1716 
Q 353 2575 817 3079 
Q 1281 3584 2069 3584 
Q 2775 3584 3186 3129 
Q 3597 2675 3597 1894 
z
M 3022 2063 
Q 3016 2534 2758 2815 
Q 2500 3097 2075 3097 
Q 1594 3097 1305 2825 
Q 1016 2553 972 2059 
L 3022 2063 
z
" transform="scale(0.015625)"/>
       <path id="DejaVuSans-20" transform="scale(0.015625)"/>
       <path id="DejaVuSans-54" d="M -19 4666 
L 3928 4666 
L 3928 4134 
L 2272 4134 
L 2272 0 
L 1638 0 
L 1638 4134 
L -19 4134 
L -19 4666 
z
" transform="scale(0.015625)"/>
       <path id="DejaVuSans-69" d="M 603 3500 
L 1178 3500 
L 1178 0 
L 603 0 
L 603 3500 
z
M 603 4863 
L 1178 4863 
L 1178 4134 
L 603 4134 
L 603 4863 
z
" transform="scale(0.015625)"/>
       <path id="DejaVuSans-6d" d="M 3328 2828 
Q 3544 3216 3844 3400 
Q 4144 3584 4550 3584 
Q 5097 3584 5394 3201 
Q 5691 2819 5691 2113 
L 5691 0 
L 5113 0 
L 5113 2094 
Q 5113 2597 4934 2840 
Q 4756 3084 4391 3084 
Q 3944 3084 3684 2787 
Q 3425 2491 3425 1978 
L 3425 0 
L 2847 0 
L 2847 2094 
Q 2847 2600 2669 2842 
Q 2491 3084 2119 3084 
Q 1678 3084 1418 2786 
Q 1159 2488 1159 1978 
L 1159 0 
L 581 0 
L 581 3500 
L 1159 3500 
L 1159 2956 
Q 1356 3278 1631 3431 
Q 1906 3584 2284 3584 
Q 2666 3584 2933 3390 
Q 3200 3197 3328 2828 
z
" transform="scale(0.015625)"/>
       <path id="DejaVuSans-28" d="M 1984 4856 
Q 1566 4138 1362 3434 
Q 1159 2731 1159 2009 
Q 1159 1288 1364 580 
Q 1569 -128 1984 -844 
L 1484 -844 
Q 1016 -109 783 600 
Q 550 1309 550 2009 
Q 550 2706 781 3412 
Q 1013 4119 1484 4856 
L 1984 4856 
z
" transform="scale(0.015625)"/>
       <path id="DejaVuSans-64" d="M 2906 2969 
L 2906 4863 
L 3481 4863 
L 3481 0 
L 2906 0 
L 2906 525 
Q 2725 213 2448 61 
Q 2172 -91 1784 -91 
Q 1150 -91 751 415 
Q 353 922 353 1747 
Q 353 2572 751 3078 
Q 1150 3584 1784 3584 
Q 2172 3584 2448 3432 
Q 2725 3281 2906 2969 
z
M 947 1747 
Q 947 1113 1208 752 
Q 1469 391 1925 391 
Q 2381 391 2643 752 
Q 2906 1113 2906 1747 
Q 2906 2381 2643 2742 
Q 2381 3103 1925 3103 
Q 1469 3103 1208 2742 
Q 947 2381 947 1747 
z
" transform="scale(0.015625)"/>
       <path id="DejaVuSans-61" d="M 2194 1759 
Q 1497 1759 1228 1600 
Q 959 1441 959 1056 
Q 959 750 1161 570 
Q 1363 391 1709 391 
Q 2188 391 2477 730 
Q 2766 1069 2766 1631 
L 2766 1759 
L 2194 1759 
z
M 3341 1997 
L 3341 0 
L 2766 0 
L 2766 531 
Q 2569 213 2275 61 
Q 1981 -91 1556 -91 
Q 1019 -91 701 211 
Q 384 513 384 1019 
Q 384 1609 779 1909 
Q 1175 2209 1959 2209 
L 2766 2209 
L 2766 2266 
Q 2766 2663 2505 2880 
Q 2244 3097 1772 3097 
Q 1472 3097 1187 3025 
Q 903 2953 641 2809 
L 641 3341 
Q 956 3463 1253 3523 
Q 1550 3584 1831 3584 
Q 2591 3584 2966 3190 
Q 3341 2797 3341 1997 
z
" transform="scale(0.015625)"/>
       <path id="DejaVuSans-73" d="M 2834 3397 
L 2834 2853 
Q 2591 2978 2328 3040 
Q 2066 3103 1784 3103 
Q 1356 3103 1142 2972 
Q 928 2841 928 2578 
Q 928 2378 1081 2264 
Q 1234 2150 1697 2047 
L 1894 2003 
Q 2506 1872 2764 1633 
Q 3022 1394 3022 966 
Q 3022 478 2636 193 
Q 2250 -91 1575 -91 
Q 1294 -91 989 -36 
Q 684 19 347 128 
L 347 722 
Q 666 556 975 473 
Q 1284 391 1588 391 
Q 1994 391 2212 530 
Q 2431 669 2431 922 
Q 2431 1156 2273 1281 
Q 2116 1406 1581 1522 
L 1381 1569 
Q 847 1681 609 1914 
Q 372 2147 372 2553 
Q 372 3047 722 3315 
Q 1072 3584 1716 3584 
Q 2034 3584 2315 3537 
Q 2597 3491 2834 3397 
z
" transform="scale(0.015625)"/>
       <path id="DejaVuSans-29" d="M 513 4856 
L 1013 4856 
Q 1481 4119 1714 3412 
Q 1947 2706 1947 2009 
Q 1947 1309 1714 600 
Q 1481 -109 1013 -844 
L 513 -844 
Q 928 -128 1133 580 
Q 1338 1288 1338 2009 
Q 1338 2731 1133 3434 
Q 928 4138 513 4856 
z
" transform="scale(0.015625)"/>
      </defs>
      <use xlink:href="#DejaVuSans-43"/>
      <use xlink:href="#DejaVuSans-79" transform="translate(69.824219 0)"/>
      <use xlink:href="#DejaVuSans-63" transform="translate(129.003906 0)"/>
      <use xlink:href="#DejaVuSans-6c" transform="translate(183.984375 0)"/>
      <use xlink:href="#DejaVuSans-65" transform="translate(211.767578 0)"/>
      <use xlink:href="#DejaVuSans-20" transform="translate(273.291016 0)"/>
      <use xlink:href="#DejaVuSans-54" transform="translate(305.078125 0)"/>
      <use xlink:href="#DejaVuSans-69" transform="translate(363.037109 0)"/>
      <use xlink:href="#DejaVuSans-6d" transform="translate(390.820312 0)"/>
      <use xlink:href="#DejaVuSans-65" transform="translate(488.232422 0)"/>
      <use xlink:href="#DejaVuSans-20" transform="translate(549.755859 0)"/>
      <use xlink:href="#DejaVuSans-28" transform="translate(581.542969 0)"/>
      <use xlink:href="#DejaVuSans-64" transform="translate(620.556641 0)"/>
      <use xlink:href="#DejaVuSans-61" transform="translate(684.033203 0)"/>
      <use xlink:href="#DejaVuSans-79" transform="translate(745.3125 0)"/>
      <use xlink:href="#DejaVuSans-73" transform="translate(804.492188 0)"/>
      <use xlink:href="#DejaVuSans-29" transform="translate(856.591797 0)"/>
     </g>
    </g>
   </g>
   <g id="matplotlib.axis_2">
    <g id="ytick_1">
     <g id="line2d_9">
      <defs>
       <path id="m14eba2574f" d="M 0 0 
L -3.5 0 
" style="stroke: #000000; stroke-width: 0.8"/>
      </defs>
      <g>
       <use xlink:href="#m14eba2574f" x="43.78125" y="300.275816" style="stroke: #000000; stroke-width: 0.8"/>
      </g>
     </g>
     <g id="text_10">
      <!-- 0.0 -->
      <g transform="translate(20.878125 304.075034) scale(0.1 -0.1)">
       <defs>
        <path id="DejaVuSans-2e" d="M 684 794 
L 1344 794 
L 1344 0 
L 684 0 
L 684 794 
z
" transform="scale(0.015625)"/>
       </defs>
       <use xlink:href="#DejaVuSans-30"/>
       <use xlink:href="#DejaVuSans-2e" transform="translate(63.623047 0)"/>
       <use xlink:href="#DejaVuSans-30" transform="translate(95.410156 0)"/>
      </g>
     </g>
    </g>
    <g id="ytick_2">
     <g id="line2d_10">
      <g>
       <use xlink:href="#m14eba2574f" x="43.78125" y="244.539537" style="stroke: #000000; stroke-width: 0.8"/>
      </g>
     </g>
     <g id="text_11">
      <!-- 0.2 -->
      <g transform="translate(20.878125 248.338756) scale(0.1 -0.1)">
       <use xlink:href="#DejaVuSans-30"/>
       <use xlink:href="#DejaVuSans-2e" transform="translate(63.623047 0)"/>
       <use xlink:href="#DejaVuSans-32" transform="translate(95.410156 0)"/>
      </g>
     </g>
    </g>
    <g id="ytick_3">
     <g id="line2d_11">
      <g>
       <use xlink:href="#m14eba2574f" x="43.78125" y="188.803259" style="stroke: #000000; stroke-width: 0.8"/>
      </g>
     </g>
     <g id="text_12">
      <!-- 0.4 -->
      <g transform="translate(20.878125 192.602478) scale(0.1 -0.1)">
       <use xlink:href="#DejaVuSans-30"/>
       <use xlink:href="#DejaVuSans-2e" transform="translate(63.623047 0)"/>
       <use xlink:href="#DejaVuSans-34" transform="translate(95.410156 0)"/>
      </g>
     </g>
    </g>
    <g id="ytick_4">
     <g id="line2d_12">
      <g>
       <use xlink:href="#m14eba2574f" x="43.78125" y="133.066981" style="stroke: #000000; stroke-width: 0.8"/>
      </g>
     </g>
     <g id="text_13">
      <!-- 0.6 -->
      <g transform="translate(20.878125 136.866199) scale(0.1 -0.1)">
       <use xlink:href="#DejaVuSans-30"/>
       <use xlink:href="#DejaVuSans-2e" transform="translate(63.623047 0)"/>
       <use xlink:href="#DejaVuSans-36" transform="translate(95.410156 0)"/>
      </g>
     </g>
    </g>
    <g id="ytick_5">
     <g id="line2d_13">
      <g>
       <use xlink:href="#m14eba2574f" x="43.78125" y="77.330702" style="stroke: #000000; stroke-width: 0.8"/>
      </g>
     </g>
     <g id="text_14">
      <!-- 0.8 -->
      <g transform="translate(20.878125 81.129921) scale(0.1 -0.1)">
       <use xlink:href="#DejaVuSans-30"/>
       <use xlink:href="#DejaVuSans-2e" transform="translate(63.623047 0)"/>
       <use xlink:href="#DejaVuSans-38" transform="translate(95.410156 0)"/>
      </g>
     </g>
    </g>
    <g id="text_15">
     <!-- Cumulative proportion -->
     <g transform="translate(14.798438 224.067656) rotate(-90) scale(0.1 -0.1)">
      <defs>
       <path id="DejaVuSans-75" d="M 544 1381 
L 544 3500 
L 1119 3500 
L 1119 1403 
Q 1119 906 1312 657 
Q 1506 409 1894 409 
Q 2359 409 2629 706 
Q 2900 1003 2900 1516 
L 2900 3500 
L 3475 3500 
L 3475 0 
L 2900 0 
L 2900 538 
Q 2691 219 2414 64 
Q 2138 -91 1772 -91 
Q 1169 -91 856 284 
Q 544 659 544 1381 
z
M 1991 3584 
L 1991 3584 
z
" transform="scale(0.015625)"/>
       <path id="DejaVuSans-74" d="M 1172 4494 
L 1172 3500 
L 2356 3500 
L 2356 3053 
L 1172 3053 
L 1172 1153 
Q 1172 725 1289 603 
Q 1406 481 1766 481 
L 2356 481 
L 2356 0 
L 1766 0 
Q 1100 0 847 248 
Q 594 497 594 1153 
L 594 3053 
L 172 3053 
L 172 3500 
L 594 3500 
L 594 4494 
L 1172 4494 
z
" transform="scale(0.015625)"/>
       <path id="DejaVuSans-76" d="M 191 3500 
L 800 3500 
L 1894 563 
L 2988 3500 
L 3597 3500 
L 2284 0 
L 1503 0 
L 191 3500 
z
" transform="scale(0.015625)"/>
       <path id="DejaVuSans-70" d="M 1159 525 
L 1159 -1331 
L 581 -1331 
L 581 3500 
L 1159 3500 
L 1159 2969 
Q 1341 3281 1617 3432 
Q 1894 3584 2278 3584 
Q 2916 3584 3314 3078 
Q 3713 2572 3713 1747 
Q 3713 922 3314 415 
Q 2916 -91 2278 -91 
Q 1894 -91 1617 61 
Q 1341 213 1159 525 
z
M 3116 1747 
Q 3116 2381 2855 2742 
Q 2594 3103 2138 3103 
Q 1681 3103 1420 2742 
Q 1159 2381 1159 1747 
Q 1159 1113 1420 752 
Q 1681 391 2138 391 
Q 2594 391 2855 752 
Q 3116 1113 3116 1747 
z
" transform="scale(0.015625)"/>
       <path id="DejaVuSans-72" d="M 2631 2963 
Q 2534 3019 2420 3045 
Q 2306 3072 2169 3072 
Q 1681 3072 1420 2755 
Q 1159 2438 1159 1844 
L 1159 0 
L 581 0 
L 581 3500 
L 1159 3500 
L 1159 2956 
Q 1341 3275 1631 3429 
Q 1922 3584 2338 3584 
Q 2397 3584 2469 3576 
Q 2541 3569 2628 3553 
L 2631 2963 
z
" transform="scale(0.015625)"/>
       <path id="DejaVuSans-6f" d="M 1959 3097 
Q 1497 3097 1228 2736 
Q 959 2375 959 1747 
Q 959 1119 1226 758 
Q 1494 397 1959 397 
Q 2419 397 2687 759 
Q 2956 1122 2956 1747 
Q 2956 2369 2687 2733 
Q 2419 3097 1959 3097 
z
M 1959 3584 
Q 2709 3584 3137 3096 
Q 3566 2609 3566 1747 
Q 3566 888 3137 398 
Q 2709 -91 1959 -91 
Q 1206 -91 779 398 
Q 353 888 353 1747 
Q 353 2609 779 3096 
Q 1206 3584 1959 3584 
z
" transform="scale(0.015625)"/>
       <path id="DejaVuSans-6e" d="M 3513 2113 
L 3513 0 
L 2938 0 
L 2938 2094 
Q 2938 2591 2744 2837 
Q 2550 3084 2163 3084 
Q 1697 3084 1428 2787 
Q 1159 2491 1159 1978 
L 1159 0 
L 581 0 
L 581 3500 
L 1159 3500 
L 1159 2956 
Q 1366 3272 1645 3428 
Q 1925 3584 2291 3584 
Q 2894 3584 3203 3211 
Q 3513 2838 3513 2113 
z
" transform="scale(0.015625)"/>
      </defs>
      <use xlink:href="#DejaVuSans-43"/>
      <use xlink:href="#DejaVuSans-75" transform="translate(69.824219 0)"/>
      <use xlink:href="#DejaVuSans-6d" transform="translate(133.203125 0)"/>
      <use xlink:href="#DejaVuSans-75" transform="translate(230.615234 0)"/>
      <use xlink:href="#DejaVuSans-6c" transform="translate(293.994141 0)"/>
      <use xlink:href="#DejaVuSans-61" transform="translate(321.777344 0)"/>
      <use xlink:href="#DejaVuSans-74" transform="translate(383.056641 0)"/>
      <use xlink:href="#DejaVuSans-69" transform="translate(422.265625 0)"/>
      <use xlink:href="#DejaVuSans-76" transform="translate(450.048828 0)"/>
      <use xlink:href="#DejaVuSans-65" transform="translate(509.228516 0)"/>
      <use xlink:href="#DejaVuSans-20" transform="translate(570.751953 0)"/>
      <use xlink:href="#DejaVuSans-70" transform="translate(602.539062 0)"/>
      <use xlink:href="#DejaVuSans-72" transform="translate(666.015625 0)"/>
      <use xlink:href="#DejaVuSans-6f" transform="translate(704.878906 0)"/>
      <use xlink:href="#DejaVuSans-70" transform="translate(766.060547 0)"/>
      <use xlink:href="#DejaVuSans-6f" transform="translate(829.537109 0)"/>
      <use xlink:href="#DejaVuSans-72" transform="translate(890.71875 0)"/>
      <use xlink:href="#DejaVuSans-74" transform="translate(931.832031 0)"/>
      <use xlink:href="#DejaVuSans-69" transform="translate(971.041016 0)"/>
      <use xlink:href="#DejaVuSans-6f" transform="translate(998.824219 0)"/>
      <use xlink:href="#DejaVuSans-6e" transform="translate(1060.005859 0)"/>
     </g>
    </g>
   </g>
   <g id="line2d_14">
    <path d="M 70.575795 300.24358 
L 70.68646 250.535459 
L 70.696297 248.955888 
L 70.806962 235.191058 
L 70.824177 233.514779 
L 70.934841 223.392632 
L 70.956974 221.651881 
L 71.067639 214.076389 
L 71.114364 212.013277 
L 71.225029 206.468661 
L 71.269295 204.437785 
L 71.37996 199.828017 
L 71.522595 196.507695 
L 71.63326 194.702472 
L 71.957877 191.768983 
L 72.048868 191.38215 
L 72.240687 190.221649 
L 72.38824 189.54469 
L 72.486609 189.190093 
L 72.685806 188.674314 
L 73.180109 184.70927 
L 73.58588 177.939681 
L 73.694085 176.134458 
L 73.726055 175.521971 
L 73.83672 172.749663 
L 73.944926 169.880647 
L 74.055591 166.850451 
L 74.200685 163.497892 
L 74.311349 161.144655 
L 74.350697 160.177571 
L 74.461362 157.985513 
L 75.201587 149.571882 
L 75.250771 149.346229 
L 75.344221 149.120576 
L 75.553255 148.66927 
L 75.619654 148.572562 
L 75.836065 148.379145 
L 75.924597 148.153492 
L 76.175438 147.766658 
L 76.298398 147.541005 
L 76.406604 147.347589 
L 76.529565 147.121936 
L 76.758272 146.25156 
L 76.832049 145.993671 
L 77.382914 141.674029 
L 77.493579 140.223403 
L 78.014933 134.74326 
L 78.142813 134.098537 
L 78.583013 131.938716 
L 79.175685 130.842687 
L 79.428984 130.64927 
L 79.549486 130.584798 
L 80.001983 130.262437 
L 80.48153 128.328269 
L 80.722534 126.587517 
L 80.840576 125.588197 
L 81.076661 123.944154 
L 81.189785 123.202723 
L 81.295532 122.332347 
L 81.337339 121.913278 
L 81.593097 119.979109 
L 82.397262 116.916677 
L 83.479318 116.368662 
L 83.626872 116.078537 
L 83.715403 115.88512 
L 83.961325 115.208161 
L 84.054776 115.046981 
L 85.343407 107.278072 
L 85.407346 107.020183 
L 85.611461 106.310988 
L 85.714749 105.988627 
L 86.516454 105.118251 
L 87.468172 103.828806 
L 88.178886 101.12097 
L 88.383001 99.638108 
L 88.424808 99.444691 
L 88.533014 98.735496 
L 88.931407 97.478287 
L 89.241269 96.672383 
L 89.361771 96.511203 
L 89.600315 96.28555 
L 89.674092 96.059897 
L 90.456123 95.705299 
L 90.74877 95.44741 
L 90.93813 95.028341 
L 91.048795 94.577035 
L 91.4103 93.319825 
L 91.518506 92.513922 
L 92.302997 88.097571 
L 92.7973 86.35682 
L 92.994037 86.066695 
L 93.119458 85.969986 
L 93.36538 85.77657 
L 93.36538 85.744334 
L 93.694915 85.583153 
L 93.697374 85.550917 
L 94.049042 85.389736 
L 94.381037 84.906194 
L 94.452354 84.551597 
L 95.372102 80.038538 
L 95.618024 78.201078 
L 95.69426 77.782008 
L 95.804925 77.137285 
L 96.4517 75.396534 
L 96.727132 75.235353 
L 97.036994 74.880756 
L 97.543593 74.719575 
L 97.917394 74.397214 
L 98.091999 74.01038 
L 98.21496 73.8492 
L 98.337921 73.59131 
L 98.473178 73.397894 
L 98.571547 73.107768 
L 98.701885 72.849879 
L 98.962562 72.043976 
L 99.073227 71.270309 
L 99.375711 70.399933 
L 99.491294 70.013099 
L 99.5995 69.658502 
L 100.13561 68.981543 
L 100.455308 68.723654 
L 101.399649 68.562473 
L 101.997239 67.692098 
L 102.071015 67.466445 
L 102.147251 67.273028 
L 103.047325 65.532277 
L 103.18996 65.33886 
L 103.549006 64.91979 
L 104.948302 64.532956 
L 105.5213 64.146123 
L 105.988552 63.179039 
L 106.109053 62.888913 
L 106.320546 62.598788 
L 106.418915 62.437608 
L 106.625489 62.276427 
L 106.755828 62.179718 
L 106.871411 61.986302 
L 108.467444 61.696176 
L 109.347845 61.019218 
L 109.586389 60.567912 
L 110.051182 59.375175 
L 110.265134 59.149522 
L 110.599587 58.794924 
L 110.946337 58.698216 
L 112.025935 58.504799 
L 112.025935 58.472563 
L 112.242346 58.343618 
L 112.330878 58.24691 
L 112.522697 58.053493 
L 112.645658 57.860076 
L 112.849773 57.505479 
L 112.955519 57.312062 
L 113.093236 57.021937 
L 113.223574 56.82852 
L 113.48917 56.40945 
L 113.555569 56.280506 
L 113.735092 56.119325 
L 113.860512 55.893672 
L 114.438429 55.571311 
L 115.067989 55.41013 
L 115.542618 55.216713 
L 115.800836 55.023296 
L 116.870596 53.443726 
L 117.123896 52.960184 
L 117.844447 52.412169 
L 119.037168 52.122044 
L 119.226528 51.864155 
L 119.438021 51.606266 
L 119.683943 51.187196 
L 119.797067 51.026016 
L 120.033152 50.542473 
L 120.146276 50.349057 
L 120.293829 50.187876 
L 120.411872 49.833279 
L 120.507782 49.704334 
L 120.925849 48.898431 
L 121.570164 48.221472 
L 121.975935 48.060291 
L 122.674354 47.931347 
L 123.222759 47.673457 
L 123.628531 47.286624 
L 123.781002 47.093207 
L 124.149885 46.641901 
L 124.258091 46.512957 
L 124.683536 46.31954 
L 125.062255 46.093887 
L 125.728704 45.932706 
L 126.360723 45.803762 
L 126.864863 45.4814 
L 127.177184 45.126803 
L 127.44278 44.965622 
L 127.624762 44.739969 
L 128.052666 44.514316 
L 130.278259 44.06301 
L 130.452864 43.934066 
L 130.883227 43.708413 
L 131.689851 43.353815 
L 132.366136 43.192635 
L 132.380892 43.160398 
L 133.369498 42.966982 
L 133.381794 42.902509 
L 134.350726 42.64462 
L 134.476146 42.515676 
L 134.835192 42.354495 
L 135.890197 41.967661 
L 137.306708 41.806481 
L 138.177271 41.484119 
L 138.337121 41.322939 
L 139.057672 41.06505 
L 140.105299 40.936105 
L 140.112677 40.903869 
L 140.550418 40.742688 
L 140.759451 40.64598 
L 142.217768 39.711132 
L 142.817818 39.614424 
L 143.995784 39.388771 
L 144.524516 39.098645 
L 144.536812 39.066409 
L 144.812245 38.905229 
L 145.247526 38.292742 
L 145.498367 38.099325 
L 145.86479 37.905908 
L 147.81987 37.454602 
L 147.827247 37.422366 
L 148.279744 37.22895 
L 148.432215 37.100005 
L 148.766669 36.938824 
L 148.899467 36.80988 
L 149.32983 36.648699 
L 151.324257 36.455282 
L 152.69896 35.778323 
L 154.354015 35.55267 
L 154.354015 35.55267 
" clip-path="url(#pe100b82f8b)" style="fill: none; stroke: #1f77b4; stroke-width: 1.5; stroke-linecap: square"/>
   </g>
   <g id="line2d_15">
    <path d="M 70.575795 298.997461 
L 70.68646 273.43036 
L 70.809421 265.76023 
L 70.959434 259.368455 
L 71.1906 255.53339 
L 71.370123 254.255035 
L 71.552105 250.41997 
L 71.625882 249.141615 
L 72.240687 247.86326 
L 72.29233 245.30655 
L 72.717775 244.028195 
L 72.825981 242.74984 
L 73.155516 241.471485 
L 73.30061 240.19313 
L 73.330121 238.914775 
L 73.512103 237.63642 
L 73.844098 236.358065 
L 73.93263 235.07971 
L 74.139204 233.801355 
L 74.235114 231.244645 
L 75.115514 222.29616 
L 75.909842 221.017805 
L 77.004194 219.73945 
L 77.316515 218.461095 
L 77.466528 215.904385 
L 77.700153 214.62603 
L 78.132976 213.347675 
L 78.132976 212.06932 
L 78.297744 210.790965 
L 81.140601 209.51261 
L 81.556209 206.9559 
L 82.102156 205.677545 
L 84.490058 204.39919 
L 84.79746 201.84248 
L 85.311437 200.564125 
L 85.350784 199.28577 
L 87.404232 198.007415 
L 88.274796 196.72906 
L 88.432186 192.893995 
L 88.582198 191.61564 
L 88.936326 190.337285 
L 88.951081 189.05893 
L 89.369148 187.780575 
L 90.554492 186.50222 
L 91.294717 185.223865 
L 91.334064 183.94551 
L 91.587364 182.667155 
L 91.597201 181.3888 
L 91.798857 180.110445 
L 91.801316 178.83209 
L 92.371855 174.997025 
L 92.519408 173.71867 
L 92.544 172.440315 
L 92.89075 171.16196 
L 94.65647 169.883605 
L 95.047485 168.60525 
L 95.391776 166.04854 
L 95.69426 162.213475 
L 96.242666 160.93512 
L 97.285375 159.656765 
L 98.013304 158.37841 
L 99.051094 157.100055 
L 99.324068 155.8217 
L 99.842963 154.543345 
L 101.485721 153.26499 
L 101.564416 151.986635 
L 102.250538 150.70828 
L 102.30956 149.429925 
L 102.530889 148.15157 
L 102.533349 146.873215 
L 102.648932 145.59486 
L 103.807224 144.316505 
L 104.616307 143.03815 
L 104.977812 141.759795 
L 105.941826 140.48144 
L 106.027899 139.203085 
L 110.454494 137.92473 
L 110.484004 136.646375 
L 115.25243 134.089665 
L 115.992655 131.532955 
L 117.148488 130.2546 
L 119.706076 128.976244 
L 120.087255 125.141179 
L 120.805347 123.862824 
L 122.947327 122.584469 
L 123.399823 121.306114 
L 123.571969 120.027759 
L 123.901504 118.749404 
L 124.002332 117.471049 
L 125.797562 116.192694 
L 125.849206 114.914339 
L 131.089802 113.635984 
L 132.371055 112.357629 
L 134.188418 111.079274 
L 136.38696 109.800919 
L 137.793633 108.522564 
L 138.187108 107.244209 
L 138.383846 105.965854 
L 144.649936 104.687499 
L 144.883562 103.409144 
L 144.954879 102.130789 
L 145.540173 100.852434 
L 147.03046 99.574079 
L 147.780522 98.295724 
L 148.301877 97.017369 
L 148.355979 95.739014 
L 155.50493 94.460659 
L 164.990138 93.182304 
L 166.426322 91.903949 
L 169.510183 90.625594 
L 170.513544 89.347239 
L 174.182699 88.068884 
L 186.90424 86.790529 
L 187.656761 85.512174 
L 191.271813 84.233819 
L 193.937607 82.955464 
L 194.564708 81.677109 
L 194.707342 80.398754 
L 198.098606 79.120399 
L 201.937447 77.842044 
L 205.009012 76.563689 
L 212.381751 75.285334 
L 215.227067 74.006979 
L 216.129601 72.728624 
L 225.656616 71.450269 
L 226.33536 70.171914 
L 229.554478 68.893559 
L 237.212487 67.615204 
L 241.078379 66.336849 
L 247.334633 65.058494 
L 258.369149 63.780139 
L 261.698932 62.501784 
L 262.016171 61.223429 
L 285.142668 59.945074 
L 335.928003 58.666719 
L 336.552645 57.388364 
L 364.292637 54.831654 
L 367.258456 53.553299 
L 371.758827 52.274944 
L 378.450362 50.996589 
L 382.001475 49.718234 
L 400.226748 48.439879 
L 413.373734 47.161524 
L 489.208675 45.883169 
L 510.648148 44.604814 
L 523.603315 42.048104 
L 562.520458 40.769749 
L 562.567183 39.491394 
L 573.483657 38.213039 
L 575.116579 36.934684 
L 606.466705 35.656329 
L 606.466705 35.656329 
" clip-path="url(#pe100b82f8b)" style="fill: none; stroke: #ff7f0e; stroke-width: 1.5; stroke-linecap: square"/>
   </g>
   <g id="patch_3">
    <path d="M 43.78125 313.478125 
L 43.78125 22.318125 
" style="fill: none; stroke: #000000; stroke-width: 0.8; stroke-linejoin: miter; stroke-linecap: square"/>
   </g>
   <g id="patch_4">
    <path d="M 633.26125 313.478125 
L 633.26125 22.318125 
" style="fill: none; stroke: #000000; stroke-width: 0.8; stroke-linejoin: miter; stroke-linecap: square"/>
   </g>
   <g id="patch_5">
    <path d="M 43.78125 313.478125 
L 633.26125 313.478125 
" style="fill: none; stroke: #000000; stroke-width: 0.8; stroke-linejoin: miter; stroke-linecap: square"/>
   </g>
   <g id="patch_6">
    <path d="M 43.78125 22.318125 
L 633.26125 22.318125 
" style="fill: none; stroke: #000000; stroke-width: 0.8; stroke-linejoin: miter; stroke-linecap: square"/>
   </g>
   <g id="text_16">
    <!-- ECDF of Cycle Time for CT2 (capped at project 95th percentile) -->
    <g transform="translate(149.195 16.318125) scale(0.12 -0.12)">
     <defs>
      <path id="DejaVuSans-45" d="M 628 4666 
L 3578 4666 
L 3578 4134 
L 1259 4134 
L 1259 2753 
L 3481 2753 
L 3481 2222 
L 1259 2222 
L 1259 531 
L 3634 531 
L 3634 0 
L 628 0 
L 628 4666 
z
" transform="scale(0.015625)"/>
      <path id="DejaVuSans-44" d="M 1259 4147 
L 1259 519 
L 2022 519 
Q 2988 519 3436 956 
Q 3884 1394 3884 2338 
Q 3884 3275 3436 3711 
Q 2988 4147 2022 4147 
L 1259 4147 
z
M 628 4666 
L 1925 4666 
Q 3281 4666 3915 4102 
Q 4550 3538 4550 2338 
Q 4550 1131 3912 565 
Q 3275 0 1925 0 
L 628 0 
L 628 4666 
z
" transform="scale(0.015625)"/>
      <path id="DejaVuSans-46" d="M 628 4666 
L 3309 4666 
L 3309 4134 
L 1259 4134 
L 1259 2759 
L 3109 2759 
L 3109 2228 
L 1259 2228 
L 1259 0 
L 628 0 
L 628 4666 
z
" transform="scale(0.015625)"/>
      <path id="DejaVuSans-66" d="M 2375 4863 
L 2375 4384 
L 1825 4384 
Q 1516 4384 1395 4259 
Q 1275 4134 1275 3809 
L 1275 3500 
L 2222 3500 
L 2222 3053 
L 1275 3053 
L 1275 0 
L 697 0 
L 697 3053 
L 147 3053 
L 147 3500 
L 697 3500 
L 697 3744 
Q 697 4328 969 4595 
Q 1241 4863 1831 4863 
L 2375 4863 
z
" transform="scale(0.015625)"/>
      <path id="DejaVuSans-6a" d="M 603 3500 
L 1178 3500 
L 1178 -63 
Q 1178 -731 923 -1031 
Q 669 -1331 103 -1331 
L -116 -1331 
L -116 -844 
L 38 -844 
Q 366 -844 484 -692 
Q 603 -541 603 -63 
L 603 3500 
z
M 603 4863 
L 1178 4863 
L 1178 4134 
L 603 4134 
L 603 4863 
z
" transform="scale(0.015625)"/>
      <path id="DejaVuSans-39" d="M 703 97 
L 703 672 
Q 941 559 1184 500 
Q 1428 441 1663 441 
Q 2288 441 2617 861 
Q 2947 1281 2994 2138 
Q 2813 1869 2534 1725 
Q 2256 1581 1919 1581 
Q 1219 1581 811 2004 
Q 403 2428 403 3163 
Q 403 3881 828 4315 
Q 1253 4750 1959 4750 
Q 2769 4750 3195 4129 
Q 3622 3509 3622 2328 
Q 3622 1225 3098 567 
Q 2575 -91 1691 -91 
Q 1453 -91 1209 -44 
Q 966 3 703 97 
z
M 1959 2075 
Q 2384 2075 2632 2365 
Q 2881 2656 2881 3163 
Q 2881 3666 2632 3958 
Q 2384 4250 1959 4250 
Q 1534 4250 1286 3958 
Q 1038 3666 1038 3163 
Q 1038 2656 1286 2365 
Q 1534 2075 1959 2075 
z
" transform="scale(0.015625)"/>
      <path id="DejaVuSans-35" d="M 691 4666 
L 3169 4666 
L 3169 4134 
L 1269 4134 
L 1269 2991 
Q 1406 3038 1543 3061 
Q 1681 3084 1819 3084 
Q 2600 3084 3056 2656 
Q 3513 2228 3513 1497 
Q 3513 744 3044 326 
Q 2575 -91 1722 -91 
Q 1428 -91 1123 -41 
Q 819 9 494 109 
L 494 744 
Q 775 591 1075 516 
Q 1375 441 1709 441 
Q 2250 441 2565 725 
Q 2881 1009 2881 1497 
Q 2881 1984 2565 2268 
Q 2250 2553 1709 2553 
Q 1456 2553 1204 2497 
Q 953 2441 691 2322 
L 691 4666 
z
" transform="scale(0.015625)"/>
      <path id="DejaVuSans-68" d="M 3513 2113 
L 3513 0 
L 2938 0 
L 2938 2094 
Q 2938 2591 2744 2837 
Q 2550 3084 2163 3084 
Q 1697 3084 1428 2787 
Q 1159 2491 1159 1978 
L 1159 0 
L 581 0 
L 581 4863 
L 1159 4863 
L 1159 2956 
Q 1366 3272 1645 3428 
Q 1925 3584 2291 3584 
Q 2894 3584 3203 3211 
Q 3513 2838 3513 2113 
z
" transform="scale(0.015625)"/>
     </defs>
     <use xlink:href="#DejaVuSans-45"/>
     <use xlink:href="#DejaVuSans-43" transform="translate(63.183594 0)"/>
     <use xlink:href="#DejaVuSans-44" transform="translate(133.007812 0)"/>
     <use xlink:href="#DejaVuSans-46" transform="translate(210.009766 0)"/>
     <use xlink:href="#DejaVuSans-20" transform="translate(267.529297 0)"/>
     <use xlink:href="#DejaVuSans-6f" transform="translate(299.316406 0)"/>
     <use xlink:href="#DejaVuSans-66" transform="translate(360.498047 0)"/>
     <use xlink:href="#DejaVuSans-20" transform="translate(395.703125 0)"/>
     <use xlink:href="#DejaVuSans-43" transform="translate(427.490234 0)"/>
     <use xlink:href="#DejaVuSans-79" transform="translate(497.314453 0)"/>
     <use xlink:href="#DejaVuSans-63" transform="translate(556.494141 0)"/>
     <use xlink:href="#DejaVuSans-6c" transform="translate(611.474609 0)"/>
     <use xlink:href="#DejaVuSans-65" transform="translate(639.257812 0)"/>
     <use xlink:href="#DejaVuSans-20" transform="translate(700.78125 0)"/>
     <use xlink:href="#DejaVuSans-54" transform="translate(732.568359 0)"/>
     <use xlink:href="#DejaVuSans-69" transform="translate(790.527344 0)"/>
     <use xlink:href="#DejaVuSans-6d" transform="translate(818.310547 0)"/>
     <use xlink:href="#DejaVuSans-65" transform="translate(915.722656 0)"/>
     <use xlink:href="#DejaVuSans-20" transform="translate(977.246094 0)"/>
     <use xlink:href="#DejaVuSans-66" transform="translate(1009.033203 0)"/>
     <use xlink:href="#DejaVuSans-6f" transform="translate(1044.238281 0)"/>
     <use xlink:href="#DejaVuSans-72" transform="translate(1105.419922 0)"/>
     <use xlink:href="#DejaVuSans-20" transform="translate(1146.533203 0)"/>
     <use xlink:href="#DejaVuSans-43" transform="translate(1178.320312 0)"/>
     <use xlink:href="#DejaVuSans-54" transform="translate(1248.144531 0)"/>
     <use xlink:href="#DejaVuSans-32" transform="translate(1309.228516 0)"/>
     <use xlink:href="#DejaVuSans-20" transform="translate(1372.851562 0)"/>
     <use xlink:href="#DejaVuSans-28" transform="translate(1404.638672 0)"/>
     <use xlink:href="#DejaVuSans-63" transform="translate(1443.652344 0)"/>
     <use xlink:href="#DejaVuSans-61" transform="translate(1498.632812 0)"/>
     <use xlink:href="#DejaVuSans-70" transform="translate(1559.912109 0)"/>
     <use xlink:href="#DejaVuSans-70" transform="translate(1623.388672 0)"/>
     <use xlink:href="#DejaVuSans-65" transform="translate(1686.865234 0)"/>
     <use xlink:href="#DejaVuSans-64" transform="translate(1748.388672 0)"/>
     <use xlink:href="#DejaVuSans-20" transform="translate(1811.865234 0)"/>
     <use xlink:href="#DejaVuSans-61" transform="translate(1843.652344 0)"/>
     <use xlink:href="#DejaVuSans-74" transform="translate(1904.931641 0)"/>
     <use xlink:href="#DejaVuSans-20" transform="translate(1944.140625 0)"/>
     <use xlink:href="#DejaVuSans-70" transform="translate(1975.927734 0)"/>
     <use xlink:href="#DejaVuSans-72" transform="translate(2039.404297 0)"/>
     <use xlink:href="#DejaVuSans-6f" transform="translate(2078.267578 0)"/>
     <use xlink:href="#DejaVuSans-6a" transform="translate(2139.449219 0)"/>
     <use xlink:href="#DejaVuSans-65" transform="translate(2167.232422 0)"/>
     <use xlink:href="#DejaVuSans-63" transform="translate(2228.755859 0)"/>
     <use xlink:href="#DejaVuSans-74" transform="translate(2283.736328 0)"/>
     <use xlink:href="#DejaVuSans-20" transform="translate(2322.945312 0)"/>
     <use xlink:href="#DejaVuSans-39" transform="translate(2354.732422 0)"/>
     <use xlink:href="#DejaVuSans-35" transform="translate(2418.355469 0)"/>
     <use xlink:href="#DejaVuSans-74" transform="translate(2481.978516 0)"/>
     <use xlink:href="#DejaVuSans-68" transform="translate(2521.1875 0)"/>
     <use xlink:href="#DejaVuSans-20" transform="translate(2584.566406 0)"/>
     <use xlink:href="#DejaVuSans-70" transform="translate(2616.353516 0)"/>
     <use xlink:href="#DejaVuSans-65" transform="translate(2679.830078 0)"/>
     <use xlink:href="#DejaVuSans-72" transform="translate(2741.353516 0)"/>
     <use xlink:href="#DejaVuSans-63" transform="translate(2780.216797 0)"/>
     <use xlink:href="#DejaVuSans-65" transform="translate(2835.197266 0)"/>
     <use xlink:href="#DejaVuSans-6e" transform="translate(2896.720703 0)"/>
     <use xlink:href="#DejaVuSans-74" transform="translate(2960.099609 0)"/>
     <use xlink:href="#DejaVuSans-69" transform="translate(2999.308594 0)"/>
     <use xlink:href="#DejaVuSans-6c" transform="translate(3027.091797 0)"/>
     <use xlink:href="#DejaVuSans-65" transform="translate(3054.875 0)"/>
     <use xlink:href="#DejaVuSans-29" transform="translate(3116.398438 0)"/>
    </g>
   </g>
   <g id="legend_1">
    <g id="patch_7">
     <path d="M 543.014375 308.478125 
L 626.26125 308.478125 
Q 628.26125 308.478125 628.26125 306.478125 
L 628.26125 263.44375 
Q 628.26125 261.44375 626.26125 261.44375 
L 543.014375 261.44375 
Q 541.014375 261.44375 541.014375 263.44375 
L 541.014375 306.478125 
Q 541.014375 308.478125 543.014375 308.478125 
z
" style="fill: #ffffff; opacity: 0.8; stroke: #cccccc; stroke-linejoin: miter"/>
    </g>
    <g id="text_17">
     <!-- Project -->
     <g transform="translate(567.533125 273.042188) scale(0.1 -0.1)">
      <defs>
       <path id="DejaVuSans-50" d="M 1259 4147 
L 1259 2394 
L 2053 2394 
Q 2494 2394 2734 2622 
Q 2975 2850 2975 3272 
Q 2975 3691 2734 3919 
Q 2494 4147 2053 4147 
L 1259 4147 
z
M 628 4666 
L 2053 4666 
Q 2838 4666 3239 4311 
Q 3641 3956 3641 3272 
Q 3641 2581 3239 2228 
Q 2838 1875 2053 1875 
L 1259 1875 
L 1259 0 
L 628 0 
L 628 4666 
z
" transform="scale(0.015625)"/>
      </defs>
      <use xlink:href="#DejaVuSans-50"/>
      <use xlink:href="#DejaVuSans-72" transform="translate(58.552734 0)"/>
      <use xlink:href="#DejaVuSans-6f" transform="translate(97.416016 0)"/>
      <use xlink:href="#DejaVuSans-6a" transform="translate(158.597656 0)"/>
      <use xlink:href="#DejaVuSans-65" transform="translate(186.380859 0)"/>
      <use xlink:href="#DejaVuSans-63" transform="translate(247.904297 0)"/>
      <use xlink:href="#DejaVuSans-74" transform="translate(302.884766 0)"/>
     </g>
    </g>
    <g id="line2d_16">
     <path d="M 545.014375 284.220313 
L 555.014375 284.220313 
L 565.014375 284.220313 
" style="fill: none; stroke: #1f77b4; stroke-width: 1.5; stroke-linecap: square"/>
    </g>
    <g id="text_18">
     <!-- SERVER -->
     <g transform="translate(573.014375 287.720313) scale(0.1 -0.1)">
      <defs>
       <path id="DejaVuSans-53" d="M 3425 4513 
L 3425 3897 
Q 3066 4069 2747 4153 
Q 2428 4238 2131 4238 
Q 1616 4238 1336 4038 
Q 1056 3838 1056 3469 
Q 1056 3159 1242 3001 
Q 1428 2844 1947 2747 
L 2328 2669 
Q 3034 2534 3370 2195 
Q 3706 1856 3706 1288 
Q 3706 609 3251 259 
Q 2797 -91 1919 -91 
Q 1588 -91 1214 -16 
Q 841 59 441 206 
L 441 856 
Q 825 641 1194 531 
Q 1563 422 1919 422 
Q 2459 422 2753 634 
Q 3047 847 3047 1241 
Q 3047 1584 2836 1778 
Q 2625 1972 2144 2069 
L 1759 2144 
Q 1053 2284 737 2584 
Q 422 2884 422 3419 
Q 422 4038 858 4394 
Q 1294 4750 2059 4750 
Q 2388 4750 2728 4690 
Q 3069 4631 3425 4513 
z
" transform="scale(0.015625)"/>
       <path id="DejaVuSans-52" d="M 2841 2188 
Q 3044 2119 3236 1894 
Q 3428 1669 3622 1275 
L 4263 0 
L 3584 0 
L 2988 1197 
Q 2756 1666 2539 1819 
Q 2322 1972 1947 1972 
L 1259 1972 
L 1259 0 
L 628 0 
L 628 4666 
L 2053 4666 
Q 2853 4666 3247 4331 
Q 3641 3997 3641 3322 
Q 3641 2881 3436 2590 
Q 3231 2300 2841 2188 
z
M 1259 4147 
L 1259 2491 
L 2053 2491 
Q 2509 2491 2742 2702 
Q 2975 2913 2975 3322 
Q 2975 3731 2742 3939 
Q 2509 4147 2053 4147 
L 1259 4147 
z
" transform="scale(0.015625)"/>
       <path id="DejaVuSans-56" d="M 1831 0 
L 50 4666 
L 709 4666 
L 2188 738 
L 3669 4666 
L 4325 4666 
L 2547 0 
L 1831 0 
z
" transform="scale(0.015625)"/>
      </defs>
      <use xlink:href="#DejaVuSans-53"/>
      <use xlink:href="#DejaVuSans-45" transform="translate(63.476562 0)"/>
      <use xlink:href="#DejaVuSans-52" transform="translate(126.660156 0)"/>
      <use xlink:href="#DejaVuSans-56" transform="translate(190.642578 0)"/>
      <use xlink:href="#DejaVuSans-45" transform="translate(259.050781 0)"/>
      <use xlink:href="#DejaVuSans-52" transform="translate(322.234375 0)"/>
     </g>
    </g>
    <g id="line2d_17">
     <path d="M 545.014375 298.898438 
L 555.014375 298.898438 
L 565.014375 298.898438 
" style="fill: none; stroke: #ff7f0e; stroke-width: 1.5; stroke-linecap: square"/>
    </g>
    <g id="text_19">
     <!-- JRACLOUD -->
     <g transform="translate(573.014375 302.398438) scale(0.1 -0.1)">
      <defs>
       <path id="DejaVuSans-4a" d="M 628 4666 
L 1259 4666 
L 1259 325 
Q 1259 -519 939 -900 
Q 619 -1281 -91 -1281 
L -331 -1281 
L -331 -750 
L -134 -750 
Q 284 -750 456 -515 
Q 628 -281 628 325 
L 628 4666 
z
" transform="scale(0.015625)"/>
       <path id="DejaVuSans-41" d="M 2188 4044 
L 1331 1722 
L 3047 1722 
L 2188 4044 
z
M 1831 4666 
L 2547 4666 
L 4325 0 
L 3669 0 
L 3244 1197 
L 1141 1197 
L 716 0 
L 50 0 
L 1831 4666 
z
" transform="scale(0.015625)"/>
       <path id="DejaVuSans-4c" d="M 628 4666 
L 1259 4666 
L 1259 531 
L 3531 531 
L 3531 0 
L 628 0 
L 628 4666 
z
" transform="scale(0.015625)"/>
       <path id="DejaVuSans-4f" d="M 2522 4238 
Q 1834 4238 1429 3725 
Q 1025 3213 1025 2328 
Q 1025 1447 1429 934 
Q 1834 422 2522 422 
Q 3209 422 3611 934 
Q 4013 1447 4013 2328 
Q 4013 3213 3611 3725 
Q 3209 4238 2522 4238 
z
M 2522 4750 
Q 3503 4750 4090 4092 
Q 4678 3434 4678 2328 
Q 4678 1225 4090 567 
Q 3503 -91 2522 -91 
Q 1538 -91 948 565 
Q 359 1222 359 2328 
Q 359 3434 948 4092 
Q 1538 4750 2522 4750 
z
" transform="scale(0.015625)"/>
       <path id="DejaVuSans-55" d="M 556 4666 
L 1191 4666 
L 1191 1831 
Q 1191 1081 1462 751 
Q 1734 422 2344 422 
Q 2950 422 3222 751 
Q 3494 1081 3494 1831 
L 3494 4666 
L 4128 4666 
L 4128 1753 
Q 4128 841 3676 375 
Q 3225 -91 2344 -91 
Q 1459 -91 1007 375 
Q 556 841 556 1753 
L 556 4666 
z
" transform="scale(0.015625)"/>
      </defs>
      <use xlink:href="#DejaVuSans-4a"/>
      <use xlink:href="#DejaVuSans-52" transform="translate(29.492188 0)"/>
      <use xlink:href="#DejaVuSans-41" transform="translate(94.974609 0)"/>
      <use xlink:href="#DejaVuSans-43" transform="translate(161.632812 0)"/>
      <use xlink:href="#DejaVuSans-4c" transform="translate(231.457031 0)"/>
      <use xlink:href="#DejaVuSans-4f" transform="translate(283.544922 0)"/>
      <use xlink:href="#DejaVuSans-55" transform="translate(362.255859 0)"/>
      <use xlink:href="#DejaVuSans-44" transform="translate(435.449219 0)"/>
     </g>
    </g>
   </g>
  </g>
 </g>
 <defs>
  <clipPath id="pe100b82f8b">
   <rect x="43.78125" y="22.318125" width="589.48" height="291.16"/>
  </clipPath>
 </defs>
</svg>
